<svg width="347" height="290" xmlns="http://www.w3.org/2000/svg" xmlns:xlink="http://www.w3.org/1999/xlink" xml:space="preserve" overflow="hidden"><g transform="translate(-1664 -268)"><path d="M1945.17 322C1948.94 322 1952 325.06 1952 328.834L1952 356.167C1952 359.941 1948.94 363 1945.17 363L1729.83 363C1726.06 363 1723 359.941 1723 356.167L1723 328.834C1723 325.06 1726.06 322 1729.83 322Z" stroke="#000000" stroke-width="5.72917" stroke-miterlimit="8" fill="#D9D9D9" fill-rule="evenodd"/><path d="M1757 297.108C1757 294.287 1759.29 292 1762.11 292L1927.89 292C1930.71 292 1933 294.287 1933 297.108L1933 398.892C1933 401.713 1930.71 404 1927.89 404L1762.11 404C1759.29 404 1757 401.713 1757 398.892Z" stroke="#000000" stroke-width="5.72917" stroke-miterlimit="8" fill="#7F7F7F" fill-rule="evenodd"/><path d="M1733 315.64C1733 313.077 1735.08 311 1737.64 311L1742.36 311C1744.92 311 1747 313.077 1747 315.64L1747 400.36C1747 402.923 1744.92 405 1742.36 405L1737.64 405C1735.08 405 1733 402.923 1733 400.36Z" stroke="#000000" stroke-width="5.72917" stroke-miterlimit="8" fill="#7F7F7F" fill-rule="evenodd"/><path d="M1738.02 271 1936.27 271C1947.05 271 1956.3 277.984 1960.25 287.939L1961.46 294.339 1976 398 1698 398 1712.33 294.339 1714.04 287.939C1717.99 277.984 1727.24 271 1738.02 271Z" stroke="#000000" stroke-width="5.72917" stroke-miterlimit="8" fill="none" fill-rule="evenodd"/><path d="M1727.47 287.29C1728.62 284.116 1731.63 282 1735 282" stroke="#000000" stroke-width="5.72917" stroke-linecap="round" stroke-linejoin="round" stroke-miterlimit="10" fill="none" fill-rule="evenodd"/><path d="M1693 394.667C1693 393.194 1694.19 392 1695.67 392L1979.33 392C1980.81 392 1982 393.194 1982 394.667L1982 405.333C1982 406.806 1980.81 408 1979.33 408L1695.67 408C1694.19 408 1693 406.806 1693 405.333Z" stroke="#000000" stroke-width="5.72917" stroke-miterlimit="8" fill="#D9D9D9" fill-rule="evenodd"/><path d="M286.015 0 284.213 0 197.805 0 131.542 0 129.74 0 56.7869 0 54.9854 0C45.2953 0 36.7518 7.76076 31.7071 19.5649L6.41045 74.3978C2.40576 82.0684 0 91.9024 0 102.625 0 127.132 12.5686 147 28.0727 147L56.7869 147 102.828 147 131.542 147 197.805 147 284.213 147 312.927 147C328.431 147 341 127.132 341 102.625 341 91.9024 338.594 82.0684 334.59 74.3978L309.293 19.5649C304.248 7.76076 295.705 0 286.015 0Z" stroke="#000000" stroke-width="5.72917" stroke-miterlimit="8" fill="#D9D9D9" fill-rule="evenodd" transform="matrix(-1 0 0 1 2008 408)"/><path d="M1674.5 483.5 2002.78 483.501" stroke="#000000" stroke-width="3.4375" stroke-linecap="round" stroke-miterlimit="8" fill="none" fill-rule="evenodd"/><path d="M1883 427.843C1883 426.273 1884.27 425 1885.84 425L1953.16 425C1954.73 425 1956 426.273 1956 427.843L1956 467.156C1956 468.727 1954.73 470 1953.16 470L1885.84 470C1884.27 470 1883 468.727 1883 467.156Z" stroke="#000000" stroke-width="5.72917" stroke-miterlimit="8" fill="#FFFFFF" fill-rule="evenodd"/><path d="M1899 440 1920.95 440" stroke="#000000" stroke-width="5.72917" stroke-linecap="round" stroke-linejoin="round" stroke-miterlimit="10" fill="none" fill-rule="evenodd"/><path d="M1899 455 1925.96 455" stroke="#000000" stroke-width="5.72917" stroke-linecap="round" stroke-linejoin="round" stroke-miterlimit="10" fill="none" fill-rule="evenodd"/><path d="M1716 434 1757.41 434.001" stroke="#000000" stroke-width="5.72917" stroke-linecap="round" stroke-linejoin="round" stroke-miterlimit="10" fill="none" fill-rule="evenodd"/><path d="M1716 448 1744.37 448" stroke="#000000" stroke-width="5.72917" stroke-linecap="round" stroke-linejoin="round" stroke-miterlimit="10" fill="none" fill-rule="evenodd"/><path d="M1716 461 1746.67 461" stroke="#000000" stroke-width="5.72917" stroke-linecap="round" stroke-linejoin="round" stroke-miterlimit="10" fill="none" fill-rule="evenodd"/><path d="M1741 510.833C1741 509.269 1742.27 508 1743.83 508L1794.17 508C1795.73 508 1797 509.269 1797 510.833L1797 522.167C1797 523.731 1795.73 525 1794.17 525L1743.83 525C1742.27 525 1741 523.731 1741 522.167Z" stroke="#000000" stroke-width="5.72917" stroke-miterlimit="8" fill="#CF3131" fill-rule="evenodd"/><path d="M1717 516.5C1717 512.358 1720.36 509 1724.5 509 1728.64 509 1732 512.358 1732 516.5 1732 520.642 1728.64 524 1724.5 524 1720.36 524 1717 520.642 1717 516.5Z" stroke="#000000" stroke-width="5.72917" stroke-miterlimit="8" fill="#CF3131" fill-rule="evenodd"/><path d="M1924 516.5C1924 509.596 1929.6 504 1936.5 504 1943.4 504 1949 509.596 1949 516.5 1949 523.404 1943.4 529 1936.5 529 1929.6 529 1924 523.404 1924 516.5Z" stroke="#000000" stroke-width="5.72917" stroke-miterlimit="8" fill="#CF3131" fill-rule="evenodd"/><path d="M1930 517C1930 513.686 1932.91 511 1936.5 511 1940.09 511 1943 513.686 1943 517 1943 520.314 1940.09 523 1936.5 523 1932.91 523 1930 520.314 1930 517Z" fill="#D9D9D9" fill-rule="evenodd"/></g></svg>