<svg width="122" height="102" xmlns="http://www.w3.org/2000/svg" xmlns:xlink="http://www.w3.org/1999/xlink" overflow="hidden"><g transform="translate(-640 -131)"><path d="M738.5 150C739.881 150 741 151.119 741 152.5L741 162.5C741 163.881 739.881 165 738.5 165L663.5 165C662.119 165 661 163.881 661 162.5L661 152.5C661 151.119 662.119 150 663.5 150Z" stroke="#000000" stroke-width="2" stroke-miterlimit="8" fill="#D9D9D9" fill-rule="evenodd"/><path d="M673 141.779C673 140.796 673.796 140 674.779 140L733.221 140C734.204 140 735 140.796 735 141.779L735 177.221C735 178.204 734.204 179 733.221 179L674.779 179C673.796 179 673 178.204 673 177.221Z" stroke="#000000" stroke-width="2" stroke-miterlimit="8" fill="#7F7F7F" fill-rule="evenodd"/><path d="M665 148.657C665 147.742 665.742 147 666.657 147L668.343 147C669.258 147 670 147.742 670 148.657L670 177.343C670 178.258 669.258 179 668.343 179L666.657 179C665.742 179 665 178.258 665 177.343Z" stroke="#000000" stroke-width="2" stroke-miterlimit="8" fill="#7F7F7F" fill-rule="evenodd"/><path d="M666.964 133 736.137 133C739.899 133 743.126 135.42 744.505 138.869L744.928 141.086 750 177 653 177 658.001 141.086 658.596 138.869C659.975 135.42 663.203 133 666.964 133Z" stroke="#000000" stroke-width="2" stroke-miterlimit="8" fill="none" fill-rule="evenodd"/><path d="M663.148 138.653C663.505 137.661 664.446 137 665.5 137" stroke="#000000" stroke-width="2" stroke-linecap="round" stroke-linejoin="round" stroke-miterlimit="10" fill="none" fill-rule="evenodd"/><path d="M651 176C651 175.448 651.448 175 652 175L751 175C751.552 175 752 175.448 752 176L752 180C752 180.552 751.552 181 751 181L652 181C651.448 181 651 180.552 651 180Z" stroke="#000000" stroke-width="2" stroke-miterlimit="8" fill="#D9D9D9" fill-rule="evenodd"/><path d="M99.8115 0 99.1829 0 69.0288 0 45.9046 0 45.2759 0 19.8171 0 19.1885 0C15.8069 0 12.8254 2.69251 11.0649 6.7878L2.23708 25.8114C0.839548 28.4727 0 31.8845 0 35.6045 0 44.1072 4.38611 51 9.79663 51L19.8171 51 35.8841 51 45.9046 51 69.0288 51 99.1829 51 109.203 51C114.614 51 119 44.1072 119 35.6045 119 31.8845 118.16 28.4727 116.763 25.8114L107.935 6.7878C106.175 2.69251 103.193 0 99.8115 0Z" stroke="#000000" stroke-width="2" stroke-miterlimit="8" fill="#D9D9D9" fill-rule="evenodd" transform="matrix(-1 0 0 1 761 181)"/><path d="M644.5 207.5 758.944 207.5" stroke="#000000" stroke-width="0.666667" stroke-linecap="round" stroke-miterlimit="8" fill="none" fill-rule="evenodd"/><path d="M717 187.011C717 186.453 717.453 186 718.011 186L741.989 186C742.547 186 743 186.453 743 187.011L743 200.989C743 201.547 742.547 202 741.989 202L718.011 202C717.453 202 717 201.547 717 200.989Z" stroke="#000000" stroke-width="2" stroke-miterlimit="8" fill="#FFFFFF" fill-rule="evenodd"/><path d="M723 192 730.652 192" stroke="#000000" stroke-width="2" stroke-linecap="round" stroke-linejoin="round" stroke-miterlimit="10" fill="none" fill-rule="evenodd"/><path d="M723 197 732.398 197" stroke="#000000" stroke-width="2" stroke-linecap="round" stroke-linejoin="round" stroke-miterlimit="10" fill="none" fill-rule="evenodd"/><path d="M659 190 673.436 190" stroke="#000000" stroke-width="2" stroke-linecap="round" stroke-linejoin="round" stroke-miterlimit="10" fill="none" fill-rule="evenodd"/><path d="M659 194 668.891 194" stroke="#000000" stroke-width="2" stroke-linecap="round" stroke-linejoin="round" stroke-miterlimit="10" fill="none" fill-rule="evenodd"/><path d="M659 199 669.693 199" stroke="#000000" stroke-width="2" stroke-linecap="round" stroke-linejoin="round" stroke-miterlimit="10" fill="none" fill-rule="evenodd"/><path d="M668 216.833C668 216.373 668.373 216 668.833 216L686.167 216C686.627 216 687 216.373 687 216.833L687 220.167C687 220.627 686.627 221 686.167 221L668.833 221C668.373 221 668 220.627 668 220.167Z" stroke="#000000" stroke-width="2" stroke-miterlimit="8" fill="#CF3131" fill-rule="evenodd"/><path d="M659 218.5C659 217.119 660.119 216 661.5 216 662.881 216 664 217.119 664 218.5 664 219.881 662.881 221 661.5 221 660.119 221 659 219.881 659 218.5Z" stroke="#000000" stroke-width="2" stroke-miterlimit="8" fill="#CF3131" fill-rule="evenodd"/><path d="M731 218.5C731 216.015 733.015 214 735.5 214 737.985 214 740 216.015 740 218.5 740 220.985 737.985 223 735.5 223 733.015 223 731 220.985 731 218.5Z" stroke="#000000" stroke-width="2" stroke-miterlimit="8" fill="#CF3131" fill-rule="evenodd"/><path d="M734 218.5C734 217.119 734.895 216 736 216 737.105 216 738 217.119 738 218.5 738 219.881 737.105 221 736 221 734.895 221 734 219.881 734 218.5Z" fill="#D9D9D9" fill-rule="evenodd"/></g></svg>