<svg width="390" height="250" xmlns="http://www.w3.org/2000/svg" xmlns:xlink="http://www.w3.org/1999/xlink" xml:space="preserve" overflow="hidden"><g transform="translate(-1505 -676)"><path d="M1508 856.833C1508 854.716 1509.72 853 1511.83 853L1549.17 853C1551.28 853 1553 854.716 1553 856.833L1553 872.166C1553 874.284 1551.28 876 1549.17 876L1511.83 876C1509.72 876 1508 874.284 1508 872.166Z" stroke="#000000" stroke-width="5.72917" stroke-linejoin="round" stroke-miterlimit="10" fill="#7F7F7F" fill-rule="evenodd"/><path d="M1761 688C1761 685.791 1762.79 684 1765 684L1781 684C1783.21 684 1785 685.791 1785 688L1785 723C1785 725.209 1783.21 727 1781 727L1765 727C1762.79 727 1761 725.209 1761 723Z" stroke="#000000" stroke-width="5.72917" stroke-linejoin="round" stroke-miterlimit="10" fill="#D9D9D9" fill-rule="evenodd"/><path d="M1672 710C1672 707.791 1673.79 706 1676 706L1813 706C1815.21 706 1817 707.791 1817 710L1817 726C1817 728.209 1815.21 730 1813 730L1676 730C1673.79 730 1672 728.209 1672 726Z" stroke="#000000" stroke-width="5.72917" stroke-linejoin="round" stroke-miterlimit="10" fill="#D9D9D9" fill-rule="evenodd"/><path d="M1853 681.333C1853 680.045 1854.04 679 1855.33 679L1864.67 679C1865.96 679 1867 680.045 1867 681.333L1867 723.667C1867 724.955 1865.96 726 1864.67 726L1855.33 726C1854.04 726 1853 724.955 1853 723.667Z" stroke="#000000" stroke-width="5.72917" stroke-linejoin="round" stroke-miterlimit="10" fill="#D9D9D9" fill-rule="evenodd"/><path d="M1560 681.333C1560 680.045 1561.04 679 1562.33 679L1571.67 679C1572.95 679 1574 680.045 1574 681.333L1574 723.667C1574 724.955 1572.95 726 1571.67 726L1562.33 726C1561.04 726 1560 724.955 1560 723.667Z" stroke="#000000" stroke-width="5.72917" stroke-linejoin="round" stroke-miterlimit="10" fill="#D9D9D9" fill-rule="evenodd"/><path d="M1565.67 887C1568.06 887 1570 888.938 1570 891.33L1570 918.67C1570 921.061 1568.06 923 1565.67 923L1555.33 923C1552.94 923 1551 921.061 1551 918.67L1551 891.33C1551 888.938 1552.94 887 1555.33 887Z" stroke="#000000" stroke-width="5.72917" stroke-miterlimit="8" fill="#7F7F7F" fill-rule="evenodd"/><path d="M1864.9 887C1867.16 887 1869 888.836 1869 891.102L1869 918.898C1869 921.163 1867.16 923 1864.9 923L1855.1 923C1852.84 923 1851 921.163 1851 918.898L1851 891.102C1851 888.836 1852.84 887 1855.1 887Z" stroke="#000000" stroke-width="5.72917" stroke-miterlimit="8" fill="#7F7F7F" fill-rule="evenodd"/><path d="M1528 723.072C1528 719.166 1531.17 716 1535.07 716L1884.93 716C1888.83 716 1892 719.166 1892 723.072L1892 904.928C1892 908.834 1888.83 912 1884.93 912L1535.07 912C1531.17 912 1528 908.834 1528 904.928Z" stroke="#000000" stroke-width="5.72917" stroke-linecap="round" stroke-linejoin="round" stroke-miterlimit="10" fill="#F6B803" fill-rule="evenodd"/><path d="M1791 769 1862.97 769" stroke="#000000" stroke-width="5.72917" stroke-linecap="round" stroke-linejoin="round" stroke-miterlimit="10" fill="none" fill-rule="evenodd"/><path d="M1837 756 1863.67 756" stroke="#000000" stroke-width="5.72917" stroke-linecap="round" stroke-linejoin="round" stroke-miterlimit="10" fill="none" fill-rule="evenodd"/><path d="M1822 783 1863.24 783" stroke="#000000" stroke-width="5.72917" stroke-linecap="round" stroke-linejoin="round" stroke-miterlimit="10" fill="none" fill-rule="evenodd"/><path d="M1530 868 1892.07 868" stroke="#000000" stroke-width="2.29167" stroke-miterlimit="8" fill="none" fill-rule="evenodd"/></g></svg>