<svg width="383" height="257" xmlns="http://www.w3.org/2000/svg" xmlns:xlink="http://www.w3.org/1999/xlink" xml:space="preserve" overflow="hidden"><g transform="translate(-451 -1656)"><path d="M495.898 1875C498.164 1875 500 1876.84 500 1879.1L500 1905.9C500 1908.16 498.164 1910 495.898 1910L486.102 1910C483.836 1910 482 1908.16 482 1905.9L482 1879.1C482 1876.84 483.836 1875 486.102 1875Z" stroke="#000000" stroke-width="5.72917" stroke-miterlimit="8" fill="#7F7F7F" fill-rule="evenodd"/><path d="M799.67 1875C802.062 1875 804 1876.94 804 1879.33L804 1905.67C804 1908.06 802.062 1910 799.67 1910L789.33 1910C786.939 1910 785 1908.06 785 1905.67L785 1879.33C785 1876.94 786.939 1875 789.33 1875Z" stroke="#000000" stroke-width="5.72917" stroke-miterlimit="8" fill="#7F7F7F" fill-rule="evenodd"/><path d="M454 1674.92C454 1666.13 461.127 1659 469.917 1659L815.082 1659C823.873 1659 831 1666.13 831 1674.92L831 1882.08C831 1890.87 823.873 1898 815.082 1898L469.917 1898C461.127 1898 454 1890.87 454 1882.08Z" stroke="#000000" stroke-width="5.72917" stroke-linejoin="round" stroke-miterlimit="10" fill="#404040" fill-rule="evenodd"/><path d="M565 1715.77C565 1711.48 568.479 1708 572.77 1708L712.23 1708C716.522 1708 720 1711.48 720 1715.77L720 1816.23C720 1820.52 716.522 1824 712.23 1824L572.77 1824C568.479 1824 565 1820.52 565 1816.23Z" stroke="#000000" stroke-width="5.72917" stroke-linejoin="round" stroke-miterlimit="10" fill="#F2F2F2" fill-rule="evenodd"/><path d="M756 1765.5C756 1754.73 764.73 1746 775.5 1746 786.27 1746 795 1754.73 795 1765.5 795 1776.27 786.27 1785 775.5 1785 764.73 1785 756 1776.27 756 1765.5Z" stroke="#000000" stroke-width="5.72917" stroke-linejoin="round" stroke-miterlimit="10" fill="#D9D9D9" fill-rule="evenodd"/><path d="M588 1732 649.464 1732" stroke="#000000" stroke-width="5.72917" stroke-linecap="round" stroke-linejoin="round" stroke-miterlimit="10" fill="none" fill-rule="evenodd"/><path d="M588 1754 634.585 1754" stroke="#000000" stroke-width="5.72917" stroke-linecap="round" stroke-linejoin="round" stroke-miterlimit="10" fill="none" fill-rule="evenodd"/><path d="M588 1777 634.585 1777" stroke="#000000" stroke-width="5.72917" stroke-linecap="round" stroke-linejoin="round" stroke-miterlimit="10" fill="none" fill-rule="evenodd"/><path d="M588 1799 634.585 1799" stroke="#000000" stroke-width="5.72917" stroke-linecap="round" stroke-linejoin="round" stroke-miterlimit="10" fill="none" fill-rule="evenodd"/><path d="M616 1678.5C616 1676.57 617.567 1675 619.5 1675L665.5 1675C667.433 1675 669 1676.57 669 1678.5L669 1692.5C669 1694.43 667.433 1696 665.5 1696L619.5 1696C617.567 1696 616 1694.43 616 1692.5Z" stroke="#000000" stroke-width="5.72917" stroke-linejoin="round" stroke-miterlimit="10" fill="#D9D9D9" fill-rule="evenodd"/><path d="M479.5 1860.5 805.094 1860.5" stroke="#000000" stroke-width="3.4375" stroke-miterlimit="8" fill="none" fill-rule="evenodd"/><path d="M830.532 1850.37C823.818 1856.87 814.842 1860.5 805.5 1860.5" stroke="#000000" stroke-width="3.4375" stroke-miterlimit="8" fill="none" fill-rule="evenodd"/><path d="M62.0441 11.3013C68.4345 18.0908 71.9999 27.1152 71.9999 36.5001" stroke="#000000" stroke-width="3.4375" stroke-miterlimit="8" fill="none" fill-rule="evenodd" transform="matrix(1.83697e-16 1 1 -1.83697e-16 443.5 1788.5)"/></g></svg>