<svg width="408" height="222" xmlns="http://www.w3.org/2000/svg" xmlns:xlink="http://www.w3.org/1999/xlink" xml:space="preserve" overflow="hidden"><g transform="translate(-2443 -1038)"><path d="M2479.67 1221C2482.06 1221 2484 1222.94 2484 1225.33L2484 1252.67C2484 1255.06 2482.06 1257 2479.67 1257L2469.33 1257C2466.94 1257 2465 1255.06 2465 1252.67L2465 1225.33C2465 1222.94 2466.94 1221 2469.33 1221Z" stroke="#000000" stroke-width="5.72917" stroke-miterlimit="8" fill="#7F7F7F" fill-rule="evenodd"/><path d="M2824.9 1221C2827.16 1221 2829 1222.84 2829 1225.1L2829 1252.9C2829 1255.16 2827.16 1257 2824.9 1257L2815.1 1257C2812.84 1257 2811 1255.16 2811 1252.9L2811 1225.1C2811 1222.84 2812.84 1221 2815.1 1221Z" stroke="#000000" stroke-width="5.72917" stroke-miterlimit="8" fill="#7F7F7F" fill-rule="evenodd"/><path d="M2446 1048.4C2446 1044.31 2449.31 1041 2453.4 1041L2840.6 1041C2844.69 1041 2848 1044.31 2848 1048.4L2848 1238.6C2848 1242.69 2844.69 1246 2840.6 1246L2453.4 1246C2449.31 1246 2446 1242.69 2446 1238.6Z" stroke="#000000" stroke-width="5.72917" stroke-linecap="round" stroke-linejoin="round" stroke-miterlimit="10" fill="#D9D9D9" fill-rule="evenodd"/><path d="M2746 1154.59C2746 1153.16 2747.16 1152 2748.59 1152L2808.41 1152C2809.84 1152 2811 1153.16 2811 1154.59L2811 1190.41C2811 1191.84 2809.84 1193 2808.41 1193L2748.59 1193C2747.16 1193 2746 1191.84 2746 1190.41Z" stroke="#000000" stroke-width="5.72917" stroke-miterlimit="8" fill="#00B0F0" fill-rule="evenodd"/><path d="M2760 1166 2779.5 1166" stroke="#000000" stroke-width="5.72917" stroke-linecap="round" stroke-linejoin="round" stroke-miterlimit="10" fill="none" fill-rule="evenodd"/><path d="M2760 1179 2783.95 1179" stroke="#000000" stroke-width="5.72917" stroke-linecap="round" stroke-linejoin="round" stroke-miterlimit="10" fill="none" fill-rule="evenodd"/><path d="M2786 1135C2786 1131.13 2789.13 1128 2793 1128 2796.87 1128 2800 1131.13 2800 1135 2800 1138.87 2796.87 1142 2793 1142 2789.13 1142 2786 1138.87 2786 1135Z" stroke="#000000" stroke-width="5.72917" stroke-linecap="round" stroke-linejoin="round" stroke-miterlimit="10" fill="#D024F7" fill-rule="evenodd"/><path d="M2488 1195C2488 1182.3 2498.3 1172 2511 1172 2523.7 1172 2534 1182.3 2534 1195 2534 1207.7 2523.7 1218 2511 1218 2498.3 1218 2488 1207.7 2488 1195Z" stroke="#000000" stroke-width="5.72917" stroke-miterlimit="8" fill="#0070DA" fill-rule="evenodd"/><path d="M2751 1208 2806.89 1208" stroke="#000000" stroke-width="5.72917" stroke-linecap="round" stroke-linejoin="round" stroke-miterlimit="10" fill="none" fill-rule="evenodd"/><path d="M2751 1222 2806.89 1222" stroke="#000000" stroke-width="5.72917" stroke-linecap="round" stroke-linejoin="round" stroke-miterlimit="10" fill="none" fill-rule="evenodd"/><path d="M2606 1130 2677.97 1130" stroke="#000000" stroke-width="5.72917" stroke-linecap="round" stroke-linejoin="round" stroke-miterlimit="10" fill="none" fill-rule="evenodd"/><path d="M2489 1230 2533.3 1230" stroke="#000000" stroke-width="5.72917" stroke-linecap="round" stroke-linejoin="round" stroke-miterlimit="10" fill="none" fill-rule="evenodd"/></g></svg>