<svg width="144" height="79" xmlns="http://www.w3.org/2000/svg" xmlns:xlink="http://www.w3.org/1999/xlink" overflow="hidden"><g transform="translate(-646 -413)"><path d="M659.405 478C660.286 478 661 478.714 661 479.595L661 488.405C661 489.286 660.286 490 659.405 490L655.595 490C654.714 490 654 489.286 654 488.405L654 479.595C654 478.714 654.714 478 655.595 478Z" stroke="#000000" stroke-width="2" stroke-miterlimit="8" fill="#7F7F7F" fill-rule="evenodd"/><path d="M779.633 478C780.388 478 781 478.612 781 479.367L781 488.633C781 489.388 780.388 490 779.633 490L776.367 490C775.612 490 775 489.388 775 488.633L775 479.367C775 478.612 775.612 478 776.367 478Z" stroke="#000000" stroke-width="2" stroke-miterlimit="8" fill="#7F7F7F" fill-rule="evenodd"/><path d="M648 417.562C648 416.147 649.147 415 650.562 415L785.438 415C786.853 415 788 416.147 788 417.562L788 483.438C788 484.853 786.853 486 785.438 486L650.562 486C649.147 486 648 484.853 648 483.438Z" stroke="#000000" stroke-width="2" stroke-linecap="round" stroke-linejoin="round" stroke-miterlimit="10" fill="#D9D9D9" fill-rule="evenodd"/><path d="M752 454.885C752 454.396 752.396 454 752.885 454L774.115 454C774.604 454 775 454.396 775 454.885L775 467.115C775 467.604 774.604 468 774.115 468L752.885 468C752.396 468 752 467.604 752 467.115Z" stroke="#000000" stroke-width="2" stroke-miterlimit="8" fill="#00B0F0" fill-rule="evenodd"/><path d="M757 458 763.799 458" stroke="#000000" stroke-width="2" stroke-linecap="round" stroke-linejoin="round" stroke-miterlimit="10" fill="none" fill-rule="evenodd"/><path d="M757 463 765.35 463" stroke="#000000" stroke-width="2" stroke-linecap="round" stroke-linejoin="round" stroke-miterlimit="10" fill="none" fill-rule="evenodd"/><path d="M766 447.5C766 446.119 767.119 445 768.5 445 769.881 445 771 446.119 771 447.5 771 448.881 769.881 450 768.5 450 767.119 450 766 448.881 766 447.5Z" stroke="#000000" stroke-width="2" stroke-linecap="round" stroke-linejoin="round" stroke-miterlimit="10" fill="#D024F7" fill-rule="evenodd"/><path d="M662 469C662 464.582 665.582 461 670 461 674.418 461 678 464.582 678 469 678 473.418 674.418 477 670 477 665.582 477 662 473.418 662 469Z" stroke="#000000" stroke-width="2" stroke-miterlimit="8" fill="#0244AC" fill-rule="evenodd"/><path d="M754 473 773.484 473" stroke="#000000" stroke-width="2" stroke-linecap="round" stroke-linejoin="round" stroke-miterlimit="10" fill="none" fill-rule="evenodd"/><path d="M754 478 773.484 478" stroke="#000000" stroke-width="2" stroke-linecap="round" stroke-linejoin="round" stroke-miterlimit="10" fill="none" fill-rule="evenodd"/><path d="M703 446 728.089 446" stroke="#000000" stroke-width="2" stroke-linecap="round" stroke-linejoin="round" stroke-miterlimit="10" fill="none" fill-rule="evenodd"/><path d="M663 481 678.445 481" stroke="#000000" stroke-width="2" stroke-linecap="round" stroke-linejoin="round" stroke-miterlimit="10" fill="none" fill-rule="evenodd"/></g></svg>