<svg width="409" height="222" xmlns="http://www.w3.org/2000/svg" xmlns:xlink="http://www.w3.org/1999/xlink" xml:space="preserve" overflow="hidden"><g transform="translate(-2110 -1038)"><path d="M2146.9 1221C2149.16 1221 2151 1222.84 2151 1225.1L2151 1252.9C2151 1255.16 2149.16 1257 2146.9 1257L2137.1 1257C2134.84 1257 2133 1255.16 2133 1252.9L2133 1225.1C2133 1222.84 2134.84 1221 2137.1 1221Z" stroke="#000000" stroke-width="5.72917" stroke-miterlimit="8" fill="#7F7F7F" fill-rule="evenodd"/><path d="M2491.9 1221C2494.16 1221 2496 1222.84 2496 1225.1L2496 1252.9C2496 1255.16 2494.16 1257 2491.9 1257L2482.1 1257C2479.84 1257 2478 1255.16 2478 1252.9L2478 1225.1C2478 1222.84 2479.84 1221 2482.1 1221Z" stroke="#000000" stroke-width="5.72917" stroke-miterlimit="8" fill="#7F7F7F" fill-rule="evenodd"/><path d="M2113 1048.4C2113 1044.31 2116.31 1041 2120.4 1041L2508.6 1041C2512.69 1041 2516 1044.31 2516 1048.4L2516 1238.6C2516 1242.69 2512.69 1246 2508.6 1246L2120.4 1246C2116.31 1246 2113 1242.69 2113 1238.6Z" stroke="#000000" stroke-width="5.72917" stroke-linecap="round" stroke-linejoin="round" stroke-miterlimit="10" fill="#D9D9D9" fill-rule="evenodd"/><path d="M2413 1154.59C2413 1153.16 2414.16 1152 2415.59 1152L2475.41 1152C2476.84 1152 2478 1153.16 2478 1154.59L2478 1190.41C2478 1191.84 2476.84 1193 2475.41 1193L2415.59 1193C2414.16 1193 2413 1191.84 2413 1190.41Z" stroke="#000000" stroke-width="5.72917" stroke-miterlimit="8" fill="#00B0F0" fill-rule="evenodd"/><path d="M2427 1166 2446.5 1166" stroke="#000000" stroke-width="5.72917" stroke-linecap="round" stroke-linejoin="round" stroke-miterlimit="10" fill="none" fill-rule="evenodd"/><path d="M2427 1179 2450.95 1179" stroke="#000000" stroke-width="5.72917" stroke-linecap="round" stroke-linejoin="round" stroke-miterlimit="10" fill="none" fill-rule="evenodd"/><path d="M2453 1135C2453 1131.13 2456.13 1128 2460 1128 2463.87 1128 2467 1131.13 2467 1135 2467 1138.87 2463.87 1142 2460 1142 2456.13 1142 2453 1138.87 2453 1135Z" stroke="#000000" stroke-width="5.72917" stroke-linecap="round" stroke-linejoin="round" stroke-miterlimit="10" fill="#D024F7" fill-rule="evenodd"/><path d="M2155 1195C2155 1182.3 2165.3 1172 2178 1172 2190.7 1172 2201 1182.3 2201 1195 2201 1207.7 2190.7 1218 2178 1218 2165.3 1218 2155 1207.7 2155 1195Z" stroke="#000000" stroke-width="5.72917" stroke-miterlimit="8" fill="#0244AC" fill-rule="evenodd"/><path d="M2418 1208 2473.89 1208" stroke="#000000" stroke-width="5.72917" stroke-linecap="round" stroke-linejoin="round" stroke-miterlimit="10" fill="none" fill-rule="evenodd"/><path d="M2418 1222 2473.89 1222" stroke="#000000" stroke-width="5.72917" stroke-linecap="round" stroke-linejoin="round" stroke-miterlimit="10" fill="none" fill-rule="evenodd"/><path d="M2273 1130 2344.97 1130" stroke="#000000" stroke-width="5.72917" stroke-linecap="round" stroke-linejoin="round" stroke-miterlimit="10" fill="none" fill-rule="evenodd"/><path d="M2156 1230 2200.3 1230" stroke="#000000" stroke-width="5.72917" stroke-linecap="round" stroke-linejoin="round" stroke-miterlimit="10" fill="none" fill-rule="evenodd"/></g></svg>