<svg width="239" height="257" xmlns="http://www.w3.org/2000/svg" xmlns:xlink="http://www.w3.org/1999/xlink" xml:space="preserve" overflow="hidden"><g transform="translate(-3038 -1716)"><path d="M3041 1730.35C3041 1724.08 3046.08 1719 3052.35 1719L3262.65 1719C3268.92 1719 3274 1724.08 3274 1730.35L3274 1958.65C3274 1964.92 3268.92 1970 3262.65 1970L3052.35 1970C3046.08 1970 3041 1964.92 3041 1958.65Z" stroke="#000000" stroke-width="5.72917" stroke-miterlimit="8" fill="#D9D9D9" fill-rule="evenodd"/><path d="M104.595 0 16.4055 0C7.34494 0 0 7.3193 0 16.3482L0 92.1257C0 101.155 7.34494 108.474 16.4055 108.474L27.6733 108.474 27.6733 121.977C27.6733 125.856 30.8286 129 34.7207 129L86.2793 129C90.1714 129 93.3267 125.856 93.3267 121.977L93.3267 108.474 104.595 108.474C113.655 108.474 121 101.155 121 92.1257L121 16.3482C121 7.3193 113.655 0 104.595 0Z" stroke="#000000" stroke-width="5.72917" stroke-linecap="round" stroke-linejoin="round" stroke-miterlimit="10" fill="#BFBFBF" fill-rule="evenodd" transform="matrix(-1 0 0 1 3218 1739)"/><path d="M0 7.19164C-1.44819e-15 3.21981 3.2198-1.44819e-15 7.19164-2.89638e-15L83.8085 0C87.7803-1.44819e-15 91.0001 3.21981 91.0001 7.19164L91.0001 70.8087C91.0001 74.7806 87.7803 78.0004 83.8085 78.0004L7.19164 78.0004C3.2198 78.0004 0 74.7806 0 70.8087Z" stroke="#000000" stroke-width="5.72917" stroke-miterlimit="8" fill="#FFFFFF" fill-rule="evenodd" transform="matrix(-1 0 0 1 3203 1754)"/><path d="M3150 1850C3150 1845.58 3153.58 1842 3158 1842 3162.42 1842 3166 1845.58 3166 1850 3166 1854.42 3162.42 1858 3158 1858 3153.58 1858 3150 1854.42 3150 1850Z" stroke="#000000" stroke-width="5.72917" stroke-miterlimit="8" fill="#595959" fill-rule="evenodd"/><path d="M3131 1777 3184.22 1777" stroke="#000000" stroke-width="5.72917" stroke-linecap="round" stroke-miterlimit="8" fill="none" fill-rule="evenodd"/><path d="M3131 1799 3167.56 1799" stroke="#000000" stroke-width="5.72917" stroke-linecap="round" stroke-miterlimit="8" fill="none" fill-rule="evenodd"/><path d="M3097 1885 3155.11 1885" stroke="#000000" stroke-width="5.72917" stroke-linecap="round" stroke-linejoin="round" stroke-miterlimit="10" fill="none" fill-rule="evenodd"/><path d="M3130.5 1914 3184.5 1914C3191.96 1914 3198 1920.1 3198 1927.62L3198 1970 3117 1970 3117 1927.62C3117 1920.1 3123.04 1914 3130.5 1914Z" stroke="#000000" stroke-width="5.72917" stroke-miterlimit="8" fill="#E4E4E4" fill-rule="evenodd"/><path d="M3149 1942C3149 1937.58 3152.81 1934 3157.5 1934 3162.19 1934 3166 1937.58 3166 1942 3166 1946.42 3162.19 1950 3157.5 1950 3152.81 1950 3149 1946.42 3149 1942Z" stroke="#000000" stroke-width="5.72917" stroke-miterlimit="8" fill="#BFBFBF" fill-rule="evenodd"/></g></svg>