<svg width="85" height="91" xmlns="http://www.w3.org/2000/svg" xmlns:xlink="http://www.w3.org/1999/xlink" overflow="hidden"><g transform="translate(-634 -399)"><path d="M636 404.945C636 402.766 637.766 401 639.945 401L713.055 401C715.234 401 717 402.766 717 404.945L717 484.055C717 486.234 715.234 488 713.055 488L639.945 488C637.766 488 636 486.234 636 484.055Z" stroke="#000000" stroke-width="2" stroke-miterlimit="8" fill="#D9D9D9" fill-rule="evenodd"/><path d="M36.3055 0 5.69446 0C2.54948 0 0 2.55325 0 5.70287L0 32.1369C0 35.2865 2.54948 37.8398 5.69446 37.8398L9.60561 37.8398 9.60561 42.5502C9.60561 43.9031 10.7008 45 12.0518 45L29.9482 45C31.2991 45 32.3944 43.9031 32.3944 42.5502L32.3944 37.8398 36.3055 37.8398C39.4505 37.8398 42 35.2865 42 32.1369L42 5.70287C42 2.55325 39.4505 0 36.3055 0Z" stroke="#000000" stroke-width="2" stroke-linecap="round" stroke-linejoin="round" stroke-miterlimit="10" fill="#BFBFBF" fill-rule="evenodd" transform="matrix(-1 0 0 1 697 408)"/><path d="M0 2.48941C-5.09253e-16 1.11455 1.11455 0 2.48941 0L29.5106 0C30.8855 -5.09253e-16 32 1.11455 32 2.48941L32 24.5106C32 25.8855 30.8855 27 29.5106 27L2.48941 27C1.11455 27 0 25.8855 0 24.5106Z" stroke="#000000" stroke-width="2" stroke-miterlimit="8" fill="#FFFFFF" fill-rule="evenodd" transform="matrix(-1 0 0 1 692 413)"/><path d="M673 446.5C673 445.119 674.343 444 676 444 677.657 444 679 445.119 679 446.5 679 447.881 677.657 449 676 449 674.343 449 673 447.881 673 446.5Z" stroke="#000000" stroke-width="2" stroke-miterlimit="8" fill="#595959" fill-rule="evenodd"/><path d="M667 421 685.554 421" stroke="#000000" stroke-width="2" stroke-linecap="round" stroke-miterlimit="8" fill="none" fill-rule="evenodd"/><path d="M667 429 679.744 429" stroke="#000000" stroke-width="2" stroke-linecap="round" stroke-miterlimit="8" fill="none" fill-rule="evenodd"/><path d="M655 459 675.257 459" stroke="#000000" stroke-width="2" stroke-linecap="round" stroke-linejoin="round" stroke-miterlimit="10" fill="none" fill-rule="evenodd"/><path d="M666.667 469 685.333 469C687.911 469 690 471.069 690 473.621L690 488 662 488 662 473.621C662 471.069 664.089 469 666.667 469Z" stroke="#000000" stroke-width="2" stroke-miterlimit="8" fill="#E4E4E4" fill-rule="evenodd"/><path d="M673 478.5C673 477.119 674.343 476 676 476 677.657 476 679 477.119 679 478.5 679 479.881 677.657 481 676 481 674.343 481 673 479.881 673 478.5Z" stroke="#000000" stroke-width="2" stroke-miterlimit="8" fill="#BFBFBF" fill-rule="evenodd"/></g></svg>