<svg width="195" height="257" xmlns="http://www.w3.org/2000/svg" xmlns:xlink="http://www.w3.org/1999/xlink" xml:space="preserve" overflow="hidden"><g transform="translate(-3055 -1716)"><path d="M3058 1728.2C3058 1723.12 3062.12 1719 3067.2 1719L3237.8 1719C3242.88 1719 3247 1723.12 3247 1728.2L3247 1960.8C3247 1965.88 3242.88 1970 3237.8 1970L3067.2 1970C3062.12 1970 3058 1965.88 3058 1960.8Z" stroke="#000000" stroke-width="5.72917" stroke-miterlimit="8" fill="#D9D9D9" fill-rule="evenodd"/><path d="M3124.67 1914 3179.33 1914C3186.88 1914 3193 1920.1 3193 1927.62L3193 1970 3111 1970 3111 1927.62C3111 1920.1 3117.12 1914 3124.67 1914Z" stroke="#000000" stroke-width="5.72917" stroke-miterlimit="8" fill="#D9D9D9" fill-rule="evenodd"/><path d="M3144 1942C3144 1937.58 3147.58 1934 3152 1934 3156.42 1934 3160 1937.58 3160 1942 3160 1946.42 3156.42 1950 3152 1950 3147.58 1950 3144 1946.42 3144 1942Z" stroke="#000000" stroke-width="5.72917" stroke-miterlimit="8" fill="#595959" fill-rule="evenodd"/><path d="M3144 1835.5C3144 1830.81 3147.58 1827 3152 1827 3156.42 1827 3160 1830.81 3160 1835.5 3160 1840.19 3156.42 1844 3152 1844 3147.58 1844 3144 1840.19 3144 1835.5Z" stroke="#000000" stroke-width="5.72917" stroke-miterlimit="8" fill="#595959" fill-rule="evenodd"/><path d="M3104.17 1745 3200.83 1745C3208.66 1745 3215 1751.3 3215 1759.07L3215 1815.34C3215 1823.11 3208.66 1829.41 3200.83 1829.41L3186.6 1829.41 3185.34 1829.59C3183.33 1830.2 3181.69 1831.66 3180.85 1833.55L3180.41 1835.53 3180.41 1841.17C3180.41 1847.7 3175.07 1853 3168.49 1853L3136.51 1853C3129.93 1853 3124.59 1847.7 3124.59 1841.17L3124.59 1835.79 3124.09 1833.55C3123.35 1831.87 3121.97 1830.53 3120.26 1829.83L3118.12 1829.41 3104.17 1829.41C3096.34 1829.41 3090 1823.11 3090 1815.34L3090 1759.07C3090 1751.3 3096.34 1745 3104.17 1745Z" stroke="#000000" stroke-width="5.72917" stroke-linecap="round" stroke-linejoin="round" stroke-miterlimit="10" fill="#BFBFBF" fill-rule="evenodd"/><path d="M0 5.53196C-7.63879e-16 2.47674 2.47674 0 5.53196 0L90.4679 0C93.5232 -7.6388e-16 95.9999 2.47674 95.9999 5.53196L95.9999 54.4681C95.9999 57.5233 93.5232 60.0001 90.4679 60.0001L5.53196 60.0001C2.47674 60.0001 0 57.5233 0 54.4681Z" stroke="#000000" stroke-width="5.72917" stroke-miterlimit="8" fill="#FFFFFF" fill-rule="evenodd" transform="matrix(-1 0 0 1 3200 1757)"/><path d="M3121 1774 3161.69 1774" stroke="#000000" stroke-width="5.72917" stroke-linecap="round" stroke-miterlimit="8" fill="none" fill-rule="evenodd"/><path d="M3121 1790 3148.95 1790" stroke="#000000" stroke-width="5.72917" stroke-linecap="round" stroke-miterlimit="8" fill="none" fill-rule="evenodd"/><path d="M3144 1836.5C3144 1831.81 3147.58 1828 3152 1828 3156.42 1828 3160 1831.81 3160 1836.5 3160 1841.19 3156.42 1845 3152 1845 3147.58 1845 3144 1841.19 3144 1836.5Z" stroke="#000000" stroke-width="5.72917" stroke-miterlimit="8" fill="#595959" fill-rule="evenodd"/><path d="M3057 1867 3244.34 1867" stroke="#000000" stroke-width="5.72917" stroke-miterlimit="8" fill="none" fill-rule="evenodd"/></g></svg>