<svg width="86" height="121" xmlns="http://www.w3.org/2000/svg" xmlns:xlink="http://www.w3.org/1999/xlink" xml:space="preserve" overflow="hidden"><defs><clipPath id="clip0"><rect x="2089" y="894" width="86" height="121"/></clipPath></defs><g clip-path="url(#clip0)" transform="translate(-2089 -894)"><path d="M2090.5 900.532C2090.5 897.753 2092.75 895.5 2095.53 895.5L2168.47 895.5C2171.25 895.5 2173.5 897.753 2173.5 900.532L2173.5 1008.47C2173.5 1011.25 2171.25 1013.5 2168.47 1013.5L2095.53 1013.5C2092.75 1013.5 2090.5 1011.25 2090.5 1008.47Z" stroke="#000000" stroke-width="3" stroke-miterlimit="8" fill="#D9D9D9" fill-rule="evenodd"/><path d="M45.8141 0 7.18587 0C3.21721 0 0 3.23411 0 7.22363L0 40.7067C0 44.6963 3.21721 47.9304 7.18587 47.9304L12.1214 47.9304 12.1214 53.8969C12.1214 55.6106 13.5035 57 15.2082 57L37.7918 57C39.4965 57 40.8786 55.6106 40.8786 53.8969L40.8786 47.9304 45.8141 47.9304C49.7828 47.9304 53 44.6963 53 40.7067L53 7.22363C53 3.23411 49.7828 0 45.8141 0Z" stroke="#000000" stroke-width="3" stroke-linecap="round" stroke-linejoin="round" stroke-miterlimit="10" fill="#BFBFBF" fill-rule="evenodd" transform="matrix(-1 0 0 1 2158.5 912.5)"/><path d="M0 3.13478C-6.36567e-16 1.40349 1.40349 -6.36568e-16 3.13478-1.27314e-15L36.8652 0C38.5965-1.27314e-15 40 1.40349 40 3.13478L40 30.8652C40 32.5965 38.5965 34 36.8652 34L3.13478 34C1.40349 34 0 32.5965 0 30.8652Z" stroke="#000000" stroke-width="3" stroke-miterlimit="8" fill="#FFFFFF" fill-rule="evenodd" transform="matrix(-1 0 0 1 2152.5 919.5)"/><path d="M2128.5 962C2128.5 960.067 2130.07 958.5 2132 958.5 2133.93 958.5 2135.5 960.067 2135.5 962 2135.5 963.933 2133.93 965.5 2132 965.5 2130.07 965.5 2128.5 963.933 2128.5 962Z" stroke="#000000" stroke-width="3" stroke-miterlimit="8" fill="#F2F2F2" fill-rule="evenodd"/><rect x="0" y="0" width="8" height="10" stroke="#000000" stroke-width="3" stroke-linecap="round" stroke-linejoin="round" stroke-miterlimit="10" fill="#FFEB7B" transform="matrix(-1 0 0 1 2147.5 944.5)"/><rect x="0" y="0" width="8" height="19" stroke="#000000" stroke-width="3" stroke-linecap="round" stroke-linejoin="round" stroke-miterlimit="10" fill="#FFEB7B" transform="matrix(-1 0 0 1 2139.5 935.5)"/><rect x="0" y="0" width="7" height="25" stroke="#000000" stroke-width="3" stroke-linecap="round" stroke-linejoin="round" stroke-miterlimit="10" fill="#FFEB7B" transform="matrix(-1 0 0 1 2131.5 929.5)"/><rect x="0" y="0" width="8" height="10" stroke="#000000" stroke-width="3" stroke-linecap="round" stroke-linejoin="round" stroke-miterlimit="10" fill="#FFEB7B" transform="matrix(-1 0 0 1 2124.5 944.5)"/><path d="M2105.5 991.5 2134.8 991.5" stroke="#000000" stroke-width="3" stroke-linecap="round" stroke-miterlimit="8" fill="none" fill-rule="evenodd"/><path d="M2149.5 991.5 2157.95 991.5" stroke="#000000" stroke-width="3" stroke-linecap="round" stroke-miterlimit="8" fill="none" fill-rule="evenodd"/></g></svg>