<svg width="107" height="104" xmlns="http://www.w3.org/2000/svg" xmlns:xlink="http://www.w3.org/1999/xlink" overflow="hidden"><g transform="translate(-278 -129)"><path d="M307.416 141.322C308.896 139.773 311.284 138.656 313.92 138.279" stroke="#000000" stroke-width="2" stroke-linecap="round" stroke-linejoin="round" stroke-miterlimit="10" fill="none" fill-rule="evenodd"/><path d="M311 176.41C311 176.184 311.184 176 311.41 176L360.59 176C360.816 176 361 176.184 361 176.41L361 184.59C361 184.816 360.816 185 360.59 185L311.41 185C311.184 185 311 184.816 311 184.59Z" stroke="#000000" stroke-width="2" stroke-miterlimit="8" fill="#D9D9D9" fill-rule="evenodd"/><path d="M309.5 155C310.328 155 311 155.672 311 156.5L311 162.5C311 163.328 310.328 164 309.5 164L298.5 164C297.672 164 297 163.328 297 162.5L297 156.5C297 155.672 297.672 155 298.5 155Z" stroke="#000000" stroke-width="2" stroke-miterlimit="8" fill="#D9D9D9" fill-rule="evenodd"/><path d="M307.333 175C307.702 175 308 175.298 308 175.667L308 178.333C308 178.702 307.702 179 307.333 179L292.667 179C292.298 179 292 178.702 292 178.333L292 175.667C292 175.298 292.298 175 292.667 175Z" stroke="#000000" stroke-width="2" stroke-miterlimit="8" fill="#D9D9D9" fill-rule="evenodd"/><path d="M308 149.345C308 148.602 308.602 148 309.345 148L361.655 148C362.398 148 363 148.602 363 149.345L363 169.655C363 170.398 362.398 171 361.655 171L309.345 171C308.602 171 308 170.398 308 169.655Z" stroke="#000000" stroke-width="2" stroke-miterlimit="8" fill="#D9D9D9" fill-rule="evenodd"/><path d="M288 173.5C288 172.672 288.672 172 289.5 172L295.5 172C296.328 172 297 172.672 297 173.5L297 181.5C297 182.328 296.328 183 295.5 183L289.5 183C288.672 183 288 182.328 288 181.5Z" stroke="#000000" stroke-width="2" stroke-miterlimit="8" fill="#D9D9D9" fill-rule="evenodd"/><path d="M316 144.505C316 143.674 316.674 143 317.505 143L354.495 143C355.326 143 356 143.674 356 144.505L356 174.495C356 175.326 355.326 176 354.495 176L317.505 176C316.674 176 316 175.326 316 174.495Z" stroke="#000000" stroke-width="2" stroke-miterlimit="8" fill="#D9D9D9" fill-rule="evenodd"/><path d="M299 150.994C299 150.445 299.445 150 299.994 150L301.006 150C301.555 150 302 150.445 302 150.994L302 180.006C302 180.555 301.555 181 301.006 181L299.994 181C299.445 181 299 180.555 299 180.006Z" stroke="#000000" stroke-width="2" stroke-miterlimit="8" fill="#7F7F7F" fill-rule="evenodd"/><path d="M304 150.663C304 150.297 304.297 150 304.663 150L305.337 150C305.703 150 306 150.297 306 150.663L306 180.337C306 180.703 305.703 181 305.337 181L304.663 181C304.297 181 304 180.703 304 180.337Z" stroke="#000000" stroke-width="2" stroke-miterlimit="8" fill="#7F7F7F" fill-rule="evenodd"/><path d="M49.4194 54.9978 49.5 54.9993 49.5397 55 49.5397 54.9985 49.5806 54.9978C70.97 53.4958 78.3836 48.1992 85.0127 40.4135 91.6418 32.6278 94.6195 23.8814 96.3543 14.2609 97.0048 10.6532 98.15 5.68096 98.9097 0.736414L99 0 49.5397 0 49.4603 0 0 0 0.0902719 0.736414C0.850005 5.68096 1.99521 10.6532 2.64574 14.2609 4.38047 23.8814 7.35823 32.6278 13.9873 40.4135 20.6164 48.1992 28.03 53.4958 49.4194 54.9978Z" stroke="#000000" stroke-width="2" stroke-miterlimit="8" fill="none" fill-rule="evenodd" transform="matrix(1 0 0 -1 282 186)"/><path d="M279 197C279 193.134 282.134 190 286 190L376 190C379.866 190 383 193.134 383 197L383 225C383 228.866 379.866 232 376 232L286 232C282.134 232 279 228.866 279 225Z" stroke="#000000" stroke-width="2" stroke-linecap="round" stroke-linejoin="round" stroke-miterlimit="10" fill="#404040" fill-rule="evenodd"/><path d="M287 209C287 206.791 288.567 205 290.5 205 292.433 205 294 206.791 294 209 294 211.209 292.433 213 290.5 213 288.567 213 287 211.209 287 209Z" stroke="#000000" stroke-width="2" stroke-miterlimit="8" fill="#CF3131" fill-rule="evenodd"/><path d="M288 209C288 207.895 288.895 207 290 207 291.105 207 292 207.895 292 209 292 210.105 291.105 211 290 211 288.895 211 288 210.105 288 209Z" fill="#D9D9D9" fill-rule="evenodd"/><path d="M312 199.023C312 197.906 312.906 197 314.023 197L347.977 197C349.094 197 350 197.906 350 199.023L350 216.977C350 218.094 349.094 219 347.977 219L314.023 219C312.906 219 312 218.094 312 216.977Z" stroke="#000000" stroke-width="2" stroke-miterlimit="8" fill="#FFFFFF" fill-rule="evenodd"/><path d="M337 224 348.633 224" stroke="#D9D9D9" stroke-width="2" stroke-linecap="round" stroke-linejoin="round" stroke-miterlimit="10" fill="none" fill-rule="evenodd"/><path d="M368 198.5C368 196.567 369.567 195 371.5 195 373.433 195 375 196.567 375 198.5 375 200.433 373.433 202 371.5 202 369.567 202 368 200.433 368 198.5Z" stroke="#000000" stroke-width="2" stroke-miterlimit="8" fill="#D9D9D9" fill-rule="evenodd"/><path d="M318 222.667C318 222.298 318.298 222 318.667 222L330.333 222C330.702 222 331 222.298 331 222.667L331 225.333C331 225.702 330.702 226 330.333 226L318.667 226C318.298 226 318 225.702 318 225.333Z" stroke="#000000" stroke-width="2" stroke-miterlimit="8" fill="#CF3131" fill-rule="evenodd"/><path d="M312 224C312 222.895 312.895 222 314 222 315.105 222 316 222.895 316 224 316 225.105 315.105 226 314 226 312.895 226 312 225.105 312 224Z" stroke="#000000" stroke-width="2" stroke-miterlimit="8" fill="#CF3131" fill-rule="evenodd"/><path d="M279 185.833C279 185.373 279.373 185 279.833 185L382.167 185C382.627 185 383 185.373 383 185.833L383 189.167C383 189.627 382.627 190 382.167 190L279.833 190C279.373 190 279 189.627 279 189.167Z" stroke="#000000" stroke-width="2" stroke-miterlimit="8" fill="#D9D9D9" fill-rule="evenodd"/></g></svg>