<svg width="265" height="129" xmlns="http://www.w3.org/2000/svg" xmlns:xlink="http://www.w3.org/1999/xlink"
    xml:space="preserve" overflow="hidden">
    <defs>
        <clipPath id="clip0">
            <rect x="1932" y="624" width="265" height="129" />
        </clipPath>
    </defs>
    <g clip-path="url(#clip0)" transform="translate(-1932 -624)">
        <path
            d="M2016.83 675.5C2017.75 675.5 2018.5 676.246 2018.5 677.167L2018.5 683.833C2018.5 684.754 2017.75 685.5 2016.83 685.5L1977.17 685.5C1976.25 685.5 1975.5 684.754 1975.5 683.833L1975.5 677.167C1975.5 676.246 1976.25 675.5 1977.17 675.5Z"
            stroke="#000000" stroke-width="3" stroke-miterlimit="8" fill="#D9D9D9" fill-rule="evenodd" />
        <path
            d="M2006.83 722.5C2007.75 722.5 2008.5 723.246 2008.5 724.167L2008.5 730.833C2008.5 731.754 2007.75 732.5 2006.83 732.5L1963.17 732.5C1962.25 732.5 1961.5 731.754 1961.5 730.833L1961.5 724.167C1961.5 723.246 1962.25 722.5 1963.17 722.5Z"
            stroke="#000000" stroke-width="3" stroke-miterlimit="8" fill="#D9D9D9" fill-rule="evenodd" />
        <path
            d="M1974.42 625.5 2154.82 625.5C2164.63 625.5 2173.05 631.833 2176.64 640.859L2177.75 646.662 2192.5 751.5 1936.5 751.5 1951.05 646.662 1952.6 640.859C1956.2 631.833 1964.61 625.5 1974.42 625.5Z"
            stroke="#000000" stroke-width="3" stroke-miterlimit="8" fill="none" fill-rule="evenodd" />
        <path
            d="M2009.5 652.243C2009.5 650.176 2011.18 648.5 2013.24 648.5L2161.76 648.5C2163.82 648.5 2165.5 650.176 2165.5 652.243L2165.5 708.757C2165.5 710.824 2163.82 712.5 2161.76 712.5L2013.24 712.5C2011.18 712.5 2009.5 710.824 2009.5 708.757Z"
            stroke="#000000" stroke-width="3" stroke-miterlimit="8" fill="#D9D9D9" fill-rule="evenodd" />
        <path
            d="M1951.5 717.833C1951.5 715.44 1953.44 713.5 1955.83 713.5L1973.17 713.5C1975.56 713.5 1977.5 715.44 1977.5 717.833L1977.5 739.167C1977.5 741.56 1975.56 743.5 1973.17 743.5L1955.83 743.5C1953.44 743.5 1951.5 741.56 1951.5 739.167Z"
            stroke="#000000" stroke-width="3" stroke-miterlimit="8" fill="#D9D9D9" fill-rule="evenodd" />
        <path
            d="M2030.5 648.244C2030.5 645.624 2032.62 643.5 2035.24 643.5L2140.76 643.5C2143.38 643.5 2145.5 645.624 2145.5 648.244L2145.5 742.757C2145.5 745.376 2143.38 747.5 2140.76 747.5L2035.24 747.5C2032.62 747.5 2030.5 745.376 2030.5 742.757Z"
            stroke="#000000" stroke-width="3" stroke-miterlimit="8" fill="#D9D9D9" fill-rule="evenodd" />
        <path
            d="M1982.5 653.151C1982.5 651.687 1983.69 650.5 1985.15 650.5L1987.85 650.5C1989.31 650.5 1990.5 651.687 1990.5 653.151L1990.5 734.849C1990.5 736.313 1989.31 737.5 1987.85 737.5L1985.15 737.5C1983.69 737.5 1982.5 736.313 1982.5 734.849Z"
            stroke="#000000" stroke-width="3" stroke-miterlimit="8" fill="#7F7F7F" fill-rule="evenodd" />
        <path
            d="M1995.5 653.151C1995.5 651.687 1996.69 650.5 1998.15 650.5L2000.85 650.5C2002.31 650.5 2003.5 651.687 2003.5 653.151L2003.5 734.849C2003.5 736.313 2002.31 737.5 2000.85 737.5L1998.15 737.5C1996.69 737.5 1995.5 736.313 1995.5 734.849Z"
            stroke="#000000" stroke-width="3" stroke-miterlimit="8" fill="#7F7F7F" fill-rule="evenodd" />
        <path
            d="M2082.41 678.5 2188.87 678.5C2190.39 678.5 2191.63 679.734 2191.63 681.256L2191.63 743.639 2194.18 743.639C2194.91 743.639 2195.5 744.225 2195.5 744.949L2195.5 750.19C2195.5 750.913 2194.91 751.5 2194.18 751.5L1934.82 751.5C1934.09 751.5 1933.5 750.913 1933.5 750.19L1933.5 744.949C1933.5 744.225 1934.09 743.639 1934.82 743.639L2077.12 743.639 2079.65 741.119 2079.65 681.256C2079.65 679.734 2080.88 678.5 2082.41 678.5Z"
            stroke="#000000" stroke-width="3" stroke-miterlimit="8" fill="#D9D9D9" fill-rule="evenodd" />
        <path
            d="M2097.5 697.217C2097.5 695.716 2098.72 694.5 2100.22 694.5L2171.78 694.5C2173.28 694.5 2174.5 695.716 2174.5 697.217L2174.5 734.783C2174.5 736.284 2173.28 737.5 2171.78 737.5L2100.22 737.5C2098.72 737.5 2097.5 736.284 2097.5 734.783Z"
            stroke="#000000" stroke-width="3" stroke-miterlimit="8" fill="#FFFFFF" fill-rule="evenodd" />
        <path d="M2113.5 708.5 2136.51 708.5" stroke="#000000" stroke-width="3" stroke-linecap="round"
            stroke-linejoin="round" stroke-miterlimit="10" fill="none" fill-rule="evenodd" />
        <path d="M2113.5 722.5 2141.76 722.5" stroke="#000000" stroke-width="3" stroke-linecap="round"
            stroke-linejoin="round" stroke-miterlimit="10" fill="none" fill-rule="evenodd" />
        <path
            d="M2150.5 705.833C2150.5 705.097 2151.1 704.5 2151.83 704.5L2163.17 704.5C2163.9 704.5 2164.5 705.097 2164.5 705.833L2164.5 711.167C2164.5 711.903 2163.9 712.5 2163.17 712.5L2151.83 712.5C2151.1 712.5 2150.5 711.903 2150.5 711.167Z"
            stroke="#000000" stroke-width="3" stroke-miterlimit="8" fill="#F04C4E" fill-rule="evenodd" />
        <path d="M1964.91 640.129C1965.91 637.352 1968.55 635.5 1971.5 635.5" stroke="#000000" stroke-width="3"
            stroke-linecap="round" stroke-linejoin="round" stroke-miterlimit="10" fill="none" fill-rule="evenodd" />
    </g>
</svg>