<svg width="303" height="295" xmlns="http://www.w3.org/2000/svg" xmlns:xlink="http://www.w3.org/1999/xlink" xml:space="preserve" overflow="hidden"><g transform="translate(-624 -263)"><path d="M707.702 295.492C711.947 291.051 718.797 287.847 726.36 286.764" stroke="#000000" stroke-width="5.72917" stroke-linecap="round" stroke-linejoin="round" stroke-miterlimit="10" fill="none" fill-rule="evenodd"/><path d="M717 397.14C717 396.511 717.511 396 718.14 396L860.86 396C861.49 396 862 396.511 862 397.14L862 419.86C862 420.49 861.49 421 860.86 421L718.14 421C717.511 421 717 420.49 717 419.86Z" stroke="#000000" stroke-width="5.72917" stroke-miterlimit="8" fill="#D9D9D9" fill-rule="evenodd"/><path d="M714.833 336C717.135 336 719 337.865 719 340.167L719 356.833C719 359.134 717.135 361 714.833 361L681.167 361C678.865 361 677 359.134 677 356.833L677 340.167C677 337.865 678.865 336 681.167 336Z" stroke="#000000" stroke-width="5.72917" stroke-miterlimit="8" fill="#D9D9D9" fill-rule="evenodd"/><path d="M708.333 393C709.254 393 710 393.746 710 394.667L710 401.333C710 402.254 709.254 403 708.333 403L663.667 403C662.746 403 662 402.254 662 401.333L662 394.667C662 393.746 662.746 393 663.667 393Z" stroke="#000000" stroke-width="5.72917" stroke-miterlimit="8" fill="#D9D9D9" fill-rule="evenodd"/><path d="M711 319.802C711 317.702 712.702 316 714.802 316L864.198 316C866.298 316 868 317.702 868 319.802L868 377.198C868 379.298 866.298 381 864.198 381L714.802 381C712.702 381 711 379.298 711 377.198Z" stroke="#000000" stroke-width="5.72917" stroke-miterlimit="8" fill="#D9D9D9" fill-rule="evenodd"/><path d="M653 389.333C653 386.94 654.94 385 657.333 385L674.667 385C677.06 385 679 386.94 679 389.333L679 410.667C679 413.06 677.06 415 674.667 415L657.333 415C654.94 415 653 413.06 653 410.667Z" stroke="#000000" stroke-width="5.72917" stroke-miterlimit="8" fill="#D9D9D9" fill-rule="evenodd"/><path d="M732 304.379C732 301.96 733.96 300 736.378 300L842.621 300C845.04 300 847 301.96 847 304.379L847 391.621C847 394.04 845.04 396 842.621 396L736.378 396C733.96 396 732 394.04 732 391.621Z" stroke="#000000" stroke-width="5.72917" stroke-miterlimit="8" fill="#D9D9D9" fill-rule="evenodd"/><path d="M684 323.651C684 322.187 685.187 321 686.651 321L689.349 321C690.813 321 692 322.187 692 323.651L692 406.349C692 407.813 690.813 409 689.349 409L686.651 409C685.187 409 684 407.813 684 406.349Z" stroke="#000000" stroke-width="5.72917" stroke-miterlimit="8" fill="#7F7F7F" fill-rule="evenodd"/><path d="M697 323.32C697 322.039 698.039 321 699.32 321L701.68 321C702.961 321 704 322.039 704 323.32L704 406.68C704 407.961 702.961 409 701.68 409L699.32 409C698.039 409 697 407.961 697 406.68Z" stroke="#000000" stroke-width="5.72917" stroke-miterlimit="8" fill="#7F7F7F" fill-rule="evenodd"/><path d="M141.27 156.994 141.5 156.998 141.614 157 141.614 156.996 141.731 156.994C202.874 152.706 224.066 137.587 243.016 115.362 261.966 93.1376 270.478 68.1707 275.437 40.7085 277.297 30.4101 280.57 16.2166 282.742 2.10213L283 0 141.614 0 141.387 0 0 0 0.25805 2.10213C2.42981 16.2166 5.70349 30.4101 7.56309 40.7085 12.522 68.1707 21.0342 93.1376 39.984 115.362 58.9338 137.587 80.1262 152.706 141.27 156.994Z" stroke="#000000" stroke-width="5.72917" stroke-miterlimit="8" fill="none" fill-rule="evenodd" transform="matrix(1 0 0 -1 634 423)"/><path d="M627 455.834C627 444.88 635.88 436 646.834 436L904.166 436C915.12 436 924 444.88 924 455.834L924 535.166C924 546.12 915.12 555 904.166 555L646.834 555C635.88 555 627 546.12 627 535.166Z" stroke="#000000" stroke-width="5.72917" stroke-linecap="round" stroke-linejoin="round" stroke-miterlimit="10" fill="#404040" fill-rule="evenodd"/><path d="M648 490C648 483.925 652.701 479 658.5 479 664.299 479 669 483.925 669 490 669 496.075 664.299 501 658.5 501 652.701 501 648 496.075 648 490Z" stroke="#000000" stroke-width="5.72917" stroke-miterlimit="8" fill="#CF3131" fill-rule="evenodd"/><path d="M653 490C653 487.239 655.463 485 658.5 485 661.538 485 664 487.239 664 490 664 492.761 661.538 495 658.5 495 655.463 495 653 492.761 653 490Z" fill="#D9D9D9" fill-rule="evenodd"/><path d="M722 459.976C722 456.676 724.675 454 727.976 454L823.024 454C826.325 454 829 456.676 829 459.976L829 513.024C829 516.324 826.325 519 823.024 519L727.976 519C724.675 519 722 516.324 722 513.024Z" stroke="#000000" stroke-width="5.72917" stroke-miterlimit="8" fill="#FFFFFF" fill-rule="evenodd"/><path d="M793 533 826.368 533.001" stroke="#D9D9D9" stroke-width="5.72917" stroke-linecap="round" stroke-linejoin="round" stroke-miterlimit="10" fill="none" fill-rule="evenodd"/><path d="M881 459C881 453.477 885.477 449 891 449 896.523 449 901 453.477 901 459 901 464.523 896.523 469 891 469 885.477 469 881 464.523 881 459Z" stroke="#000000" stroke-width="5.72917" stroke-miterlimit="8" fill="#D9D9D9" fill-rule="evenodd"/><path d="M738 528.833C738 527.821 738.821 527 739.833 527L774.167 527C775.179 527 776 527.821 776 528.833L776 536.167C776 537.179 775.179 538 774.167 538L739.833 538C738.821 538 738 537.179 738 536.167Z" stroke="#000000" stroke-width="5.72917" stroke-miterlimit="8" fill="#CF3131" fill-rule="evenodd"/><path d="M722 532C722 529.239 724.238 527 727 527 729.761 527 732 529.239 732 532 732 534.761 729.761 537 727 537 724.238 537 722 534.761 722 532Z" stroke="#000000" stroke-width="5.72917" stroke-miterlimit="8" fill="#CF3131" fill-rule="evenodd"/><path d="M627 423.5C627 422.119 628.119 421 629.5 421L921.5 421C922.881 421 924 422.119 924 423.5L924 433.5C924 434.881 922.881 436 921.5 436L629.5 436C628.119 436 627 434.881 627 433.5Z" stroke="#000000" stroke-width="5.72917" stroke-miterlimit="8" fill="#D9D9D9" fill-rule="evenodd"/></g></svg>