<?xml version='1.0' encoding='utf-8'?>
<svg xmlns="http://www.w3.org/2000/svg" width="130.249779500441px" height="115.999808000384px" overflow="hidden" viewBox="-22.749974500051 -42.6249347501305 130.249779500441 115.999808000384"><rect id="bounding-box" x="-22.749974500051" y="-42.6249347501305" width="130.249779500441" height="115.999808000384" fill="none" pointer-events="all" /><g id="svg_scaling_group" transform="scale(0.749998500003)"><g transform="translate(-868 -319)"><path d="M965.806 331C964.809 331 964 330.191 964 329.194L964 324.806C964 323.809 964.809 323 965.806 323L969.194 323C970.191 323 971 323.809 971 324.806L971 329.194C971 330.191 970.191 331 969.194 331Z" stroke="#000000" stroke-width="1.66667" stroke-miterlimit="8" fill="#D9D9D9" fill-rule="evenodd" /><path d="M881.064 331C879.924 331 879 330.076 879 328.936L879 325.064C879 323.924 879.924 323 881.064 323L884.936 323C886.076 323 887 323.924 887 325.064L887 328.936C887 330.076 886.076 331 884.936 331Z" stroke="#000000" stroke-width="1.66667" stroke-miterlimit="8" fill="#D9D9D9" fill-rule="evenodd" /><path d="M869 328.816C869 327.813 869.813 327 870.816 327L978.184 327C979.187 327 980 327.813 980 328.816L980 349.184C980 350.187 979.187 351 978.184 351L870.816 351C869.813 351 869 350.187 869 349.184Z" stroke="#000000" stroke-width="1.66667" stroke-miterlimit="8" fill="#D9D9D9" fill-rule="evenodd" /><path d="M898 321.085C898 320.486 898.486 320 899.084 320L945.916 320C946.514 320 947 320.486 947 321.085L947 356.915C947 357.514 946.514 358 945.916 358L899.084 358C898.486 358 898 357.514 898 356.915Z" stroke="#000000" stroke-width="1.66667" stroke-miterlimit="8" fill="#D9D9D9" fill-rule="evenodd" /><path d="M948 323.806C948 322.809 948.809 322 949.806 322L953.194 322C954.191 322 955 322.809 955 323.806L955 328.194C955 329.191 954.191 330 953.194 330L949.806 330C948.809 330 948 329.191 948 328.194Z" stroke="#000000" stroke-width="1.66667" stroke-miterlimit="8" fill="#D9D9D9" fill-rule="evenodd" /><path d="M948 336.806C948 335.809 948.809 335 949.806 335L953.194 335C954.191 335 955 335.809 955 336.806L955 341.194C955 342.191 954.191 343 953.194 343L949.806 343C948.809 343 948 342.191 948 341.194Z" stroke="#000000" stroke-width="1.66667" stroke-miterlimit="8" fill="#D9D9D9" fill-rule="evenodd" /><path d="M948 349.806C948 348.809 948.809 348 949.806 348L953.194 348C954.191 348 955 348.809 955 349.806L955 354.194C955 355.191 954.191 356 953.194 356L949.806 356C948.809 356 948 355.191 948 354.194Z" stroke="#000000" stroke-width="1.66667" stroke-miterlimit="8" fill="#D9D9D9" fill-rule="evenodd" /><path d="M943 322.064C943 320.924 943.924 320 945.064 320L948.936 320C950.076 320 951 320.924 951 322.064L951 355.936C951 357.076 950.076 358 948.936 358L945.064 358C943.924 358 943 357.076 943 355.936Z" stroke="#000000" stroke-width="1.66667" stroke-miterlimit="8" fill="#D9D9D9" fill-rule="evenodd" /><path d="M906 327 927.14 327" stroke="#000000" stroke-width="1.66667" stroke-linecap="round" stroke-linejoin="round" stroke-miterlimit="10" fill="#D9D9D9" fill-rule="evenodd" /></g></g></svg>