<svg width="84" height="133" xmlns="http://www.w3.org/2000/svg" xmlns:xlink="http://www.w3.org/1999/xlink" overflow="hidden"><g transform="translate(-307 -357)"><path d="M375 366 384 366 384 475 375 475Z" stroke="#000000" stroke-width="2" stroke-linejoin="round" stroke-miterlimit="10" fill="#D9D9D9" fill-rule="evenodd"/><path d="M373.333 475 384.667 475C385.403 475 386 475.597 386 476.333L386 483 372 483 372 476.333C372 475.597 372.597 475 373.333 475Z" stroke="#000000" stroke-width="2" stroke-linejoin="round" stroke-miterlimit="10" fill="#D9D9D9" fill-rule="evenodd"/><path d="M374.158 474C371.826 462.707 369.675 449.322 372 438.248 374.326 427.174 385.652 417.959 388.109 407.554 390.566 397.148 387.21 380.812 386.743 375.813 386.275 370.813 386.329 367.907 386.383 365" stroke="#000000" stroke-width="2" stroke-miterlimit="8" fill="none" fill-rule="evenodd"/><path d="M372 360.333C372 359.597 372.597 359 373.333 359L386.667 359C387.403 359 388 359.597 388 360.333L388 365.667C388 366.403 387.403 367 386.667 367L373.333 367C372.597 367 372 366.403 372 365.667Z" stroke="#000000" stroke-width="2" stroke-linejoin="round" stroke-miterlimit="10" fill="#D9D9D9" fill-rule="evenodd"/><path d="M319 482.364C319 482.163 319.163 482 319.364 482L388.636 482C388.837 482 389 482.163 389 482.364L389 487.636C389 487.837 388.837 488 388.636 488L319.364 488C319.163 488 319 487.837 319 487.636Z" stroke="#000000" stroke-width="2" stroke-miterlimit="8" fill="#D9D9D9" fill-rule="evenodd"/><path d="M308 393.922C308 392.308 309.308 391 310.922 391L365.078 391C366.692 391 368 392.308 368 393.922L368 485.078C368 486.692 366.692 488 365.078 488L310.922 488C309.308 488 308 486.692 308 485.078Z" stroke="#000000" stroke-width="2" stroke-miterlimit="8" fill="#D9D9D9" fill-rule="evenodd"/><path d="M33.7123 0 5.28771 0C2.36738 0 0 2.32629 0 5.19594L0 29.2803C0 32.1499 2.36738 34.4762 5.28771 34.4762L8.91949 34.4762 8.91949 38.7679C8.91949 40.0006 9.9365 41 11.191 41L27.809 41C29.0635 41 30.0805 40.0006 30.0805 38.7679L30.0805 34.4762 33.7123 34.4762C36.6326 34.4762 39 32.1499 39 29.2803L39 5.19594C39 2.32629 36.6326 0 33.7123 0Z" stroke="#000000" stroke-width="2" stroke-linecap="round" stroke-linejoin="round" stroke-miterlimit="10" fill="#BFBFBF" fill-rule="evenodd" transform="matrix(-1 0 0 1 357 398)"/><path d="M0 2.30499C-4.77425e-16 1.03198 1.03198 -9.5485e-16 2.30499 -9.5485e-16L27.695 0C28.968 -4.77425e-16 30 1.03198 30 2.30499L30 22.695C30 23.968 28.968 25 27.695 25L2.30499 25C1.03198 25 -4.77425e-16 23.968 0 22.695Z" stroke="#000000" stroke-width="2" stroke-miterlimit="8" fill="#FFFFFF" fill-rule="evenodd" transform="matrix(-1 0 0 1 353 403)"/><path d="M335 433.5C335 432.119 336.343 431 338 431 339.657 431 341 432.119 341 433.5 341 434.881 339.657 436 338 436 336.343 436 335 434.881 335 433.5Z" stroke="#000000" stroke-width="2" stroke-miterlimit="8" fill="#595959" fill-rule="evenodd"/><path d="M329 410 346.062 410" stroke="#000000" stroke-width="2" stroke-linecap="round" stroke-miterlimit="8" fill="none" fill-rule="evenodd"/><path d="M329 417 340.719 417" stroke="#000000" stroke-width="2" stroke-linecap="round" stroke-miterlimit="8" fill="none" fill-rule="evenodd"/><path d="M308.5 445.5 368.918 445.5" stroke="#000000" stroke-width="0.666667" stroke-miterlimit="8" fill="none" fill-rule="evenodd"/></g></svg>