<svg width="237" height="378" xmlns="http://www.w3.org/2000/svg" xmlns:xlink="http://www.w3.org/1999/xlink" xml:space="preserve" overflow="hidden"><g transform="translate(-2361 -1595)"><path d="M2555 1619 2580 1619 2580 1931 2555 1931Z" stroke="#000000" stroke-width="5.72917" stroke-linejoin="round" stroke-miterlimit="10" fill="#D9D9D9" fill-rule="evenodd"/><path d="M2551.83 1931 2584.17 1931C2586.28 1931 2588 1932.72 2588 1934.83L2588 1954 2548 1954 2548 1934.83C2548 1932.72 2549.72 1931 2551.83 1931Z" stroke="#000000" stroke-width="5.72917" stroke-linejoin="round" stroke-miterlimit="10" fill="#D9D9D9" fill-rule="evenodd"/><path d="M2553.77 1928C2547.3 1895.57 2541.32 1857.14 2547.78 1825.34 2554.24 1793.54 2585.7 1767.08 2592.53 1737.2 2599.35 1707.31 2590.03 1660.41 2588.73 1646.05 2587.43 1631.69 2587.58 1623.35 2587.73 1615" stroke="#000000" stroke-width="5.72917" stroke-miterlimit="8" fill="none" fill-rule="evenodd"/><path d="M2546 1602C2546 1599.79 2547.79 1598 2550 1598L2588 1598C2590.21 1598 2592 1599.79 2592 1602L2592 1618C2592 1620.21 2590.21 1622 2588 1622L2550 1622C2547.79 1622 2546 1620.21 2546 1618Z" stroke="#000000" stroke-width="5.72917" stroke-linejoin="round" stroke-miterlimit="10" fill="#D9D9D9" fill-rule="evenodd"/><path d="M2394 1954.03C2394 1953.46 2394.46 1953 2395.03 1953L2592.97 1953C2593.54 1953 2594 1953.46 2594 1954.03L2594 1968.97C2594 1969.54 2593.54 1970 2592.97 1970L2395.03 1970C2394.46 1970 2394 1969.54 2394 1968.97Z" stroke="#000000" stroke-width="5.72917" stroke-miterlimit="8" fill="#D9D9D9" fill-rule="evenodd"/><path d="M2364 1698.43C2364 1693.77 2367.77 1690 2372.43 1690L2528.57 1690C2533.23 1690 2537 1693.77 2537 1698.43L2537 1961.57C2537 1966.23 2533.23 1970 2528.57 1970L2372.43 1970C2367.77 1970 2364 1966.23 2364 1961.57Z" stroke="#000000" stroke-width="5.72917" stroke-miterlimit="8" fill="#D9D9D9" fill-rule="evenodd"/><path d="M2364.5 1845.5 2537.81 1845.5" stroke="#000000" stroke-width="3.4375" stroke-miterlimit="8" fill="none" fill-rule="evenodd"/><path d="M2389 1719 2505 1719 2505 1741.05 2498.55 1742.36C2490.41 1745.82 2484.7 1753.92 2484.7 1763.35 2484.7 1772.79 2490.41 1780.89 2498.55 1784.34L2505 1785.65 2505 1811 2389 1811Z" stroke="#000000" stroke-width="5.72917" stroke-linejoin="round" stroke-miterlimit="10" fill="#BFBFBF" fill-rule="evenodd"/><path d="M2406 1741.89C2406 1738.64 2408.64 1736 2411.89 1736L2468.11 1736C2471.36 1736 2474 1738.64 2474 1741.89L2474 1787.11C2474 1790.36 2471.36 1793 2468.11 1793L2411.89 1793C2408.64 1793 2406 1790.36 2406 1787.11Z" stroke="#000000" stroke-width="5.72917" stroke-linejoin="round" stroke-miterlimit="10" fill="#FFFFFF" fill-rule="evenodd"/><path d="M2495 1763.5C2495 1756.6 2500.6 1751 2507.5 1751 2514.4 1751 2520 1756.6 2520 1763.5 2520 1770.4 2514.4 1776 2507.5 1776 2500.6 1776 2495 1770.4 2495 1763.5Z" stroke="#000000" stroke-width="5.72917" stroke-linejoin="round" stroke-miterlimit="10" fill="#595959" fill-rule="evenodd"/><path d="M2422 1753 2453.64 1753" stroke="#000000" stroke-width="5.72917" stroke-linecap="round" stroke-miterlimit="8" fill="none" fill-rule="evenodd"/><path d="M2422 1772 2439.32 1772" stroke="#000000" stroke-width="5.72917" stroke-linecap="round" stroke-miterlimit="8" fill="none" fill-rule="evenodd"/><path d="M2423.67 1914 2478.33 1914C2485.88 1914 2492 1920.1 2492 1927.62L2492 1970 2410 1970 2410 1927.62C2410 1920.1 2416.12 1914 2423.67 1914Z" stroke="#000000" stroke-width="5.72917" stroke-miterlimit="8" fill="#E4E4E4" fill-rule="evenodd"/><path d="M2443 1942C2443 1937.58 2446.58 1934 2451 1934 2455.42 1934 2459 1937.58 2459 1942 2459 1946.42 2455.42 1950 2451 1950 2446.58 1950 2443 1946.42 2443 1942Z" stroke="#000000" stroke-width="5.72917" stroke-miterlimit="8" fill="#BFBFBF" fill-rule="evenodd"/></g></svg>