<svg width="436" height="111" xmlns="http://www.w3.org/2000/svg" xmlns:xlink="http://www.w3.org/1999/xlink" xml:space="preserve" overflow="hidden"><g transform="translate(-1324 -225)"><path d="M1395 262.5C1395 257.253 1399.25 253 1404.5 253L1673.5 253C1678.75 253 1683 257.253 1683 262.5L1683 300.5C1683 305.747 1678.75 310 1673.5 310L1404.5 310C1399.25 310 1395 305.747 1395 300.5Z" stroke="#000000" stroke-width="5.72917" stroke-miterlimit="8" fill="#F2F2F2" fill-rule="evenodd"/><path d="M1339 253.347C1339 248.737 1342.74 245 1347.35 245L1404.65 245C1409.26 245 1413 248.737 1413 253.347L1413 307.653C1413 312.263 1409.26 316 1404.65 316L1347.35 316C1342.74 316 1339 312.263 1339 307.653Z" stroke="#000000" stroke-width="5.72917" stroke-miterlimit="8" fill="#D9D9D8" fill-rule="evenodd"/><path d="M1670 253.347C1670 248.737 1673.74 245 1678.35 245L1735.65 245C1740.26 245 1744 248.737 1744 253.347L1744 307.653C1744 312.263 1740.26 316 1735.65 316L1678.35 316C1673.74 316 1670 312.263 1670 307.653Z" stroke="#000000" stroke-width="5.72917" stroke-miterlimit="8" fill="#D9D9D8" fill-rule="evenodd"/><path d="M1327 273C1327 271.895 1327.9 271 1329 271L1337 271C1338.1 271 1339 271.895 1339 273L1339 288C1339 289.105 1338.1 290 1337 290L1329 290C1327.9 290 1327 289.105 1327 288Z" stroke="#000000" stroke-width="5.72917" stroke-miterlimit="8" fill="#D9D9D8" fill-rule="evenodd"/><path d="M1745 273C1745 271.895 1745.9 271 1747 271L1755 271C1756.1 271 1757 271.895 1757 273L1757 288C1757 289.105 1756.1 290 1755 290L1747 290C1745.9 290 1745 289.105 1745 288Z" stroke="#000000" stroke-width="5.72917" stroke-miterlimit="8" fill="#D9D9D8" fill-rule="evenodd"/><path d="M1367 230.833C1367 229.268 1368.27 228 1369.83 228L1382.17 228C1383.73 228 1385 229.268 1385 230.833L1385 242.167C1385 243.732 1383.73 245 1382.17 245L1369.83 245C1368.27 245 1367 243.732 1367 242.167Z" stroke="#000000" stroke-width="5.72917" stroke-miterlimit="8" fill="#D9D9D8" fill-rule="evenodd"/><path d="M1701 318.833C1701 317.268 1702.27 316 1703.83 316L1716.17 316C1717.73 316 1719 317.268 1719 318.833L1719 330.167C1719 331.732 1717.73 333 1716.17 333L1703.83 333C1702.27 333 1701 331.732 1701 330.167Z" stroke="#000000" stroke-width="5.72917" stroke-miterlimit="8" fill="#D9D9D8" fill-rule="evenodd"/><path d="M1466 280 1506.56 280.001" stroke="#0F85C5" stroke-width="5.72917" stroke-linecap="round" stroke-miterlimit="8" fill="none" fill-rule="evenodd"/><path d="M1525 280 1596.3 280.001" stroke="#000000" stroke-width="5.72917" stroke-linecap="round" stroke-miterlimit="8" fill="none" fill-rule="evenodd"/></g></svg>