<svg width="442" height="214" xmlns="http://www.w3.org/2000/svg" xmlns:xlink="http://www.w3.org/1999/xlink" xml:space="preserve" overflow="hidden"><g transform="translate(-3543 -1038)"><path d="M3864 1134.83C3864 1133.27 3865.27 1132 3866.83 1132L3925.17 1132C3926.73 1132 3928 1133.27 3928 1134.83L3928 1146.17C3928 1147.73 3926.73 1149 3925.17 1149L3866.83 1149C3865.27 1149 3864 1147.73 3864 1146.17Z" stroke="#000000" stroke-width="5.72917" stroke-miterlimit="8" fill="#D9D9D9" fill-rule="evenodd"/><path d="M0 2.74997C-5.07487e-16 1.23121 1.2312 0 2.74997 0L61.028 0C62.5468 -5.07487e-16 63.778 1.23121 63.778 2.74997L63.778 13.7497C63.778 15.2684 62.5468 16.4996 61.028 16.4996L2.74997 16.4996C1.2312 16.4996 0 15.2684 0 13.7497Z" stroke="#000000" stroke-width="5.72917" stroke-miterlimit="8" fill="#D9D9D9" fill-rule="evenodd" transform="matrix(0.965926 0.258819 0.258819 -0.965926 3916.82 1093.01)"/><path d="M3917.53 1059.95C3917.14 1058.49 3918.01 1056.98 3919.48 1056.59L3975.77 1041.5C3977.24 1041.11 3978.75 1041.98 3979.14 1043.45L3981.99 1054.07C3982.38 1055.54 3981.51 1057.05 3980.04 1057.44L3923.75 1072.52C3922.28 1072.92 3920.77 1072.05 3920.38 1070.58Z" stroke="#000000" stroke-width="5.72917" stroke-miterlimit="8" fill="#D9D9D9" fill-rule="evenodd"/><path d="M3904 1069.67C3904 1068.19 3905.19 1067 3906.67 1067L3965.33 1067C3966.81 1067 3968 1068.19 3968 1069.67L3968 1080.33C3968 1081.81 3966.81 1083 3965.33 1083L3906.67 1083C3905.19 1083 3904 1081.81 3904 1080.33Z" stroke="#000000" stroke-width="5.72917" stroke-miterlimit="8" fill="#D9D9D9" fill-rule="evenodd"/><path d="M3880 1051.33C3880 1049.49 3881.49 1048 3883.33 1048L3920.67 1048C3922.51 1048 3924 1049.49 3924 1051.33L3924 1098.67C3924 1100.51 3922.51 1102 3920.67 1102L3883.33 1102C3881.49 1102 3880 1100.51 3880 1098.67Z" stroke="#000000" stroke-width="5.72917" stroke-miterlimit="8" fill="#D9D9D9" fill-rule="evenodd"/><path d="M3583.67 1213C3586.06 1213 3588 1214.94 3588 1217.33L3588 1244.67C3588 1247.06 3586.06 1249 3583.67 1249L3573.33 1249C3570.94 1249 3569 1247.06 3569 1244.67L3569 1217.33C3569 1214.94 3570.94 1213 3573.33 1213Z" stroke="#000000" stroke-width="5.72917" stroke-linejoin="round" stroke-miterlimit="10" fill="#404040" fill-rule="evenodd"/><path d="M3882.67 1213C3885.06 1213 3887 1214.94 3887 1217.33L3887 1244.67C3887 1247.06 3885.06 1249 3882.67 1249L3872.33 1249C3869.94 1249 3868 1247.06 3868 1244.67L3868 1217.33C3868 1214.94 3869.94 1213 3872.33 1213Z" stroke="#000000" stroke-width="5.72917" stroke-linejoin="round" stroke-miterlimit="10" fill="#404040" fill-rule="evenodd"/><path d="M3546 1049.07C3546 1045.17 3549.17 1042 3553.07 1042L3902.93 1042C3906.83 1042 3910 1045.17 3910 1049.07L3910 1230.93C3910 1234.83 3906.83 1238 3902.93 1238L3553.07 1238C3549.17 1238 3546 1234.83 3546 1230.93Z" stroke="#000000" stroke-width="5.72917" stroke-miterlimit="8" fill="#D9D9D9" fill-rule="evenodd"/><path d="M3800 1042 3902.92 1042C3906.83 1042 3910 1045.17 3910 1049.07L3910 1230.93C3910 1234.83 3906.83 1238 3902.92 1238L3834.07 1238 3832.49 1234.72C3811.57 1185.33 3800 1131.03 3800 1074.03Z" stroke="#000000" stroke-width="5.72917" stroke-linejoin="round" stroke-miterlimit="10" fill="#404040" fill-rule="evenodd"/><path d="M3553.08 1042 3597 1042 3597 1167.72C3597 1183.55 3595.39 1199.01 3592.34 1213.94L3584.86 1238 3553.08 1238C3549.17 1238 3546 1234.83 3546 1230.93L3546 1049.07C3546 1045.17 3549.17 1042 3553.08 1042Z" stroke="#000000" stroke-width="5.72917" stroke-linejoin="round" stroke-miterlimit="10" fill="#404040" fill-rule="evenodd"/><path d="M3736.73 1042 3902.94 1042C3906.84 1042 3910 1045.15 3910 1049.04L3910 1154 3736.73 1154C3730.81 1154 3726 1149.21 3726 1143.3L3726 1052.7C3726 1046.79 3730.81 1042 3736.73 1042Z" stroke="#000000" stroke-width="5.72917" stroke-linejoin="round" stroke-miterlimit="10" fill="#404040" fill-rule="evenodd"/><path d="M3750 1066.96C3750 1064.22 3752.22 1062 3754.96 1062L3858.04 1062C3860.78 1062 3863 1064.22 3863 1066.96L3863 1128.04C3863 1130.78 3860.78 1133 3858.04 1133L3754.96 1133C3752.22 1133 3750 1130.78 3750 1128.04Z" stroke="#000000" stroke-width="5.72917" stroke-linejoin="round" stroke-miterlimit="10" fill="#FFFFFF" fill-rule="evenodd"/><path d="M3874 1097.5C3874 1091.15 3879.15 1086 3885.5 1086 3891.85 1086 3897 1091.15 3897 1097.5 3897 1103.85 3891.85 1109 3885.5 1109 3879.15 1109 3874 1103.85 3874 1097.5Z" stroke="#000000" stroke-width="5.72917" stroke-linejoin="round" stroke-miterlimit="10" fill="#D9D9D9" fill-rule="evenodd"/><path d="M3771 1082 3793.54 1082" stroke="#000000" stroke-width="5.72917" stroke-linecap="round" stroke-miterlimit="8" fill="none" fill-rule="evenodd"/><path d="M3771 1097 3793.54 1097" stroke="#000000" stroke-width="5.72917" stroke-linecap="round" stroke-miterlimit="8" fill="none" fill-rule="evenodd"/><path d="M3771 1113 3793.54 1113" stroke="#418FCD" stroke-width="5.72917" stroke-linecap="round" stroke-miterlimit="8" fill="none" fill-rule="evenodd"/><path d="M3819 1082 3841.54 1082" stroke="#000000" stroke-width="5.72917" stroke-linecap="round" stroke-miterlimit="8" fill="none" fill-rule="evenodd"/><path d="M3819 1097 3841.54 1097" stroke="#000000" stroke-width="5.72917" stroke-linecap="round" stroke-miterlimit="8" fill="none" fill-rule="evenodd"/><path d="M3819 1113 3841.54 1113" stroke="#00B050" stroke-width="5.72917" stroke-linecap="round" stroke-miterlimit="8" fill="none" fill-rule="evenodd"/></g></svg>