<svg width="202" height="436" xmlns="http://www.w3.org/2000/svg" xmlns:xlink="http://www.w3.org/1999/xlink" xml:space="preserve" overflow="hidden"><g transform="translate(-2335 -345)"><path d="M2382 503.834C2382 501.164 2384.16 499 2386.83 499L2406.17 499C2408.84 499 2411 501.164 2411 503.834L2411 533.167C2411 535.836 2408.84 538 2406.17 538L2386.83 538C2384.16 538 2382 535.836 2382 533.167Z" stroke="#000000" stroke-width="5.72917" stroke-linecap="round" stroke-linejoin="round" stroke-miterlimit="10" fill="#404040" fill-rule="evenodd"/><path d="M2364 525.963C2364 521.565 2367.57 518 2371.96 518L2526.04 518C2530.44 518 2534 521.565 2534 525.963L2534 770.037C2534 774.435 2530.44 778 2526.04 778L2371.96 778C2367.57 778 2364 774.435 2364 770.037Z" stroke="#000000" stroke-width="5.72917" stroke-linecap="round" stroke-linejoin="round" stroke-miterlimit="10" fill="#404040" fill-rule="evenodd"/><path d="M2391 575.691C2391 570.339 2395.34 566 2400.69 566L2496.31 566C2501.66 566 2506 570.339 2506 575.691L2506 643.309C2506 648.661 2501.66 653 2496.31 653L2400.69 653C2395.34 653 2391 648.661 2391 643.309Z" stroke="#000000" stroke-width="5.72917" stroke-linecap="round" stroke-linejoin="round" stroke-miterlimit="10" fill="#A6A6A6" fill-rule="evenodd"/><path d="M2462 590 2487.04 590" stroke="#000000" stroke-width="5.72917" stroke-linecap="round" stroke-linejoin="round" stroke-miterlimit="10" fill="#404040" fill-rule="evenodd"/><path d="M2391 670.833C2391 669.268 2392.27 668 2393.83 668L2410.17 668C2411.73 668 2413 669.268 2413 670.833L2413 682.167C2413 683.732 2411.73 685 2410.17 685L2393.83 685C2392.27 685 2391 683.732 2391 682.167Z" stroke="#000000" stroke-width="5.72917" stroke-linecap="round" stroke-linejoin="round" stroke-miterlimit="10" fill="#F2F2F2" fill-rule="evenodd"/><path d="M2483 670.833C2483 669.268 2484.27 668 2485.83 668L2502.17 668C2503.73 668 2505 669.268 2505 670.833L2505 682.167C2505 683.732 2503.73 685 2502.17 685L2485.83 685C2484.27 685 2483 683.732 2483 682.167Z" stroke="#000000" stroke-width="5.72917" stroke-linecap="round" stroke-linejoin="round" stroke-miterlimit="10" fill="#F2F2F2" fill-rule="evenodd"/><path d="M2437 670.833C2437 669.268 2438.27 668 2439.83 668L2456.17 668C2457.73 668 2459 669.268 2459 670.833L2459 682.167C2459 683.732 2457.73 685 2456.17 685L2439.83 685C2438.27 685 2437 683.732 2437 682.167Z" stroke="#000000" stroke-width="5.72917" stroke-linecap="round" stroke-linejoin="round" stroke-miterlimit="10" fill="#F2F2F2" fill-rule="evenodd"/><path d="M2431 615 2486.7 615" stroke="#000000" stroke-width="5.72917" stroke-linecap="round" stroke-linejoin="round" stroke-miterlimit="10" fill="#404040" fill-rule="evenodd"/><path d="M2448 628 2486.18 628" stroke="#000000" stroke-width="5.72917" stroke-linecap="round" stroke-linejoin="round" stroke-miterlimit="10" fill="#404040" fill-rule="evenodd"/><path d="M2483 537.833C2483 536.268 2484.27 535 2485.83 535L2502.17 535C2503.73 535 2505 536.268 2505 537.833L2505 549.167C2505 550.732 2503.73 552 2502.17 552L2485.83 552C2484.27 552 2483 550.732 2483 549.167Z" stroke="#000000" stroke-width="5.72917" stroke-linecap="round" stroke-linejoin="round" stroke-miterlimit="10" fill="#F2F2F2" fill-rule="evenodd"/><path d="M2381 534.5C2381 532.567 2382.57 531 2384.5 531L2426.5 531C2428.43 531 2430 532.567 2430 534.5L2430 548.5C2430 550.433 2428.43 552 2426.5 552L2384.5 552C2382.57 552 2381 550.433 2381 548.5Z" stroke="#000000" stroke-width="5.72917" stroke-linecap="round" stroke-linejoin="round" stroke-miterlimit="10" fill="#F2F2F2" fill-rule="evenodd"/><path d="M2425.65 402.362 2441.59 402.362 2441.59 386.417 2425.65 386.417ZM2425.65 426.405 2441.59 426.405 2441.59 410.4 2425.65 410.4ZM2401.6 378.379 2417.61 378.379 2417.61 362.304 2401.6 362.304ZM2401.6 402.362 2417.61 402.362 2417.61 386.417 2401.6 386.417ZM2401.6 426.405 2417.61 426.405 2417.61 410.4 2401.6 410.4ZM2401.6 450.388 2417.61 450.388 2417.61 434.443 2401.6 434.443ZM2377.62 378.379 2393.56 378.379 2393.56 362.304 2377.62 362.304ZM2377.62 402.362 2393.56 402.362 2393.56 386.417 2377.62 386.417ZM2377.62 426.405 2393.56 426.405 2393.56 410.4 2377.62 410.4ZM2377.62 450.388 2393.56 450.388 2393.56 434.443 2377.62 434.443ZM2353.51 402.362 2369.58 402.362 2369.58 386.417 2353.51 386.417ZM2353.51 426.405 2369.58 426.405 2369.58 410.4 2353.51 410.4ZM2338 406.5 2338.21 402.362 2345.47 402.362 2345.47 386.417 2341.61 386.417 2342.6 383.729C2343.34 381.979 2344.16 380.273 2345.06 378.615L2345.2 378.379 2345.47 378.379 2345.47 377.943 2347.99 373.792 2353.51 367.107 2353.51 378.379 2369.58 378.379 2369.58 362.304 2358.56 362.304 2363.79 357.991C2366.9 355.888 2370.23 354.077 2373.73 352.597L2377.62 351.173 2377.62 354.266 2393.56 354.266 2393.56 348.148 2396.5 348 2401.6 348.258 2401.6 354.266 2417.61 354.266 2417.61 351.988 2419.27 352.597C2422.77 354.077 2426.1 355.888 2429.21 357.991L2434.44 362.304 2425.65 362.304 2425.65 378.379 2441.59 378.379 2441.59 369.649 2445.01 373.792C2447.11 376.904 2448.92 380.23 2450.4 383.729L2451.39 386.417 2449.63 386.417 2449.63 402.362 2454.79 402.362 2455 406.5 2454.8 410.4 2449.63 410.4 2449.63 426.405 2451.45 426.405 2450.4 429.271C2448.92 432.77 2447.11 436.096 2445.01 439.208L2441.59 443.351 2441.59 434.443 2425.65 434.443 2425.65 450.388 2434.81 450.388 2429.21 455.009C2426.1 457.112 2422.77 458.923 2419.27 460.403L2417.61 461.011 2417.61 458.425 2401.6 458.425 2401.6 464.742 2396.5 465 2393.56 464.852 2393.56 458.425 2377.62 458.425 2377.62 461.827 2373.73 460.403C2370.23 458.923 2366.9 457.112 2363.79 455.009L2358.19 450.388 2369.58 450.388 2369.58 434.443 2353.51 434.443 2353.51 445.893 2347.99 439.208 2345.47 435.057 2345.47 434.443 2345.1 434.443 2345.06 434.385C2344.16 432.727 2343.34 431.021 2342.6 429.271L2341.55 426.405 2345.47 426.405 2345.47 410.4 2338.2 410.4Z" stroke="#000000" stroke-width="2.29167" stroke-linecap="round" stroke-linejoin="round" stroke-miterlimit="10" fill="#BFBFBF" fill-rule="evenodd"/><path d="M2396.5 465C2364.19 465 2338 438.809 2338 406.5 2338 374.191 2364.19 348 2396.5 348 2428.81 348 2455 374.191 2455 406.5 2455 438.809 2428.81 465 2396.5 465Z" stroke="#000000" stroke-width="5.72917" stroke-miterlimit="8" fill="none" fill-rule="evenodd"/><path d="M2400.86 465 2400.86 483.786 2395.14 483.786 2395.14 465ZM2407.17 479.202 2398 497.536 2388.83 479.202Z"/></g></svg>