<svg width="393" height="253" xmlns="http://www.w3.org/2000/svg" xmlns:xlink="http://www.w3.org/1999/xlink" xml:space="preserve" overflow="hidden"><g transform="translate(-2193 -673)"><path d="M2516 761.834C2516 756.955 2519.95 753 2524.83 753L2560.17 753C2565.05 753 2569 756.955 2569 761.834L2569 811.166C2569 816.045 2565.05 820 2560.17 820L2524.83 820C2519.95 820 2516 816.045 2516 811.166Z" stroke="#000000" stroke-width="5.72917" stroke-linejoin="round" stroke-miterlimit="10" fill="#A6A6A6" fill-rule="evenodd"/><path d="M15.5004 0 201 0 201 77.4994C201 86.0601 194.06 92.9998 185.5 92.9998L0 92.9998 0 15.5004C-3.19875e-15 6.93975 6.93974 0 15.5004 0Z" stroke="#000000" stroke-width="5.72917" stroke-linejoin="round" stroke-miterlimit="10" fill="#D9D9D9" fill-rule="evenodd" transform="matrix(1 0 0 -1 2382 769)"/><path d="M2203.78 676 2493 676 2493 915.217C2493 919.515 2489.52 923 2485.22 923L2196 923 2196 683.783C2196 679.485 2199.48 676 2203.78 676Z" stroke="#000000" stroke-width="5.72917" stroke-linejoin="round" stroke-miterlimit="10" fill="#D9D9D9" fill-rule="evenodd"/><path d="M2225 744.333C2225 741.94 2226.94 740 2229.33 740L2269.67 740C2272.06 740 2274 741.94 2274 744.333L2274 761.667C2274 764.06 2272.06 766 2269.67 766L2229.33 766C2226.94 766 2225 764.06 2225 761.667Z" stroke="#000000" stroke-width="5.72917" stroke-linejoin="round" stroke-miterlimit="10" fill-rule="evenodd"/><path d="M2412 829.5C2412 821.491 2418.49 815 2426.5 815 2434.51 815 2441 821.491 2441 829.5 2441 837.509 2434.51 844 2426.5 844 2418.49 844 2412 837.509 2412 829.5Z" stroke="#000000" stroke-width="5.72917" stroke-linejoin="round" stroke-miterlimit="10" fill-rule="evenodd"/><path d="M2225 833C2225 826.373 2230.37 821 2237 821 2243.63 821 2249 826.373 2249 833 2249 839.628 2243.63 845.001 2237 845.001 2230.37 845.001 2225 839.628 2225 833Z" stroke="#000000" stroke-width="5.72917" stroke-linejoin="round" stroke-miterlimit="10" fill="#A6A6A6" fill-rule="evenodd"/><path d="M2225 784.5C2225 782.015 2227.01 780 2229.5 780L2269.5 780C2271.99 780 2274 782.015 2274 784.5L2274 802.5C2274 804.985 2271.99 807 2269.5 807L2229.5 807C2227.01 807 2225 804.985 2225 802.5Z" stroke="#000000" stroke-width="5.72917" stroke-linejoin="round" stroke-miterlimit="10" fill-rule="evenodd"/><path d="M2394 768.5C2394 750.549 2408.55 736 2426.5 736 2444.45 736 2459 750.549 2459 768.5 2459 786.451 2444.45 801 2426.5 801 2408.55 801 2394 786.451 2394 768.5Z" stroke="#000000" stroke-width="5.72917" stroke-linejoin="round" stroke-miterlimit="10" fill="#FFFFFF" fill-rule="evenodd"/><path d="M2408.67 762.25C2419.04 751.876 2435.86 751.876 2446.23 762.25" stroke="#000000" stroke-width="5.72917" stroke-linecap="round" stroke-miterlimit="8" fill="none" fill-rule="evenodd"/><path d="M2427.24 789.828 2418 755" stroke="#000000" stroke-width="5.72917" stroke-linecap="round" stroke-miterlimit="8" fill="none" fill-rule="evenodd"/><path d="M2300 741.167C2300 738.865 2301.87 737 2304.17 737L2320.83 737C2323.13 737 2325 738.865 2325 741.167L2325 839.833C2325 842.134 2323.13 844 2320.83 844L2304.17 844C2301.87 844 2300 842.134 2300 839.833Z" stroke="#000000" stroke-width="5.72917" stroke-linejoin="round" stroke-miterlimit="10" fill-rule="evenodd"/><path d="M2306 778.167C2306 776.97 2306.97 776 2308.17 776L2316.83 776C2318.03 776 2319 776.97 2319 778.167L2319 823.833C2319 825.03 2318.03 826 2316.83 826L2308.17 826C2306.97 826 2306 825.03 2306 823.833Z" fill="#B5BBD0" fill-rule="evenodd"/><path d="M0 10.5006C0 4.70005 4.70109 0 10.5004 0 16.2989 0 21 4.70005 21 10.5006 21 16.301 16.2989 21.0011 10.5004 21.0011 4.70109 21.0011 0 16.301 0 10.5006Z" stroke="#000000" stroke-width="5.72917" stroke-linejoin="round" stroke-miterlimit="10" fill="#A6A6A6" fill-rule="evenodd" transform="matrix(-1 0 0 1 2323 820)"/><path d="M2338 741.167C2338 738.865 2339.87 737 2342.17 737L2358.83 737C2361.13 737 2363 738.865 2363 741.167L2363 839.833C2363 842.134 2361.13 844 2358.83 844L2342.17 844C2339.87 844 2338 842.134 2338 839.833Z" stroke="#000000" stroke-width="5.72917" stroke-linejoin="round" stroke-miterlimit="10" fill-rule="evenodd"/><path d="M2344 778.167C2344 776.97 2344.97 776 2346.17 776L2354.83 776C2356.03 776 2357 776.97 2357 778.167L2357 823.833C2357 825.03 2356.03 826 2354.83 826L2346.17 826C2344.97 826 2344 825.03 2344 823.833Z" fill="#B5BBD0" fill-rule="evenodd"/><path d="M0 10.5006C0 4.70005 4.70109 0 10.5004 0 16.2989 0 21 4.70005 21 10.5006 21 16.301 16.2989 21.0011 10.5004 21.0011 4.70109 21.0011 0 16.301 0 10.5006Z" stroke="#000000" stroke-width="5.72917" stroke-linejoin="round" stroke-miterlimit="10" fill="#A6A6A6" fill-rule="evenodd" transform="matrix(-1 0 0 1 2361 820)"/></g></svg>