<svg width="278" height="310" xmlns="http://www.w3.org/2000/svg" xmlns:xlink="http://www.w3.org/1999/xlink" xml:space="preserve" overflow="hidden"><g transform="translate(-3348 -248)"><rect x="3381" y="303" width="213" height="14.0001" stroke="#000000" stroke-width="5.72917" stroke-miterlimit="8" fill="#D9D9D9"/><path d="M3359.04 289 3383.4 289C3387.84 289 3391.44 292.601 3391.44 297.043L3391.44 328.344 3533.78 328.344 3533.78 298.344C3533.78 293.184 3537.96 289 3543.13 289L3580.51 289C3581.8 289 3583.03 289.262 3584.15 289.734L3585.93 290.935 3590.6 289 3614.95 289C3619.4 289 3623 292.601 3623 297.043L3623 337.471 3623 507.613 3623 545.873C3623 550.914 3618.91 555 3613.87 555L3360.13 555C3355.09 555 3351 550.914 3351 545.873L3351 507.613 3351 337.471 3351 297.043C3351 292.601 3354.6 289 3359.04 289Z" stroke="#000000" stroke-width="5.72917" stroke-miterlimit="8" fill="#D9D9D9" fill-rule="evenodd"/><path d="M3374 351.387C3374 347.86 3376.86 345 3380.39 345L3512.61 345C3516.14 345 3519 347.86 3519 351.387L3519 446.613C3519 450.14 3516.14 453 3512.61 453L3380.39 453C3376.86 453 3374 450.14 3374 446.613Z" stroke="#000000" stroke-width="5.72917" stroke-miterlimit="8" fill="#B73C58" fill-rule="evenodd"/><path d="M3394 361.646C3394 359.632 3395.63 358 3397.65 358L3495.35 358C3497.37 358 3499 359.632 3499 361.646L3499 419.354C3499 421.368 3497.37 423 3495.35 423L3397.65 423C3395.63 423 3394 421.368 3394 419.354Z" stroke="#000000" stroke-width="5.72917" stroke-miterlimit="8" fill="#404040" fill-rule="evenodd"/><path d="M3416 376 3438.8 376" stroke="#FFFFFF" stroke-width="5.72917" stroke-linecap="round" stroke-linejoin="round" stroke-miterlimit="10" fill="none" fill-rule="evenodd"/><path d="M3416 395 3466.72 395" stroke="#FFFFFF" stroke-width="5.72917" stroke-linecap="round" stroke-linejoin="round" stroke-miterlimit="10" fill="none" fill-rule="evenodd"/><path d="M3416 405 3450.77 405" stroke="#FFFFFF" stroke-width="5.72917" stroke-linecap="round" stroke-linejoin="round" stroke-miterlimit="10" fill="none" fill-rule="evenodd"/><path d="M3564 254.325C3564 252.489 3565.49 251 3567.33 251L3588.67 251C3590.51 251 3592 252.489 3592 254.325L3592 457.675C3592 459.511 3590.51 461 3588.67 461L3567.33 461C3565.49 461 3564 459.511 3564 457.675Z" stroke="#000000" stroke-width="5.72917" stroke-miterlimit="8" fill="#D9D9D9" fill-rule="evenodd"/><path d="M3543 322.432C3543 317.775 3546.78 314 3551.43 314L3605.57 314C3610.22 314 3614 317.775 3614 322.432L3614 522.568C3614 527.225 3610.22 531 3605.57 531L3551.43 531C3546.78 531 3543 527.225 3543 522.568Z" stroke="#000000" stroke-width="5.72917" stroke-miterlimit="8" fill="#404040" fill-rule="evenodd"/><rect x="3573" y="314" width="20" height="217" stroke="#000000" stroke-width="5.72917" stroke-miterlimit="8" fill="#B73C58"/><path d="M3478 485.07C3478 483.927 3478.93 483 3480.07 483L3516.93 483C3518.07 483 3519 483.927 3519 485.07L3519 515.93C3519 517.073 3518.07 518 3516.93 518L3480.07 518C3478.93 518 3478 517.073 3478 515.93Z" stroke="#000000" stroke-width="5.72917" stroke-miterlimit="8" fill="#FFFFFF" fill-rule="evenodd"/><path d="M3490 501C3490 496.029 3494.03 492 3499 492 3503.97 492 3508 496.029 3508 501 3508 505.971 3503.97 510 3499 510 3494.03 510 3490 505.971 3490 501Z" stroke="#000000" stroke-width="5.72917" stroke-miterlimit="8" fill-rule="evenodd"/></g></svg>