<svg width="113" height="90" xmlns="http://www.w3.org/2000/svg" xmlns:xlink="http://www.w3.org/1999/xlink" overflow="hidden"><g transform="translate(-857 -143)"><path d="M859 148.335C859 145.941 860.941 144 863.335 144L963.665 144C966.059 144 968 145.941 968 148.335L968 227.665C968 230.059 966.059 232 963.665 232L863.335 232C860.941 232 859 230.059 859 227.665Z" stroke="#000000" stroke-width="2" stroke-linejoin="round" stroke-miterlimit="10" fill="#D9D9D9" fill-rule="evenodd"/><path d="M882 144 945 144 945 232 882 232Z" stroke="#000000" stroke-width="2" stroke-linejoin="round" stroke-miterlimit="10" fill="#BFBFBF" fill-rule="evenodd"/><path d="M887 170.681C887 168.648 888.648 167 890.681 167L936.319 167C938.352 167 940 168.648 940 170.681L940 209.319C940 211.352 938.352 213 936.319 213L890.681 213C888.648 213 887 211.352 887 209.319Z" stroke="#000000" stroke-width="2" stroke-linejoin="round" stroke-miterlimit="10" fill="#D9D9D9" fill-rule="evenodd"/><path d="M890 173C890 171.895 890.895 171 892 171L935 171C936.105 171 937 171.895 937 173L937 181C937 182.105 936.105 183 935 183L892 183C890.895 183 890 182.105 890 181Z" stroke="#000000" stroke-width="2" stroke-linejoin="round" stroke-miterlimit="10" fill="#00A44D" fill-rule="evenodd"/><path d="M909 187 918 187 918 192 909 192Z" stroke="#000000" stroke-width="2" stroke-linejoin="round" stroke-miterlimit="10" fill="#A6A6A6" fill-rule="evenodd"/><path d="M909 196 918 196 918 201 909 201Z" stroke="#000000" stroke-width="2" stroke-linejoin="round" stroke-miterlimit="10" fill="#A6A6A6" fill-rule="evenodd"/><path d="M909 204 918 204 918 209 909 209Z" stroke="#000000" stroke-width="2" stroke-linejoin="round" stroke-miterlimit="10" fill="#A6A6A6" fill-rule="evenodd"/><path d="M897 187 907 187 907 192 897 192Z" stroke="#000000" stroke-width="2" stroke-linejoin="round" stroke-miterlimit="10" fill="#A6A6A6" fill-rule="evenodd"/><path d="M897 196 907 196 907 201 897 201Z" stroke="#000000" stroke-width="2" stroke-linejoin="round" stroke-miterlimit="10" fill="#A6A6A6" fill-rule="evenodd"/><path d="M922 196 930 196 930 201 922 201Z" stroke="#000000" stroke-width="2" stroke-linejoin="round" stroke-miterlimit="10" fill="#A6A6A6" fill-rule="evenodd"/></g></svg>