<svg width="320" height="258" xmlns="http://www.w3.org/2000/svg" xmlns:xlink="http://www.w3.org/1999/xlink" xml:space="preserve" overflow="hidden"><g transform="translate(-2286 -300)"><path d="M2289 315.414C2289 308.558 2294.56 303 2301.41 303L2590.59 303C2597.44 303 2603 308.558 2603 315.414L2603 542.586C2603 549.442 2597.44 555 2590.59 555L2301.41 555C2294.56 555 2289 549.442 2289 542.586Z" stroke="#000000" stroke-width="5.72917" stroke-linejoin="round" stroke-miterlimit="10" fill="#D9D9D9" fill-rule="evenodd"/><path d="M2356 303 2537 303 2537 555 2356 555Z" stroke="#000000" stroke-width="5.72917" stroke-linejoin="round" stroke-miterlimit="10" fill="#BFBFBF" fill-rule="evenodd"/><path d="M2370 379.562C2370 373.729 2374.73 369 2380.56 369L2512.44 369C2518.27 369 2523 373.729 2523 379.562L2523 490.437C2523 496.271 2518.27 501 2512.44 501L2380.56 501C2374.73 501 2370 496.271 2370 490.437Z" stroke="#000000" stroke-width="5.72917" stroke-linejoin="round" stroke-miterlimit="10" fill="#D9D9D9" fill-rule="evenodd"/><path d="M2380 385.833C2380 382.612 2382.61 380 2385.83 380L2507.17 380C2510.39 380 2513 382.612 2513 385.833L2513 409.166C2513 412.388 2510.39 415 2507.17 415L2385.83 415C2382.61 415 2380 412.388 2380 409.166Z" stroke="#000000" stroke-width="5.72917" stroke-linejoin="round" stroke-miterlimit="10" fill="#00A44D" fill-rule="evenodd"/><path d="M2434 426 2459 426 2459 440 2434 440Z" stroke="#000000" stroke-width="5.72917" stroke-linejoin="round" stroke-miterlimit="10" fill="#A6A6A6" fill-rule="evenodd"/><path d="M2434 451 2459 451 2459 465 2434 465Z" stroke="#000000" stroke-width="5.72917" stroke-linejoin="round" stroke-miterlimit="10" fill="#A6A6A6" fill-rule="evenodd"/><path d="M2434 476 2459 476 2459 490 2434 490Z" stroke="#000000" stroke-width="5.72917" stroke-linejoin="round" stroke-miterlimit="10" fill="#A6A6A6" fill-rule="evenodd"/><path d="M2398 426 2427 426 2427 440 2398 440Z" stroke="#000000" stroke-width="5.72917" stroke-linejoin="round" stroke-miterlimit="10" fill="#A6A6A6" fill-rule="evenodd"/><path d="M2398 451 2427 451 2427 465 2398 465Z" stroke="#000000" stroke-width="5.72917" stroke-linejoin="round" stroke-miterlimit="10" fill="#A6A6A6" fill-rule="evenodd"/><path d="M2470 451 2495 451 2495 465 2470 465Z" stroke="#000000" stroke-width="5.72917" stroke-linejoin="round" stroke-miterlimit="10" fill="#A6A6A6" fill-rule="evenodd"/></g></svg>