<?xml version='1.0' encoding='utf-8'?>
<svg xmlns="http://www.w3.org/2000/svg" width="424.0px" height="204.0px" overflow="hidden" viewBox="-165.0 -64.0 424.0 204.0"><rect id="bounding-box" x="-165.0" y="-64.0" width="424.0" height="204.0" fill="none" pointer-events="all" /><g transform="translate(-809 -87)"><path d="M810 91.596C810 89.61 811.61 88 813.596 88L897.404 88C899.39 88 901 89.61 901 91.596L901 157.404C901 159.39 899.39 161 897.404 161L813.596 161C811.61 161 810 159.39 810 157.404Z" stroke="#000000" stroke-width="1.66667" stroke-linejoin="round" stroke-miterlimit="10" fill="#D9D9D9" fill-rule="evenodd" /><path d="M829 88 882 88 882 161 829 161Z" stroke="#000000" stroke-width="1.66667" stroke-linejoin="round" stroke-miterlimit="10" fill="#BFBFBF" fill-rule="evenodd" /><path d="M833 110.121C833 108.397 834.397 107 836.121 107L874.879 107C876.603 107 878 108.397 878 110.121L878 142.879C878 144.603 876.603 146 874.879 146L836.121 146C834.397 146 833 144.603 833 142.879Z" stroke="#000000" stroke-width="1.66667" stroke-linejoin="round" stroke-miterlimit="10" fill="#D9D9D9" fill-rule="evenodd" /><path d="M836 111.833C836 110.821 836.821 110 837.833 110L873.167 110C874.179 110 875 110.821 875 111.833L875 119.167C875 120.179 874.179 121 873.167 121L837.833 121C836.821 121 836 120.179 836 119.167Z" stroke="#000000" stroke-width="1.66667" stroke-linejoin="round" stroke-miterlimit="10" fill="#00A44D" fill-rule="evenodd" /><path d="M852 124 859 124 859 128 852 128Z" stroke="#000000" stroke-width="1.66667" stroke-linejoin="round" stroke-miterlimit="10" fill="#A6A6A6" fill-rule="evenodd" /><path d="M852 131 859 131 859 135 852 135Z" stroke="#000000" stroke-width="1.66667" stroke-linejoin="round" stroke-miterlimit="10" fill="#A6A6A6" fill-rule="evenodd" /><path d="M852 139 859 139 859 143 852 143Z" stroke="#000000" stroke-width="1.66667" stroke-linejoin="round" stroke-miterlimit="10" fill="#A6A6A6" fill-rule="evenodd" /><path d="M842 124 850 124 850 128 842 128Z" stroke="#000000" stroke-width="1.66667" stroke-linejoin="round" stroke-miterlimit="10" fill="#A6A6A6" fill-rule="evenodd" /><path d="M842 131 850 131 850 135 842 135Z" stroke="#000000" stroke-width="1.66667" stroke-linejoin="round" stroke-miterlimit="10" fill="#A6A6A6" fill-rule="evenodd" /><path d="M862 131 870 131 870 135 862 135Z" stroke="#000000" stroke-width="1.66667" stroke-linejoin="round" stroke-miterlimit="10" fill="#A6A6A6" fill-rule="evenodd" /></g></svg>