<svg width="226" height="199" xmlns="http://www.w3.org/2000/svg" xmlns:xlink="http://www.w3.org/1999/xlink" xml:space="preserve" overflow="hidden"><g transform="translate(-2596 -445)"><path d="M0 108 88 0 176 108Z" stroke="#000000" stroke-width="5.72917" stroke-linecap="round" stroke-linejoin="round" stroke-miterlimit="10" fill="#D9D9D9" fill-rule="evenodd" transform="matrix(6.12323e-17 1 1 -6.12323e-17 2599 457)"/><path d="M0 108 88 0 176 108Z" stroke="#000000" stroke-width="5.72917" stroke-linecap="round" stroke-linejoin="round" stroke-miterlimit="10" fill="#D9D9D9" fill-rule="evenodd" transform="matrix(-1.83697e-16 -1 -1 1.83697e-16 2819 633)"/><path d="M0 7.1668C0 3.20869 3.20869-3.07144e-15 7.1668-3.07144e-15L185.833 0C189.792-1.53572e-15 193 3.20869 193 7.1668L193 35.8332C193 39.7913 189.792 43 185.833 43L7.1668 43C3.20869 43-1.53572e-15 39.7913 0 35.8332Z" stroke="#000000" stroke-width="5.72917" stroke-linecap="round" stroke-linejoin="round" stroke-miterlimit="10" fill="#404040" fill-rule="evenodd" transform="matrix(6.12323e-17 1 1 -6.12323e-17 2688 448)"/></g></svg>