<svg width="78" height="175" xmlns="http://www.w3.org/2000/svg" xmlns:xlink="http://www.w3.org/1999/xlink" xml:space="preserve" overflow="hidden"><defs><clipPath id="clip0"><rect x="79" y="212" width="78" height="175"/></clipPath></defs><g clip-path="url(#clip0)" transform="translate(-79 -212)"><path d="M0 2.68724C0 1.20312 1.20312 -3.97428e-16 2.68724 -7.94856e-16L2.68724 0C4.17137 -7.94856e-16 5.37449 1.20312 5.37449 2.68724L5.37449 22.286C5.37449 23.7701 4.17137 24.9732 2.68724 24.9732L2.68724 24.9732C1.20312 24.9732 -3.97428e-16 23.7701 -3.97428e-16 22.286Z" stroke="#000000" stroke-width="3" stroke-miterlimit="8" fill="#D9D9D9" fill-rule="evenodd" transform="matrix(0.125415 -0.992104 -0.992104 -0.125415 143.193 269.234)"/><path d="M103.5 318.5 107.53 275.5 127.47 275.5 131.5 318.5Z" stroke="#000000" stroke-width="3" stroke-miterlimit="8" fill="#D9D9D9" fill-rule="evenodd"/><path d="M91.9744 230.595 99.8353 232.214 100.254 230.183 123.937 256.762 108.996 266.647Z" stroke="#000000" stroke-width="3" stroke-miterlimit="8" fill="#D9D9D9" fill-rule="evenodd"/><path d="M132.767 226.474 135.871 233.875 137.784 233.072 129.232 267.63 112.635 260.885Z" stroke="#000000" stroke-width="3" stroke-miterlimit="8" fill="#D9D9D9" fill-rule="evenodd"/><path d="M99.3156 250.445C90.2426 251.205 82.271 244.467 81.5104 235.394 80.7498 226.321 87.4883 218.349 96.5613 217.589 105.634 216.828 113.606 223.567 114.366 232.64 115.127 241.713 108.389 249.684 99.3156 250.445Z" stroke="#000000" stroke-width="3" stroke-miterlimit="8" fill="#D9D9D9" fill-rule="evenodd"/><path d="M98.8229 244.567C92.9964 245.055 87.8772 240.728 87.3888 234.901 86.9004 229.075 91.2277 223.956 97.0541 223.467 102.881 222.979 108 227.306 108.488 233.133 108.977 238.959 104.649 244.078 98.8229 244.567Z" stroke="#000000" stroke-width="3" stroke-miterlimit="8" fill="#F2F2F2" fill-rule="evenodd"/><path d="M135.876 247.38C126.803 248.141 118.831 241.402 118.071 232.329 117.31 223.256 124.049 215.285 133.122 214.524 142.195 213.764 150.166 220.502 150.927 229.575 151.688 238.648 144.949 246.62 135.876 247.38Z" stroke="#000000" stroke-width="3" stroke-miterlimit="8" fill="#D9D9D9" fill-rule="evenodd"/><path d="M135.383 241.502C129.557 241.99 124.438 237.663 123.949 231.836 123.461 226.01 127.788 220.891 133.614 220.402 139.441 219.914 144.56 224.241 145.049 230.068 145.537 235.894 141.21 241.013 135.383 241.502Z" stroke="#000000" stroke-width="3" stroke-miterlimit="8" fill="#F2F2F2" fill-rule="evenodd"/><path d="M100.386 278.941C95.2324 268.829 99.2523 256.454 109.364 251.3 119.476 246.147 131.851 250.167 137.004 260.279 142.157 270.391 138.138 282.766 128.026 287.919 117.914 293.072 105.539 289.052 100.386 278.941Z" stroke="#000000" stroke-width="3" stroke-miterlimit="8" fill="#D9D9D9" fill-rule="evenodd"/><path d="M115.267 281.553C112.019 280.59 110.161 277.197 111.116 273.975L111.255 273.508 111.312 272.877C111.203 271.909 110.812 270.996 110.2 270.252L108.314 269.003 94.3391 267.111 94.3391 267.111 91.026 266.128C89.1962 265.585 88.2785 263.238 88.9763 260.887 89.674 258.535 91.723 257.069 93.5527 257.612L96.8659 258.595 96.8658 258.595 109.778 264.711 110.928 264.814C111.896 264.705 112.809 264.314 113.553 263.702L114.662 262.028 114.724 261.817 115.135 261.314 115.167 261.264 115.173 261.266 117.671 258.204C119.048 257.464 120.712 257.247 122.337 257.729 125.585 258.693 127.443 262.086 126.487 265.308L126.317 265.882 126.33 267.494C126.62 268.412 127.171 269.238 127.924 269.857L128.901 270.375 142.999 272.284 142.999 272.284 146.312 273.267C148.142 273.81 149.059 276.156 148.362 278.508 147.664 280.859 145.615 282.325 143.785 281.782L140.472 280.799 140.472 280.799 127.793 274.794 125.568 274.812C124.649 275.102 123.824 275.653 123.204 276.406L123.181 276.449 122.88 277.466C121.924 280.687 118.516 282.517 115.267 281.553Z" stroke="#000000" stroke-width="3" stroke-miterlimit="8" fill="#D9D9D9" fill-rule="evenodd"/><path d="M111.161 297.5 125.839 297.5C142.221 297.5 155.5 310.865 155.5 327.352L155.5 357.312 155.5 369.592 155.5 379.862C155.5 382.976 152.992 385.5 149.898 385.5L87.1017 385.5C84.008 385.5 81.5 382.976 81.5 379.862L81.5 369.592 81.5 357.312 81.5 327.352C81.5 310.865 94.7795 297.5 111.161 297.5Z" stroke="#000000" stroke-width="3" stroke-miterlimit="8" fill="#FFEB7B" fill-rule="evenodd"/><path d="M132.737 306.281C138.283 308.381 143.001 312.217 146.189 317.217" stroke="#000000" stroke-width="3" stroke-linecap="round" stroke-miterlimit="8" fill="none" fill-rule="evenodd"/></g></svg>