<svg width="53" height="117" xmlns="http://www.w3.org/2000/svg" xmlns:xlink="http://www.w3.org/1999/xlink" overflow="hidden"><g transform="translate(-386 -124)"><path d="M0 1.7915C0 0.80208 0.80208 -2.64952e-16 1.7915 -5.29904e-16L1.7915 0C2.78091 -5.29904e-16 3.58299 0.80208 3.58299 1.7915L3.58299 14.8573C3.58299 15.8467 2.78091 16.6488 1.7915 16.6488L1.7915 16.6488C0.80208 16.6488 -2.64952e-16 15.8467 -2.64952e-16 14.8573Z" stroke="#000000" stroke-width="2" stroke-miterlimit="8" fill="#D9D9D9" fill-rule="evenodd" transform="matrix(0.125415 -0.992104 -0.992104 -0.125415 428.89 162.385)"/><path d="M402 195 404.735 166 418.265 166 421 195Z" stroke="#000000" stroke-width="2" stroke-miterlimit="8" fill="#D9D9D9" fill-rule="evenodd"/><path d="M394.744 136.625 399.985 137.705 400.264 136.351 416.052 154.07 406.092 160.66Z" stroke="#000000" stroke-width="2" stroke-miterlimit="8" fill="#D9D9D9" fill-rule="evenodd"/><path d="M421.939 133.878 424.009 138.812 425.284 138.277 419.583 161.315 408.518 156.819Z" stroke="#000000" stroke-width="2" stroke-miterlimit="8" fill="#D9D9D9" fill-rule="evenodd"/><path d="M399.638 149.859C393.59 150.366 388.275 145.874 387.768 139.825 387.261 133.776 391.753 128.462 397.802 127.955 403.851 127.448 409.165 131.94 409.672 137.989 410.179 144.037 405.687 149.352 399.638 149.859Z" stroke="#000000" stroke-width="2" stroke-miterlimit="8" fill="#D9D9D9" fill-rule="evenodd"/><path d="M399.31 145.94C395.426 146.266 392.013 143.381 391.687 139.496 391.362 135.612 394.246 132.199 398.131 131.874 402.015 131.548 405.428 134.433 405.753 138.317 406.079 142.202 403.194 145.614 399.31 145.94Z" stroke="#000000" stroke-width="2" stroke-miterlimit="8" fill="#F2F2F2" fill-rule="evenodd"/><path d="M424.012 147.816C417.963 148.323 412.649 143.83 412.142 137.782 411.635 131.733 416.127 126.419 422.176 125.912 428.224 125.405 433.539 129.897 434.046 135.946 434.553 141.994 430.061 147.309 424.012 147.816Z" stroke="#000000" stroke-width="2" stroke-miterlimit="8" fill="#D9D9D9" fill-rule="evenodd"/><path d="M423.683 143.897C419.799 144.222 416.386 141.337 416.061 137.453 415.735 133.569 418.62 130.156 422.504 129.83 426.389 129.505 429.801 132.39 430.127 136.274 430.453 140.158 427.568 143.571 423.683 143.897Z" stroke="#000000" stroke-width="2" stroke-miterlimit="8" fill="#F2F2F2" fill-rule="evenodd"/><path d="M400.352 168.856C396.916 162.115 399.596 153.865 406.337 150.429 413.079 146.994 421.329 149.674 424.764 156.415 428.2 163.156 425.52 171.406 418.778 174.842 412.037 178.277 403.787 175.597 400.352 168.856Z" stroke="#000000" stroke-width="2" stroke-miterlimit="8" fill="#D9D9D9" fill-rule="evenodd"/><path d="M410.273 170.598C408.107 169.955 406.868 167.693 407.506 165.546L407.598 165.234 407.636 164.814C407.563 164.168 407.303 163.559 406.895 163.063L405.637 162.231 396.321 160.969 396.321 160.969 394.112 160.314C392.892 159.952 392.28 158.388 392.745 156.82 393.211 155.252 394.577 154.275 395.796 154.637L398.005 155.292 398.005 155.292 406.613 159.37 407.38 159.438C408.025 159.366 408.634 159.105 409.13 158.697L409.869 157.581 409.911 157.44 410.184 157.105 410.206 157.072 410.21 157.073 411.875 155.031C412.793 154.538 413.903 154.394 414.986 154.715 417.151 155.358 418.39 157.62 417.753 159.767L417.639 160.15 417.648 161.225C417.841 161.837 418.209 162.387 418.711 162.8L419.362 163.146 428.761 164.418 428.761 164.418 430.969 165.073C432.189 165.435 432.801 167 432.336 168.567 431.871 170.135 430.505 171.112 429.285 170.75L427.076 170.095 427.076 170.095 418.623 166.091 417.14 166.103C416.527 166.297 415.977 166.664 415.564 167.166L415.549 167.195 415.348 167.873C414.71 170.02 412.438 171.24 410.273 170.598Z" stroke="#000000" stroke-width="2" stroke-miterlimit="8" fill="#D9D9D9" fill-rule="evenodd"/><path d="M407.64 181 417.36 181C428.207 181 437 189.809 437 200.675L437 220.421 437 228.515 437 235.284C437 237.336 435.339 239 433.291 239L391.709 239C389.661 239 388 237.336 388 235.284L388 228.515 388 220.421 388 200.675C388 189.809 396.793 181 407.64 181Z" stroke="#000000" stroke-width="2" stroke-miterlimit="8" fill="#F04C4E" fill-rule="evenodd"/><path d="M395.473 194.29C396.292 192.014 398.097 190.231 400.383 189.44" stroke="#000000" stroke-width="2" stroke-linecap="round" stroke-linejoin="round" stroke-miterlimit="10" fill="none" fill-rule="evenodd"/></g></svg>