<svg width="148" height="331" xmlns="http://www.w3.org/2000/svg" xmlns:xlink="http://www.w3.org/1999/xlink" xml:space="preserve" overflow="hidden"><g transform="translate(-890 -313)"><path d="M0 5.13893C0 2.30078 2.30079-1.52002e-15 5.13895-3.04004e-15L5.13895 0C7.97712-1.52002e-15 10.2779 2.30078 10.2779 5.13893L10.2779 42.618C10.2779 45.4562 7.97707 47.7569 5.1389 47.7569L5.13895 47.7569C2.30079 47.7569 0 45.4561 0 42.618Z" stroke="#000000" stroke-width="5.72917" stroke-miterlimit="8" fill="#D9D9D9" fill-rule="evenodd" transform="matrix(0.125415 -0.992104 -0.992104 -0.125415 1012.16 420.82)"/><path d="M935 515 942.917 432 982.083 432 990 515Z" stroke="#000000" stroke-width="5.72917" stroke-miterlimit="8" fill="#D9D9D9" fill-rule="evenodd"/><path d="M914.215 346.93 929.248 350.027 930.048 346.142 975.338 396.97 946.765 415.873Z" stroke="#000000" stroke-width="5.72917" stroke-miterlimit="8" fill="#D9D9D9" fill-rule="evenodd"/><path d="M992.224 339.048 998.161 353.202 1001.82 351.668 985.464 417.752 953.725 404.855Z" stroke="#000000" stroke-width="5.72917" stroke-miterlimit="8" fill="#D9D9D9" fill-rule="evenodd"/><path d="M928.254 384.889C910.904 386.344 895.659 373.458 894.205 356.107 892.75 338.757 905.637 323.512 922.987 322.058 940.338 320.604 955.582 333.49 957.036 350.84 958.491 368.191 945.605 383.435 928.254 384.889Z" stroke="#000000" stroke-width="5.72917" stroke-miterlimit="8" fill="#D9D9D9" fill-rule="evenodd"/><path d="M927.312 373.648C916.17 374.582 906.38 366.307 905.446 355.165 904.512 344.023 912.788 334.233 923.93 333.299 935.072 332.365 944.861 340.64 945.795 351.783 946.729 362.925 938.454 372.714 927.312 373.648Z" stroke="#000000" stroke-width="5.72917" stroke-miterlimit="8" fill="#F2F2F2" fill-rule="evenodd"/><path d="M998.169 379.029C980.819 380.483 965.575 367.597 964.12 350.246 962.666 332.896 975.552 317.652 992.902 316.197 1010.25 314.743 1025.5 327.629 1026.95 344.979 1028.41 362.33 1015.52 377.574 998.169 379.029Z" stroke="#000000" stroke-width="5.72917" stroke-miterlimit="8" fill="#D9D9D9" fill-rule="evenodd"/><path d="M997.227 367.787C986.085 368.721 976.296 360.446 975.362 349.304 974.428 338.162 982.703 328.372 993.845 327.438 1004.99 326.504 1014.78 334.78 1015.71 345.922 1016.64 357.064 1008.37 366.853 997.227 367.787Z" stroke="#000000" stroke-width="5.72917" stroke-miterlimit="8" fill="#F2F2F2" fill-rule="evenodd"/><path d="M930.3 439.382C920.446 420.045 928.133 396.38 947.47 386.526 966.808 376.671 990.473 384.358 1000.33 403.695 1010.18 423.033 1002.49 446.698 983.157 456.552 963.82 466.407 940.155 458.72 930.3 439.382Z" stroke="#000000" stroke-width="5.72917" stroke-miterlimit="8" fill="#D9D9D9" fill-rule="evenodd"/><path d="M958.759 444.379C952.547 442.536 948.993 436.048 950.821 429.887L951.086 428.994 951.194 427.787C950.986 425.935 950.239 424.19 949.069 422.767L945.461 420.378 918.737 416.76 918.737 416.76 912.402 414.88C908.903 413.842 907.148 409.355 908.482 404.858 909.816 400.361 913.734 397.557 917.234 398.595L923.569 400.475 923.569 400.475 948.261 412.171 950.46 412.368C952.312 412.16 954.057 411.413 955.48 410.242L957.6 407.041 957.72 406.637 958.505 405.675 958.568 405.58 958.579 405.583 963.355 399.727C965.989 398.312 969.172 397.898 972.278 398.82 978.489 400.663 982.043 407.151 980.215 413.312L979.889 414.411 979.914 417.492C980.468 419.249 981.523 420.828 982.963 422.012L984.832 423.003 1011.79 426.653 1011.79 426.652 1018.13 428.532C1021.63 429.571 1023.38 434.058 1022.05 438.555 1020.71 443.052 1016.79 445.855 1013.29 444.817L1006.96 442.937 1006.96 442.937 982.712 431.453 978.456 431.487C976.699 432.041 975.121 433.096 973.937 434.535L973.893 434.618 973.316 436.562C971.488 442.723 964.971 446.223 958.759 444.379Z" stroke="#000000" stroke-width="5.72917" stroke-miterlimit="8" fill="#D9D9D9" fill-rule="evenodd"/><path d="M949.916 474 978.084 474C1009.52 474 1035 499.363 1035 530.65L1035 587.507 1035 610.811 1035 630.301C1035 636.21 1030.19 641 1024.25 641L903.749 641C897.813 641 893 636.21 893 630.301L893 610.811 893 587.507 893 530.65C893 499.363 918.482 474 949.916 474Z" stroke="#000000" stroke-width="5.72917" stroke-miterlimit="8" fill="#F04C4E" fill-rule="evenodd"/><path d="M915.36 511.21C917.715 504.666 922.905 499.54 929.477 497.265" stroke="#000000" stroke-width="5.72917" stroke-linecap="round" stroke-linejoin="round" stroke-miterlimit="10" fill="none" fill-rule="evenodd"/></g></svg>