<svg width="78" height="175" xmlns="http://www.w3.org/2000/svg" xmlns:xlink="http://www.w3.org/1999/xlink" xml:space="preserve" overflow="hidden"><defs><clipPath id="clip0"><rect x="-5" y="212" width="78" height="175"/></clipPath></defs><g clip-path="url(#clip0)" transform="translate(5 -212)"><path d="M0 2.68724C0 1.20312 1.20312 -3.97428e-16 2.68724 -7.94856e-16L2.68724 0C4.17137 -7.94856e-16 5.37449 1.20312 5.37449 2.68724L5.37449 22.286C5.37449 23.7701 4.17137 24.9732 2.68724 24.9732L2.68724 24.9732C1.20312 24.9732 -3.97428e-16 23.7701 -3.97428e-16 22.286Z" stroke="#000000" stroke-width="3" stroke-miterlimit="8" fill="#D9D9D9" fill-rule="evenodd" transform="matrix(0.125415 -0.992104 -0.992104 -0.125415 59.1932 269.234)"/><path d="M19.5 318.5 23.5303 275.5 43.4697 275.5 47.5 318.5Z" stroke="#000000" stroke-width="3" stroke-miterlimit="8" fill="#D9D9D9" fill-rule="evenodd"/><path d="M7.97439 230.595 15.8353 232.214 16.2538 230.183 39.9368 256.762 24.9955 266.647Z" stroke="#000000" stroke-width="3" stroke-miterlimit="8" fill="#D9D9D9" fill-rule="evenodd"/><path d="M48.7669 226.474 51.8715 233.875 53.7843 233.072 45.232 267.63 28.6349 260.885Z" stroke="#000000" stroke-width="3" stroke-miterlimit="8" fill="#D9D9D9" fill-rule="evenodd"/><path d="M15.3156 250.445C6.2426 251.205-1.72905 244.467-2.48962 235.394-3.25019 226.321 3.48833 218.349 12.5613 217.589 21.6343 216.828 29.6059 223.567 30.3665 232.64 31.127 241.713 24.3885 249.684 15.3156 250.445Z" stroke="#000000" stroke-width="3" stroke-miterlimit="8" fill="#D9D9D9" fill-rule="evenodd"/><path d="M14.8229 244.567C8.99643 245.055 3.87723 240.728 3.38881 234.901 2.90039 229.075 7.22771 223.956 13.0541 223.467 18.8806 222.979 23.9998 227.306 24.4882 233.133 24.9766 238.959 20.6493 244.078 14.8229 244.567Z" stroke="#000000" stroke-width="3" stroke-miterlimit="8" fill="#F2F2F2" fill-rule="evenodd"/><path d="M51.876 247.38C42.8031 248.141 34.8314 241.402 34.0709 232.329 33.3103 223.256 40.0488 215.285 49.1218 214.524 58.1947 213.764 66.1664 220.502 66.9269 229.575 67.6875 238.648 60.949 246.62 51.876 247.38Z" stroke="#000000" stroke-width="3" stroke-miterlimit="8" fill="#D9D9D9" fill-rule="evenodd"/><path d="M51.3832 241.502C45.5567 241.99 40.4375 237.663 39.9491 231.836 39.4607 226.01 43.788 220.891 49.6145 220.402 55.4409 219.914 60.5601 224.241 61.0485 230.068 61.5369 235.894 57.2096 241.013 51.3832 241.502Z" stroke="#000000" stroke-width="3" stroke-miterlimit="8" fill="#F2F2F2" fill-rule="evenodd"/><path d="M16.3857 278.941C11.2324 268.829 15.2523 256.454 25.3642 251.3 35.4762 246.147 47.851 250.167 53.0042 260.279 58.1575 270.391 54.1376 282.766 44.0257 287.919 33.9138 293.072 21.5389 289.052 16.3857 278.941Z" stroke="#000000" stroke-width="3" stroke-miterlimit="8" fill="#D9D9D9" fill-rule="evenodd"/><path d="M31.2673 281.553C28.019 280.59 26.1606 277.197 27.1165 273.975L27.2551 273.508 27.3116 272.877C27.2029 271.909 26.8122 270.996 26.2002 270.252L24.3137 269.003 10.3391 267.111 10.3391 267.111 7.02598 266.128C5.19624 265.585 4.27853 263.238 4.97626 260.887 5.674 258.535 7.72301 257.069 9.55275 257.612L12.8659 258.595 12.8658 258.595 25.7779 264.711 26.9276 264.814C27.8961 264.705 28.8087 264.314 29.5528 263.702L30.6615 262.028 30.7242 261.817 31.1345 261.314 31.1673 261.264 31.1734 261.266 33.6707 258.204C35.0482 257.464 36.7124 257.247 38.3365 257.729 41.5848 258.693 43.4432 262.086 42.4873 265.308L42.3168 265.882 42.3298 267.494C42.6197 268.412 43.1715 269.238 43.924 269.857L44.9014 270.375 58.9989 272.284 58.9989 272.284 62.312 273.267C64.1417 273.81 65.0595 276.156 64.3617 278.508 63.664 280.859 61.615 282.325 59.7852 281.782L56.4721 280.799 56.4721 280.799 43.7927 274.794 41.5676 274.812C40.6489 275.102 39.8236 275.653 39.2043 276.406L39.1813 276.449 38.8797 277.466C37.9238 280.687 34.5156 282.517 31.2673 281.553Z" stroke="#000000" stroke-width="3" stroke-miterlimit="8" fill="#D9D9D9" fill-rule="evenodd"/><path d="M27.1606 297.5 41.8394 297.5C58.2205 297.5 71.5 310.865 71.5 327.352L71.5 357.312 71.5 369.592 71.5 379.862C71.5 382.976 68.992 385.5 65.8983 385.5L3.10172 385.5C0.00801539 385.5-2.5 382.976-2.5 379.862L-2.5 369.592-2.5 357.312-2.5 327.352C-2.5 310.865 10.7795 297.5 27.1606 297.5Z" stroke="#000000" stroke-width="3" stroke-miterlimit="8" fill="#66BFE2" fill-rule="evenodd"/><path d="M48.7369 306.281C54.2827 308.381 59.0013 312.217 62.1889 317.217" stroke="#000000" stroke-width="3" stroke-linecap="round" stroke-miterlimit="8" fill="none" fill-rule="evenodd"/></g></svg>