<svg width="78" height="175" xmlns="http://www.w3.org/2000/svg" xmlns:xlink="http://www.w3.org/1999/xlink" xml:space="preserve" overflow="hidden"><defs><clipPath id="clip0"><rect x="170" y="212" width="78" height="175"/></clipPath></defs><g clip-path="url(#clip0)" transform="translate(-170 -212)"><path d="M0 2.68724C0 1.20312 1.20312 -3.97428e-16 2.68724 -7.94856e-16L2.68724 0C4.17137 -7.94856e-16 5.37449 1.20312 5.37449 2.68724L5.37449 22.286C5.37449 23.7701 4.17137 24.9732 2.68724 24.9732L2.68724 24.9732C1.20312 24.9732 -3.97428e-16 23.7701 -3.97428e-16 22.286Z" stroke="#000000" stroke-width="3" stroke-miterlimit="8" fill="#D9D9D9" fill-rule="evenodd" transform="matrix(0.125415 -0.992104 -0.992104 -0.125415 233.86 269.234)"/><path d="M194.5 318.5 198.53 275.5 218.47 275.5 222.5 318.5Z" stroke="#000000" stroke-width="3" stroke-miterlimit="8" fill="#D9D9D9" fill-rule="evenodd"/><path d="M182.641 230.595 190.502 232.214 190.921 230.183 214.604 256.762 199.662 266.647Z" stroke="#000000" stroke-width="3" stroke-miterlimit="8" fill="#D9D9D9" fill-rule="evenodd"/><path d="M223.434 226.474 226.538 233.875 228.451 233.072 219.899 267.63 203.302 260.885Z" stroke="#000000" stroke-width="3" stroke-miterlimit="8" fill="#D9D9D9" fill-rule="evenodd"/><path d="M189.982 250.445C180.909 251.205 172.938 244.467 172.177 235.394 171.417 226.321 178.155 218.349 187.228 217.589 196.301 216.828 204.273 223.567 205.033 232.64 205.794 241.713 199.055 249.684 189.982 250.445Z" stroke="#000000" stroke-width="3" stroke-miterlimit="8" fill="#D9D9D9" fill-rule="evenodd"/><path d="M189.49 244.567C183.663 245.055 178.544 240.728 178.056 234.901 177.567 229.075 181.894 223.956 187.721 223.467 193.547 222.979 198.667 227.306 199.155 233.133 199.643 238.959 195.316 244.078 189.49 244.567Z" stroke="#000000" stroke-width="3" stroke-miterlimit="8" fill="#F2F2F2" fill-rule="evenodd"/><path d="M226.543 247.38C217.47 248.141 209.498 241.402 208.738 232.329 207.977 223.256 214.716 215.285 223.789 214.524 232.861 213.764 240.833 220.502 241.594 229.575 242.354 238.648 235.616 246.62 226.543 247.38Z" stroke="#000000" stroke-width="3" stroke-miterlimit="8" fill="#D9D9D9" fill-rule="evenodd"/><path d="M226.05 241.502C220.224 241.99 215.104 237.663 214.616 231.836 214.127 226.01 218.455 220.891 224.281 220.402 230.108 219.914 235.227 224.241 235.715 230.068 236.204 235.894 231.876 241.013 226.05 241.502Z" stroke="#000000" stroke-width="3" stroke-miterlimit="8" fill="#F2F2F2" fill-rule="evenodd"/><path d="M191.052 278.941C185.899 268.829 189.919 256.454 200.031 251.3 210.143 246.147 222.518 250.167 227.671 260.279 232.824 270.391 228.804 282.766 218.692 287.919 208.581 293.072 196.206 289.052 191.052 278.941Z" stroke="#000000" stroke-width="3" stroke-miterlimit="8" fill="#D9D9D9" fill-rule="evenodd"/><path d="M205.934 281.553C202.686 280.59 200.827 277.197 201.783 273.975L201.922 273.508 201.978 272.877C201.87 271.909 201.479 270.996 200.867 270.252L198.98 269.003 185.006 267.111 185.006 267.111 181.693 266.128C179.863 265.585 178.945 263.238 179.643 260.887 180.341 258.535 182.39 257.069 184.22 257.612L187.533 258.595 187.533 258.595 200.445 264.711 201.594 264.814C202.563 264.705 203.475 264.314 204.22 263.702L205.328 262.028 205.391 261.817 205.801 261.314 205.834 261.264 205.84 261.266 208.337 258.204C209.715 257.464 211.379 257.247 213.003 257.729 216.252 258.693 218.11 262.086 217.154 265.308L216.984 265.882 216.997 267.494C217.286 268.412 217.838 269.238 218.591 269.857L219.568 270.375 233.666 272.284 233.666 272.284 236.979 273.267C238.809 273.81 239.726 276.156 239.028 278.508 238.331 280.859 236.282 282.325 234.452 281.782L231.139 280.799 231.139 280.799 218.459 274.794 216.234 274.812C215.316 275.102 214.49 275.653 213.871 276.406L213.848 276.449 213.546 277.466C212.591 280.687 209.182 282.517 205.934 281.553Z" stroke="#000000" stroke-width="3" stroke-miterlimit="8" fill="#D9D9D9" fill-rule="evenodd"/><path d="M202.161 297.5 216.839 297.5C233.221 297.5 246.5 310.865 246.5 327.352L246.5 357.312 246.5 369.592 246.5 379.862C246.5 382.976 243.992 385.5 240.898 385.5L178.102 385.5C175.008 385.5 172.5 382.976 172.5 379.862L172.5 369.592 172.5 357.312 172.5 327.352C172.5 310.865 185.779 297.5 202.161 297.5Z" stroke="#000000" stroke-width="3" stroke-miterlimit="8" fill="#F04C4E" fill-rule="evenodd"/><path d="M223.214 306.342C228.665 308.482 233.287 312.366 236.387 317.41" stroke="#000000" stroke-width="3" stroke-linecap="round" stroke-miterlimit="8" fill="none" fill-rule="evenodd"/></g></svg>