<svg width="441" height="232" xmlns="http://www.w3.org/2000/svg" xmlns:xlink="http://www.w3.org/1999/xlink" xml:space="preserve" overflow="hidden"><g transform="translate(-2760 -1028)"><path d="M2778.87 1031 3182.13 1031C3190.9 1031 3198 1038.11 3198 1046.88L3198 1087.81 3189.91 1087.81C3188.52 1087.81 3187.39 1088.94 3187.39 1090.33L3187.39 1100.43C3187.39 1101.83 3188.52 1102.96 3189.91 1102.96L3198 1102.96 3198 1131.18 3198 1134.41 3198 1185.04 3189.91 1185.04C3188.52 1185.04 3187.39 1186.17 3187.39 1187.57L3187.39 1197.67C3187.39 1199.06 3188.52 1200.19 3189.91 1200.19L3198 1200.19 3198 1241.12C3198 1249.89 3190.9 1257 3182.13 1257L2778.87 1257C2770.1 1257 2763 1249.89 2763 1241.12L2763 1200.19 2771.97 1200.19C2773.36 1200.19 2774.49 1199.06 2774.49 1197.67L2774.49 1187.57C2774.49 1186.17 2773.36 1185.04 2771.97 1185.04L2763 1185.04 2763 1134.41 2763 1131.18 2763 1102.96 2771.97 1102.96C2773.36 1102.96 2774.49 1101.83 2774.49 1100.43L2774.49 1090.33C2774.49 1088.94 2773.36 1087.81 2771.97 1087.81L2763 1087.81 2763 1046.88C2763 1038.11 2770.1 1031 2778.87 1031Z" stroke="#000000" stroke-width="5.72917" stroke-linejoin="round" stroke-miterlimit="10" fill="#404040" fill-rule="evenodd"/><path d="M3042 1111.92C3042 1105.89 3046.89 1101 3052.92 1101L3137.08 1101C3143.11 1101 3148 1105.89 3148 1111.92L3148 1177.08C3148 1183.11 3143.11 1188 3137.08 1188L3052.92 1188C3046.89 1188 3042 1183.11 3042 1177.08Z" stroke="#000000" stroke-width="5.72917" stroke-linejoin="round" stroke-miterlimit="10" fill="#F2F2F2" fill-rule="evenodd"/><path d="M3096 1121 3128.09 1121" stroke="#000000" stroke-width="5.72917" stroke-linecap="round" stroke-linejoin="round" stroke-miterlimit="10" fill="none" fill-rule="evenodd"/><path d="M3109 1138 3128.02 1138" stroke="#000000" stroke-width="5.72917" stroke-linecap="round" stroke-linejoin="round" stroke-miterlimit="10" fill="none" fill-rule="evenodd"/><path d="M2798 1052.77C2798 1050.69 2799.69 1049 2801.77 1049L2875.23 1049C2877.31 1049 2879 1050.69 2879 1052.77L2879 1075.23C2879 1077.31 2877.31 1079 2875.23 1079L2801.77 1079C2799.69 1079 2798 1077.31 2798 1075.23Z" stroke="#000000" stroke-width="5.72917" stroke-linejoin="round" stroke-miterlimit="10" fill="#F2F2F2" fill-rule="evenodd"/><path d="M2830 1140.5C2830 1135.81 2833.81 1132 2838.5 1132 2843.19 1132 2847 1135.81 2847 1140.5 2847 1145.19 2843.19 1149 2838.5 1149 2833.81 1149 2830 1145.19 2830 1140.5Z" stroke="#000000" stroke-width="5.72917" stroke-linecap="round" stroke-linejoin="round" stroke-miterlimit="10" fill="#5B9BD5" fill-rule="evenodd"/><path d="M2830 1169C2830 1164.58 2833.81 1161 2838.5 1161 2843.19 1161 2847 1164.58 2847 1169 2847 1173.42 2843.19 1177 2838.5 1177 2833.81 1177 2830 1173.42 2830 1169Z" stroke="#000000" stroke-width="5.72917" stroke-linecap="round" stroke-linejoin="round" stroke-miterlimit="10" fill="#70AD47" fill-rule="evenodd"/><path d="M2821 1207C2821 1197.61 2828.61 1190 2838 1190 2847.39 1190 2855 1197.61 2855 1207 2855 1216.39 2847.39 1224 2838 1224 2828.61 1224 2821 1216.39 2821 1207Z" stroke="#000000" stroke-width="5.72917" stroke-linecap="round" stroke-linejoin="round" stroke-miterlimit="10" fill="#595959" fill-rule="evenodd"/><path d="M0 8.5001C-1.08215e-15 3.80562 3.80554-1.08218e-15 8.49992-2.16435e-15 13.1943-4.3287e-15 16.9998 3.80562 16.9998 8.5001 16.9998 13.1946 13.1943 17.0002 8.49992 17.0002 3.80554 17.0002-5.41077e-15 13.1946 0 8.5001Z" stroke="#000000" stroke-width="5.72917" stroke-linecap="round" stroke-linejoin="round" stroke-miterlimit="10" fill="#595959" fill-rule="evenodd" transform="matrix(1 0 0 -1 2830 1215)"/><path d="M2896 1113.55C2896 1107.17 2901.17 1102 2907.55 1102L2976.45 1102C2982.83 1102 2988 1107.17 2988 1113.55L2988 1186.45C2988 1192.83 2982.83 1198 2976.45 1198L2907.55 1198C2901.17 1198 2896 1192.83 2896 1186.45Z" stroke="#000000" stroke-width="5.72917" stroke-linejoin="round" stroke-miterlimit="10" fill="none" fill-rule="evenodd"/></g></svg>