<svg width="172" height="162" xmlns="http://www.w3.org/2000/svg" xmlns:xlink="http://www.w3.org/1999/xlink" xml:space="preserve" overflow="hidden"><g transform="translate(-1022 -1072)"><path d="M1049 1079.38C1049 1076.96 1050.96 1075 1053.38 1075L1162.62 1075C1165.04 1075 1167 1076.96 1167 1079.38L1167 1199.62C1167 1202.04 1165.04 1204 1162.62 1204L1053.38 1204C1050.96 1204 1049 1202.04 1049 1199.62Z" stroke="#000000" stroke-width="5.72917" stroke-linecap="round" stroke-linejoin="round" stroke-miterlimit="10" fill="#D9D9D9" fill-rule="evenodd"/><path d="M1025 1195.37C1025 1194.61 1025.61 1194 1026.37 1194L1189.63 1194C1190.39 1194 1191 1194.61 1191 1195.37L1191 1229.63C1191 1230.39 1190.39 1231 1189.63 1231L1026.37 1231C1025.61 1231 1025 1230.39 1025 1229.63Z" stroke="#000000" stroke-width="5.72917" stroke-linecap="round" stroke-linejoin="round" stroke-miterlimit="10" fill="#D9D9D9" fill-rule="evenodd"/><path d="M1096 1101.33C1096 1098.94 1097.94 1097 1100.33 1097L1145.67 1097C1148.06 1097 1150 1098.94 1150 1101.33L1150 1118.67C1150 1121.06 1148.06 1123 1145.67 1123L1100.33 1123C1097.94 1123 1096 1121.06 1096 1118.67Z" stroke="#000000" stroke-width="5.72917" stroke-miterlimit="8" fill="#FFFFFF" fill-rule="evenodd"/><path d="M1108 1109 1127.32 1109" stroke="#000000" stroke-width="5.72917" stroke-linecap="round" stroke-miterlimit="8" fill="none" fill-rule="evenodd"/><path d="M1086 1206.5 1106.67 1206.5 1106.67 1200 1130 1213 1106.67 1226 1106.67 1219.5 1086 1219.5Z" fill-rule="evenodd"/></g></svg>