<svg width="61" height="58" xmlns="http://www.w3.org/2000/svg" xmlns:xlink="http://www.w3.org/1999/xlink" overflow="hidden"><g transform="translate(-980 -432)"><path d="M990 435.52C990 434.681 990.681 434 991.52 434L1029.48 434C1030.32 434 1031 434.681 1031 435.52L1031 477.48C1031 478.319 1030.32 479 1029.48 479L991.52 479C990.681 479 990 478.319 990 477.48Z" stroke="#000000" stroke-width="2" stroke-linecap="round" stroke-linejoin="round" stroke-miterlimit="10" fill="#D9D9D9" fill-rule="evenodd"/><path d="M982 475.482C982 475.216 982.216 475 982.482 475L1039.52 475C1039.78 475 1040 475.216 1040 475.482L1040 487.518C1040 487.784 1039.78 488 1039.52 488L982.482 488C982.216 488 982 487.784 982 487.518Z" stroke="#000000" stroke-width="2" stroke-linecap="round" stroke-linejoin="round" stroke-miterlimit="10" fill="#D9D9D9" fill-rule="evenodd"/><path d="M1007 442.5C1007 441.672 1007.67 441 1008.5 441L1023.5 441C1024.33 441 1025 441.672 1025 442.5L1025 448.5C1025 449.328 1024.33 450 1023.5 450L1008.5 450C1007.67 450 1007 449.328 1007 448.5Z" stroke="#000000" stroke-width="2" stroke-miterlimit="8" fill="#FFFFFF" fill-rule="evenodd"/><path d="M1011 446 1017.73 446" stroke="#000000" stroke-width="2" stroke-linecap="round" stroke-miterlimit="8" fill="none" fill-rule="evenodd"/><path d="M1003 479.25 1009.92 479.25 1009.92 477 1018 481.5 1009.92 486 1009.92 483.75 1003 483.75Z" fill-rule="evenodd"/></g></svg>