<svg width="372" height="282" xmlns="http://www.w3.org/2000/svg" xmlns:xlink="http://www.w3.org/1999/xlink" xml:space="preserve" overflow="hidden"><g transform="translate(-2352 -1631)"><path d="M2538 1634C2611.37 1634 2674.33 1638.23 2701.22 1644.25L2713.32 1647.62C2717.83 1649.52 2721 1653.99 2721 1659.19L2721 1787.4 2721 1793.63 2721 1899.53C2721 1905.31 2716.31 1910 2710.52 1910L2365.48 1910C2359.69 1910 2355 1905.31 2355 1899.53L2355 1793.63 2355 1787.4 2355 1659.19C2355 1653.99 2358.17 1649.52 2362.68 1647.62L2374.78 1644.25C2401.67 1638.23 2464.63 1634 2538 1634Z" stroke="#000000" stroke-width="5.72917" stroke-linecap="round" stroke-linejoin="round" stroke-miterlimit="10" fill="#404040" fill-rule="evenodd"/><path d="M2538 1652C2604.56 1652 2661.66 1654.94 2686.06 1659.13L2697.03 1661.47C2701.13 1662.8 2704 1665.9 2704 1669.52L2704 1758.71 2704 1763.05 2704 1836.71C2704 1840.74 2699.74 1844 2694.49 1844L2681.25 1844 2660.22 1844 2615.06 1844C2611.5 1844 2608.61 1841.1 2608.61 1837.52L2608.61 1824.52 2608.61 1805.03C2608.61 1801.45 2605.73 1798.55 2602.17 1798.55L2544.02 1798.55 2535.98 1798.55 2477.83 1798.55C2474.27 1798.55 2471.38 1801.45 2471.38 1805.03L2471.38 1824.52 2471.38 1837.22C2471.38 1840.97 2468.36 1844 2464.64 1844L2424.31 1844 2395.36 1844 2381.51 1844C2376.26 1844 2372 1840.74 2372 1836.71L2372 1763.05 2372 1758.71 2372 1669.52C2372 1665.9 2374.87 1662.8 2378.96 1661.47L2389.94 1659.13C2414.33 1654.94 2471.44 1652 2538 1652Z" stroke="#000000" stroke-width="5.72917" stroke-linecap="round" stroke-linejoin="round" stroke-miterlimit="10" fill="#404040" fill-rule="evenodd"/><path d="M2506 1747 2539 1690 2572 1747Z" stroke="#000000" stroke-width="5.72917" stroke-linecap="round" stroke-linejoin="round" stroke-miterlimit="10" fill-rule="evenodd"/><path d="M2485 1765 2593.44 1765" stroke="#000000" stroke-width="5.72917" stroke-linecap="round" stroke-linejoin="round" stroke-miterlimit="10" fill="#404040" fill-rule="evenodd"/><path d="M2389 1713C2389 1705.82 2394.82 1700 2402 1700 2409.18 1700 2415 1705.82 2415 1713 2415 1720.18 2409.18 1726 2402 1726 2394.82 1726 2389 1720.18 2389 1713Z" stroke="#000000" stroke-width="5.72917" stroke-linecap="round" stroke-linejoin="round" stroke-miterlimit="10" fill="#D9D9D9" fill-rule="evenodd"/><path d="M2664 1713C2664 1705.82 2669.6 1700 2676.5 1700 2683.4 1700 2689 1705.82 2689 1713 2689 1720.18 2683.4 1726 2676.5 1726 2669.6 1726 2664 1720.18 2664 1713Z" stroke="#000000" stroke-width="5.72917" stroke-linecap="round" stroke-linejoin="round" stroke-miterlimit="10" fill="#D9D9D9" fill-rule="evenodd"/><path d="M2355.5 1855.5 2721.49 1855.5" stroke="#000000" stroke-width="3.4375" stroke-linecap="round" stroke-linejoin="round" stroke-miterlimit="10" fill="#404040" fill-rule="evenodd"/><path d="M2485 1813.56C2485 1809.94 2487.94 1807 2491.56 1807L2586.44 1807C2590.06 1807 2593 1809.94 2593 1813.56L2593 1867.44C2593 1871.06 2590.06 1874 2586.44 1874L2491.56 1874C2487.94 1874 2485 1871.06 2485 1867.44Z" stroke="#000000" stroke-width="5.72917" stroke-linecap="round" stroke-linejoin="round" stroke-miterlimit="10" fill="#404040" fill-rule="evenodd"/><path d="M2504 1824.15C2504 1822.96 2504.96 1822 2506.15 1822L2571.85 1822C2573.04 1822 2574 1822.96 2574 1824.15L2574 1841.85C2574 1843.04 2573.04 1844 2571.85 1844L2506.15 1844C2504.96 1844 2504 1843.04 2504 1841.85Z" stroke="#000000" stroke-width="5.72917" stroke-linecap="round" stroke-linejoin="round" stroke-miterlimit="10" fill="#D9D9D9" fill-rule="evenodd"/><path d="M2497 1854.78C2497 1854.35 2497.35 1854 2497.78 1854L2512.22 1854C2512.65 1854 2513 1854.35 2513 1854.78L2513 1861.22C2513 1861.65 2512.65 1862 2512.22 1862L2497.78 1862C2497.35 1862 2497 1861.65 2497 1861.22Z" stroke="#000000" stroke-width="5.72917" stroke-linecap="round" stroke-linejoin="round" stroke-miterlimit="10" fill="#7F7F7F" fill-rule="evenodd"/><path d="M2566 1854.78C2566 1854.35 2566.35 1854 2566.78 1854L2580.22 1854C2580.65 1854 2581 1854.35 2581 1854.78L2581 1861.22C2581 1861.65 2580.65 1862 2580.22 1862L2566.78 1862C2566.35 1862 2566 1861.65 2566 1861.22Z" stroke="#000000" stroke-width="5.72917" stroke-linecap="round" stroke-linejoin="round" stroke-miterlimit="10" fill="#7F7F7F" fill-rule="evenodd"/><path d="M2532 1854.78C2532 1854.35 2532.35 1854 2532.78 1854L2546.22 1854C2546.65 1854 2547 1854.35 2547 1854.78L2547 1861.22C2547 1861.65 2546.65 1862 2546.22 1862L2532.78 1862C2532.35 1862 2532 1861.65 2532 1861.22Z" stroke="#000000" stroke-width="5.72917" stroke-linecap="round" stroke-linejoin="round" stroke-miterlimit="10" fill="#7F7F7F" fill-rule="evenodd"/></g></svg>