<svg width="327" height="262" xmlns="http://www.w3.org/2000/svg" xmlns:xlink="http://www.w3.org/1999/xlink" xml:space="preserve" overflow="hidden"><g transform="translate(-3390 -664)"><path d="M3501 669.693C3501 668.206 3502.21 667 3503.69 667L3539.31 667C3540.79 667 3542 668.206 3542 669.693L3542 709.307C3542 710.794 3540.79 712 3539.31 712L3503.69 712C3502.21 712 3501 710.794 3501 709.307Z" stroke="#000000" stroke-width="5.72917" stroke-linejoin="round" stroke-miterlimit="10" fill="#D9D9D9" fill-rule="evenodd"/><path d="M3601 731.088C3601 729.382 3602.38 728 3604.09 728L3710.91 728C3712.62 728 3714 729.382 3714 731.088L3714 771.913C3714 773.618 3712.62 775 3710.91 775L3604.09 775C3602.38 775 3601 773.618 3601 771.913Z" stroke="#000000" stroke-width="5.72917" stroke-linejoin="round" stroke-miterlimit="10" fill="#D9D9D9" fill-rule="evenodd"/><path d="M3393 712.78C3393 704.617 3399.62 698 3407.78 698L3633.22 698C3641.38 698 3648 704.617 3648 712.78L3648 908.22C3648 916.383 3641.38 923 3633.22 923L3407.78 923C3399.62 923 3393 916.383 3393 908.22Z" stroke="#000000" stroke-width="5.72917" stroke-linejoin="round" stroke-miterlimit="10" fill="#D9D9D9" fill-rule="evenodd"/><path d="M3455 766.073C3455 763.824 3456.82 762 3459.07 762L3581.93 762C3584.18 762 3586 763.824 3586 766.073L3586 819.927C3586 822.177 3584.18 824 3581.93 824L3459.07 824C3456.82 824 3455 822.177 3455 819.927Z" stroke="#000000" stroke-width="5.72917" stroke-linejoin="round" stroke-miterlimit="10" fill="#E4281E" fill-rule="evenodd"/><path d="M3470 775.905C3470 774.853 3470.85 774 3471.91 774L3530.1 774C3531.15 774 3532 774.853 3532 775.905L3532 801.095C3532 802.147 3531.15 803 3530.1 803L3471.91 803C3470.85 803 3470 802.147 3470 801.095Z" stroke="#000000" stroke-width="5.72917" stroke-linejoin="round" stroke-miterlimit="10" fill="#FFFFFF" fill-rule="evenodd"/><path d="M3550 797.5C3550 792.253 3554.25 788 3559.5 788 3564.75 788 3569 792.253 3569 797.5 3569 802.747 3564.75 807 3559.5 807 3554.25 807 3550 802.747 3550 797.5Z" stroke="#000000" stroke-width="5.72917" stroke-linejoin="round" stroke-miterlimit="10" fill-rule="evenodd"/><path d="M3608 784.5C3608 779.253 3612.25 775 3617.5 775 3622.75 775 3627 779.253 3627 784.5 3627 789.747 3622.75 794 3617.5 794 3612.25 794 3608 789.747 3608 784.5Z" stroke="#000000" stroke-width="5.72917" stroke-linejoin="round" stroke-miterlimit="10" fill="#E4281E" fill-rule="evenodd"/><path d="M3557 878C3557 865.849 3566.85 856 3579 856 3591.15 856 3601 865.849 3601 878 3601 890.152 3591.15 900 3579 900 3566.85 900 3557 890.152 3557 878Z" stroke="#000000" stroke-width="5.72917" stroke-linejoin="round" stroke-miterlimit="10" fill="#D9D9D9" fill-rule="evenodd"/><path d="M3553 876.23C3553 871.132 3557.13 867 3562.23 867L3607.77 867C3612.87 867 3617 871.132 3617 876.23L3617 879.77C3617 884.868 3612.87 889 3607.77 889L3562.23 889C3557.13 889 3553 884.868 3553 879.77Z" stroke="#000000" stroke-width="5.72917" stroke-linejoin="round" stroke-miterlimit="10" fill="#404040" fill-rule="evenodd"/><path d="M3457 881.5C3457 875.149 3462.15 870 3468.5 870 3474.85 870 3480 875.149 3480 881.5 3480 887.851 3474.85 893 3468.5 893 3462.15 893 3457 887.851 3457 881.5Z" stroke="#000000" stroke-width="5.72917" stroke-miterlimit="8" fill="#D8B273" fill-rule="evenodd"/><path d="M3455 745 3493.33 745" stroke="#000000" stroke-width="5.72917" stroke-linecap="round" stroke-linejoin="round" stroke-miterlimit="10" fill="none" fill-rule="evenodd"/><path d="M3484 745 3522.33 745" stroke="#000000" stroke-width="5.72917" stroke-linecap="round" stroke-linejoin="round" stroke-miterlimit="10" fill="none" fill-rule="evenodd"/><path d="M3493 731.667C3493 730.194 3494.19 729 3495.67 729L3536.33 729C3537.81 729 3539 730.194 3539 731.667L3539 742.333C3539 743.806 3537.81 745 3536.33 745L3495.67 745C3494.19 745 3493 743.806 3493 742.333Z" stroke="#000000" stroke-width="5.72917" stroke-linejoin="round" stroke-miterlimit="10" fill-rule="evenodd"/><path d="M3424 762 3427.75 762" stroke="#000000" stroke-width="5.72917" stroke-linecap="round" stroke-linejoin="round" stroke-miterlimit="10" fill="none" fill-rule="evenodd"/><path d="M3424 783 3427.75 783" stroke="#000000" stroke-width="5.72917" stroke-linecap="round" stroke-linejoin="round" stroke-miterlimit="10" fill="none" fill-rule="evenodd"/><path d="M3424 803 3427.75 803" stroke="#000000" stroke-width="5.72917" stroke-linecap="round" stroke-linejoin="round" stroke-miterlimit="10" fill="none" fill-rule="evenodd"/><path d="M3424 824 3427.75 824" stroke="#000000" stroke-width="5.72917" stroke-linecap="round" stroke-linejoin="round" stroke-miterlimit="10" fill="none" fill-rule="evenodd"/></g></svg>