<svg width="115" height="92" xmlns="http://www.w3.org/2000/svg" xmlns:xlink="http://www.w3.org/1999/xlink" overflow="hidden"><g transform="translate(-1056 -417)"><path d="M1095 418.92C1095 418.412 1095.41 418 1095.92 418L1108.08 418C1108.59 418 1109 418.412 1109 418.92L1109 433.08C1109 433.588 1108.59 434 1108.08 434L1095.92 434C1095.41 434 1095 433.588 1095 433.08Z" stroke="#000000" stroke-width="2" stroke-linejoin="round" stroke-miterlimit="10" fill="#D9D9D9" fill-rule="evenodd"/><path d="M1130 440.117C1130 439.5 1130.5 439 1131.12 439L1167.88 439C1168.5 439 1169 439.5 1169 440.117L1169 454.883C1169 455.5 1168.5 456 1167.88 456L1131.12 456C1130.5 456 1130 455.5 1130 454.883Z" stroke="#000000" stroke-width="2" stroke-linejoin="round" stroke-miterlimit="10" fill="#D9D9D9" fill-rule="evenodd"/><path d="M1057 434.124C1057 431.294 1059.29 429 1062.12 429L1140.88 429C1143.71 429 1146 431.294 1146 434.124L1146 501.876C1146 504.706 1143.71 507 1140.88 507L1062.12 507C1059.29 507 1057 504.706 1057 501.876Z" stroke="#000000" stroke-width="2" stroke-linejoin="round" stroke-miterlimit="10" fill="#D9D9D9" fill-rule="evenodd"/><path d="M1079 452.445C1079 451.647 1079.65 451 1080.45 451L1123.55 451C1124.35 451 1125 451.647 1125 452.445L1125 471.555C1125 472.353 1124.35 473 1123.55 473L1080.45 473C1079.65 473 1079 472.353 1079 471.555Z" stroke="#000000" stroke-width="2" stroke-linejoin="round" stroke-miterlimit="10" fill="#E4281E" fill-rule="evenodd"/><path d="M1084 455.723C1084 455.324 1084.32 455 1084.72 455L1105.28 455C1105.68 455 1106 455.324 1106 455.723L1106 465.277C1106 465.676 1105.68 466 1105.28 466L1084.72 466C1084.32 466 1084 465.676 1084 465.277Z" stroke="#000000" stroke-width="2" stroke-linejoin="round" stroke-miterlimit="10" fill="#FFFFFF" fill-rule="evenodd"/><path d="M1112 463.5C1112 461.567 1113.57 460 1115.5 460 1117.43 460 1119 461.567 1119 463.5 1119 465.433 1117.43 467 1115.5 467 1113.57 467 1112 465.433 1112 463.5Z" stroke="#000000" stroke-width="2" stroke-linejoin="round" stroke-miterlimit="10" fill-rule="evenodd"/><path d="M1132 459C1132 457.343 1133.57 456 1135.5 456 1137.43 456 1139 457.343 1139 459 1139 460.657 1137.43 462 1135.5 462 1133.57 462 1132 460.657 1132 459Z" stroke="#000000" stroke-width="2" stroke-linejoin="round" stroke-miterlimit="10" fill="#E4281E" fill-rule="evenodd"/><path d="M1115 492C1115 487.581 1118.36 484 1122.5 484 1126.64 484 1130 487.581 1130 492 1130 496.419 1126.64 500 1122.5 500 1118.36 500 1115 496.419 1115 492Z" stroke="#000000" stroke-width="2" stroke-linejoin="round" stroke-miterlimit="10" fill="#D9D9D9" fill-rule="evenodd"/><path d="M1113 491.356C1113 489.503 1114.5 488 1116.36 488L1132.64 488C1134.5 488 1136 489.503 1136 491.356L1136 492.644C1136 494.497 1134.5 496 1132.64 496L1116.36 496C1114.5 496 1113 494.497 1113 492.644Z" stroke="#000000" stroke-width="2" stroke-linejoin="round" stroke-miterlimit="10" fill="#404040" fill-rule="evenodd"/><path d="M1080.5 493.5C1080.5 491.291 1082.29 489.5 1084.5 489.5 1086.71 489.5 1088.5 491.291 1088.5 493.5 1088.5 495.709 1086.71 497.5 1084.5 497.5 1082.29 497.5 1080.5 495.709 1080.5 493.5Z" stroke="#000000" stroke-width="1.33333" stroke-miterlimit="8" fill="#D8B273" fill-rule="evenodd"/><path d="M1079 445 1092.36 445" stroke="#000000" stroke-width="2" stroke-linecap="round" stroke-linejoin="round" stroke-miterlimit="10" fill="none" fill-rule="evenodd"/><path d="M1089 445 1102.36 445" stroke="#000000" stroke-width="2" stroke-linecap="round" stroke-linejoin="round" stroke-miterlimit="10" fill="none" fill-rule="evenodd"/><path d="M1092 440.833C1092 440.373 1092.37 440 1092.83 440L1107.17 440C1107.63 440 1108 440.373 1108 440.833L1108 444.167C1108 444.627 1107.63 445 1107.17 445L1092.83 445C1092.37 445 1092 444.627 1092 444.167Z" stroke="#000000" stroke-width="2" stroke-linejoin="round" stroke-miterlimit="10" fill-rule="evenodd"/><path d="M1068 451 1069.31 451" stroke="#000000" stroke-width="2" stroke-linecap="round" stroke-linejoin="round" stroke-miterlimit="10" fill="none" fill-rule="evenodd"/><path d="M1068 459 1069.31 459" stroke="#000000" stroke-width="2" stroke-linecap="round" stroke-linejoin="round" stroke-miterlimit="10" fill="none" fill-rule="evenodd"/><path d="M1068 466 1069.31 466" stroke="#000000" stroke-width="2" stroke-linecap="round" stroke-linejoin="round" stroke-miterlimit="10" fill="none" fill-rule="evenodd"/><path d="M1068 473 1069.31 473" stroke="#000000" stroke-width="2" stroke-linecap="round" stroke-linejoin="round" stroke-miterlimit="10" fill="none" fill-rule="evenodd"/></g></svg>