<svg width="115" height="93" xmlns="http://www.w3.org/2000/svg" xmlns:xlink="http://www.w3.org/1999/xlink" overflow="hidden"><g transform="translate(-1036 -150)"><path d="M1075 152.92C1075 152.412 1075.41 152 1075.92 152L1088.08 152C1088.59 152 1089 152.412 1089 152.92L1089 167.08C1089 167.588 1088.59 168 1088.08 168L1075.92 168C1075.41 168 1075 167.588 1075 167.08Z" stroke="#000000" stroke-width="2" stroke-linejoin="round" stroke-miterlimit="10" fill="#D9D9D9" fill-rule="evenodd"/><path d="M1110 174.117C1110 173.5 1110.5 173 1111.12 173L1147.88 173C1148.5 173 1149 173.5 1149 174.117L1149 188.883C1149 189.5 1148.5 190 1147.88 190L1111.12 190C1110.5 190 1110 189.5 1110 188.883Z" stroke="#000000" stroke-width="2" stroke-linejoin="round" stroke-miterlimit="10" fill="#D9D9D9" fill-rule="evenodd"/><path d="M1037 168.124C1037 165.294 1039.29 163 1042.12 163L1120.88 163C1123.71 163 1126 165.294 1126 168.124L1126 235.876C1126 238.706 1123.71 241 1120.88 241L1042.12 241C1039.29 241 1037 238.706 1037 235.876Z" stroke="#000000" stroke-width="2" stroke-linejoin="round" stroke-miterlimit="10" fill="#D9D9D9" fill-rule="evenodd"/><path d="M1059 186.445C1059 185.647 1059.65 185 1060.45 185L1103.55 185C1104.35 185 1105 185.647 1105 186.445L1105 205.555C1105 206.353 1104.35 207 1103.55 207L1060.45 207C1059.65 207 1059 206.353 1059 205.555Z" stroke="#000000" stroke-width="2" stroke-linejoin="round" stroke-miterlimit="10" fill="#E4281E" fill-rule="evenodd"/><path d="M1064 189.723C1064 189.324 1064.32 189 1064.72 189L1085.28 189C1085.68 189 1086 189.324 1086 189.723L1086 199.277C1086 199.676 1085.68 200 1085.28 200L1064.72 200C1064.32 200 1064 199.676 1064 199.277Z" stroke="#000000" stroke-width="2" stroke-linejoin="round" stroke-miterlimit="10" fill="#FFFFFF" fill-rule="evenodd"/><path d="M1092 197.5C1092 195.567 1093.57 194 1095.5 194 1097.43 194 1099 195.567 1099 197.5 1099 199.433 1097.43 201 1095.5 201 1093.57 201 1092 199.433 1092 197.5Z" stroke="#000000" stroke-width="2" stroke-linejoin="round" stroke-miterlimit="10" fill-rule="evenodd"/><path d="M1112 193C1112 191.343 1113.57 190 1115.5 190 1117.43 190 1119 191.343 1119 193 1119 194.657 1117.43 196 1115.5 196 1113.57 196 1112 194.657 1112 193Z" stroke="#000000" stroke-width="2" stroke-linejoin="round" stroke-miterlimit="10" fill="#E4281E" fill-rule="evenodd"/><path d="M1094 225.5C1094 221.358 1097.58 218 1102 218 1106.42 218 1110 221.358 1110 225.5 1110 229.643 1106.42 233 1102 233 1097.58 233 1094 229.643 1094 225.5Z" stroke="#000000" stroke-width="2" stroke-linejoin="round" stroke-miterlimit="10" fill="#D9D9D9" fill-rule="evenodd"/><path d="M1093 225.356C1093 223.503 1094.5 222 1096.36 222L1111.64 222C1113.5 222 1115 223.503 1115 225.356L1115 226.644C1115 228.497 1113.5 230 1111.64 230L1096.36 230C1094.5 230 1093 228.497 1093 226.644Z" stroke="#000000" stroke-width="2" stroke-linejoin="round" stroke-miterlimit="10" fill="#404040" fill-rule="evenodd"/><path d="M1060.5 227.5C1060.5 225.291 1062.29 223.5 1064.5 223.5 1066.71 223.5 1068.5 225.291 1068.5 227.5 1068.5 229.709 1066.71 231.5 1064.5 231.5 1062.29 231.5 1060.5 229.709 1060.5 227.5Z" stroke="#000000" stroke-width="1.33333" stroke-miterlimit="8" fill="#D8B273" fill-rule="evenodd"/><path d="M1059 179 1072.36 179" stroke="#000000" stroke-width="2" stroke-linecap="round" stroke-linejoin="round" stroke-miterlimit="10" fill="none" fill-rule="evenodd"/><path d="M1069 179 1082.36 179" stroke="#000000" stroke-width="2" stroke-linecap="round" stroke-linejoin="round" stroke-miterlimit="10" fill="none" fill-rule="evenodd"/><path d="M1072 174.833C1072 174.373 1072.37 174 1072.83 174L1087.17 174C1087.63 174 1088 174.373 1088 174.833L1088 178.167C1088 178.627 1087.63 179 1087.17 179L1072.83 179C1072.37 179 1072 178.627 1072 178.167Z" stroke="#000000" stroke-width="2" stroke-linejoin="round" stroke-miterlimit="10" fill-rule="evenodd"/><path d="M1048 185 1049.31 185" stroke="#000000" stroke-width="2" stroke-linecap="round" stroke-linejoin="round" stroke-miterlimit="10" fill="none" fill-rule="evenodd"/><path d="M1048 192 1049.31 192" stroke="#000000" stroke-width="2" stroke-linecap="round" stroke-linejoin="round" stroke-miterlimit="10" fill="none" fill-rule="evenodd"/><path d="M1048 199 1049.31 199" stroke="#000000" stroke-width="2" stroke-linecap="round" stroke-linejoin="round" stroke-miterlimit="10" fill="none" fill-rule="evenodd"/><path d="M1048 207 1049.31 207" stroke="#000000" stroke-width="2" stroke-linecap="round" stroke-linejoin="round" stroke-miterlimit="10" fill="none" fill-rule="evenodd"/></g></svg>