<svg width="141" height="100" xmlns="http://www.w3.org/2000/svg" xmlns:xlink="http://www.w3.org/1999/xlink" overflow="hidden"><defs><linearGradient x1="710.5" y1="446" x2="710.5" y2="480" gradientUnits="userSpaceOnUse" spreadMethod="reflect" id="fill0"><stop offset="0" stop-color="#FFC000"/><stop offset="0.22" stop-color="#FFE699"/><stop offset="0.49" stop-color="#FFE699"/><stop offset="0.8" stop-color="#FFC000"/><stop offset="0.91" stop-color="#ED7D31"/><stop offset="0.98851" stop-color="#C00000"/><stop offset="1" stop-color="#C00000"/></linearGradient></defs><g transform="translate(-678 -409)"><path d="M691 428.833C691 428.373 691.373 428 691.833 428L699.167 428C699.627 428 700 428.373 700 428.833L700 432.167C700 432.627 699.627 433 699.167 433L691.833 433C691.373 433 691 432.627 691 432.167Z" stroke="#000000" stroke-width="2" stroke-linecap="round" stroke-linejoin="round" stroke-miterlimit="10" fill="#D9D9D9" fill-rule="evenodd"/><path d="M745.434 418 794.467 418C794.777 418 795.072 418.09 795.34 418.252L795.341 418.252 796.449 418.513C800.761 420.57 804.138 428.614 804.915 438.758L805 441 795.074 441 795.074 424.15C795.074 422.529 793.752 421.215 792.122 421.215L747.878 421.215C746.248 421.215 744.926 422.529 744.926 424.15L744.926 441 735 441 735.085 438.758C735.862 428.614 739.239 420.57 743.551 418.513L744.527 418.283 744.56 418.252C744.828 418.09 745.124 418 745.434 418Z" stroke="#000000" stroke-width="2" stroke-miterlimit="8" fill="#404040" fill-rule="evenodd"/><path d="M705 411.667C705 410.746 705.746 410 706.667 410L713.333 410C714.254 410 715 410.746 715 411.667L715 432.333C715 433.254 714.254 434 713.333 434L706.667 434C705.746 434 705 433.254 705 432.333Z" stroke="#000000" stroke-width="2" stroke-linecap="round" stroke-linejoin="round" stroke-miterlimit="10" fill="#D9D9D9" fill-rule="evenodd"/><path d="M696 426.833C696 424.716 697.716 423 699.833 423L721.167 423C723.284 423 725 424.716 725 426.833L725 442.167C725 444.284 723.284 446 721.167 446L699.833 446C697.716 446 696 444.284 696 442.167Z" stroke="#000000" stroke-width="2" stroke-linecap="round" stroke-linejoin="round" stroke-miterlimit="10" fill="#D9D9D9" fill-rule="evenodd"/><path d="M679 441.794C679 439.146 681.146 437 683.794 437L813.206 437C815.854 437 818 439.146 818 441.794L818 502.206C818 504.854 815.854 507 813.206 507L683.794 507C681.146 507 679 504.854 679 502.206Z" stroke="#000000" stroke-width="2" stroke-linecap="round" stroke-linejoin="round" stroke-miterlimit="10" fill="#FF0000" fill-rule="evenodd"/><path d="M685.87 440 811.13 440C812.715 440 814 441.288 814 442.877L814 506.822 813.118 507 683.882 507 683 506.822 683 442.877C683 441.288 684.285 440 685.87 440Z" stroke="#000000" stroke-width="2" stroke-linecap="round" stroke-linejoin="round" stroke-miterlimit="10" fill="#404040" fill-rule="evenodd"/><path d="M795 452.5 797.75 447 805.25 447 808 452.5 805.25 458 797.75 458Z" stroke="#000000" stroke-width="2" stroke-linejoin="round" stroke-miterlimit="10" fill="#D9D9D9" fill-rule="evenodd"/><path d="M799 452C799 450.343 800.343 449 802 449 803.657 449 805 450.343 805 452 805 453.657 803.657 455 802 455 800.343 455 799 453.657 799 452Z" stroke="#000000" stroke-width="2" stroke-linejoin="round" stroke-miterlimit="10" fill="#262626" fill-rule="evenodd"/><path d="M775 458 782 446 789 458Z" stroke="#000000" stroke-width="2" stroke-linejoin="round" stroke-miterlimit="10" fill="#FF0000" fill-rule="evenodd"/><path d="M700 449.333C700 447.492 701.492 446 703.333 446L716.667 446C718.508 446 720 447.492 720 449.333L720 476.667C720 478.508 718.508 480 716.667 480L703.333 480C701.492 480 700 478.508 700 476.667Z" stroke="#000000" stroke-width="2" stroke-linejoin="round" stroke-miterlimit="10" fill="#F2F2F2" fill-rule="evenodd"/><path d="M707.208 446 713.792 446 714.157 447.379C715.014 450.535 715.844 454.035 715.976 456.91 716.239 462.66 714.289 466.993 713.761 474.41L713.516 480 707.485 480 707.239 474.41C706.712 466.993 704.761 462.66 705.024 456.91 705.156 454.035 705.987 450.535 706.843 447.379Z" stroke="#000000" stroke-width="2" stroke-linejoin="round" stroke-miterlimit="10" fill="url(#fill0)" fill-rule="evenodd"/><path d="M786 493.667C786 493.298 786.298 493 786.667 493L801.333 493C801.702 493 802 493.298 802 493.667L802 496.333C802 496.702 801.702 497 801.333 497L786.667 497C786.298 497 786 496.702 786 496.333Z" stroke="#000000" stroke-width="2" stroke-miterlimit="8" fill="#FFFFFF" fill-rule="evenodd"/><path d="M779.655 487 801.345 487C801.707 487 802 487.29 802 487.648L802 490.238C802 490.596 801.707 490.886 801.345 490.886L783.391 490.886 783.391 496.276C783.391 496.676 783.063 497 782.659 497L779.732 497C779.328 497 779 496.676 779 496.276L779 490.238 779 489.857 779 487.648C779 487.29 779.293 487 779.655 487Z" stroke="#000000" stroke-width="2" stroke-miterlimit="8" fill="#FF0000" fill-rule="evenodd"/></g></svg>