<svg width="403" height="283" xmlns="http://www.w3.org/2000/svg" xmlns:xlink="http://www.w3.org/1999/xlink" xml:space="preserve" overflow="hidden"><defs><linearGradient x1="2863" y1="749" x2="2863" y2="845" gradientUnits="userSpaceOnUse" spreadMethod="reflect" id="fill0"><stop offset="0" stop-color="#FFC100"/><stop offset="0.22" stop-color="#FFE699"/><stop offset="0.49" stop-color="#FFE699"/><stop offset="0.8" stop-color="#FFC000"/><stop offset="0.91" stop-color="#EE7D31"/><stop offset="0.98851" stop-color="#C00000"/><stop offset="1" stop-color="#C00000"/></linearGradient></defs><g transform="translate(-2772 -643)"><path d="M2808 699.333C2808 698.045 2809.04 697 2810.33 697L2832.67 697C2833.96 697 2835 698.045 2835 699.333L2835 708.667C2835 709.955 2833.96 711 2832.67 711L2810.33 711C2809.04 711 2808 709.955 2808 708.667Z" stroke="#000000" stroke-width="5.72917" stroke-linecap="round" stroke-linejoin="round" stroke-miterlimit="10" fill="#D9D9D9" fill-rule="evenodd"/><path d="M2964.11 668 3105.6 668C3106.5 668 3107.35 668.261 3108.13 668.733L3108.13 668.734 3111.32 669.493C3123.77 675.488 3133.51 698.918 3135.76 728.468L3136 735 3107.36 735 3107.36 685.916C3107.36 681.194 3103.54 677.365 3098.84 677.365L2971.16 677.365C2966.46 677.365 2962.64 681.194 2962.64 685.916L2962.64 735 2934 735 2934.24 728.468C2936.49 698.918 2946.23 675.488 2958.68 669.493L2961.49 668.824 2961.59 668.733C2962.36 668.261 2963.21 668 2964.11 668Z" stroke="#000000" stroke-width="5.72917" stroke-miterlimit="8" fill="#404040" fill-rule="evenodd"/><path d="M2850 650.5C2850 648.015 2852.01 646 2854.5 646L2872.5 646C2874.99 646 2877 648.015 2877 650.5L2877 707.5C2877 709.985 2874.99 712 2872.5 712L2854.5 712C2852.01 712 2850 709.985 2850 707.5Z" stroke="#000000" stroke-width="5.72917" stroke-linecap="round" stroke-linejoin="round" stroke-miterlimit="10" fill="#D9D9D9" fill-rule="evenodd"/><path d="M2821 693.167C2821 687 2826 682 2832.17 682L2893.83 682C2900 682 2905 687 2905 693.167L2905 737.833C2905 744 2900 749 2893.83 749L2832.17 749C2826 749 2821 744 2821 737.833Z" stroke="#000000" stroke-width="5.72917" stroke-linecap="round" stroke-linejoin="round" stroke-miterlimit="10" fill="#D9D9D9" fill-rule="evenodd"/><path d="M2775 734.835C2775 727.194 2781.19 721 2788.84 721L3158.17 721C3165.81 721 3172 727.194 3172 734.835L3172 909.165C3172 916.806 3165.81 923 3158.17 923L2788.84 923C2781.19 923 2775 916.806 2775 909.165Z" stroke="#000000" stroke-width="5.72917" stroke-linecap="round" stroke-linejoin="round" stroke-miterlimit="10" fill="#FF0000" fill-rule="evenodd"/><path d="M2794.22 732 3152.78 732C3157.32 732 3161 735.671 3161 740.201L3161 922.491 3158.48 923 2788.52 923 2786 922.491 2786 740.201C2786 735.671 2789.68 732 2794.22 732Z" stroke="#000000" stroke-width="5.72917" stroke-linecap="round" stroke-linejoin="round" stroke-miterlimit="10" fill="#404040" fill-rule="evenodd"/><path d="M3107 766 3115.5 749 3136.5 749 3145 766 3136.5 783 3115.5 783Z" stroke="#000000" stroke-width="5.72917" stroke-linejoin="round" stroke-miterlimit="10" fill="#D9D9D9" fill-rule="evenodd"/><path d="M3118 766.5C3118 761.806 3121.81 758 3126.5 758 3131.19 758 3135 761.806 3135 766.5 3135 771.195 3131.19 775 3126.5 775 3121.81 775 3118 771.195 3118 766.5Z" stroke="#000000" stroke-width="5.72917" stroke-linejoin="round" stroke-miterlimit="10" fill="#262626" fill-rule="evenodd"/><path d="M3050 782 3069 749 3088 782Z" stroke="#000000" stroke-width="5.72917" stroke-linejoin="round" stroke-miterlimit="10" fill="#FF0000" fill-rule="evenodd"/><path d="M2834 758.667C2834 753.328 2838.33 749 2843.67 749L2882.33 749C2887.67 749 2892 753.328 2892 758.667L2892 835.333C2892 840.672 2887.67 845 2882.33 845L2843.67 845C2838.33 845 2834 840.672 2834 835.333Z" stroke="#000000" stroke-width="5.72917" stroke-linejoin="round" stroke-miterlimit="10" fill="#F2F2F2" fill-rule="evenodd"/><path d="M2853.42 749 2872.58 749 2873.64 752.893C2876.13 761.805 2878.55 771.687 2878.93 779.805 2879.7 796.04 2874.02 808.275 2872.49 829.217L2871.77 845 2854.23 845 2853.51 829.217C2851.98 808.275 2846.3 796.04 2847.07 779.805 2847.45 771.687 2849.87 761.805 2852.36 752.893Z" stroke="#000000" stroke-width="5.72917" stroke-linejoin="round" stroke-miterlimit="10" fill="url(#fill0)" fill-rule="evenodd"/><path d="M3081 883.833C3081 882.821 3081.82 882 3082.83 882L3124.17 882C3125.18 882 3126 882.821 3126 883.833L3126 891.167C3126 892.179 3125.18 893 3124.17 893L3082.83 893C3081.82 893 3081 892.179 3081 891.167Z" stroke="#000000" stroke-width="5.72917" stroke-miterlimit="8" fill="#FFFFFF" fill-rule="evenodd"/><path d="M3062.85 864 3124.15 864C3125.17 864 3126 864.841 3126 865.878L3126 873.39C3126 874.427 3125.17 875.268 3124.15 875.268L3073.41 875.268 3073.41 890.901C3073.41 892.06 3072.48 893 3071.34 893L3063.07 893C3061.93 893 3061 892.06 3061 890.901L3061 873.39 3061 872.284 3061 865.878C3061 864.841 3061.83 864 3062.85 864Z" stroke="#000000" stroke-width="5.72917" stroke-miterlimit="8" fill="#FF0000" fill-rule="evenodd"/></g></svg>