<svg width="143" height="102" xmlns="http://www.w3.org/2000/svg" xmlns:xlink="http://www.w3.org/1999/xlink" overflow="hidden"><defs><linearGradient x1="710.5" y1="446" x2="710.5" y2="480" gradientUnits="userSpaceOnUse" spreadMethod="reflect" id="fill0"><stop offset="0" stop-color="#FFC000"/><stop offset="0.22" stop-color="#FFE699"/><stop offset="0.49" stop-color="#FFE699"/><stop offset="0.8" stop-color="#FFC000"/><stop offset="0.91" stop-color="#ED7D31"/><stop offset="0.98851" stop-color="#C00000"/><stop offset="1" stop-color="#C00000"/></linearGradient></defs><g transform="translate(-678 -407)"><path d="M706 410.5C706 409.672 706.672 409 707.5 409L713.5 409C714.328 409 715 409.672 715 410.5L715 431.5C715 432.328 714.328 433 713.5 433L707.5 433C706.672 433 706 432.328 706 431.5Z" stroke="#000000" stroke-width="2" stroke-linecap="round" stroke-linejoin="round" stroke-miterlimit="10" fill="#D9D9D9" fill-rule="evenodd"/><path d="M696 426C696 423.791 697.791 422 700 422L721 422C723.209 422 725 423.791 725 426L725 442C725 444.209 723.209 446 721 446L700 446C697.791 446 696 444.209 696 442Z" stroke="#000000" stroke-width="2" stroke-linecap="round" stroke-linejoin="round" stroke-miterlimit="10" fill="#D9D9D9" fill-rule="evenodd"/><path d="M750.805 416 790.195 416C795.61 416 800 420.329 800 425.669L800 444 791.542 444 791.542 430.979C791.542 427.159 788.402 424.062 784.528 424.062L756.472 424.062C752.598 424.062 749.458 427.159 749.458 430.979L749.458 444 741 444 741 425.669C741 420.329 745.39 416 750.805 416Z" stroke="#000000" stroke-width="2" stroke-linecap="round" stroke-linejoin="round" stroke-miterlimit="10" fill="#D9D9D9" fill-rule="evenodd"/><path d="M679 440.863C679 438.177 681.177 436 683.863 436L815.137 436C817.823 436 820 438.177 820 440.863L820 502.137C820 504.823 817.823 507 815.137 507L683.863 507C681.177 507 679 504.823 679 502.137Z" stroke="#000000" stroke-width="2" stroke-linecap="round" stroke-linejoin="round" stroke-miterlimit="10" fill="#D9D9D9" fill-rule="evenodd"/><path d="M797 452 800 446 807 446 810 452 807 458 800 458Z" stroke="#000000" stroke-width="2" stroke-linejoin="round" stroke-miterlimit="10" fill="#7F7F7F" fill-rule="evenodd"/><path d="M800 452C800 450.343 801.343 449 803 449 804.657 449 806 450.343 806 452 806 453.657 804.657 455 803 455 801.343 455 800 453.657 800 452Z" stroke="#000000" stroke-width="2" stroke-linejoin="round" stroke-miterlimit="10" fill="#262626" fill-rule="evenodd"/><path d="M777 457 783.5 446 790 457Z" stroke="#000000" stroke-width="2" stroke-linejoin="round" stroke-miterlimit="10" fill="#FF0000" fill-rule="evenodd"/><path d="M700 449.5C700 447.567 701.567 446 703.5 446L717.5 446C719.433 446 721 447.567 721 449.5L721 476.5C721 478.433 719.433 480 717.5 480L703.5 480C701.567 480 700 478.433 700 476.5Z" stroke="#000000" stroke-width="2" stroke-linejoin="round" stroke-miterlimit="10" fill="#F2F2F2" fill-rule="evenodd"/><path d="M707.208 446 713.792 446 714.157 447.379C715.014 450.535 715.844 454.035 715.976 456.91 716.239 462.66 714.289 466.993 713.761 474.41L713.516 480 707.485 480 707.239 474.41C706.712 466.993 704.761 462.66 705.024 456.91 705.156 454.035 705.987 450.535 706.843 447.379Z" stroke="#000000" stroke-width="2" stroke-linejoin="round" stroke-miterlimit="10" fill="url(#fill0)" fill-rule="evenodd"/></g></svg>