<svg width="411" height="254" xmlns="http://www.w3.org/2000/svg" xmlns:xlink="http://www.w3.org/1999/xlink" xml:space="preserve" overflow="hidden"><g transform="translate(-146 -1007)"><path d="M149 1019.3C149 1014.17 153.166 1010 158.305 1010L544.695 1010C549.834 1010 554 1014.17 554 1019.3L554 1248.7C554 1253.83 549.834 1258 544.695 1258L158.305 1258C153.166 1258 149 1253.83 149 1248.7Z" stroke="#000000" stroke-width="5.72917" stroke-linecap="round" stroke-linejoin="round" stroke-miterlimit="10" fill="#D9D9D9" fill-rule="evenodd"/><rect x="500" y="1010" width="34.9997" height="248" stroke="#000000" stroke-width="5.72917" stroke-linecap="round" stroke-linejoin="round" stroke-miterlimit="10" fill="#0070DA"/><path d="M158.313 1010 544.687 1010C549.83 1010 554 1014.86 554 1020.84L554 1060.11C554 1063.36 551.736 1066 548.943 1066L154.057 1066C151.264 1066 149 1063.36 149 1060.11L149 1020.84C149 1014.86 153.17 1010 158.313 1010Z" stroke="#000000" stroke-width="5.72917" stroke-linecap="round" stroke-linejoin="round" stroke-miterlimit="10" fill="none" fill-rule="evenodd"/><path d="M154.057 1199 548.943 1199C551.736 1199 554 1201.78 554 1205.2L554 1246.57C554 1252.88 549.83 1258 544.687 1258L158.313 1258C153.17 1258 149 1252.88 149 1246.57L149 1205.2C149 1201.78 151.264 1199 154.057 1199Z" stroke="#000000" stroke-width="5.72917" stroke-linecap="round" stroke-linejoin="round" stroke-miterlimit="10" fill="none" fill-rule="evenodd"/><path d="M429 1029 468.106 1029" stroke="#000000" stroke-width="5.72917" stroke-linecap="round" stroke-linejoin="round" stroke-miterlimit="10" fill="none" fill-rule="evenodd"/><path d="M377 1047 467.283 1047" stroke="#000000" stroke-width="5.72917" stroke-linecap="round" stroke-linejoin="round" stroke-miterlimit="10" fill="none" fill-rule="evenodd"/><path d="M377 1029 416.106 1029" stroke="#000000" stroke-width="5.72917" stroke-linecap="round" stroke-linejoin="round" stroke-miterlimit="10" fill="none" fill-rule="evenodd"/><path d="M386 1120.5C386 1115.81 389.806 1112 394.5 1112L428.5 1112C433.194 1112 437 1115.81 437 1120.5L437 1154.5C437 1159.19 433.194 1163 428.5 1163L394.5 1163C389.806 1163 386 1159.19 386 1154.5Z" stroke="#000000" stroke-width="5.72917" stroke-linecap="round" stroke-linejoin="round" stroke-miterlimit="10" fill="#A6A6A6" fill-rule="evenodd"/><path d="M399 1138C399 1130.82 404.596 1125 411.5 1125 418.403 1125 424 1130.82 424 1138 424 1145.18 418.403 1151 411.5 1151 404.596 1151 399 1145.18 399 1138Z" stroke="#000000" stroke-width="5.72917" stroke-linecap="round" stroke-linejoin="round" stroke-miterlimit="10" fill="#7F7F7F" fill-rule="evenodd"/><rect x="430" y="1079" width="37.9998" height="15.9998" stroke="#000000" stroke-width="5.72917" stroke-linecap="round" stroke-linejoin="round" stroke-miterlimit="10" fill="#0070DA"/><path d="M510 1035C510 1030.58 513.582 1027 518 1027 522.418 1027 526 1030.58 526 1035 526 1039.42 522.418 1043 518 1043 513.582 1043 510 1039.42 510 1035Z" stroke="#000000" stroke-width="5.72917" stroke-miterlimit="8" fill="#D9D9D9" fill-rule="evenodd"/><path d="M221 1029 260.106 1029" stroke="#000000" stroke-width="5.72917" stroke-linecap="round" stroke-linejoin="round" stroke-miterlimit="10" fill="none" fill-rule="evenodd"/><path d="M170 1047 260.283 1047" stroke="#000000" stroke-width="5.72917" stroke-linecap="round" stroke-linejoin="round" stroke-miterlimit="10" fill="none" fill-rule="evenodd"/><path d="M170 1029 209.106 1029" stroke="#000000" stroke-width="5.72917" stroke-linecap="round" stroke-linejoin="round" stroke-miterlimit="10" fill="none" fill-rule="evenodd"/><path d="M286 1028C286 1025.24 288.239 1023 291 1023 293.761 1023 296 1025.24 296 1028 296 1030.76 293.761 1033 291 1033 288.239 1033 286 1030.76 286 1028Z" stroke="#000000" stroke-width="5.72917" stroke-miterlimit="8" fill="#595959" fill-rule="evenodd"/><path d="M304 1028C304 1025.24 306.462 1023 309.5 1023 312.537 1023 315 1025.24 315 1028 315 1030.76 312.537 1033 309.5 1033 306.462 1033 304 1030.76 304 1028Z" stroke="#000000" stroke-width="5.72917" stroke-miterlimit="8" fill="#595959" fill-rule="evenodd"/><path d="M323 1028C323 1025.24 325.239 1023 328 1023 330.762 1023 333 1025.24 333 1028 333 1030.76 330.762 1033 328 1033 325.239 1033 323 1030.76 323 1028Z" stroke="#000000" stroke-width="5.72917" stroke-miterlimit="8" fill="#00B050" fill-rule="evenodd"/><path d="M341 1028C341 1025.24 343.462 1023 346.5 1023 349.538 1023 352 1025.24 352 1028 352 1030.76 349.538 1033 346.5 1033 343.462 1033 341 1030.76 341 1028Z" stroke="#000000" stroke-width="5.72917" stroke-miterlimit="8" fill="#FF0000" fill-rule="evenodd"/><path d="M286 1046C286 1043.24 288.239 1041 291 1041 293.761 1041 296 1043.24 296 1046 296 1048.76 293.761 1051 291 1051 288.239 1051 286 1048.76 286 1046Z" stroke="#000000" stroke-width="5.72917" stroke-miterlimit="8" fill="#595959" fill-rule="evenodd"/><path d="M304 1046C304 1043.24 306.462 1041 309.5 1041 312.537 1041 315 1043.24 315 1046 315 1048.76 312.537 1051 309.5 1051 306.462 1051 304 1048.76 304 1046Z" stroke="#000000" stroke-width="5.72917" stroke-miterlimit="8" fill="#595959" fill-rule="evenodd"/><path d="M323 1046C323 1043.24 325.239 1041 328 1041 330.762 1041 333 1043.24 333 1046 333 1048.76 330.762 1051 328 1051 325.239 1051 323 1048.76 323 1046Z" stroke="#000000" stroke-width="5.72917" stroke-miterlimit="8" fill="#595959" fill-rule="evenodd"/><path d="M341 1046C341 1043.24 343.462 1041 346.5 1041 349.538 1041 352 1043.24 352 1046 352 1048.76 349.538 1051 346.5 1051 343.462 1051 341 1048.76 341 1046Z" stroke="#000000" stroke-width="5.72917" stroke-miterlimit="8" fill="#595959" fill-rule="evenodd"/><path d="M303 1219.5C303 1216.46 305.238 1214 308 1214 310.762 1214 313 1216.46 313 1219.5 313 1222.54 310.762 1225 308 1225 305.238 1225 303 1222.54 303 1219.5Z" stroke="#000000" stroke-width="5.72917" stroke-miterlimit="8" fill="#595959" fill-rule="evenodd"/><path d="M325 1219.5C325 1216.46 327.238 1214 330 1214 332.762 1214 335 1216.46 335 1219.5 335 1222.54 332.762 1225 330 1225 327.238 1225 325 1222.54 325 1219.5Z" stroke="#000000" stroke-width="5.72917" stroke-miterlimit="8" fill="#595959" fill-rule="evenodd"/><path d="M314 1236C314 1233.24 316.238 1231 319 1231 321.762 1231 324 1233.24 324 1236 324 1238.76 321.762 1241 319 1241 316.238 1241 314 1238.76 314 1236Z" stroke="#000000" stroke-width="5.72917" stroke-miterlimit="8" fill="#595959" fill-rule="evenodd"/><path d="M422 1220 468.221 1220" stroke="#000000" stroke-width="5.72917" stroke-linecap="round" stroke-linejoin="round" stroke-miterlimit="10" fill="none" fill-rule="evenodd"/><path d="M361 1238 467.709 1238" stroke="#000000" stroke-width="5.72917" stroke-linecap="round" stroke-linejoin="round" stroke-miterlimit="10" fill="none" fill-rule="evenodd"/><path d="M361 1220 407.221 1220" stroke="#000000" stroke-width="5.72917" stroke-linecap="round" stroke-linejoin="round" stroke-miterlimit="10" fill="none" fill-rule="evenodd"/><path d="M230 1220 276.221 1220" stroke="#000000" stroke-width="5.72917" stroke-linecap="round" stroke-linejoin="round" stroke-miterlimit="10" fill="none" fill-rule="evenodd"/><path d="M170 1238 276.709 1238" stroke="#000000" stroke-width="5.72917" stroke-linecap="round" stroke-linejoin="round" stroke-miterlimit="10" fill="none" fill-rule="evenodd"/><path d="M170 1220 216.221 1220" stroke="#000000" stroke-width="5.72917" stroke-linecap="round" stroke-linejoin="round" stroke-miterlimit="10" fill="none" fill-rule="evenodd"/></g></svg>