<svg width="237" height="285" xmlns="http://www.w3.org/2000/svg" xmlns:xlink="http://www.w3.org/1999/xlink" xml:space="preserve" overflow="hidden"><g transform="translate(-1524 -1685)"><path d="M1696 1793.51C1716.09 1795.05 1712.71 1770.18 1718.04 1773.26 1723.38 1776.35 1724.62 1794.17 1728 1812" stroke="#000000" stroke-width="5.72917" stroke-miterlimit="8" fill="none" fill-rule="evenodd"/><path d="M1710 1833.18C1710 1831.98 1710.98 1831 1712.18 1831L1740.82 1831C1742.02 1831 1743 1831.98 1743 1833.18L1743 1868.82C1743 1870.02 1742.02 1871 1740.82 1871L1712.18 1871C1710.98 1871 1710 1870.02 1710 1868.82Z" stroke="#000000" stroke-width="5.72917" stroke-miterlimit="8" fill="#D9D9D9" fill-rule="evenodd"/><path d="M1699 1865.64C1699 1863.63 1700.63 1862 1702.64 1862L1750.36 1862C1752.37 1862 1754 1863.63 1754 1865.64L1754 1913.36C1754 1915.37 1752.37 1917 1750.36 1917L1702.64 1917C1700.63 1917 1699 1915.37 1699 1913.36Z" stroke="#000000" stroke-width="5.72917" stroke-miterlimit="8" fill="#D9D9D9" fill-rule="evenodd"/><path d="M1696 1894.1C1696 1891.84 1697.84 1890 1700.1 1890L1753.9 1890C1756.16 1890 1758 1891.84 1758 1894.1L1758 1949.9C1758 1952.16 1756.16 1954 1753.9 1954L1700.1 1954C1697.84 1954 1696 1952.16 1696 1949.9Z" stroke="#000000" stroke-width="5.72917" stroke-miterlimit="8" fill="#FAFAFA" fill-rule="evenodd"/><path d="M1722.33 1800 1730.67 1800C1731.02 1800 1731.31 1800.28 1731.31 1800.63L1731.31 1812.34 1741 1829 1712 1829 1721.69 1812.33 1721.69 1800.63C1721.69 1800.28 1721.98 1800 1722.33 1800Z" stroke="#000000" stroke-width="5.72917" stroke-miterlimit="8" fill="#D9D9D9" fill-rule="evenodd"/><path d="M1708 1821.06C1708 1820.47 1708.47 1820 1709.06 1820L1743.94 1820C1744.53 1820 1745 1820.47 1745 1821.06L1745 1834.94C1745 1835.53 1744.53 1836 1743.94 1836L1709.06 1836C1708.47 1836 1708 1835.53 1708 1834.94Z" stroke="#000000" stroke-width="5.72917" stroke-miterlimit="8" fill="#404040" fill-rule="evenodd"/><path d="M1720 1929C1720 1925.13 1722.91 1922 1726.5 1922 1730.09 1922 1733 1925.13 1733 1929 1733 1932.87 1730.09 1936 1726.5 1936 1722.91 1936 1720 1932.87 1720 1929Z" stroke="#000000" stroke-width="5.72917" stroke-miterlimit="8" fill="#BFBFBF" fill-rule="evenodd"/><path d="M1557 1951.03C1557 1950.46 1557.46 1950 1558.03 1950L1755.97 1950C1756.54 1950 1757 1950.46 1757 1951.03L1757 1965.97C1757 1966.54 1756.54 1967 1755.97 1967L1558.03 1967C1557.46 1967 1557 1966.54 1557 1965.97Z" stroke="#000000" stroke-width="5.72917" stroke-miterlimit="8" fill="#D9D9D9" fill-rule="evenodd"/><path d="M1527 1696.43C1527 1691.77 1530.77 1688 1535.43 1688L1691.57 1688C1696.23 1688 1700 1691.77 1700 1696.43L1700 1958.57C1700 1963.23 1696.23 1967 1691.57 1967L1535.43 1967C1530.77 1967 1527 1963.23 1527 1958.57Z" stroke="#000000" stroke-width="5.72917" stroke-miterlimit="8" fill="#D9D9D9" fill-rule="evenodd"/><path d="M96.8145 0 15.1852 0C6.79861 0 0 6.75192 0 15.0809L0 84.9842C0 93.3132 6.79861 100.065 15.1852 100.065L25.6149 100.065 25.6149 112.522C25.6149 116.099 28.5355 119 32.1381 119L79.8616 119C83.4642 119 86.3848 116.099 86.3848 112.522L86.3848 100.065 96.8145 100.065C105.201 100.065 112 93.3132 112 84.9842L112 15.0809C112 6.75192 105.201 0 96.8145 0Z" stroke="#000000" stroke-width="5.72917" stroke-linecap="round" stroke-linejoin="round" stroke-miterlimit="10" fill="#BFBFBF" fill-rule="evenodd" transform="matrix(-1 0 0 1 1668 1708)"/><path d="M0 6.63845C-1.33679e-15 2.97213 2.97213-1.33679e-15 6.63844-2.67359e-15L77.3618 0C81.0281-1.33679e-15 84.0002 2.97213 84.0002 6.63845L84.0002 65.3616C84.0002 69.0279 81.0281 72 77.3618 72L6.63844 72C2.97213 72 0 69.0279 0 65.3616Z" stroke="#000000" stroke-width="5.72917" stroke-miterlimit="8" fill="#FFFFFF" fill-rule="evenodd" transform="matrix(-1 0 0 1 1654 1722)"/><path d="M1605 1810.5C1605 1806.36 1608.36 1803 1612.5 1803 1616.64 1803 1620 1806.36 1620 1810.5 1620 1814.64 1616.64 1818 1612.5 1818 1608.36 1818 1605 1814.64 1605 1810.5Z" stroke="#000000" stroke-width="5.72917" stroke-miterlimit="8" fill="#595959" fill-rule="evenodd"/><path d="M1588 1744 1636.94 1744" stroke="#000000" stroke-width="5.72917" stroke-linecap="round" stroke-miterlimit="8" fill="none" fill-rule="evenodd"/><path d="M1588 1763 1621.62 1763" stroke="#000000" stroke-width="5.72917" stroke-linecap="round" stroke-miterlimit="8" fill="none" fill-rule="evenodd"/><path d="M1527 1843 1700.31 1843" stroke="#000000" stroke-width="5.72917" stroke-miterlimit="8" fill="none" fill-rule="evenodd"/><path d="M1642.5 1877C1642.5 1865.13 1652.13 1855.5 1664 1855.5 1675.87 1855.5 1685.5 1865.13 1685.5 1877 1685.5 1888.87 1675.87 1898.5 1664 1898.5 1652.13 1898.5 1642.5 1888.87 1642.5 1877Z" stroke="#000000" stroke-width="3.4375" stroke-miterlimit="8" fill="#F6B803" fill-rule="evenodd"/><path d="M1660.42 1885.21 1661.76 1885.64C1662.32 1885.75 1662.9 1885.82 1663.5 1885.82 1664.1 1885.82 1664.68 1885.75 1665.24 1885.64L1666.45 1885.25 1668.24 1890.11 1667.56 1890.36C1666.28 1890.78 1664.92 1891 1663.5 1891 1662.09 1891 1660.72 1890.78 1659.44 1890.36L1658.64 1890.06ZM1672.27 1866.05 1673.16 1866.88C1675.01 1868.8 1676.34 1871.26 1676.88 1874.02L1677 1874.82 1672.03 1875.65 1671.97 1875.07C1671.63 1873.32 1670.79 1871.76 1669.62 1870.54L1669.09 1870.09ZM1654.78 1866 1657.97 1870.05 1657.39 1870.54C1656.21 1871.76 1655.38 1873.32 1655.03 1875.07L1654.97 1875.68 1650 1874.85 1650.12 1874.02C1650.67 1871.26 1651.99 1868.8 1653.84 1866.88Z" stroke="#000000" stroke-width="5.72917" stroke-linecap="round" stroke-linejoin="round" stroke-miterlimit="10" fill-rule="evenodd"/><path d="M1662 1877C1662 1876.45 1662.67 1876 1663.5 1876 1664.33 1876 1665 1876.45 1665 1877 1665 1877.55 1664.33 1878 1663.5 1878 1662.67 1878 1662 1877.55 1662 1877Z" stroke="#000000" stroke-width="5.72917" stroke-linecap="round" stroke-linejoin="round" stroke-miterlimit="10" fill-rule="evenodd"/><path d="M1606 1942C1606 1937.58 1609.58 1934 1614 1934 1618.42 1934 1622 1937.58 1622 1942 1622 1946.42 1618.42 1950 1614 1950 1609.58 1950 1606 1946.42 1606 1942Z" stroke="#000000" stroke-width="5.72917" stroke-miterlimit="8" fill="#595959" fill-rule="evenodd"/></g></svg>