<svg width="49" height="126" xmlns="http://www.w3.org/2000/svg" xmlns:xlink="http://www.w3.org/1999/xlink" overflow="hidden"><g transform="translate(-147 -115)"><path d="M172.318 164C171.854 157.213 167.455 157.491 168.056 155.364 168.657 153.238 175.268 153.304 175.924 151.243 176.58 149.182 172.81 148.643 171.99 143" stroke="#000000" stroke-width="2" stroke-miterlimit="8" fill="none" fill-rule="evenodd"/><path d="M13.7758 0 29.2242 0 29.5327 2.48207 32.4735 3.32379C38.6595 5.73633 43 11.3842 43 17.9669L43 51.5185C43 53.4413 41.3095 55 39.2242 55L3.77583 55C1.69049 55 0 53.4413 0 51.5185L0 17.9669C0 11.3842 4.34054 5.73633 10.5265 3.32379L13.4673 2.48207Z" stroke="#000000" stroke-width="2" stroke-linecap="round" stroke-linejoin="round" stroke-miterlimit="10" fill="#FFFFFF" fill-rule="evenodd" transform="matrix(-1 0 0 1 193 178)"/><path d="M0.0359394 0 42.9641 0 43 0.432395 43 33.5622C43 35.4609 41.3095 37 39.2242 37L3.77583 37C1.69049 37 0 35.4609 0 33.5622L0 0.432395Z" stroke="#000000" stroke-width="2" stroke-linecap="round" stroke-linejoin="round" stroke-miterlimit="10" fill="#418FCD" fill-rule="evenodd" transform="matrix(-1 0 0 1 193 196)"/><path d="M15.5724 0 12.1976 0 12.1976 0.0149927 7.54417 0.0149927 7.54417 0 4.16939 0 4.16939 0.0149927 2.72304 0.0149927C1.21914 0.0149927 0 1.13317 0 2.5125L0 12.5025C0 13.8818 1.21914 15 2.72304 15L17.277 15C18.7809 15 20 13.8818 20 12.5025L20 2.5125C20 1.13317 18.7809 0.0149927 17.277 0.0149927L15.5724 0.0149927Z" stroke="#000000" stroke-width="2" stroke-miterlimit="8" fill="#D9D9D9" fill-rule="evenodd" transform="matrix(-1 0 0 1 181 164)"/><path d="M159 133.833C159 133.373 159.373 133 159.833 133L164.167 133C164.627 133 165 133.373 165 133.833L165 137.167C165 137.627 164.627 138 164.167 138L159.833 138C159.373 138 159 137.627 159 137.167Z" stroke="#000000" stroke-width="2" stroke-miterlimit="8" fill="#D9D9D9" fill-rule="evenodd"/><path d="M174.667 116C175.403 116 176 116.597 176 117.333L176 130.667C176 131.403 175.403 132 174.667 132L169.333 132C168.597 132 168 131.403 168 130.667L168 117.333C168 116.597 168.597 116 169.333 116Z" stroke="#000000" stroke-width="2" stroke-miterlimit="8" fill="#D9D9D9" fill-rule="evenodd"/><path d="M15.5724 0 12.1976 0 12.1976 0.0149927 7.54417 0.0149927 7.54417 0 4.16939 0 4.16939 0.0149927 2.72304 0.0149927C1.21914 0.0149927 0 1.13317 0 2.5125L0 12.5025C0 13.8818 1.21914 15 2.72304 15L17.277 15C18.7809 15 20 13.8818 20 12.5025L20 2.5125C20 1.13317 18.7809 0.0149927 17.277 0.0149927L15.5724 0.0149927Z" stroke="#000000" stroke-width="2" stroke-miterlimit="8" fill="#D9D9D9" fill-rule="evenodd" transform="matrix(-1 0 0 1 182 128)"/><path d="M182 235C181.448 235 181 234.552 181 234L181 218C181 217.448 181.448 217 182 217L186 217C186.552 217 187 217.448 187 218L187 234C187 234.552 186.552 235 186 235Z" stroke="#000000" stroke-width="2" stroke-miterlimit="8" fill="#7F7F7F" fill-rule="evenodd"/><path d="M157 235C156.448 235 156 234.552 156 234L156 218C156 217.448 156.448 217 157 217L161 217C161.552 217 162 217.448 162 218L162 234C162 234.552 161.552 235 161 235Z" stroke="#000000" stroke-width="2" stroke-miterlimit="8" fill="#7F7F7F" fill-rule="evenodd"/><path d="M149 235.335C149 234.046 150.046 233 151.335 233L191.665 233C192.954 233 194 234.046 194 235.335L194 236.665C194 237.954 192.954 239 191.665 239L151.335 239C150.046 239 149 237.954 149 236.665Z" stroke="#000000" stroke-width="2" stroke-miterlimit="8" fill="#D9D9D9" fill-rule="evenodd"/><path d="M157.236 189.645C157.808 188.058 159.313 187 161 187" stroke="#000000" stroke-width="2" stroke-linecap="round" stroke-linejoin="round" stroke-miterlimit="10" fill="none" fill-rule="evenodd"/></g></svg>