<svg width="134" height="358" xmlns="http://www.w3.org/2000/svg" xmlns:xlink="http://www.w3.org/1999/xlink" xml:space="preserve" overflow="hidden"><g transform="translate(-842 -568)"><path d="M910.874 706C909.597 686.607 897.502 687.402 899.155 681.327 900.808 675.252 918.988 675.439 920.791 669.551 922.594 663.663 912.227 662.121 909.973 646" stroke="#000000" stroke-width="5.72917" stroke-miterlimit="8" fill="none" fill-rule="evenodd"/><path d="M39.0847 0 82.9153 0 83.7904 7.13032 92.1341 9.54836C109.685 16.4789 122 32.7039 122 51.614L122 147.999C122 153.522 117.204 158 111.287 158L10.7128 158C4.79627 158 0 153.522 0 147.999L0 51.614C0 32.7039 12.315 16.4789 29.8659 9.54836L38.2096 7.13032Z" stroke="#000000" stroke-width="5.72917" stroke-linecap="round" stroke-linejoin="round" stroke-miterlimit="10" fill="#FFFFFF" fill-rule="evenodd" transform="matrix(-1 0 0 1 970 747)"/><path d="M0.101968 0 121.898 0 122 1.26212 122 97.9653C122 103.507 117.204 108 111.287 108L10.7128 108C4.79627 108 0 103.507 0 97.9653L0 1.26212Z" stroke="#000000" stroke-width="5.72917" stroke-linecap="round" stroke-linejoin="round" stroke-miterlimit="10" fill="#418FCD" fill-rule="evenodd" transform="matrix(-1 0 0 1 970 797)"/><path d="M45.1601 0 35.3732 0 35.3732 0.0429791 21.8781 0.0429791 21.8781 0 12.0913 0 12.0913 0.0429791 7.89684 0.0429791C3.5355 0.0429791 0 3.24843 0 7.20251L0 35.8404C0 39.7945 3.5355 43 7.89684 43L50.1033 43C54.4646 43 58.0001 39.7945 58.0001 35.8404L58.0001 7.20251C58.0001 3.24843 54.4646 0.0429791 50.1033 0.0429791L45.1601 0.0429791Z" stroke="#000000" stroke-width="5.72917" stroke-miterlimit="8" fill="#D9D9D9" fill-rule="evenodd" transform="matrix(-1 0 0 1 938 706)"/><path d="M872 619.5C872 618.119 873.119 617 874.5 617L888.5 617C889.881 617 891 618.119 891 619.5L891 629.5C891 630.881 889.881 632 888.5 632L874.5 632C873.119 632 872 630.881 872 629.5Z" stroke="#000000" stroke-width="5.72917" stroke-miterlimit="8" fill="#D9D9D9" fill-rule="evenodd"/><path d="M917.5 571C919.433 571 921 572.567 921 574.5L921 610.5C921 612.433 919.433 614 917.5 614L903.5 614C901.567 614 900 612.433 900 610.5L900 574.5C900 572.567 901.567 571 903.5 571Z" stroke="#000000" stroke-width="5.72917" stroke-miterlimit="8" fill="#D9D9D9" fill-rule="evenodd"/><path d="M45.1601 0 35.3732 0 35.3732 0.0439787 21.8781 0.0439787 21.8781 0 12.0913 0 12.0913 0.0439787 7.89684 0.0439787C3.5355 0.0439787 0 3.32398 0 7.37001L0 36.674C0 40.72 3.5355 44 7.89684 44L50.1033 44C54.4646 44 58.0001 40.72 58.0001 36.674L58.0001 7.37001C58.0001 3.32398 54.4646 0.0439787 50.1033 0.0439787L45.1601 0.0439787Z" stroke="#000000" stroke-width="5.72917" stroke-miterlimit="8" fill="#D9D9D9" fill-rule="evenodd" transform="matrix(-1 0 0 1 939 603)"/><path d="M939.667 911C938.194 911 937 909.806 937 908.333L937 860.667C937 859.194 938.194 858 939.667 858L950.333 858C951.806 858 953 859.194 953 860.667L953 908.333C953 909.806 951.806 911 950.333 911Z" stroke="#000000" stroke-width="5.72917" stroke-miterlimit="8" fill="#7F7F7F" fill-rule="evenodd"/><path d="M868.667 911C867.194 911 866 909.806 866 908.333L866 860.667C866 859.194 867.194 858 868.667 858L879.333 858C880.806 858 882 859.194 882 860.667L882 908.333C882 909.806 880.806 911 879.333 911Z" stroke="#000000" stroke-width="5.72917" stroke-miterlimit="8" fill="#7F7F7F" fill-rule="evenodd"/><path d="M845 912.617C845 908.963 847.962 906 851.617 906L966.383 906C970.038 906 973 908.963 973 912.617L973 916.383C973 920.037 970.038 923 966.383 923L851.617 923C847.962 923 845 920.037 845 916.383Z" stroke="#000000" stroke-width="5.72917" stroke-miterlimit="8" fill="#D9D9D9" fill-rule="evenodd"/><path d="M869.65 781.274C871.221 776.91 875.361 774 880 774" stroke="#000000" stroke-width="5.72917" stroke-linecap="round" stroke-linejoin="round" stroke-miterlimit="10" fill="none" fill-rule="evenodd"/></g></svg>