<svg width="347" height="236" xmlns="http://www.w3.org/2000/svg" xmlns:xlink="http://www.w3.org/1999/xlink" xml:space="preserve" overflow="hidden"><g transform="translate(-441 -691)"><path d="M749.594 694.947C751.986 694.947 753.926 696.737 753.926 698.946L753.926 738.948C753.926 741.156 751.986 742.946 749.594 742.946L732.258 742.946C729.866 742.946 727.926 741.156 727.926 738.948L727.926 698.946C727.926 696.737 729.866 694.947 732.258 694.947Z" stroke="#000000" stroke-width="5.72917" stroke-miterlimit="8" fill="#D9D9D9" fill-rule="evenodd"/><path d="M27.5527 0.022366 58.4497 0.022366 59.0665 5.70866 64.9482 7.63675C77.3202 13.1636 86.0012 26.1026 86.0012 41.1829L86.0012 118.046C86.0012 122.451 82.6204 126.022 78.4496 126.022L7.55254 126.022C3.38203 126.022 0.00092981 122.451 0.00092981 118.046L0.00092981 41.1829C0.00092981 26.1026 8.68195 13.1636 21.054 7.63675L26.9357 5.70866Z" stroke="#000000" stroke-width="5.72917" stroke-linecap="round" stroke-linejoin="round" stroke-miterlimit="10" fill="#FFFFFF" fill-rule="evenodd" transform="matrix(-1 1.22465e-16 1.22465e-16 1 785 797)"/><path d="M0.0728351 0.0288366 85.9296 0.0288366 86.0012 1.0221 86.0012 77.1314C86.0012 81.4932 82.6204 85.0291 78.4496 85.0291L7.55254 85.0291C3.38203 85.0291 0.00092981 81.4932 0.00092981 77.1314L0.00092981 1.0221Z" stroke="#000000" stroke-width="5.72917" stroke-linecap="round" stroke-linejoin="round" stroke-miterlimit="10" fill="#0070DA" fill-rule="evenodd" transform="matrix(-1 1.22465e-16 1.22465e-16 1 785 838)"/><path d="M31.1493 0.0177181 24.3998 0.0177181 24.3998 0.0527926 15.0927 0.0527926 15.0927 0.0177181 8.34321 0.0177181 8.34321 0.0527926 5.45056 0.0527926C2.44262 0.0527926 0.00433913 2.66169 0.00433913 5.88023L0.00433913 29.1903C0.00433913 32.4089 2.44262 35.0181 5.45056 35.0181L34.5587 35.0181C37.5663 35.0181 40.0046 32.4089 40.0046 29.1903L40.0046 5.88023C40.0046 2.66169 37.5663 0.0527926 34.5587 0.0527926L31.1493 0.0527926Z" stroke="#000000" stroke-width="5.72917" stroke-miterlimit="8" fill="#D9D9D9" fill-rule="evenodd" transform="matrix(-1 1.22465e-16 1.22465e-16 1 761 765)"/><path d="M712.952 823.96C714.167 820.36 717.366 817.96 720.952 817.96" stroke="#000000" stroke-width="5.72917" stroke-linecap="round" stroke-linejoin="round" stroke-miterlimit="10" fill="none" fill-rule="evenodd"/><path d="M457.266 715 765.38 715 765.38 715.034C769.271 715.034 772.851 717.161 774.71 720.578 776.569 723.995 776.409 728.155 774.293 731.419L688.593 923 457.266 922.795C450.027 922.795 444 918.306 444 912.55L444 725.245C444 719.654 450.027 715 457.266 715Z" stroke="#000000" stroke-width="5.72917" stroke-linejoin="round" stroke-miterlimit="10" fill="#D9D9D9" fill-rule="evenodd"/><path d="M0 0 137 2.00007" stroke="#000000" stroke-width="5.72917" stroke-linecap="round" stroke-miterlimit="8" fill="none" fill-rule="evenodd" transform="matrix(1 0 0 -1 472 847)"/><path d="M469 804.616C469 803.171 470.171 802 471.615 802L507.385 802C508.829 802 510 803.171 510 804.616L510 825.384C510 826.829 508.829 828 507.385 828L471.615 828C470.171 828 469 826.829 469 825.384Z" stroke="#000000" stroke-width="5.72917" stroke-linecap="round" stroke-linejoin="round" stroke-miterlimit="10" fill="#F6B803" fill-rule="evenodd"/><path d="M761.875 818.737C766.161 820.424 769 824.711 769 829.5" stroke="#000000" stroke-width="5.72917" stroke-linecap="round" stroke-linejoin="round" stroke-miterlimit="10" fill="none" fill-rule="evenodd"/></g></svg>