<svg width="202" height="44" xmlns="http://www.w3.org/2000/svg" xmlns:xlink="http://www.w3.org/1999/xlink" xml:space="preserve" overflow="hidden"><defs><clipPath id="clip0"><rect x="2677" y="1360" width="202" height="44"/></clipPath></defs><g clip-path="url(#clip0)" transform="translate(-2677 -1360)"><path d="M2678.5 1381.28C2678.5 1379.19 2680.19 1377.5 2682.28 1377.5L2873.72 1377.5C2875.81 1377.5 2877.5 1379.19 2877.5 1381.28L2877.5 1384.72C2877.5 1386.81 2875.81 1388.5 2873.72 1388.5L2682.28 1388.5C2680.19 1388.5 2678.5 1386.81 2678.5 1384.72Z" stroke="#000000" stroke-width="3" stroke-linecap="round" stroke-linejoin="round" stroke-miterlimit="10" fill="#D9D9D9" fill-rule="evenodd"/><path d="M2833.5 1379.74C2833.5 1375.19 2837.19 1371.5 2841.74 1371.5L2860.26 1371.5C2864.81 1371.5 2868.5 1375.19 2868.5 1379.74L2868.5 1387.26C2868.5 1391.81 2864.81 1395.5 2860.26 1395.5L2841.74 1395.5C2837.19 1395.5 2833.5 1391.81 2833.5 1387.26Z" stroke="#000000" stroke-width="3" stroke-linecap="round" stroke-linejoin="round" stroke-miterlimit="10" fill="#D9D9D9" fill-rule="evenodd"/><path d="M2686.5 1364.09C2686.5 1362.66 2687.66 1361.5 2689.09 1361.5L2845.91 1361.5C2847.34 1361.5 2848.5 1362.66 2848.5 1364.09L2848.5 1399.91C2848.5 1401.34 2847.34 1402.5 2845.91 1402.5L2689.09 1402.5C2687.66 1402.5 2686.5 1401.34 2686.5 1399.91Z" stroke="#000000" stroke-width="3" stroke-linecap="round" stroke-linejoin="round" stroke-miterlimit="10" fill="#D9D9D9" fill-rule="evenodd"/><path d="M2754 1381C2754 1373.27 2760.04 1367 2767.5 1367 2774.96 1367 2781 1373.27 2781 1381 2781 1388.73 2774.96 1395 2767.5 1395 2760.04 1395 2754 1388.73 2754 1381Z" stroke="#000000" stroke-width="1.5" stroke-miterlimit="8" fill="#FFEB7B" fill-rule="evenodd"/><path d="M2766.68 1382.38 2766.78 1382.45C2767 1382.55 2767.25 1382.6 2767.5 1382.6 2767.75 1382.6 2767.99 1382.55 2768.21 1382.45L2768.26 1382.42 2773.09 1391.38 2771.98 1392.03C2770.6 1392.65 2769.09 1393 2767.5 1393 2765.91 1393 2764.4 1392.65 2763.02 1392.03L2761.85 1391.34ZM2767.5 1379.34C2768.16 1379.34 2768.7 1379.92 2768.7 1380.63 2768.7 1381.34 2768.16 1381.91 2767.5 1381.91 2766.84 1381.91 2766.3 1381.34 2766.3 1380.63 2766.3 1379.92 2766.84 1379.34 2767.5 1379.34ZM2761.63 1370.03 2766.46 1379.04 2766.2 1379.23C2766.03 1379.41 2765.9 1379.62 2765.8 1379.86L2765.67 1380.57 2756 1380.55 2756.23 1378.13C2756.84 1374.91 2758.62 1372.14 2761.07 1370.37ZM2773.31 1370 2773.93 1370.37C2776.38 1372.14 2778.16 1374.91 2778.77 1378.13L2779 1380.57 2769.32 1380.55 2769.19 1379.86C2769.1 1379.62 2768.97 1379.41 2768.8 1379.23L2768.49 1379.01Z" fill-rule="evenodd"/></g></svg>