<svg width="291" height="65" xmlns="http://www.w3.org/2000/svg" xmlns:xlink="http://www.w3.org/1999/xlink" xml:space="preserve" overflow="hidden"><g transform="translate(-653 -1908)"><path d="M656 1939.49C656 1936.46 658.459 1934 661.494 1934L935.506 1934C938.54 1934 941 1936.46 941 1939.49L941 1944.51C941 1947.54 938.54 1950 935.506 1950L661.494 1950C658.459 1950 656 1947.54 656 1944.51Z" stroke="#000000" stroke-width="5.72917" stroke-linecap="round" stroke-linejoin="round" stroke-miterlimit="10" fill="#D9D9D9" fill-rule="evenodd"/><path d="M877 1936.02C877 1929.38 882.38 1924 889.018 1924L915.982 1924C922.62 1924 928 1929.38 928 1936.02L928 1946.98C928 1953.62 922.62 1959 915.982 1959L889.018 1959C882.38 1959 877 1953.62 877 1946.98Z" stroke="#000000" stroke-width="5.72917" stroke-linecap="round" stroke-linejoin="round" stroke-miterlimit="10" fill="#D9D9D9" fill-rule="evenodd"/><path d="M667 1914.72C667 1912.67 668.666 1911 670.722 1911L895.278 1911C897.333 1911 899 1912.67 899 1914.72L899 1966.28C899 1968.33 897.333 1970 895.278 1970L670.722 1970C668.666 1970 667 1968.33 667 1966.28Z" stroke="#000000" stroke-width="5.72917" stroke-linecap="round" stroke-linejoin="round" stroke-miterlimit="10" fill="#D9D9D9" fill-rule="evenodd"/><path d="M763.5 1939.5C763.5 1928.45 772.454 1919.5 783.5 1919.5 794.546 1919.5 803.5 1928.45 803.5 1939.5 803.5 1950.55 794.546 1959.5 783.5 1959.5 772.454 1959.5 763.5 1950.55 763.5 1939.5Z" stroke="#000000" stroke-width="3.4375" stroke-miterlimit="8" fill="#F6B803" fill-rule="evenodd"/><path d="M781.793 1941.22 781.941 1941.32C782.266 1941.46 782.623 1941.53 782.999 1941.53 783.374 1941.53 783.731 1941.46 784.056 1941.32L784.117 1941.28 791.261 1953.74 789.619 1954.65C787.584 1955.52 785.347 1956 782.999 1956 780.65 1956 778.413 1955.52 776.378 1954.65L774.643 1953.69ZM782.999 1936.99C783.975 1936.99 784.767 1937.8 784.767 1938.78 784.767 1939.77 783.975 1940.57 782.999 1940.57 782.022 1940.57 781.23 1939.77 781.23 1938.78 781.23 1937.8 782.022 1936.99 782.999 1936.99ZM774.326 1924.05 781.469 1936.57 781.077 1936.84C780.831 1937.09 780.632 1937.38 780.494 1937.71L780.296 1938.71 766 1938.68 766.335 1935.31C767.241 1930.83 769.869 1926.98 773.488 1924.51ZM791.584 1924 792.509 1924.51C796.128 1926.98 798.756 1930.83 799.662 1935.31L800 1938.7 785.695 1938.67 785.503 1937.71C785.365 1937.38 785.166 1937.09 784.92 1936.84L784.469 1936.53Z" fill-rule="evenodd"/></g></svg>