<svg width="136" height="31" xmlns="http://www.w3.org/2000/svg" xmlns:xlink="http://www.w3.org/1999/xlink" overflow="hidden"><g transform="translate(-82 -459)"><path d="M83 473.747C83 472.23 84.2298 471 85.7468 471L213.253 471C214.77 471 216 472.23 216 473.747L216 476.253C216 477.77 214.77 479 213.253 479L85.7468 479C84.2298 479 83 477.77 83 476.253Z" stroke="#000000" stroke-width="2" stroke-linecap="round" stroke-linejoin="round" stroke-miterlimit="10" fill="#D9D9D9" fill-rule="evenodd"/><path d="M186 472.494C186 469.46 188.46 467 191.494 467L204.506 467C207.54 467 210 469.46 210 472.494L210 477.506C210 480.54 207.54 483 204.506 483L191.494 483C188.46 483 186 480.54 186 477.506Z" stroke="#000000" stroke-width="2" stroke-linecap="round" stroke-linejoin="round" stroke-miterlimit="10" fill="#D9D9D9" fill-rule="evenodd"/><path d="M89 462.703C89 461.763 89.7626 461 90.7034 461L195.297 461C196.237 461 197 461.763 197 462.703L197 486.297C197 487.237 196.237 488 195.297 488L90.7034 488C89.7626 488 89 487.237 89 486.297Z" stroke="#000000" stroke-width="2" stroke-linecap="round" stroke-linejoin="round" stroke-miterlimit="10" fill="#D9D9D9" fill-rule="evenodd"/><path d="M133.5 474.5C133.5 469.53 137.753 465.5 143 465.5 148.247 465.5 152.5 469.53 152.5 474.5 152.5 479.471 148.247 483.5 143 483.5 137.753 483.5 133.5 479.471 133.5 474.5Z" stroke="#000000" stroke-miterlimit="8" fill="#FFC000" fill-rule="evenodd"/><path d="M142.432 475.071 142.502 475.118C142.655 475.183 142.823 475.219 142.999 475.219 143.176 475.219 143.344 475.183 143.497 475.118L143.526 475.099 146.888 480.943 146.115 481.366C145.157 481.774 144.105 482 142.999 482 141.894 482 140.841 481.774 139.884 481.366L139.067 480.919ZM142.999 473.091C143.459 473.091 143.831 473.467 143.831 473.93 143.831 474.393 143.459 474.769 142.999 474.769 142.54 474.769 142.167 474.393 142.167 473.93 142.167 473.467 142.54 473.091 142.999 473.091ZM138.918 467.022 142.28 472.893 142.095 473.018C141.979 473.135 141.886 473.274 141.821 473.428L141.728 473.893 135 473.88 135.158 472.304C135.584 470.202 136.821 468.398 138.524 467.238ZM147.039 467 147.475 467.238C149.178 468.398 150.415 470.202 150.841 472.304L151 473.892 144.268 473.879 144.178 473.428C144.113 473.274 144.019 473.135 143.904 473.018L143.691 472.874Z" fill-rule="evenodd"/></g></svg>