<svg width="291" height="65" xmlns="http://www.w3.org/2000/svg" xmlns:xlink="http://www.w3.org/1999/xlink" xml:space="preserve" overflow="hidden"><g transform="translate(-176 -1908)"><path d="M179 1939.49C179 1936.46 181.46 1934 184.494 1934L458.506 1934C461.54 1934 464 1936.46 464 1939.49L464 1944.51C464 1947.54 461.54 1950 458.506 1950L184.494 1950C181.46 1950 179 1947.54 179 1944.51Z" stroke="#000000" stroke-width="5.72917" stroke-linecap="round" stroke-linejoin="round" stroke-miterlimit="10" fill="#D9D9D9" fill-rule="evenodd"/><path d="M401 1936.02C401 1929.38 406.381 1924 413.018 1924L439.982 1924C446.62 1924 452 1929.38 452 1936.02L452 1946.98C452 1953.62 446.62 1959 439.982 1959L413.018 1959C406.381 1959 401 1953.62 401 1946.98Z" stroke="#000000" stroke-width="5.72917" stroke-linecap="round" stroke-linejoin="round" stroke-miterlimit="10" fill="#D9D9D9" fill-rule="evenodd"/><path d="M191 1914.72C191 1912.67 192.667 1911 194.722 1911L419.278 1911C421.334 1911 423 1912.67 423 1914.72L423 1966.28C423 1968.33 421.334 1970 419.278 1970L194.722 1970C192.667 1970 191 1968.33 191 1966.28Z" stroke="#000000" stroke-width="5.72917" stroke-linecap="round" stroke-linejoin="round" stroke-miterlimit="10" fill="#D9D9D9" fill-rule="evenodd"/><path d="M287.5 1941C287.5 1929.13 297.126 1919.5 309 1919.5 320.874 1919.5 330.5 1929.13 330.5 1941 330.5 1952.87 320.874 1962.5 309 1962.5 297.126 1962.5 287.5 1952.87 287.5 1941Z" stroke="#000000" stroke-width="3.4375" stroke-miterlimit="8" fill="#F6B803" fill-rule="evenodd"/><path d="M305.808 1948.44 307.195 1948.85C307.778 1948.96 308.383 1949.02 309.002 1949.02 309.621 1949.02 310.225 1948.96 310.809 1948.85L312.058 1948.48 313.913 1953.14 313.214 1953.39C311.883 1953.79 310.469 1954 309.002 1954 307.535 1954 306.121 1953.79 304.79 1953.39L303.955 1953.1ZM318.099 1930.05 319.017 1930.84C320.939 1932.69 322.312 1935.05 322.878 1937.7L323 1938.47 317.847 1939.27 317.788 1938.71C317.429 1937.03 316.56 1935.53 315.343 1934.36L314.796 1933.93ZM299.957 1930 303.262 1933.89 302.661 1934.36C301.443 1935.53 300.575 1937.03 300.216 1938.71L300.155 1939.29 295 1938.49 295.126 1937.7C295.692 1935.05 297.064 1932.69 298.987 1930.84Z" stroke="#000000" stroke-width="5.72917" stroke-linecap="round" stroke-linejoin="round" stroke-miterlimit="10" fill-rule="evenodd"/><path d="M308 1940.5C308 1939.67 308.448 1939 309 1939 309.552 1939 310 1939.67 310 1940.5 310 1941.33 309.552 1942 309 1942 308.448 1942 308 1941.33 308 1940.5Z" stroke="#000000" stroke-width="5.72917" stroke-linecap="round" stroke-linejoin="round" stroke-miterlimit="10" fill-rule="evenodd"/></g></svg>