<svg width="427" height="257" xmlns="http://www.w3.org/2000/svg" xmlns:xlink="http://www.w3.org/1999/xlink" xml:space="preserve" overflow="hidden"><g transform="translate(-1317 -1318)"><path d="M1329 1331.79C1329 1325.83 1333.83 1321 1339.79 1321L1721.21 1321C1727.17 1321 1732 1325.83 1732 1331.79L1732 1435.21C1732 1441.17 1727.17 1446 1721.21 1446L1339.79 1446C1333.83 1446 1329 1441.17 1329 1435.21Z" stroke="#000000" stroke-width="5.72917" stroke-linecap="round" stroke-linejoin="round" stroke-miterlimit="10" fill="#404040" fill-rule="evenodd"/><path d="M38.0002 66.5292C38.0002 62.4031 34.6724 59.0582 30.5675 59.0582L14.865 59.0582 14.8653 14.9421 30.5672 14.9424C34.6721 14.9424 37.9998 11.5974 37.9998 7.47137L38.0002 7.47137C38.0002 3.3453 34.6724 0.000326817 30.5675 0.000326817L7.43265 0.000326817 7.43265 0C3.32779 0 0 3.34498 0 7.47104L0 7.47137 0 66.5289 0 66.5292 2.17712 71.8116 7.43265 73.9999 7.43233 73.9999 7.43265 73.9999 30.5672 74.0003C34.6721 74.0003 37.9998 70.6553 37.9998 66.5292Z" stroke="#000000" stroke-width="5.72917" stroke-linecap="round" stroke-linejoin="round" stroke-miterlimit="10" fill="#404040" fill-rule="evenodd" transform="matrix(-1.83697e-16 -1 -1 1.83697e-16 1567 1399)"/><path d="M0 8.00031C-3.34993e-15 3.58186 3.58177 0 8.00011 0L413 0C417.419-1.67501e-15 421.001 3.58186 421.001 8.00031L421 8.00031C421 12.4188 417.418 16.0006 413 16.0006L8.00011 16.0002C3.58177 16.0002 0 12.4183 0 7.99985Z" stroke="#000000" stroke-width="5.72917" stroke-linecap="round" stroke-linejoin="round" stroke-miterlimit="10" fill="#404040" fill-rule="evenodd" transform="matrix(1 0 0 -1 1320 1366)"/><path d="M1329 1456.88C1329 1450.87 1333.87 1446 1339.87 1446L1721.13 1446C1727.13 1446 1732 1450.87 1732 1456.88L1732 1561.12C1732 1567.13 1727.13 1572 1721.13 1572L1339.87 1572C1333.87 1572 1329 1567.13 1329 1561.12Z" stroke="#000000" stroke-width="5.72917" stroke-linecap="round" stroke-linejoin="round" stroke-miterlimit="10" fill="#404040" fill-rule="evenodd"/><path d="M38.9998 66.5292C38.9998 62.4031 35.5845 59.0582 31.3717 59.0582L15.256 59.0582 15.2564 14.9421 31.3713 14.9424C35.5842 14.9424 38.9995 11.5974 38.9995 7.47137L38.9998 7.47137C38.9998 3.3453 35.5845 0.000326817 31.3717 0.000326817L7.62818 0.000326817 7.62818 0C3.41533 0 0 3.34498 0 7.47104L0 7.47137 0 66.5289 0 66.5292 2.2344 71.8116 7.62818 73.9999 7.62785 73.9999 7.62818 73.9999 31.3713 74.0003C35.5842 74.0003 38.9995 70.6553 38.9995 66.5292Z" stroke="#000000" stroke-width="5.72917" stroke-linecap="round" stroke-linejoin="round" stroke-miterlimit="10" fill="#404040" fill-rule="evenodd" transform="matrix(-1.83697e-16 -1 -1 1.83697e-16 1567 1525)"/><path d="M0 8.50015C-1.67497e-15 3.80565 3.80563-3.34995e-15 8.50011-3.34995e-15L412.5 0C417.195-1.67497e-15 421.001 3.80565 421.001 8.50015L421 8.50015C421 13.1946 417.194 17.0003 412.5 17.0003L8.50011 16.9998C3.80563 16.9998-1.67497e-15 13.1942 0 8.49969Z" stroke="#000000" stroke-width="5.72917" stroke-linecap="round" stroke-linejoin="round" stroke-miterlimit="10" fill="#404040" fill-rule="evenodd" transform="matrix(1 0 0 -1 1320 1492)"/><path d="M1387 1393.8C1387 1390.04 1390.04 1387 1393.8 1387L1436.2 1387C1439.96 1387 1443 1390.04 1443 1393.8L1443 1418.2C1443 1421.96 1439.96 1425 1436.2 1425L1393.8 1425C1390.04 1425 1387 1421.96 1387 1418.2Z" stroke="#000000" stroke-width="5.72917" stroke-linejoin="round" stroke-miterlimit="10" fill="#D9D9D9" fill-rule="evenodd"/><path d="M1453 1409.4C1453 1407.52 1454.52 1406 1456.4 1406L1479.6 1406C1481.48 1406 1483 1407.52 1483 1409.4L1483 1421.6C1483 1423.48 1481.48 1425 1479.6 1425L1456.4 1425C1454.52 1425 1453 1423.48 1453 1421.6Z" stroke="#000000" stroke-width="5.72917" stroke-linejoin="round" stroke-miterlimit="10" fill="#D9D9D9" fill-rule="evenodd"/><path d="M1348 1409.4C1348 1407.52 1349.52 1406 1351.4 1406L1374.6 1406C1376.48 1406 1378 1407.52 1378 1409.4L1378 1421.6C1378 1423.48 1376.48 1425 1374.6 1425L1351.4 1425C1349.52 1425 1348 1423.48 1348 1421.6Z" stroke="#000000" stroke-width="5.72917" stroke-linejoin="round" stroke-miterlimit="10" fill="#D9D9D9" fill-rule="evenodd"/><path d="M1453 1541.4C1453 1539.52 1454.52 1538 1456.4 1538L1479.6 1538C1481.48 1538 1483 1539.52 1483 1541.4L1483 1553.6C1483 1555.48 1481.48 1557 1479.6 1557L1456.4 1557C1454.52 1557 1453 1555.48 1453 1553.6Z" stroke="#000000" stroke-width="5.72917" stroke-linejoin="round" stroke-miterlimit="10" fill="#D9D9D9" fill-rule="evenodd"/><path d="M1348 1541.4C1348 1539.52 1349.52 1538 1351.4 1538L1374.6 1538C1376.48 1538 1378 1539.52 1378 1541.4L1378 1553.6C1378 1555.48 1376.48 1557 1374.6 1557L1351.4 1557C1349.52 1557 1348 1555.48 1348 1553.6Z" stroke="#000000" stroke-width="5.72917" stroke-linejoin="round" stroke-miterlimit="10" fill="#D9D9D9" fill-rule="evenodd"/><path d="M1385 1541.4C1385 1539.52 1386.52 1538 1388.4 1538L1411.6 1538C1413.48 1538 1415 1539.52 1415 1541.4L1415 1553.6C1415 1555.48 1413.48 1557 1411.6 1557L1388.4 1557C1386.52 1557 1385 1555.48 1385 1553.6Z" stroke="#000000" stroke-width="5.72917" stroke-linejoin="round" stroke-miterlimit="10" fill="#D9D9D9" fill-rule="evenodd"/><path d="M1434.5 1522C1440.85 1522 1446 1527.15 1446 1533.5L1446 1546.5C1446 1552.85 1440.85 1558 1434.5 1558L1434.5 1558C1428.15 1558 1423 1552.85 1423 1546.5L1423 1533.5C1423 1527.15 1428.15 1522 1434.5 1522Z" stroke="#000000" stroke-width="5.72917" stroke-linejoin="round" stroke-miterlimit="10" fill="#D9D9D9" fill-rule="evenodd"/><path d="M1362 1415 1362 1546.4" stroke="#000000" stroke-width="5.72917" stroke-linecap="round" stroke-linejoin="round" stroke-miterlimit="10" fill="#D9D9D9" fill-rule="evenodd"/><path d="M1468 1415 1468 1546.4" stroke="#000000" stroke-width="5.72917" stroke-linecap="round" stroke-linejoin="round" stroke-miterlimit="10" fill="#D9D9D9" fill-rule="evenodd"/><path d="M1401 1398 1401 1545.81" stroke="#000000" stroke-width="5.72917" stroke-linecap="round" stroke-linejoin="round" stroke-miterlimit="10" fill="#D9D9D9" fill-rule="evenodd"/><path d="M1415 1412 1430.47 1412" stroke="#8AB894" stroke-width="5.72917" stroke-linecap="round" stroke-linejoin="round" stroke-miterlimit="10" fill="#D9D9D9" fill-rule="evenodd"/><path d="M1415 1400 1430.47 1400" stroke="#000000" stroke-width="5.72917" stroke-linecap="round" stroke-linejoin="round" stroke-miterlimit="10" fill="#D9D9D9" fill-rule="evenodd"/><path d="M1435.5 1522C1441.3 1522 1446 1526.7 1446 1532.5L1446 1532.5C1446 1538.3 1441.3 1543 1435.5 1543L1433.5 1543C1427.7 1543 1423 1538.3 1423 1532.5L1423 1532.5C1423 1526.7 1427.7 1522 1433.5 1522Z" stroke="#000000" stroke-width="5.72917" stroke-linejoin="round" stroke-miterlimit="10" fill="#D9D9D9" fill-rule="evenodd"/><path d="M1708.5 1522C1713.19 1522 1717 1525.81 1717 1530.5L1717 1549.5C1717 1554.19 1713.19 1558 1708.5 1558L1708.5 1558C1703.81 1558 1700 1554.19 1700 1549.5L1700 1530.5C1700 1525.81 1703.81 1522 1708.5 1522Z" stroke="#000000" stroke-width="5.72917" stroke-linejoin="round" stroke-miterlimit="10" fill="#D9D9D9" fill-rule="evenodd"/><path d="M1708.5 1395C1713.19 1395 1717 1398.81 1717 1403.5L1717 1422.5C1717 1427.19 1713.19 1431 1708.5 1431L1708.5 1431C1703.81 1431 1700 1427.19 1700 1422.5L1700 1403.5C1700 1398.81 1703.81 1395 1708.5 1395Z" stroke="#000000" stroke-width="5.72917" stroke-linejoin="round" stroke-miterlimit="10" fill="#D9D9D9" fill-rule="evenodd"/></g></svg>