<svg width="407" height="273" xmlns="http://www.w3.org/2000/svg" xmlns:xlink="http://www.w3.org/1999/xlink" xml:space="preserve" overflow="hidden"><g transform="translate(-1651 -506)"><path d="M1963 510.754C1963 509.786 1963.79 509 1964.75 509L1997.25 509C1998.21 509 1999 509.786 1999 510.754L1999 547.246C1999 548.215 1998.21 549 1997.25 549L1964.75 549C1963.79 549 1963 548.215 1963 547.246Z" stroke="#000000" stroke-width="5.72917" stroke-linecap="round" stroke-linejoin="round" stroke-miterlimit="10" fill="#D9D9D9" fill-rule="evenodd"/><path d="M1738.62 745C1742.14 745 1745 747.857 1745 751.381L1745 769.619C1745 773.143 1742.14 776 1738.62 776L1723.38 776C1719.86 776 1717 773.143 1717 769.619L1717 751.381C1717 747.857 1719.86 745 1723.38 745Z" stroke="#000000" stroke-width="5.72917" stroke-miterlimit="8" fill="#7F7F7F" fill-rule="evenodd"/><path d="M1985.62 745C1989.14 745 1992 747.857 1992 751.381L1992 769.619C1992 773.143 1989.14 776 1985.62 776L1970.38 776C1966.86 776 1964 773.143 1964 769.619L1964 751.381C1964 747.857 1966.86 745 1970.38 745Z" stroke="#000000" stroke-width="5.72917" stroke-miterlimit="8" fill="#7F7F7F" fill-rule="evenodd"/><path d="M1937 695.333C1937 694.045 1938.04 693 1939.33 693L1980.67 693C1981.96 693 1983 694.045 1983 695.333L1983 704.667C1983 705.955 1981.96 707 1980.67 707L1939.33 707C1938.04 707 1937 705.955 1937 704.667Z" stroke="#000000" stroke-width="5.72917" stroke-linecap="round" stroke-linejoin="round" stroke-miterlimit="10" fill="#404040" fill-rule="evenodd"/><path d="M1733 633.652C1733 631.635 1734.63 630 1736.65 630L1821.35 630C1823.37 630 1825 631.635 1825 633.652L1825 745.349C1825 747.365 1823.37 749 1821.35 749L1736.65 749C1734.63 749 1733 747.365 1733 745.349Z" stroke="#000000" stroke-width="5.72917" stroke-linecap="round" stroke-linejoin="round" stroke-miterlimit="10" fill="#404040" fill-rule="evenodd"/><rect x="1883" y="630" width="91.9998" height="119" stroke="#000000" stroke-width="5.72917" stroke-linecap="round" stroke-linejoin="round" stroke-miterlimit="10" fill="#404040"/><path d="M1855 716C1923.97 716 1987.22 730.633 2036.56 754.991L2047 760.666 2047 767 1663 767 1663 760.666 1673.44 754.991C1722.78 730.633 1786.03 716 1855 716Z" stroke="#000000" stroke-width="5.72917" stroke-linecap="round" stroke-linejoin="round" stroke-miterlimit="10" fill="#D9D9D9" fill-rule="evenodd"/><path d="M1662 579.46C1662 577.549 1663.55 576 1665.46 576L2043.54 576C2045.45 576 2047 577.549 2047 579.46L2047 643.54C2047 645.451 2045.45 647 2043.54 647L1665.46 647C1663.55 647 1662 645.451 1662 643.54Z" stroke="#000000" stroke-width="5.72917" stroke-linecap="round" stroke-linejoin="round" stroke-miterlimit="10" fill="#D9D9D9" fill-rule="evenodd"/><rect x="1789" y="576" width="130" height="191" stroke="#000000" stroke-width="5.72917" stroke-linecap="round" stroke-linejoin="round" stroke-miterlimit="10" fill="#D9D9D9"/><path d="M1991 604C1991 602.343 1992.34 601 1994 601L2031 601C2032.66 601 2034 602.343 2034 604L2034 616C2034 617.657 2032.66 619 2031 619L1994 619C1992.34 619 1991 617.657 1991 616Z" stroke="#000000" stroke-width="5.72917" stroke-linecap="round" stroke-linejoin="round" stroke-miterlimit="10" fill="#0070DA" fill-rule="evenodd"/><path d="M1675 604C1675 602.343 1676.34 601 1678 601L1722 601C1723.66 601 1725 602.343 1725 604L1725 616C1725 617.657 1723.66 619 1722 619L1678 619C1676.34 619 1675 617.657 1675 616Z" stroke="#000000" stroke-width="5.72917" stroke-linecap="round" stroke-linejoin="round" stroke-miterlimit="10" fill="#404040" fill-rule="evenodd"/><path d="M1827 689.5C1827 674.312 1839.31 662 1854.5 662 1869.69 662 1882 674.312 1882 689.5 1882 704.688 1869.69 717 1854.5 717 1839.31 717 1827 704.688 1827 689.5Z" stroke="#000000" stroke-width="5.72917" stroke-linecap="round" stroke-linejoin="round" stroke-miterlimit="10" fill="#404040" fill-rule="evenodd"/><path d="M1842 622.5C1842 616.149 1847.15 611 1853.5 611 1859.85 611 1865 616.149 1865 622.5 1865 628.851 1859.85 634 1853.5 634 1847.15 634 1842 628.851 1842 622.5Z" stroke="#000000" stroke-width="5.72917" stroke-linecap="round" stroke-linejoin="round" stroke-miterlimit="10" fill="#404040" fill-rule="evenodd"/><path d="M1814 612.5C1814 608.91 1816.91 606 1820.5 606 1824.09 606 1827 608.91 1827 612.5 1827 616.09 1824.09 619 1820.5 619 1816.91 619 1814 616.09 1814 612.5Z" stroke="#000000" stroke-width="5.72917" stroke-linecap="round" stroke-linejoin="round" stroke-miterlimit="10" fill="#404040" fill-rule="evenodd"/><path d="M1814 633.5C1814 629.91 1816.91 627 1820.5 627 1824.09 627 1827 629.91 1827 633.5 1827 637.09 1824.09 640 1820.5 640 1816.91 640 1814 637.09 1814 633.5Z" stroke="#000000" stroke-width="5.72917" stroke-linecap="round" stroke-linejoin="round" stroke-miterlimit="10" fill="#404040" fill-rule="evenodd"/><path d="M1654 573 2055 573 2055 583.681C2055 586.066 2053.04 588 2050.63 588L1658.37 588C1655.96 588 1654 586.066 1654 583.681L1654 573Z" stroke="#000000" stroke-width="5.72917" stroke-miterlimit="8" fill="#0070DA" fill-rule="evenodd"/><path d="M1658.37 518 2050.63 518C2053.04 518 2055 519.97 2055 522.4L2055 573 1654 573 1654 522.4C1654 519.97 1655.96 518 1658.37 518Z" stroke="#000000" stroke-width="5.72917" stroke-linecap="round" stroke-linejoin="round" stroke-miterlimit="10" fill="#404040" fill-rule="evenodd"/></g></svg>