<svg width="124" height="84" xmlns="http://www.w3.org/2000/svg" xmlns:xlink="http://www.w3.org/1999/xlink" overflow="hidden"><g transform="translate(-1035 -149)"><path d="M1042.03 154 1151.97 154C1154.75 154 1157 155.755 1157 157.92L1157 228.08C1157 230.245 1154.75 232 1151.97 232L1042.03 232C1039.25 232 1037 230.245 1037 228.08L1037 157.92C1037 155.755 1039.25 154 1042.03 154Z" stroke="#000000" stroke-width="2" stroke-miterlimit="8" fill="#D9D9D9" fill-rule="evenodd"/><path d="M1066 173.963C1066 172.879 1066.88 172 1067.96 172L1127.04 172C1128.12 172 1129 172.879 1129 173.963L1129 197.037C1129 198.121 1128.12 199 1127.04 199L1067.96 199C1066.88 199 1066 198.121 1066 197.037Z" stroke="#000000" stroke-width="2" stroke-miterlimit="8" fill="#FFFFFF" fill-rule="evenodd"/><path d="M1074 179 1114.2 179" stroke="#000000" stroke-width="2" stroke-linecap="round" stroke-miterlimit="8" fill="none" fill-rule="evenodd"/><path d="M1074 186 1087.48 186" stroke="#000000" stroke-width="2" stroke-linecap="round" stroke-miterlimit="8" fill="none" fill-rule="evenodd"/><path d="M1040.22 154 1040.22 162.658 1041.34 162.837C1044.08 163.754 1046 165.9 1046 168.401L1046 206.904C1046 209.405 1044.08 211.551 1041.34 212.468L1040.22 212.647 1040.22 231 1038.45 230.419C1037.56 229.709 1037 228.727 1037 227.642L1037 157.358C1037 156.273 1037.56 155.291 1038.45 154.581Z" stroke="#000000" stroke-width="2" stroke-linecap="round" stroke-linejoin="round" stroke-miterlimit="10" fill="#7F7F7F" fill-rule="evenodd"/><path d="M3.22281 0 3.22281 8.65824 4.34331 8.83735C7.07986 9.75399 9 11.8998 9 14.4008L9 52.9041C9 55.4051 7.07986 57.5509 4.34331 58.4676L3.22281 58.6467 3.22281 77 1.45257 76.4193C0.555097 75.7086 0 74.7268 0 73.6423L0 3.35772C0 2.2733 0.555097 1.29145 1.45257 0.580713Z" stroke="#000000" stroke-width="2" stroke-linecap="round" stroke-linejoin="round" stroke-miterlimit="10" fill="#7F7F7F" fill-rule="evenodd" transform="matrix(-1 0 0 1 1157 154)"/><path d="M1040.5 216.5 1153.88 216.5" stroke="#000000" stroke-width="0.666667" stroke-linecap="round" stroke-miterlimit="8" fill="none" fill-rule="evenodd"/><path d="M1094 163.5C1094 161.567 1095.34 160 1097 160 1098.66 160 1100 161.567 1100 163.5 1100 165.433 1098.66 167 1097 167 1095.34 167 1094 165.433 1094 163.5Z" stroke="#000000" stroke-width="2" stroke-linecap="round" stroke-linejoin="round" stroke-miterlimit="10" fill="#7F7F7F" fill-rule="evenodd"/><path d="M1122 160.5C1122 158.567 1124.91 157 1128.5 157 1132.09 157 1135 158.567 1135 160.5 1135 162.433 1132.09 164 1128.5 164 1124.91 164 1122 162.433 1122 160.5Z" stroke="#000000" stroke-width="2" stroke-linecap="round" stroke-linejoin="round" stroke-miterlimit="10" fill="#7F7F7F" fill-rule="evenodd"/><path d="M1126 151.833C1126 151.373 1126.37 151 1126.83 151L1130.17 151C1130.63 151 1131 151.373 1131 151.833L1131 160.167C1131 160.627 1130.63 161 1130.17 161L1126.83 161C1126.37 161 1126 160.627 1126 160.167Z" stroke="#000000" stroke-width="2" stroke-linecap="round" stroke-linejoin="round" stroke-miterlimit="10" fill="#7F7F7F" fill-rule="evenodd"/><path d="M1132 206 1136.5 201 1141 206 1136.5 211Z" stroke="#000000" stroke-width="2" stroke-linecap="round" stroke-linejoin="round" stroke-miterlimit="10" fill="#1A80C3" fill-rule="evenodd"/></g></svg>