<svg width="207" height="134" xmlns="http://www.w3.org/2000/svg" xmlns:xlink="http://www.w3.org/1999/xlink" xml:space="preserve" overflow="hidden"><defs><clipPath id="clip0"><rect x="2299" y="619" width="207" height="134"/></clipPath></defs><g clip-path="url(#clip0)" transform="translate(-2299 -619)"><path d="M2309.06 620.5 2495.94 620.5C2500.67 620.5 2504.5 623.448 2504.5 627.084L2504.5 744.916C2504.5 748.552 2500.67 751.5 2495.94 751.5L2309.06 751.5C2304.33 751.5 2300.5 748.552 2300.5 744.916L2300.5 627.084C2300.5 623.448 2304.33 620.5 2309.06 620.5Z" stroke="#000000" stroke-width="3" stroke-miterlimit="8" fill="#D9D9D9" fill-rule="evenodd"/><path d="M2337.5 645.881C2337.5 642.909 2339.91 640.5 2342.88 640.5L2460.12 640.5C2463.09 640.5 2465.5 642.909 2465.5 645.881L2465.5 709.119C2465.5 712.091 2463.09 714.5 2460.12 714.5L2342.88 714.5C2339.91 714.5 2337.5 712.091 2337.5 709.119Z" stroke="#000000" stroke-width="3" stroke-miterlimit="8" fill="#FFFFFF" fill-rule="evenodd"/><rect x="2369.5" y="695.5" width="15" height="19" stroke="#000000" stroke-width="3" stroke-linecap="round" stroke-linejoin="round" stroke-miterlimit="10" fill="#FFEB7B"/><rect x="2384.5" y="686.5" width="14" height="28" stroke="#000000" stroke-width="3" stroke-linecap="round" stroke-linejoin="round" stroke-miterlimit="10" fill="#FFEB7B"/><rect x="2399.5" y="682.5" width="14" height="32" stroke="#000000" stroke-width="3" stroke-linecap="round" stroke-linejoin="round" stroke-miterlimit="10" fill="#FFEB7B"/><rect x="2413.5" y="690.5" width="14" height="24" stroke="#000000" stroke-width="3" stroke-linecap="round" stroke-linejoin="round" stroke-miterlimit="10" fill="#FFEB7B"/><rect x="2428.5" y="697.5" width="14" height="17" stroke="#000000" stroke-width="3" stroke-linecap="round" stroke-linejoin="round" stroke-miterlimit="10" fill="#FFEB7B"/><rect x="2442.5" y="706.5" width="14" height="8" stroke="#000000" stroke-width="3" stroke-linecap="round" stroke-linejoin="round" stroke-miterlimit="10" fill="#FFEB7B"/><rect x="2355.5" y="704.5" width="14" height="10" stroke="#000000" stroke-width="3" stroke-linecap="round" stroke-linejoin="round" stroke-miterlimit="10" fill="#FFEB7B"/><path d="M2355.5 651.5 2437.25 651.5" stroke="#000000" stroke-width="3" stroke-linecap="round" stroke-miterlimit="8" fill="none" fill-rule="evenodd"/><path d="M2355.5 663.5 2382.91 663.5" stroke="#000000" stroke-width="3" stroke-linecap="round" stroke-miterlimit="8" fill="none" fill-rule="evenodd"/><path d="M2305.87 620.5 2305.87 635.005 2307.74 635.305C2312.3 636.841 2315.5 640.436 2315.5 644.626L2315.5 709.132C2315.5 713.322 2312.3 716.917 2307.74 718.452L2305.87 718.752 2305.87 749.5 2302.92 748.527C2301.43 747.337 2300.5 745.692 2300.5 743.875L2300.5 626.125C2300.5 624.309 2301.43 622.664 2302.92 621.473Z" stroke="#000000" stroke-width="3" stroke-linecap="round" stroke-linejoin="round" stroke-miterlimit="10" fill="#7F7F7F" fill-rule="evenodd"/><path d="M5.72944 0 5.72944 14.5054 7.72144 14.8054C12.5864 16.3411 16 19.936 16 24.1261L16 88.6316C16 92.8216 12.5864 96.4165 7.72144 97.9522L5.72944 98.2522 5.72944 129 2.58235 128.027C0.98684 126.837 0 125.192 0 123.375L0 5.62527C0 3.80851 0.98684 2.1636 2.58235 0.972883Z" stroke="#000000" stroke-width="3" stroke-linecap="round" stroke-linejoin="round" stroke-miterlimit="10" fill="#7F7F7F" fill-rule="evenodd" transform="matrix(-1 0 0 1 2504.5 620.5)"/><path d="M2324.5 734.5 2357.71 734.5" stroke="#000000" stroke-width="3" stroke-linecap="round" stroke-miterlimit="8" fill="none" fill-rule="evenodd"/><path d="M2373.5 734.5 2382.62 734.5" stroke="#000000" stroke-width="3" stroke-linecap="round" stroke-miterlimit="8" fill="none" fill-rule="evenodd"/><path d="M2400.5 734.5 2484.17 734.5" stroke="#000000" stroke-width="3" stroke-linecap="round" stroke-miterlimit="8" fill="none" fill-rule="evenodd"/></g></svg>