<svg width="352" height="239" xmlns="http://www.w3.org/2000/svg" xmlns:xlink="http://www.w3.org/1999/xlink" xml:space="preserve" overflow="hidden"><g transform="translate(-2797 -319)"><path d="M2814.51 332 3131.49 332C3139.5 332 3146 337.018 3146 343.208L3146 543.792C3146 549.982 3139.5 555 3131.49 555L2814.51 555C2806.5 555 2800 549.982 2800 543.792L2800 343.208C2800 337.018 2806.5 332 2814.51 332Z" stroke="#000000" stroke-width="5.72917" stroke-miterlimit="8" fill="#D9D9D9" fill-rule="evenodd"/><path d="M2883 390.599C2883 387.507 2885.51 385 2888.6 385L3057.4 385C3060.49 385 3063 387.507 3063 390.599L3063 456.401C3063 459.493 3060.49 462 3057.4 462L2888.6 462C2885.51 462 2883 459.493 2883 456.401Z" stroke="#000000" stroke-width="5.72917" stroke-miterlimit="8" fill="#FFFFFF" fill-rule="evenodd"/><path d="M2907 404 3022.32 404" stroke="#000000" stroke-width="5.72917" stroke-linecap="round" stroke-miterlimit="8" fill="none" fill-rule="evenodd"/><path d="M2907 425 2945.67 425" stroke="#000000" stroke-width="5.72917" stroke-linecap="round" stroke-miterlimit="8" fill="none" fill-rule="evenodd"/><path d="M2809.31 332 2809.31 356.625 2812.55 357.135C2820.45 359.742 2826 365.845 2826 372.958L2826 482.468C2826 489.581 2820.45 495.684 2812.55 498.291L2809.31 498.8 2809.31 551 2804.2 549.348C2801.6 547.327 2800 544.535 2800 541.45L2800 341.55C2800 338.466 2801.6 335.673 2804.2 333.652Z" stroke="#000000" stroke-width="5.72917" stroke-linecap="round" stroke-linejoin="round" stroke-miterlimit="10" fill="#7F7F7F" fill-rule="evenodd"/><path d="M9.66849 0 9.66849 24.6254 13.03 25.1348C21.2397 27.7419 27.0002 33.8449 27.0002 40.9582L27.0002 150.467C27.0002 157.581 21.2397 163.684 13.03 166.291L9.66849 166.8 9.66849 219 4.35774 217.348C1.6653 215.327 0 212.535 0 209.45L0 9.54988C0 6.46561 1.6653 3.67309 4.35774 1.65164Z" stroke="#000000" stroke-width="5.72917" stroke-linecap="round" stroke-linejoin="round" stroke-miterlimit="10" fill="#7F7F7F" fill-rule="evenodd" transform="matrix(-1 0 0 1 3146 332)"/><path d="M2810.5 510.5 3135.74 510.5" stroke="#000000" stroke-width="3.4375" stroke-linecap="round" stroke-miterlimit="8" fill="none" fill-rule="evenodd"/><path d="M2963 359C2963 353.477 2967.25 349 2972.5 349 2977.75 349 2982 353.477 2982 359 2982 364.523 2977.75 369 2972.5 369 2967.25 369 2963 364.523 2963 359Z" stroke="#000000" stroke-width="5.72917" stroke-linecap="round" stroke-linejoin="round" stroke-miterlimit="10" fill="#7F7F7F" fill-rule="evenodd"/><path d="M3046 351C3046 345.477 3053.83 341 3063.5 341 3073.17 341 3081 345.477 3081 351 3081 356.523 3073.17 361 3063.5 361 3053.83 361 3046 356.523 3046 351Z" stroke="#000000" stroke-width="5.72917" stroke-linecap="round" stroke-linejoin="round" stroke-miterlimit="10" fill="#7F7F7F" fill-rule="evenodd"/><path d="M3057 324C3057 322.896 3057.9 322 3059 322L3067 322C3068.1 322 3069 322.896 3069 324L3069 349C3069 350.105 3068.1 351 3067 351L3059 351C3057.9 351 3057 350.105 3057 349Z" stroke="#000000" stroke-width="5.72917" stroke-linecap="round" stroke-linejoin="round" stroke-miterlimit="10" fill="#7F7F7F" fill-rule="evenodd"/><path d="M3072 481.5 3086 468 3100 481.5 3086 495Z" stroke="#000000" stroke-width="5.72917" stroke-linecap="round" stroke-linejoin="round" stroke-miterlimit="10" fill="#1A80C3" fill-rule="evenodd"/></g></svg>