<svg width="409" height="210" xmlns="http://www.w3.org/2000/svg" xmlns:xlink="http://www.w3.org/1999/xlink" xml:space="preserve" overflow="hidden"><g transform="translate(-787 -1703)"><path d="M790 1713.36C790 1709.3 793.295 1706 797.36 1706L1185.64 1706C1189.7 1706 1193 1709.3 1193 1713.36L1193 1902.64C1193 1906.7 1189.7 1910 1185.64 1910L797.36 1910C793.295 1910 790 1906.7 790 1902.64Z" stroke="#000000" stroke-width="5.72917" stroke-linecap="round" stroke-linejoin="round" stroke-miterlimit="10" fill="#B38969" fill-rule="evenodd"/><rect x="807" y="1719" width="369" height="177" stroke="#000000" stroke-width="5.72917" stroke-linecap="round" stroke-linejoin="round" stroke-miterlimit="10" fill="#D9D9D9"/><path d="M934 1800C934 1792.82 939.82 1787 947 1787 954.18 1787 960 1792.82 960 1800 960 1807.18 954.18 1813 947 1813 939.82 1813 934 1807.18 934 1800Z" stroke="#000000" stroke-width="5.72917" stroke-linejoin="round" stroke-miterlimit="10" fill="#404040" fill-rule="evenodd"/><path d="M1023 1800C1023 1792.82 1028.82 1787 1036 1787 1043.18 1787 1049 1792.82 1049 1800 1049 1807.18 1043.18 1813 1036 1813 1028.82 1813 1023 1807.18 1023 1800Z" stroke="#000000" stroke-width="5.72917" stroke-linejoin="round" stroke-miterlimit="10" fill="#404040" fill-rule="evenodd"/><path d="M834.781 1744.87C834.853 1743.68 835.878 1742.77 837.072 1742.84L845.718 1743.36C846.912 1743.43 847.822 1744.45 847.75 1745.65L846.726 1762.77C846.655 1763.97 845.629 1764.88 844.435 1764.8L835.789 1764.29C834.596 1764.22 833.686 1763.19 833.757 1762Z" stroke="#000000" stroke-width="5.72917" stroke-linejoin="round" stroke-miterlimit="10" fill="#00A44D" fill-rule="evenodd"/><path d="M855 1759 878.203 1759" stroke="#000000" stroke-width="5.72917" stroke-linecap="round" stroke-linejoin="round" stroke-miterlimit="10" fill="none" fill-rule="evenodd"/><path d="M1113 1753 1148.24 1753" stroke="#000000" stroke-width="5.72917" stroke-linecap="round" stroke-linejoin="round" stroke-miterlimit="10" fill="none" fill-rule="evenodd"/><path d="M843.5 1865.5C843.5 1862.19 846.186 1859.5 849.5 1859.5 852.814 1859.5 855.5 1862.19 855.5 1865.5 855.5 1868.81 852.814 1871.5 849.5 1871.5 846.186 1871.5 843.5 1868.81 843.5 1865.5Z" stroke="#000000" stroke-width="4.58333" stroke-miterlimit="8" fill-rule="evenodd"/><path d="M865.5 1865.5C865.5 1862.19 868.186 1859.5 871.5 1859.5 874.814 1859.5 877.5 1862.19 877.5 1865.5 877.5 1868.81 874.814 1871.5 871.5 1871.5 868.186 1871.5 865.5 1868.81 865.5 1865.5Z" stroke="#000000" stroke-width="4.58333" stroke-miterlimit="8" fill-rule="evenodd"/><path d="M887.5 1865.5C887.5 1862.19 890.186 1859.5 893.5 1859.5 896.814 1859.5 899.5 1862.19 899.5 1865.5 899.5 1868.81 896.814 1871.5 893.5 1871.5 890.186 1871.5 887.5 1868.81 887.5 1865.5Z" stroke="#000000" stroke-width="4.58333" stroke-miterlimit="8" fill-rule="evenodd"/><path d="M909.5 1865.5C909.5 1862.19 912.186 1859.5 915.5 1859.5 918.814 1859.5 921.5 1862.19 921.5 1865.5 921.5 1868.81 918.814 1871.5 915.5 1871.5 912.186 1871.5 909.5 1868.81 909.5 1865.5Z" stroke="#000000" stroke-width="4.58333" stroke-miterlimit="8" fill-rule="evenodd"/><path d="M856.5 1851C856.5 1848.51 858.515 1846.5 861 1846.5 863.485 1846.5 865.5 1848.51 865.5 1851 865.5 1853.49 863.485 1855.5 861 1855.5 858.515 1855.5 856.5 1853.49 856.5 1851Z" stroke="#000000" stroke-width="4.58333" stroke-miterlimit="8" fill-rule="evenodd"/><path d="M877.5 1851C877.5 1848.51 879.739 1846.5 882.5 1846.5 885.262 1846.5 887.5 1848.51 887.5 1851 887.5 1853.49 885.262 1855.5 882.5 1855.5 879.739 1855.5 877.5 1853.49 877.5 1851Z" stroke="#000000" stroke-width="4.58333" stroke-miterlimit="8" fill-rule="evenodd"/><path d="M899.5 1851C899.5 1848.51 901.739 1846.5 904.5 1846.5 907.262 1846.5 909.5 1848.51 909.5 1851 909.5 1853.49 907.262 1855.5 904.5 1855.5 901.739 1855.5 899.5 1853.49 899.5 1851Z" stroke="#000000" stroke-width="4.58333" stroke-miterlimit="8" fill-rule="evenodd"/><path d="M931.5 1865.5C931.5 1862.19 934.186 1859.5 937.5 1859.5 940.814 1859.5 943.5 1862.19 943.5 1865.5 943.5 1868.81 940.814 1871.5 937.5 1871.5 934.186 1871.5 931.5 1868.81 931.5 1865.5Z" stroke="#000000" stroke-width="4.58333" stroke-miterlimit="8" fill-rule="evenodd"/><path d="M953.5 1865.5C953.5 1862.19 956.186 1859.5 959.5 1859.5 962.814 1859.5 965.5 1862.19 965.5 1865.5 965.5 1868.81 962.814 1871.5 959.5 1871.5 956.186 1871.5 953.5 1868.81 953.5 1865.5Z" stroke="#000000" stroke-width="4.58333" stroke-miterlimit="8" fill-rule="evenodd"/><path d="M921.5 1851C921.5 1848.51 923.739 1846.5 926.5 1846.5 929.262 1846.5 931.5 1848.51 931.5 1851 931.5 1853.49 929.262 1855.5 926.5 1855.5 923.739 1855.5 921.5 1853.49 921.5 1851Z" stroke="#000000" stroke-width="4.58333" stroke-miterlimit="8" fill-rule="evenodd"/><path d="M943.5 1851C943.5 1848.51 945.739 1846.5 948.5 1846.5 951.262 1846.5 953.5 1848.51 953.5 1851 953.5 1853.49 951.262 1855.5 948.5 1855.5 945.739 1855.5 943.5 1853.49 943.5 1851Z" stroke="#000000" stroke-width="4.58333" stroke-miterlimit="8" fill-rule="evenodd"/><path d="M975.5 1865.5C975.5 1862.19 977.963 1859.5 981 1859.5 984.038 1859.5 986.5 1862.19 986.5 1865.5 986.5 1868.81 984.038 1871.5 981 1871.5 977.963 1871.5 975.5 1868.81 975.5 1865.5Z" stroke="#000000" stroke-width="4.58333" stroke-miterlimit="8" fill-rule="evenodd"/><path d="M996.5 1865.5C996.5 1862.19 999.186 1859.5 1002.5 1859.5 1005.81 1859.5 1008.5 1862.19 1008.5 1865.5 1008.5 1868.81 1005.81 1871.5 1002.5 1871.5 999.186 1871.5 996.5 1868.81 996.5 1865.5Z" stroke="#000000" stroke-width="4.58333" stroke-miterlimit="8" fill-rule="evenodd"/><path d="M965.5 1851C965.5 1848.51 967.515 1846.5 970 1846.5 972.485 1846.5 974.5 1848.51 974.5 1851 974.5 1853.49 972.485 1855.5 970 1855.5 967.515 1855.5 965.5 1853.49 965.5 1851Z" stroke="#000000" stroke-width="4.58333" stroke-miterlimit="8" fill-rule="evenodd"/><path d="M987.5 1851C987.5 1848.51 989.515 1846.5 992 1846.5 994.485 1846.5 996.5 1848.51 996.5 1851 996.5 1853.49 994.485 1855.5 992 1855.5 989.515 1855.5 987.5 1853.49 987.5 1851Z" stroke="#000000" stroke-width="4.58333" stroke-miterlimit="8" fill-rule="evenodd"/><path d="M1018.5 1865.5C1018.5 1862.19 1021.19 1859.5 1024.5 1859.5 1027.81 1859.5 1030.5 1862.19 1030.5 1865.5 1030.5 1868.81 1027.81 1871.5 1024.5 1871.5 1021.19 1871.5 1018.5 1868.81 1018.5 1865.5Z" stroke="#000000" stroke-width="4.58333" stroke-miterlimit="8" fill-rule="evenodd"/><path d="M1040.5 1865.5C1040.5 1862.19 1043.19 1859.5 1046.5 1859.5 1049.81 1859.5 1052.5 1862.19 1052.5 1865.5 1052.5 1868.81 1049.81 1871.5 1046.5 1871.5 1043.19 1871.5 1040.5 1868.81 1040.5 1865.5Z" stroke="#000000" stroke-width="4.58333" stroke-miterlimit="8" fill-rule="evenodd"/><path d="M1008.5 1851C1008.5 1848.51 1010.74 1846.5 1013.5 1846.5 1016.26 1846.5 1018.5 1848.51 1018.5 1851 1018.5 1853.49 1016.26 1855.5 1013.5 1855.5 1010.74 1855.5 1008.5 1853.49 1008.5 1851Z" stroke="#000000" stroke-width="4.58333" stroke-miterlimit="8" fill-rule="evenodd"/><path d="M1030.5 1851C1030.5 1848.51 1032.74 1846.5 1035.5 1846.5 1038.26 1846.5 1040.5 1848.51 1040.5 1851 1040.5 1853.49 1038.26 1855.5 1035.5 1855.5 1032.74 1855.5 1030.5 1853.49 1030.5 1851Z" stroke="#000000" stroke-width="4.58333" stroke-miterlimit="8" fill-rule="evenodd"/><path d="M1062.5 1865.5C1062.5 1862.19 1065.19 1859.5 1068.5 1859.5 1071.81 1859.5 1074.5 1862.19 1074.5 1865.5 1074.5 1868.81 1071.81 1871.5 1068.5 1871.5 1065.19 1871.5 1062.5 1868.81 1062.5 1865.5Z" stroke="#000000" stroke-width="4.58333" stroke-miterlimit="8" fill-rule="evenodd"/><path d="M1084.5 1865.5C1084.5 1862.19 1087.19 1859.5 1090.5 1859.5 1093.81 1859.5 1096.5 1862.19 1096.5 1865.5 1096.5 1868.81 1093.81 1871.5 1090.5 1871.5 1087.19 1871.5 1084.5 1868.81 1084.5 1865.5Z" stroke="#000000" stroke-width="4.58333" stroke-miterlimit="8" fill-rule="evenodd"/><path d="M1052.5 1851C1052.5 1848.51 1054.74 1846.5 1057.5 1846.5 1060.26 1846.5 1062.5 1848.51 1062.5 1851 1062.5 1853.49 1060.26 1855.5 1057.5 1855.5 1054.74 1855.5 1052.5 1853.49 1052.5 1851Z" stroke="#000000" stroke-width="4.58333" stroke-miterlimit="8" fill-rule="evenodd"/><path d="M1074.5 1851C1074.5 1848.51 1076.74 1846.5 1079.5 1846.5 1082.26 1846.5 1084.5 1848.51 1084.5 1851 1084.5 1853.49 1082.26 1855.5 1079.5 1855.5 1076.74 1855.5 1074.5 1853.49 1074.5 1851Z" stroke="#000000" stroke-width="4.58333" stroke-miterlimit="8" fill-rule="evenodd"/><path d="M1106.5 1865.5C1106.5 1862.19 1109.19 1859.5 1112.5 1859.5 1115.81 1859.5 1118.5 1862.19 1118.5 1865.5 1118.5 1868.81 1115.81 1871.5 1112.5 1871.5 1109.19 1871.5 1106.5 1868.81 1106.5 1865.5Z" stroke="#000000" stroke-width="4.58333" stroke-miterlimit="8" fill-rule="evenodd"/><path d="M1127.5 1865.5C1127.5 1862.19 1130.19 1859.5 1133.5 1859.5 1136.81 1859.5 1139.5 1862.19 1139.5 1865.5 1139.5 1868.81 1136.81 1871.5 1133.5 1871.5 1130.19 1871.5 1127.5 1868.81 1127.5 1865.5Z" stroke="#000000" stroke-width="4.58333" stroke-miterlimit="8" fill-rule="evenodd"/><path d="M1096.5 1851C1096.5 1848.51 1098.51 1846.5 1101 1846.5 1103.49 1846.5 1105.5 1848.51 1105.5 1851 1105.5 1853.49 1103.49 1855.5 1101 1855.5 1098.51 1855.5 1096.5 1853.49 1096.5 1851Z" stroke="#000000" stroke-width="4.58333" stroke-miterlimit="8" fill-rule="evenodd"/><path d="M1118.5 1851C1118.5 1848.51 1120.51 1846.5 1123 1846.5 1125.49 1846.5 1127.5 1848.51 1127.5 1851 1127.5 1853.49 1125.49 1855.5 1123 1855.5 1120.51 1855.5 1118.5 1853.49 1118.5 1851Z" stroke="#000000" stroke-width="4.58333" stroke-miterlimit="8" fill-rule="evenodd"/><path d="M858.5 1878.5C858.5 1876.84 859.843 1875.5 861.5 1875.5 863.157 1875.5 864.5 1876.84 864.5 1878.5 864.5 1880.16 863.157 1881.5 861.5 1881.5 859.843 1881.5 858.5 1880.16 858.5 1878.5Z" stroke="#000000" stroke-width="4.58333" stroke-miterlimit="8" fill-rule="evenodd"/><path d="M879.5 1878.5C879.5 1876.84 880.843 1875.5 882.5 1875.5 884.157 1875.5 885.5 1876.84 885.5 1878.5 885.5 1880.16 884.157 1881.5 882.5 1881.5 880.843 1881.5 879.5 1880.16 879.5 1878.5Z" stroke="#000000" stroke-width="4.58333" stroke-miterlimit="8" fill-rule="evenodd"/><path d="M901.5 1878.5C901.5 1876.84 902.843 1875.5 904.5 1875.5 906.157 1875.5 907.5 1876.84 907.5 1878.5 907.5 1880.16 906.157 1881.5 904.5 1881.5 902.843 1881.5 901.5 1880.16 901.5 1878.5Z" stroke="#000000" stroke-width="4.58333" stroke-miterlimit="8" fill-rule="evenodd"/><path d="M923.5 1878.5C923.5 1876.84 924.843 1875.5 926.5 1875.5 928.157 1875.5 929.5 1876.84 929.5 1878.5 929.5 1880.16 928.157 1881.5 926.5 1881.5 924.843 1881.5 923.5 1880.16 923.5 1878.5Z" stroke="#000000" stroke-width="4.58333" stroke-miterlimit="8" fill-rule="evenodd"/><path d="M945.5 1878.5C945.5 1876.84 946.843 1875.5 948.5 1875.5 950.157 1875.5 951.5 1876.84 951.5 1878.5 951.5 1880.16 950.157 1881.5 948.5 1881.5 946.843 1881.5 945.5 1880.16 945.5 1878.5Z" stroke="#000000" stroke-width="4.58333" stroke-miterlimit="8" fill-rule="evenodd"/><path d="M967.5 1878.5C967.5 1876.84 968.843 1875.5 970.5 1875.5 972.157 1875.5 973.5 1876.84 973.5 1878.5 973.5 1880.16 972.157 1881.5 970.5 1881.5 968.843 1881.5 967.5 1880.16 967.5 1878.5Z" stroke="#000000" stroke-width="4.58333" stroke-miterlimit="8" fill-rule="evenodd"/><path d="M989.5 1878.5C989.5 1876.84 990.843 1875.5 992.5 1875.5 994.157 1875.5 995.5 1876.84 995.5 1878.5 995.5 1880.16 994.157 1881.5 992.5 1881.5 990.843 1881.5 989.5 1880.16 989.5 1878.5Z" stroke="#000000" stroke-width="4.58333" stroke-miterlimit="8" fill-rule="evenodd"/><path d="M1010.5 1878.5C1010.5 1876.84 1012.07 1875.5 1014 1875.5 1015.93 1875.5 1017.5 1876.84 1017.5 1878.5 1017.5 1880.16 1015.93 1881.5 1014 1881.5 1012.07 1881.5 1010.5 1880.16 1010.5 1878.5Z" stroke="#000000" stroke-width="4.58333" stroke-miterlimit="8" fill-rule="evenodd"/><path d="M1032.5 1878.5C1032.5 1876.84 1033.84 1875.5 1035.5 1875.5 1037.16 1875.5 1038.5 1876.84 1038.5 1878.5 1038.5 1880.16 1037.16 1881.5 1035.5 1881.5 1033.84 1881.5 1032.5 1880.16 1032.5 1878.5Z" stroke="#000000" stroke-width="4.58333" stroke-miterlimit="8" fill-rule="evenodd"/><path d="M1054.5 1878.5C1054.5 1876.84 1055.84 1875.5 1057.5 1875.5 1059.16 1875.5 1060.5 1876.84 1060.5 1878.5 1060.5 1880.16 1059.16 1881.5 1057.5 1881.5 1055.84 1881.5 1054.5 1880.16 1054.5 1878.5Z" stroke="#000000" stroke-width="4.58333" stroke-miterlimit="8" fill-rule="evenodd"/><path d="M1076.5 1878.5C1076.5 1876.84 1077.84 1875.5 1079.5 1875.5 1081.16 1875.5 1082.5 1876.84 1082.5 1878.5 1082.5 1880.16 1081.16 1881.5 1079.5 1881.5 1077.84 1881.5 1076.5 1880.16 1076.5 1878.5Z" stroke="#000000" stroke-width="4.58333" stroke-miterlimit="8" fill-rule="evenodd"/><path d="M1098.5 1878.5C1098.5 1876.84 1099.84 1875.5 1101.5 1875.5 1103.16 1875.5 1104.5 1876.84 1104.5 1878.5 1104.5 1880.16 1103.16 1881.5 1101.5 1881.5 1099.84 1881.5 1098.5 1880.16 1098.5 1878.5Z" stroke="#000000" stroke-width="4.58333" stroke-miterlimit="8" fill-rule="evenodd"/><path d="M1120.5 1878.5C1120.5 1876.84 1121.84 1875.5 1123.5 1875.5 1125.16 1875.5 1126.5 1876.84 1126.5 1878.5 1126.5 1880.16 1125.16 1881.5 1123.5 1881.5 1121.84 1881.5 1120.5 1880.16 1120.5 1878.5Z" stroke="#000000" stroke-width="4.58333" stroke-miterlimit="8" fill-rule="evenodd"/><path d="M1025 1779 1046.48 1779" stroke="#000000" stroke-width="5.72917" stroke-linecap="round" stroke-linejoin="round" stroke-miterlimit="10" fill="none" fill-rule="evenodd"/><path d="M936 1779 957.48 1779" stroke="#000000" stroke-width="5.72917" stroke-linecap="round" stroke-linejoin="round" stroke-miterlimit="10" fill="none" fill-rule="evenodd"/></g></svg>