<svg width="412" height="254" xmlns="http://www.w3.org/2000/svg" xmlns:xlink="http://www.w3.org/1999/xlink" xml:space="preserve" overflow="hidden"><g transform="translate(-784 -1659)"><path d="M787 1671.31C787 1666.17 791.166 1662 796.305 1662L1183.7 1662C1188.83 1662 1193 1666.17 1193 1671.31L1193 1900.69C1193 1905.83 1188.83 1910 1183.7 1910L796.305 1910C791.166 1910 787 1905.83 787 1900.69Z" stroke="#000000" stroke-width="5.72917" stroke-linecap="round" stroke-linejoin="round" stroke-miterlimit="10" fill="#B38969" fill-rule="evenodd"/><path d="M804 1678.26C804 1677.01 805.01 1676 806.255 1676L1173.74 1676C1174.99 1676 1176 1677.01 1176 1678.26L1176 1893.75C1176 1894.99 1174.99 1896 1173.74 1896L806.255 1896C805.01 1896 804 1894.99 804 1893.75Z" stroke="#000000" stroke-width="5.72917" stroke-linecap="round" stroke-linejoin="round" stroke-miterlimit="10" fill="#D9D9D9" fill-rule="evenodd"/><path d="M933 1777C933 1769.82 938.82 1764 946 1764 953.18 1764 959 1769.82 959 1777 959 1784.18 953.18 1790 946 1790 938.82 1790 933 1784.18 933 1777Z" stroke="#000000" stroke-width="5.72917" stroke-linejoin="round" stroke-miterlimit="10" fill="#404040" fill-rule="evenodd"/><path d="M1021 1777C1021 1769.82 1026.82 1764 1034 1764 1041.18 1764 1047 1769.82 1047 1777 1047 1784.18 1041.18 1790 1034 1790 1026.82 1790 1021 1784.18 1021 1777Z" stroke="#000000" stroke-width="5.72917" stroke-linejoin="round" stroke-miterlimit="10" fill="#404040" fill-rule="evenodd"/><path d="M833.389 1697.61C833.461 1696.41 834.486 1695.5 835.68 1695.57L844.326 1696.09C845.52 1696.16 846.43 1697.19 846.358 1698.38L845.334 1715.51C845.263 1716.7 844.237 1717.61 843.043 1717.54L834.397 1717.02C833.204 1716.95 832.294 1715.92 832.365 1714.73Z" stroke="#000000" stroke-width="5.72917" stroke-linejoin="round" stroke-miterlimit="10" fill="#00A44D" fill-rule="evenodd"/><path d="M853 1712 876.203 1712" stroke="#000000" stroke-width="5.72917" stroke-linecap="round" stroke-linejoin="round" stroke-miterlimit="10" fill="none" fill-rule="evenodd"/><path d="M1112 1706 1147.23 1706" stroke="#000000" stroke-width="5.72917" stroke-linecap="round" stroke-linejoin="round" stroke-miterlimit="10" fill="none" fill-rule="evenodd"/><path d="M842.5 1864.5C842.5 1861.19 845.186 1858.5 848.5 1858.5 851.814 1858.5 854.5 1861.19 854.5 1864.5 854.5 1867.81 851.814 1870.5 848.5 1870.5 845.186 1870.5 842.5 1867.81 842.5 1864.5Z" stroke="#000000" stroke-width="4.58333" stroke-miterlimit="8" fill-rule="evenodd"/><path d="M864.5 1864.5C864.5 1861.19 867.186 1858.5 870.5 1858.5 873.814 1858.5 876.5 1861.19 876.5 1864.5 876.5 1867.81 873.814 1870.5 870.5 1870.5 867.186 1870.5 864.5 1867.81 864.5 1864.5Z" stroke="#000000" stroke-width="4.58333" stroke-miterlimit="8" fill-rule="evenodd"/><path d="M886.5 1864.5C886.5 1861.19 889.186 1858.5 892.5 1858.5 895.814 1858.5 898.5 1861.19 898.5 1864.5 898.5 1867.81 895.814 1870.5 892.5 1870.5 889.186 1870.5 886.5 1867.81 886.5 1864.5Z" stroke="#000000" stroke-width="4.58333" stroke-miterlimit="8" fill-rule="evenodd"/><path d="M908.5 1864.5C908.5 1861.19 911.186 1858.5 914.5 1858.5 917.814 1858.5 920.5 1861.19 920.5 1864.5 920.5 1867.81 917.814 1870.5 914.5 1870.5 911.186 1870.5 908.5 1867.81 908.5 1864.5Z" stroke="#000000" stroke-width="4.58333" stroke-miterlimit="8" fill-rule="evenodd"/><path d="M854.5 1850.5C854.5 1847.74 856.739 1845.5 859.5 1845.5 862.261 1845.5 864.5 1847.74 864.5 1850.5 864.5 1853.26 862.261 1855.5 859.5 1855.5 856.739 1855.5 854.5 1853.26 854.5 1850.5Z" stroke="#000000" stroke-width="4.58333" stroke-miterlimit="8" fill-rule="evenodd"/><path d="M876.5 1850.5C876.5 1847.74 878.739 1845.5 881.5 1845.5 884.261 1845.5 886.5 1847.74 886.5 1850.5 886.5 1853.26 884.261 1855.5 881.5 1855.5 878.739 1855.5 876.5 1853.26 876.5 1850.5Z" stroke="#000000" stroke-width="4.58333" stroke-miterlimit="8" fill-rule="evenodd"/><path d="M898.5 1850.5C898.5 1847.74 900.515 1845.5 903 1845.5 905.485 1845.5 907.5 1847.74 907.5 1850.5 907.5 1853.26 905.485 1855.5 903 1855.5 900.515 1855.5 898.5 1853.26 898.5 1850.5Z" stroke="#000000" stroke-width="4.58333" stroke-miterlimit="8" fill-rule="evenodd"/><path d="M929.5 1864.5C929.5 1861.19 932.186 1858.5 935.5 1858.5 938.814 1858.5 941.5 1861.19 941.5 1864.5 941.5 1867.81 938.814 1870.5 935.5 1870.5 932.186 1870.5 929.5 1867.81 929.5 1864.5Z" stroke="#000000" stroke-width="4.58333" stroke-miterlimit="8" fill-rule="evenodd"/><path d="M951.5 1864.5C951.5 1861.19 954.186 1858.5 957.5 1858.5 960.814 1858.5 963.5 1861.19 963.5 1864.5 963.5 1867.81 960.814 1870.5 957.5 1870.5 954.186 1870.5 951.5 1867.81 951.5 1864.5Z" stroke="#000000" stroke-width="4.58333" stroke-miterlimit="8" fill-rule="evenodd"/><path d="M920.5 1850.5C920.5 1847.74 922.515 1845.5 925 1845.5 927.485 1845.5 929.5 1847.74 929.5 1850.5 929.5 1853.26 927.485 1855.5 925 1855.5 922.515 1855.5 920.5 1853.26 920.5 1850.5Z" stroke="#000000" stroke-width="4.58333" stroke-miterlimit="8" fill-rule="evenodd"/><path d="M942.5 1850.5C942.5 1847.74 944.515 1845.5 947 1845.5 949.485 1845.5 951.5 1847.74 951.5 1850.5 951.5 1853.26 949.485 1855.5 947 1855.5 944.515 1855.5 942.5 1853.26 942.5 1850.5Z" stroke="#000000" stroke-width="4.58333" stroke-miterlimit="8" fill-rule="evenodd"/><path d="M973.5 1864.5C973.5 1861.19 976.186 1858.5 979.5 1858.5 982.814 1858.5 985.5 1861.19 985.5 1864.5 985.5 1867.81 982.814 1870.5 979.5 1870.5 976.186 1870.5 973.5 1867.81 973.5 1864.5Z" stroke="#000000" stroke-width="4.58333" stroke-miterlimit="8" fill-rule="evenodd"/><path d="M995.5 1864.5C995.5 1861.19 998.186 1858.5 1001.5 1858.5 1004.81 1858.5 1007.5 1861.19 1007.5 1864.5 1007.5 1867.81 1004.81 1870.5 1001.5 1870.5 998.186 1870.5 995.5 1867.81 995.5 1864.5Z" stroke="#000000" stroke-width="4.58333" stroke-miterlimit="8" fill-rule="evenodd"/><path d="M963.5 1850.5C963.5 1847.74 965.739 1845.5 968.5 1845.5 971.261 1845.5 973.5 1847.74 973.5 1850.5 973.5 1853.26 971.261 1855.5 968.5 1855.5 965.739 1855.5 963.5 1853.26 963.5 1850.5Z" stroke="#000000" stroke-width="4.58333" stroke-miterlimit="8" fill-rule="evenodd"/><path d="M985.5 1850.5C985.5 1847.74 987.739 1845.5 990.5 1845.5 993.261 1845.5 995.5 1847.74 995.5 1850.5 995.5 1853.26 993.261 1855.5 990.5 1855.5 987.739 1855.5 985.5 1853.26 985.5 1850.5Z" stroke="#000000" stroke-width="4.58333" stroke-miterlimit="8" fill-rule="evenodd"/><path d="M1017.5 1864.5C1017.5 1861.19 1020.19 1858.5 1023.5 1858.5 1026.81 1858.5 1029.5 1861.19 1029.5 1864.5 1029.5 1867.81 1026.81 1870.5 1023.5 1870.5 1020.19 1870.5 1017.5 1867.81 1017.5 1864.5Z" stroke="#000000" stroke-width="4.58333" stroke-miterlimit="8" fill-rule="evenodd"/><path d="M1039.5 1864.5C1039.5 1861.19 1042.19 1858.5 1045.5 1858.5 1048.81 1858.5 1051.5 1861.19 1051.5 1864.5 1051.5 1867.81 1048.81 1870.5 1045.5 1870.5 1042.19 1870.5 1039.5 1867.81 1039.5 1864.5Z" stroke="#000000" stroke-width="4.58333" stroke-miterlimit="8" fill-rule="evenodd"/><path d="M1007.5 1850.5C1007.5 1847.74 1009.74 1845.5 1012.5 1845.5 1015.26 1845.5 1017.5 1847.74 1017.5 1850.5 1017.5 1853.26 1015.26 1855.5 1012.5 1855.5 1009.74 1855.5 1007.5 1853.26 1007.5 1850.5Z" stroke="#000000" stroke-width="4.58333" stroke-miterlimit="8" fill-rule="evenodd"/><path d="M1029.5 1850.5C1029.5 1847.74 1031.74 1845.5 1034.5 1845.5 1037.26 1845.5 1039.5 1847.74 1039.5 1850.5 1039.5 1853.26 1037.26 1855.5 1034.5 1855.5 1031.74 1855.5 1029.5 1853.26 1029.5 1850.5Z" stroke="#000000" stroke-width="4.58333" stroke-miterlimit="8" fill-rule="evenodd"/><path d="M1061.5 1864.5C1061.5 1861.19 1063.96 1858.5 1067 1858.5 1070.04 1858.5 1072.5 1861.19 1072.5 1864.5 1072.5 1867.81 1070.04 1870.5 1067 1870.5 1063.96 1870.5 1061.5 1867.81 1061.5 1864.5Z" stroke="#000000" stroke-width="4.58333" stroke-miterlimit="8" fill-rule="evenodd"/><path d="M1082.5 1864.5C1082.5 1861.19 1085.19 1858.5 1088.5 1858.5 1091.81 1858.5 1094.5 1861.19 1094.5 1864.5 1094.5 1867.81 1091.81 1870.5 1088.5 1870.5 1085.19 1870.5 1082.5 1867.81 1082.5 1864.5Z" stroke="#000000" stroke-width="4.58333" stroke-miterlimit="8" fill-rule="evenodd"/><path d="M1051.5 1850.5C1051.5 1847.74 1053.51 1845.5 1056 1845.5 1058.49 1845.5 1060.5 1847.74 1060.5 1850.5 1060.5 1853.26 1058.49 1855.5 1056 1855.5 1053.51 1855.5 1051.5 1853.26 1051.5 1850.5Z" stroke="#000000" stroke-width="4.58333" stroke-miterlimit="8" fill-rule="evenodd"/><path d="M1073.5 1850.5C1073.5 1847.74 1075.51 1845.5 1078 1845.5 1080.49 1845.5 1082.5 1847.74 1082.5 1850.5 1082.5 1853.26 1080.49 1855.5 1078 1855.5 1075.51 1855.5 1073.5 1853.26 1073.5 1850.5Z" stroke="#000000" stroke-width="4.58333" stroke-miterlimit="8" fill-rule="evenodd"/><path d="M1104.5 1864.5C1104.5 1861.19 1107.19 1858.5 1110.5 1858.5 1113.81 1858.5 1116.5 1861.19 1116.5 1864.5 1116.5 1867.81 1113.81 1870.5 1110.5 1870.5 1107.19 1870.5 1104.5 1867.81 1104.5 1864.5Z" stroke="#000000" stroke-width="4.58333" stroke-miterlimit="8" fill-rule="evenodd"/><path d="M1126.5 1864.5C1126.5 1861.19 1129.19 1858.5 1132.5 1858.5 1135.81 1858.5 1138.5 1861.19 1138.5 1864.5 1138.5 1867.81 1135.81 1870.5 1132.5 1870.5 1129.19 1870.5 1126.5 1867.81 1126.5 1864.5Z" stroke="#000000" stroke-width="4.58333" stroke-miterlimit="8" fill-rule="evenodd"/><path d="M1094.5 1850.5C1094.5 1847.74 1096.74 1845.5 1099.5 1845.5 1102.26 1845.5 1104.5 1847.74 1104.5 1850.5 1104.5 1853.26 1102.26 1855.5 1099.5 1855.5 1096.74 1855.5 1094.5 1853.26 1094.5 1850.5Z" stroke="#000000" stroke-width="4.58333" stroke-miterlimit="8" fill-rule="evenodd"/><path d="M1116.5 1850.5C1116.5 1847.74 1118.74 1845.5 1121.5 1845.5 1124.26 1845.5 1126.5 1847.74 1126.5 1850.5 1126.5 1853.26 1124.26 1855.5 1121.5 1855.5 1118.74 1855.5 1116.5 1853.26 1116.5 1850.5Z" stroke="#000000" stroke-width="4.58333" stroke-miterlimit="8" fill-rule="evenodd"/><path d="M856.5 1878.5C856.5 1876.84 857.843 1875.5 859.5 1875.5 861.157 1875.5 862.5 1876.84 862.5 1878.5 862.5 1880.16 861.157 1881.5 859.5 1881.5 857.843 1881.5 856.5 1880.16 856.5 1878.5Z" stroke="#000000" stroke-width="4.58333" stroke-miterlimit="8" fill-rule="evenodd"/><path d="M878.5 1878.5C878.5 1876.84 879.843 1875.5 881.5 1875.5 883.157 1875.5 884.5 1876.84 884.5 1878.5 884.5 1880.16 883.157 1881.5 881.5 1881.5 879.843 1881.5 878.5 1880.16 878.5 1878.5Z" stroke="#000000" stroke-width="4.58333" stroke-miterlimit="8" fill-rule="evenodd"/><path d="M900.5 1878.5C900.5 1876.84 901.843 1875.5 903.5 1875.5 905.157 1875.5 906.5 1876.84 906.5 1878.5 906.5 1880.16 905.157 1881.5 903.5 1881.5 901.843 1881.5 900.5 1880.16 900.5 1878.5Z" stroke="#000000" stroke-width="4.58333" stroke-miterlimit="8" fill-rule="evenodd"/><path d="M922.5 1878.5C922.5 1876.84 923.843 1875.5 925.5 1875.5 927.157 1875.5 928.5 1876.84 928.5 1878.5 928.5 1880.16 927.157 1881.5 925.5 1881.5 923.843 1881.5 922.5 1880.16 922.5 1878.5Z" stroke="#000000" stroke-width="4.58333" stroke-miterlimit="8" fill-rule="evenodd"/><path d="M944.5 1878.5C944.5 1876.84 945.843 1875.5 947.5 1875.5 949.157 1875.5 950.5 1876.84 950.5 1878.5 950.5 1880.16 949.157 1881.5 947.5 1881.5 945.843 1881.5 944.5 1880.16 944.5 1878.5Z" stroke="#000000" stroke-width="4.58333" stroke-miterlimit="8" fill-rule="evenodd"/><path d="M965.5 1878.5C965.5 1876.84 966.843 1875.5 968.5 1875.5 970.157 1875.5 971.5 1876.84 971.5 1878.5 971.5 1880.16 970.157 1881.5 968.5 1881.5 966.843 1881.5 965.5 1880.16 965.5 1878.5Z" stroke="#000000" stroke-width="4.58333" stroke-miterlimit="8" fill-rule="evenodd"/><path d="M987.5 1878.5C987.5 1876.84 988.843 1875.5 990.5 1875.5 992.157 1875.5 993.5 1876.84 993.5 1878.5 993.5 1880.16 992.157 1881.5 990.5 1881.5 988.843 1881.5 987.5 1880.16 987.5 1878.5Z" stroke="#000000" stroke-width="4.58333" stroke-miterlimit="8" fill-rule="evenodd"/><path d="M1009.5 1878.5C1009.5 1876.84 1010.84 1875.5 1012.5 1875.5 1014.16 1875.5 1015.5 1876.84 1015.5 1878.5 1015.5 1880.16 1014.16 1881.5 1012.5 1881.5 1010.84 1881.5 1009.5 1880.16 1009.5 1878.5Z" stroke="#000000" stroke-width="4.58333" stroke-miterlimit="8" fill-rule="evenodd"/><path d="M1031.5 1878.5C1031.5 1876.84 1032.84 1875.5 1034.5 1875.5 1036.16 1875.5 1037.5 1876.84 1037.5 1878.5 1037.5 1880.16 1036.16 1881.5 1034.5 1881.5 1032.84 1881.5 1031.5 1880.16 1031.5 1878.5Z" stroke="#000000" stroke-width="4.58333" stroke-miterlimit="8" fill-rule="evenodd"/><path d="M1053.5 1878.5C1053.5 1876.84 1054.84 1875.5 1056.5 1875.5 1058.16 1875.5 1059.5 1876.84 1059.5 1878.5 1059.5 1880.16 1058.16 1881.5 1056.5 1881.5 1054.84 1881.5 1053.5 1880.16 1053.5 1878.5Z" stroke="#000000" stroke-width="4.58333" stroke-miterlimit="8" fill-rule="evenodd"/><path d="M1075.5 1878.5C1075.5 1876.84 1076.84 1875.5 1078.5 1875.5 1080.16 1875.5 1081.5 1876.84 1081.5 1878.5 1081.5 1880.16 1080.16 1881.5 1078.5 1881.5 1076.84 1881.5 1075.5 1880.16 1075.5 1878.5Z" stroke="#000000" stroke-width="4.58333" stroke-miterlimit="8" fill-rule="evenodd"/><path d="M1096.5 1878.5C1096.5 1876.84 1098.07 1875.5 1100 1875.5 1101.93 1875.5 1103.5 1876.84 1103.5 1878.5 1103.5 1880.16 1101.93 1881.5 1100 1881.5 1098.07 1881.5 1096.5 1880.16 1096.5 1878.5Z" stroke="#000000" stroke-width="4.58333" stroke-miterlimit="8" fill-rule="evenodd"/><path d="M1118.5 1878.5C1118.5 1876.84 1119.84 1875.5 1121.5 1875.5 1123.16 1875.5 1124.5 1876.84 1124.5 1878.5 1124.5 1880.16 1123.16 1881.5 1121.5 1881.5 1119.84 1881.5 1118.5 1880.16 1118.5 1878.5Z" stroke="#000000" stroke-width="4.58333" stroke-miterlimit="8" fill-rule="evenodd"/><path d="M1024 1756 1045.48 1756" stroke="#000000" stroke-width="5.72917" stroke-linecap="round" stroke-linejoin="round" stroke-miterlimit="10" fill="none" fill-rule="evenodd"/><path d="M935 1756 956.48 1756" stroke="#000000" stroke-width="5.72917" stroke-linecap="round" stroke-linejoin="round" stroke-miterlimit="10" fill="none" fill-rule="evenodd"/></g></svg>