<svg width="440" height="257" xmlns="http://www.w3.org/2000/svg" xmlns:xlink="http://www.w3.org/1999/xlink" xml:space="preserve" overflow="hidden"><g transform="translate(-1503 -1004)"><path d="M1521.83 1007 1924.17 1007C1932.91 1007 1940 1014.09 1940 1022.84L1940 1063.64 1931.93 1063.64C1930.54 1063.64 1929.42 1064.77 1929.42 1066.16L1929.42 1076.23C1929.42 1077.62 1930.54 1078.75 1931.93 1078.75L1940 1078.75 1940 1186.25 1931.93 1186.25C1930.54 1186.25 1929.42 1187.38 1929.42 1188.77L1929.42 1198.84C1929.42 1200.23 1930.54 1201.36 1931.93 1201.36L1940 1201.36 1940 1242.16C1940 1250.91 1932.91 1258 1924.17 1258L1521.83 1258C1513.09 1258 1506 1250.91 1506 1242.16L1506 1201.36 1514.95 1201.36C1516.34 1201.36 1517.46 1200.23 1517.46 1198.84L1517.46 1188.77C1517.46 1187.38 1516.34 1186.25 1514.95 1186.25L1506 1186.25 1506 1078.75 1514.95 1078.75C1516.34 1078.75 1517.46 1077.62 1517.46 1076.23L1517.46 1066.16C1517.46 1064.77 1516.34 1063.64 1514.95 1063.64L1506 1063.64 1506 1022.84C1506 1014.09 1513.09 1007 1521.83 1007Z" stroke="#000000" stroke-width="5.72917" stroke-linecap="round" stroke-linejoin="round" stroke-miterlimit="10" fill="#D9D9D9" fill-rule="evenodd"/><path d="M1531 1046.77C1531 1045.24 1532.24 1044 1533.77 1044L1558.23 1044C1559.76 1044 1561 1045.24 1561 1046.77L1561 1218.23C1561 1219.76 1559.76 1221 1558.23 1221L1533.77 1221C1532.24 1221 1531 1219.76 1531 1218.23Z" stroke="#000000" stroke-width="5.72917" stroke-miterlimit="8" fill="#7F7F7F" fill-rule="evenodd"/><path d="M1888 1046.77C1888 1045.24 1889.24 1044 1890.77 1044L1915.23 1044C1916.76 1044 1918 1045.24 1918 1046.77L1918 1218.23C1918 1219.76 1916.76 1221 1915.23 1221L1890.77 1221C1889.24 1221 1888 1219.76 1888 1218.23Z" stroke="#000000" stroke-width="5.72917" stroke-miterlimit="8" fill="#7F7F7F" fill-rule="evenodd"/><path d="M1681 1072.55C1681 1069.48 1683.48 1067 1686.55 1067L1811.45 1067C1814.52 1067 1817 1069.48 1817 1072.55L1817 1142.45C1817 1145.52 1814.52 1148 1811.45 1148L1686.55 1148C1683.48 1148 1681 1145.52 1681 1142.45Z" stroke="#000000" stroke-width="5.72917" stroke-miterlimit="8" fill="#FFFFFF" fill-rule="evenodd"/><rect x="1691" y="1079" width="19.9999" height="22" stroke="#000000" stroke-width="5.72917" stroke-linecap="round" stroke-linejoin="round" stroke-miterlimit="10" fill="#66BFE2"/><rect x="1723" y="1079" width="20.0002" height="22" stroke="#000000" stroke-width="5.72917" stroke-linecap="round" stroke-linejoin="round" stroke-miterlimit="10" fill="#66BFE2"/><rect x="1755" y="1079" width="20.0002" height="22" stroke="#000000" stroke-width="5.72917" stroke-linecap="round" stroke-linejoin="round" stroke-miterlimit="10" fill="#66BFE2"/><rect x="1787" y="1079" width="19.9999" height="22" stroke="#000000" stroke-width="5.72917" stroke-linecap="round" stroke-linejoin="round" stroke-miterlimit="10" fill="#66BFE2"/><rect x="1691" y="1114" width="19.9999" height="22" stroke="#000000" stroke-width="5.72917" stroke-linecap="round" stroke-linejoin="round" stroke-miterlimit="10" fill="#66BFE2"/><rect x="1723" y="1114" width="20.0002" height="22" stroke="#000000" stroke-width="5.72917" stroke-linecap="round" stroke-linejoin="round" stroke-miterlimit="10" fill="#66BFE2"/><rect x="1755" y="1114" width="20.0002" height="22" stroke="#000000" stroke-width="5.72917" stroke-linecap="round" stroke-linejoin="round" stroke-miterlimit="10" fill="#66BFE2"/><rect x="1787" y="1114" width="19.9999" height="22" stroke="#000000" stroke-width="5.72917" stroke-linecap="round" stroke-linejoin="round" stroke-miterlimit="10" fill="#66BFE2"/><path d="M1834 1084.5C1834 1075.39 1841.39 1068 1850.5 1068 1859.61 1068 1867 1075.39 1867 1084.5 1867 1093.61 1859.61 1101 1850.5 1101 1841.39 1101 1834 1093.61 1834 1084.5Z" stroke="#000000" stroke-width="5.72917" stroke-miterlimit="8" fill="#F2F2F2" fill-rule="evenodd"/><path d="M0 0 0.000360892 13.798" stroke="#000000" stroke-width="5.72917" stroke-linecap="round" stroke-miterlimit="8" fill="none" fill-rule="evenodd" transform="matrix(1 0 0 -1 1851 1132.8)"/><path d="M0 0 0.000360892 13.798" stroke="#000000" stroke-width="5.72917" stroke-linecap="round" stroke-miterlimit="8" fill="none" fill-rule="evenodd" transform="matrix(1 0 0 -1 1851 1164.8)"/><path d="M1844 1185.33C1844 1184.04 1845.04 1183 1846.33 1183L1855.67 1183C1856.96 1183 1858 1184.04 1858 1185.33L1858 1194.67C1858 1195.96 1856.96 1197 1855.67 1197L1846.33 1197C1845.04 1197 1844 1195.96 1844 1194.67Z" stroke="#000000" stroke-width="5.72917" stroke-miterlimit="8" fill="#F2F2F2" fill-rule="evenodd"/><rect x="1590" y="1067" width="52.0002" height="22" stroke="#000000" stroke-width="5.72917" stroke-linecap="round" stroke-linejoin="round" stroke-miterlimit="10" fill="#66BFE2"/></g></svg>