<svg width="441" height="257" xmlns="http://www.w3.org/2000/svg" xmlns:xlink="http://www.w3.org/1999/xlink" xml:space="preserve" overflow="hidden"><g transform="translate(-1835 -1004)"><path d="M1853.87 1007 2257.13 1007C2265.9 1007 2273 1014.09 2273 1022.84L2273 1063.64 2264.91 1063.64C2263.52 1063.64 2262.39 1064.77 2262.39 1066.16L2262.39 1076.23C2262.39 1077.62 2263.52 1078.75 2264.91 1078.75L2273 1078.75 2273 1186.25 2264.91 1186.25C2263.52 1186.25 2262.39 1187.38 2262.39 1188.77L2262.39 1198.84C2262.39 1200.23 2263.52 1201.36 2264.91 1201.36L2273 1201.36 2273 1242.16C2273 1250.91 2265.9 1258 2257.13 1258L1853.87 1258C1845.1 1258 1838 1250.91 1838 1242.16L1838 1201.36 1846.97 1201.36C1848.36 1201.36 1849.49 1200.23 1849.49 1198.84L1849.49 1188.77C1849.49 1187.38 1848.36 1186.25 1846.97 1186.25L1838 1186.25 1838 1078.75 1846.97 1078.75C1848.36 1078.75 1849.49 1077.62 1849.49 1076.23L1849.49 1066.16C1849.49 1064.77 1848.36 1063.64 1846.97 1063.64L1838 1063.64 1838 1022.84C1838 1014.09 1845.1 1007 1853.87 1007Z" stroke="#000000" stroke-width="5.72917" stroke-linecap="round" stroke-linejoin="round" stroke-miterlimit="10" fill="#D9D9D9" fill-rule="evenodd"/><path d="M1864 1046.77C1864 1045.24 1865.24 1044 1866.77 1044L1891.23 1044C1892.76 1044 1894 1045.24 1894 1046.77L1894 1218.23C1894 1219.76 1892.76 1221 1891.23 1221L1866.77 1221C1865.24 1221 1864 1219.76 1864 1218.23Z" stroke="#000000" stroke-width="5.72917" stroke-miterlimit="8" fill="#7F7F7F" fill-rule="evenodd"/><path d="M2221 1046.77C2221 1045.24 2222.24 1044 2223.77 1044L2248.23 1044C2249.76 1044 2251 1045.24 2251 1046.77L2251 1218.23C2251 1219.76 2249.76 1221 2248.23 1221L2223.77 1221C2222.24 1221 2221 1219.76 2221 1218.23Z" stroke="#000000" stroke-width="5.72917" stroke-miterlimit="8" fill="#7F7F7F" fill-rule="evenodd"/><path d="M2013 1072.55C2013 1069.48 2015.48 1067 2018.55 1067L2144.45 1067C2147.52 1067 2150 1069.48 2150 1072.55L2150 1142.45C2150 1145.52 2147.52 1148 2144.45 1148L2018.55 1148C2015.48 1148 2013 1145.52 2013 1142.45Z" stroke="#000000" stroke-width="5.72917" stroke-miterlimit="8" fill="#FFFFFF" fill-rule="evenodd"/><rect x="2023" y="1079" width="19.9999" height="22" stroke="#000000" stroke-width="5.72917" stroke-linecap="round" stroke-linejoin="round" stroke-miterlimit="10" fill="#0070DA"/><rect x="2056" y="1079" width="19" height="22" stroke="#000000" stroke-width="5.72917" stroke-linecap="round" stroke-linejoin="round" stroke-miterlimit="10" fill="#0070DA"/><rect x="2088" y="1079" width="20" height="22" stroke="#000000" stroke-width="5.72917" stroke-linecap="round" stroke-linejoin="round" stroke-miterlimit="10" fill="#0070DA"/><rect x="2120" y="1079" width="20" height="22" stroke="#000000" stroke-width="5.72917" stroke-linecap="round" stroke-linejoin="round" stroke-miterlimit="10" fill="#0070DA"/><rect x="2023" y="1114" width="19.9999" height="22" stroke="#000000" stroke-width="5.72917" stroke-linecap="round" stroke-linejoin="round" stroke-miterlimit="10" fill="#0070DA"/><rect x="2056" y="1114" width="19" height="22" stroke="#000000" stroke-width="5.72917" stroke-linecap="round" stroke-linejoin="round" stroke-miterlimit="10" fill="#0070DA"/><rect x="2088" y="1114" width="20" height="22" stroke="#000000" stroke-width="5.72917" stroke-linecap="round" stroke-linejoin="round" stroke-miterlimit="10" fill="#0070DA"/><rect x="2120" y="1114" width="20" height="22" stroke="#000000" stroke-width="5.72917" stroke-linecap="round" stroke-linejoin="round" stroke-miterlimit="10" fill="#0070DA"/><path d="M2167 1084.5C2167 1075.39 2174.39 1068 2183.5 1068 2192.61 1068 2200 1075.39 2200 1084.5 2200 1093.61 2192.61 1101 2183.5 1101 2174.39 1101 2167 1093.61 2167 1084.5Z" stroke="#000000" stroke-width="5.72917" stroke-miterlimit="8" fill="#F2F2F2" fill-rule="evenodd"/><path d="M0 0 0.000360892 13.798" stroke="#000000" stroke-width="5.72917" stroke-linecap="round" stroke-miterlimit="8" fill="none" fill-rule="evenodd" transform="matrix(1 0 0 -1 2183 1132.8)"/><path d="M0 0 0.000360892 13.798" stroke="#000000" stroke-width="5.72917" stroke-linecap="round" stroke-miterlimit="8" fill="none" fill-rule="evenodd" transform="matrix(1 0 0 -1 2183 1164.8)"/><path d="M2177 1185.17C2177 1183.97 2177.97 1183 2179.17 1183L2187.83 1183C2189.03 1183 2190 1183.97 2190 1185.17L2190 1194.83C2190 1196.03 2189.03 1197 2187.83 1197L2179.17 1197C2177.97 1197 2177 1196.03 2177 1194.83Z" stroke="#000000" stroke-width="5.72917" stroke-miterlimit="8" fill="#F2F2F2" fill-rule="evenodd"/><rect x="1923" y="1067" width="51.0002" height="22" stroke="#000000" stroke-width="5.72917" stroke-linecap="round" stroke-linejoin="round" stroke-miterlimit="10" fill="#0070DA"/></g></svg>