<svg width="522" height="716" xmlns="http://www.w3.org/2000/svg" xmlns:xlink="http://www.w3.org/1999/xlink" xml:space="preserve" overflow="hidden"><g transform="translate(-3536 -1160)"><rect x="3552" y="1179" width="443" height="654" stroke="#000000" stroke-width="5.72917" stroke-linecap="round" stroke-linejoin="round" stroke-miterlimit="10" fill="#0070DA"/><rect x="3550" y="1620" width="491" height="144" stroke="#000000" stroke-width="5.72917" stroke-linecap="round" stroke-linejoin="round" stroke-miterlimit="10" fill="#FFFFFF"/><path d="M3630 1181 3965.24 1181 3965.24 1181 4035 1181 4035 1692.34 4035 1692.34 4035 1830 3960.87 1830 3960.87 1760.09 3630 1245.92Z" stroke="#000000" stroke-width="5.72917" stroke-linecap="round" stroke-linejoin="round" stroke-miterlimit="10" fill="#7F7F7F" fill-rule="evenodd"/><rect x="4032" y="1188" width="18.0002" height="634" stroke="#000000" stroke-width="5.72917" stroke-miterlimit="8" fill="#7F7F7F"/><rect x="3544" y="1188" width="17.9998" height="634" stroke="#000000" stroke-width="5.72917" stroke-miterlimit="8" fill="#7F7F7F"/><rect x="3544" y="1171" width="506" height="17.9999" stroke="#000000" stroke-width="5.72917" stroke-miterlimit="8" fill="#7F7F7F"/><rect x="3544" y="1821" width="506" height="18.0002" stroke="#000000" stroke-width="5.72917" stroke-miterlimit="8" fill="#7F7F7F"/><rect x="4032" y="1171" width="18.0002" height="18.9999" stroke="#000000" stroke-width="5.72917" stroke-miterlimit="8" fill="#7F7F7F"/><path d="M3539 1168.17C3539 1165.31 3541.31 1163 3544.17 1163L3564.83 1163C3567.69 1163 3570 1165.31 3570 1168.17L3570 1188.83C3570 1191.69 3567.69 1194 3564.83 1194L3544.17 1194C3541.31 1194 3539 1191.69 3539 1188.83Z" stroke="#000000" stroke-width="5.72917" stroke-miterlimit="8" fill="#7F7F7F" fill-rule="evenodd"/><path d="M4024 1168.17C4024 1165.31 4026.31 1163 4029.17 1163L4049.83 1163C4052.69 1163 4055 1165.31 4055 1168.17L4055 1188.83C4055 1191.69 4052.69 1194 4049.83 1194L4029.17 1194C4026.31 1194 4024 1191.69 4024 1188.83Z" stroke="#000000" stroke-width="5.72917" stroke-miterlimit="8" fill="#7F7F7F" fill-rule="evenodd"/><path d="M3539 1819C3539 1816.24 3541.24 1814 3544 1814L3565 1814C3567.76 1814 3570 1816.24 3570 1819L3570 1839C3570 1841.76 3567.76 1844 3565 1844L3544 1844C3541.24 1844 3539 1841.76 3539 1839Z" stroke="#000000" stroke-width="5.72917" stroke-miterlimit="8" fill="#7F7F7F" fill-rule="evenodd"/><path d="M4024 1819C4024 1816.24 4026.24 1814 4029 1814L4050 1814C4052.76 1814 4055 1816.24 4055 1819L4055 1839C4055 1841.76 4052.76 1844 4050 1844L4029 1844C4026.24 1844 4024 1841.76 4024 1839Z" stroke="#000000" stroke-width="5.72917" stroke-miterlimit="8" fill="#7F7F7F" fill-rule="evenodd"/><path d="M3586 1854.03C3586 1847.39 3591.39 1842 3598.03 1842L3624.97 1842C3631.61 1842 3637 1847.39 3637 1854.03L3637 1860.97C3637 1867.61 3631.61 1873 3624.97 1873L3598.03 1873C3591.39 1873 3586 1867.61 3586 1860.97Z" stroke="#000000" stroke-width="5.72917" stroke-linecap="round" stroke-linejoin="round" stroke-miterlimit="10" fill="#404040" fill-rule="evenodd"/><path d="M3578 1842C3578 1840.34 3579.34 1839 3581 1839L3593 1839C3594.66 1839 3596 1840.34 3596 1842L3596 1856C3596 1857.66 3594.66 1859 3593 1859L3581 1859C3579.34 1859 3578 1857.66 3578 1856Z" stroke="#000000" stroke-width="5.72917" stroke-linecap="round" stroke-linejoin="round" stroke-miterlimit="10" fill="#D9D9D9" fill-rule="evenodd"/><path d="M3627 1842C3627 1840.34 3628.34 1839 3630 1839L3642 1839C3643.66 1839 3645 1840.34 3645 1842L3645 1856C3645 1857.66 3643.66 1859 3642 1859L3630 1859C3628.34 1859 3627 1857.66 3627 1856Z" stroke="#000000" stroke-width="5.72917" stroke-linecap="round" stroke-linejoin="round" stroke-miterlimit="10" fill="#D9D9D9" fill-rule="evenodd"/><path d="M3957 1854.03C3957 1847.39 3962.39 1842 3969.03 1842L3995.97 1842C4002.61 1842 4008 1847.39 4008 1854.03L4008 1860.97C4008 1867.61 4002.61 1873 3995.97 1873L3969.03 1873C3962.39 1873 3957 1867.61 3957 1860.97Z" stroke="#000000" stroke-width="5.72917" stroke-linecap="round" stroke-linejoin="round" stroke-miterlimit="10" fill="#404040" fill-rule="evenodd"/><path d="M3949 1842C3949 1840.34 3950.34 1839 3952 1839L3964 1839C3965.66 1839 3967 1840.34 3967 1842L3967 1856C3967 1857.66 3965.66 1859 3964 1859L3952 1859C3950.34 1859 3949 1857.66 3949 1856Z" stroke="#000000" stroke-width="5.72917" stroke-linecap="round" stroke-linejoin="round" stroke-miterlimit="10" fill="#D9D9D9" fill-rule="evenodd"/><path d="M3998 1842C3998 1840.34 3999.34 1839 4001 1839L4013 1839C4014.66 1839 4016 1840.34 4016 1842L4016 1856C4016 1857.66 4014.66 1859 4013 1859L4001 1859C3999.34 1859 3998 1857.66 3998 1856Z" stroke="#000000" stroke-width="5.72917" stroke-linecap="round" stroke-linejoin="round" stroke-miterlimit="10" fill="#D9D9D9" fill-rule="evenodd"/><path d="M3803 1279.16C3803 1273.55 3807.55 1269 3813.16 1269L3981.84 1269C3987.45 1269 3992 1273.55 3992 1279.16L3992 1402.84C3992 1408.45 3987.45 1413 3981.84 1413L3813.16 1413C3807.55 1413 3803 1408.45 3803 1402.84Z" stroke="#000000" stroke-width="5.72917" stroke-linecap="round" stroke-linejoin="round" stroke-miterlimit="10" fill="#0070DA" fill-rule="evenodd"/><path d="M3830 1340 3886.79 1340" stroke="#FFFFFF" stroke-width="5.72917" stroke-linecap="round" stroke-linejoin="round" stroke-miterlimit="10" fill="#0070DA" fill-rule="evenodd"/><path d="M3905 1385 3924.52 1385" stroke="#FFFFFF" stroke-width="5.72917" stroke-linecap="round" stroke-linejoin="round" stroke-miterlimit="10" fill="#0070DA" fill-rule="evenodd"/><path d="M3905 1295 3924.52 1295" stroke="#FFFFFF" stroke-width="5.72917" stroke-linecap="round" stroke-linejoin="round" stroke-miterlimit="10" fill="#0070DA" fill-rule="evenodd"/><path d="M3905 1367 3924.52 1367" stroke="#FFFFFF" stroke-width="5.72917" stroke-linecap="round" stroke-linejoin="round" stroke-miterlimit="10" fill="#0070DA" fill-rule="evenodd"/><path d="M3905 1349 3924.52 1349" stroke="#FFFFFF" stroke-width="5.72917" stroke-linecap="round" stroke-linejoin="round" stroke-miterlimit="10" fill="#0070DA" fill-rule="evenodd"/><path d="M3905 1331 3924.52 1331" stroke="#FFFFFF" stroke-width="5.72917" stroke-linecap="round" stroke-linejoin="round" stroke-miterlimit="10" fill="#0070DA" fill-rule="evenodd"/><path d="M3905 1313 3924.52 1313" stroke="#FFFFFF" stroke-width="5.72917" stroke-linecap="round" stroke-linejoin="round" stroke-miterlimit="10" fill="#0070DA" fill-rule="evenodd"/><path d="M3944 1385 3963.52 1385" stroke="#FFFFFF" stroke-width="5.72917" stroke-linecap="round" stroke-linejoin="round" stroke-miterlimit="10" fill="#0070DA" fill-rule="evenodd"/><path d="M3944 1295 3963.52 1295" stroke="#FFFFFF" stroke-width="5.72917" stroke-linecap="round" stroke-linejoin="round" stroke-miterlimit="10" fill="#0070DA" fill-rule="evenodd"/><path d="M3944 1367 3963.52 1367" stroke="#FFFFFF" stroke-width="5.72917" stroke-linecap="round" stroke-linejoin="round" stroke-miterlimit="10" fill="#0070DA" fill-rule="evenodd"/><path d="M3944 1349 3963.52 1349" stroke="#FFFFFF" stroke-width="5.72917" stroke-linecap="round" stroke-linejoin="round" stroke-miterlimit="10" fill="#0070DA" fill-rule="evenodd"/><path d="M3944 1331 3963.52 1331" stroke="#FFFFFF" stroke-width="5.72917" stroke-linecap="round" stroke-linejoin="round" stroke-miterlimit="10" fill="#0070DA" fill-rule="evenodd"/><path d="M3944 1313 3963.52 1313" stroke="#FFFFFF" stroke-width="5.72917" stroke-linecap="round" stroke-linejoin="round" stroke-miterlimit="10" fill="#0070DA" fill-rule="evenodd"/><path d="M3832 1298.42C3832 1296.53 3833.53 1295 3835.42 1295L3882.58 1295C3884.47 1295 3886 1296.53 3886 1298.42L3886 1319.58C3886 1321.47 3884.47 1323 3882.58 1323L3835.42 1323C3833.53 1323 3832 1321.47 3832 1319.58Z" stroke="#FFFFFF" stroke-width="5.72917" stroke-linecap="round" stroke-linejoin="round" stroke-miterlimit="10" fill="#FFFFFF" fill-rule="evenodd"/><path d="M4011 1486.5C4011 1495.61 4003.61 1503 3994.5 1503 3985.39 1503 3978 1495.61 3978 1486.5 3978 1477.39 3985.39 1470 3994.5 1470 4003.61 1470 4011 1477.39 4011 1486.5Z" stroke="#000000" stroke-width="5.72917" stroke-linejoin="round" stroke-miterlimit="10" fill="#FF0000" fill-rule="evenodd"/><path d="M4012 1487.55C4012 1490.56 4009.56 1493 4006.55 1493L3982.45 1493C3979.44 1493 3977 1490.56 3977 1487.55L3977 1485.45C3977 1482.44 3979.44 1480 3982.45 1480L4006.55 1480C4009.56 1480 4012 1482.44 4012 1485.45Z" stroke="#000000" stroke-width="5.72917" stroke-linejoin="round" stroke-miterlimit="10" fill="#FF0000" fill-rule="evenodd"/><path d="M3996 1671C3996 1666.58 3999.58 1663 4004 1663 4008.42 1663 4012 1666.58 4012 1671 4012 1675.42 4008.42 1679 4004 1679 3999.58 1679 3996 1675.42 3996 1671Z" stroke="#000000" stroke-width="5.72917" stroke-miterlimit="8" fill="#D9D9D9" fill-rule="evenodd"/><path d="M3996 1700C3996 1695.58 3999.58 1692 4004 1692 4008.42 1692 4012 1695.58 4012 1700 4012 1704.42 4008.42 1708 4004 1708 3999.58 1708 3996 1704.42 3996 1700Z" stroke="#000000" stroke-width="5.72917" stroke-miterlimit="8" fill="#D9D9D9" fill-rule="evenodd"/><path d="M3996 1642C3996 1637.58 3999.58 1634 4004 1634 4008.42 1634 4012 1637.58 4012 1642 4012 1646.42 4008.42 1650 4004 1650 3999.58 1650 3996 1646.42 3996 1642Z" stroke="#000000" stroke-width="5.72917" stroke-miterlimit="8" fill="#D9D9D9" fill-rule="evenodd"/><path d="M3936 1642 3974.51 1642" stroke="#FFFFFF" stroke-width="5.72917" stroke-linecap="round" stroke-linejoin="round" stroke-miterlimit="10" fill="#0070DA" fill-rule="evenodd"/><path d="M3936 1671 3974.51 1671" stroke="#FFFFFF" stroke-width="5.72917" stroke-linecap="round" stroke-linejoin="round" stroke-miterlimit="10" fill="#0070DA" fill-rule="evenodd"/><path d="M3939 1699 3977.51 1699" stroke="#FFFFFF" stroke-width="5.72917" stroke-linecap="round" stroke-linejoin="round" stroke-miterlimit="10" fill="#0070DA" fill-rule="evenodd"/><path d="M3982 1743C3982 1740.24 3984.24 1738 3987 1738L4007 1738C4009.76 1738 4012 1740.24 4012 1743L4012 1777C4012 1779.76 4009.76 1782 4007 1782L3987 1782C3984.24 1782 3982 1779.76 3982 1777Z" stroke="#000000" stroke-width="5.72917" stroke-miterlimit="8" fill="#D9D9D9" fill-rule="evenodd"/><path d="M3597 1725 3662.72 1725" stroke="#000000" stroke-width="5.72917" stroke-linecap="round" stroke-linejoin="round" stroke-miterlimit="10" fill="#0070DA" fill-rule="evenodd"/><path d="M3734 1725 3835.82 1725" stroke="#0070DA" stroke-width="5.72917" stroke-linecap="round" stroke-linejoin="round" stroke-miterlimit="10" fill="#0070DA" fill-rule="evenodd"/><path d="M3734 1691 3810.04 1691" stroke="#000000" stroke-width="5.72917" stroke-linecap="round" stroke-linejoin="round" stroke-miterlimit="10" fill="#0070DA" fill-rule="evenodd"/><path d="M3734 1657 3799.72 1657" stroke="#000000" stroke-width="5.72917" stroke-linecap="round" stroke-linejoin="round" stroke-miterlimit="10" fill="#0070DA" fill-rule="evenodd"/><path d="M3614.69 1657 3644.54 1657C3648.66 1657 3652 1660.33 3652 1664.43L3652 1694.17 3649.99 1699 3628.1 1684.29C3621 1677.22 3615.26 1668.8 3611.29 1659.44L3611 1658.52 3614.69 1657Z" stroke="#000000" stroke-width="5.72917" stroke-linecap="round" stroke-linejoin="round" stroke-miterlimit="10" fill="#0070DA" fill-rule="evenodd"/><path d="M3610.79 1659 3611.08 1659.92C3615.07 1669.25 3620.85 1677.66 3627.99 1684.72L3650 1699.4 3649.82 1699.83C3648.46 1701.17 3646.59 1702 3644.51 1702L3614.5 1702C3610.36 1702 3607 1698.68 3607 1694.58L3607 1664.9C3607 1662.85 3607.84 1661 3609.2 1659.65L3610.79 1659Z" stroke="#000000" stroke-width="5.72917" stroke-linecap="round" stroke-linejoin="round" stroke-miterlimit="10" fill="#B5BB42" fill-rule="evenodd"/></g></svg>