<svg width="636" height="319" xmlns="http://www.w3.org/2000/svg" xmlns:xlink="http://www.w3.org/1999/xlink" xml:space="preserve" overflow="hidden"><g transform="translate(-3345 -944)"><path d="M3394 952.582C3394 949.499 3396.5 947 3399.58 947L3409.42 947C3412.5 947 3415 949.499 3415 952.582L3415 989.418C3415 992.501 3412.5 995 3409.42 995L3399.58 995C3396.5 995 3394 992.501 3394 989.418Z" stroke="#000000" stroke-width="5.72917" stroke-linecap="round" stroke-linejoin="round" stroke-miterlimit="10" fill="#404040" fill-rule="evenodd"/><path d="M3916 952.582C3916 949.499 3918.5 947 3921.58 947L3931.42 947C3934.5 947 3937 949.499 3937 952.582L3937 989.418C3937 992.501 3934.5 995 3931.42 995L3921.58 995C3918.5 995 3916 992.501 3916 989.418Z" stroke="#000000" stroke-width="5.72917" stroke-linecap="round" stroke-linejoin="round" stroke-miterlimit="10" fill="#404040" fill-rule="evenodd"/><path d="M3348 978.932C3348 975.656 3350.66 973 3353.93 973L3972.07 973C3975.34 973 3978 975.656 3978 978.932L3978 1254.07C3978 1257.34 3975.34 1260 3972.07 1260L3353.93 1260C3350.66 1260 3348 1257.34 3348 1254.07Z" stroke="#000000" stroke-width="5.72917" stroke-linecap="round" stroke-linejoin="round" stroke-miterlimit="10" fill="#D9D9D9" fill-rule="evenodd"/><path d="M3936 1005 3912 1047 3888 1005Z" stroke="#000000" stroke-width="5.72917" stroke-linecap="round" stroke-linejoin="round" stroke-miterlimit="10" fill="#FF0000" fill-rule="evenodd"/><path d="M3831 1047 3856.32 1005 3872.68 1005 3898 1047Z" stroke="#000000" stroke-width="5.72917" stroke-linecap="round" stroke-linejoin="round" stroke-miterlimit="10" fill="#404040" fill-rule="evenodd"/><path d="M3630 1198.5C3630 1193.81 3633.81 1190 3638.5 1190 3643.19 1190 3647 1193.81 3647 1198.5 3647 1203.19 3643.19 1207 3638.5 1207 3633.81 1207 3630 1203.19 3630 1198.5Z" stroke="#000000" stroke-width="5.72917" stroke-linecap="round" stroke-linejoin="round" stroke-miterlimit="10" fill="#F6B803" fill-rule="evenodd"/><path d="M3692 1198.5C3692 1193.81 3695.81 1190 3700.5 1190 3705.19 1190 3709 1193.81 3709 1198.5 3709 1203.19 3705.19 1207 3700.5 1207 3695.81 1207 3692 1203.19 3692 1198.5Z" stroke="#000000" stroke-width="5.72917" stroke-linecap="round" stroke-linejoin="round" stroke-miterlimit="10" fill="#F6B803" fill-rule="evenodd"/></g></svg>