<svg width="403" height="202" xmlns="http://www.w3.org/2000/svg" xmlns:xlink="http://www.w3.org/1999/xlink" xml:space="preserve" overflow="hidden"><g transform="translate(-2293 -1046)"><path d="M2673.95 1199.55C2670.02 1199.55 2666.84 1202.74 2666.84 1206.67 2666.84 1210.6 2670.02 1213.79 2673.95 1213.79 2677.87 1213.79 2681.06 1210.6 2681.06 1206.67 2681.06 1202.74 2677.87 1199.55 2673.95 1199.55ZM2315.05 1199.55C2311.13 1199.55 2307.94 1202.74 2307.94 1206.67 2307.94 1210.6 2311.13 1213.79 2315.05 1213.79 2318.98 1213.79 2322.16 1210.6 2322.16 1206.67 2322.16 1202.74 2318.98 1199.55 2315.05 1199.55ZM2676.22 1175.19 2671.67 1175.19C2669.67 1175.19 2667.86 1176 2666.54 1177.32L2664.42 1182.45 2666.54 1187.59C2667.86 1188.9 2669.67 1189.72 2671.67 1189.72L2676.22 1189.72C2680.23 1189.72 2683.47 1186.47 2683.47 1182.45L2683.47 1182.45C2683.47 1178.44 2680.23 1175.19 2676.22 1175.19ZM2317.33 1175.19 2312.78 1175.19C2310.78 1175.19 2308.96 1176 2307.65 1177.32L2305.53 1182.45 2305.53 1182.45 2305.53 1182.45 2305.53 1182.45 2307.65 1187.59C2308.96 1188.9 2310.78 1189.72 2312.78 1189.72L2317.33 1189.72C2321.33 1189.72 2324.58 1186.47 2324.58 1182.45L2324.58 1182.45C2324.58 1178.44 2321.33 1175.19 2317.33 1175.19ZM2671.67 1091.28C2669.67 1091.28 2667.86 1092.1 2666.54 1093.41L2664.42 1098.55 2666.54 1103.68C2667.86 1105 2669.67 1105.81 2671.67 1105.81L2676.22 1105.81C2680.23 1105.81 2683.47 1102.56 2683.47 1098.55L2683.47 1098.55C2683.47 1094.54 2680.23 1091.28 2676.22 1091.28ZM2312.78 1091.28C2310.78 1091.28 2308.96 1092.1 2307.65 1093.41L2305.53 1098.55 2307.65 1103.68C2308.96 1105 2310.78 1105.81 2312.78 1105.81L2317.33 1105.81C2321.33 1105.81 2324.58 1102.56 2324.58 1098.55L2324.58 1098.55C2324.58 1094.54 2321.33 1091.28 2317.33 1091.28ZM2673.95 1067.21C2670.02 1067.21 2666.84 1070.4 2666.84 1074.33 2666.84 1078.26 2670.02 1081.45 2673.95 1081.45 2677.87 1081.45 2681.06 1078.26 2681.06 1074.33 2681.06 1070.4 2677.87 1067.21 2673.95 1067.21ZM2315.05 1067.21C2311.13 1067.21 2307.94 1070.4 2307.94 1074.33 2307.94 1078.26 2311.13 1081.45 2315.05 1081.45 2318.98 1081.45 2322.16 1078.26 2322.16 1074.33 2322.16 1070.4 2318.98 1067.21 2315.05 1067.21ZM2302.59 1049 2686.41 1049C2690.05 1049 2693 1051.96 2693 1055.6L2693 1225.4C2693 1229.04 2690.05 1232 2686.41 1232L2302.59 1232C2298.95 1232 2296 1229.04 2296 1225.4L2296 1055.6C2296 1051.96 2298.95 1049 2302.59 1049Z" stroke="#000000" stroke-width="5.72917" stroke-linejoin="round" stroke-miterlimit="10" fill="#404040" fill-rule="evenodd"/><path d="M2335 1055.6C2335 1051.96 2337.96 1049 2341.6 1049L2648.4 1049C2652.04 1049 2655 1051.96 2655 1055.6L2655 1225.4C2655 1229.04 2652.04 1232 2648.4 1232L2341.6 1232C2337.96 1232 2335 1229.04 2335 1225.4Z" stroke="#000000" stroke-width="5.72917" stroke-linecap="round" stroke-linejoin="round" stroke-miterlimit="10" fill="#D9D9D9" fill-rule="evenodd"/><path d="M2364 1187C2364 1175.4 2373.4 1166 2385 1166 2396.6 1166 2406 1175.4 2406 1187 2406 1198.6 2396.6 1208 2385 1208 2373.4 1208 2364 1198.6 2364 1187Z" stroke="#000000" stroke-width="5.72917" stroke-linejoin="round" stroke-miterlimit="10" fill="#A6A6A6" fill-rule="evenodd"/><path d="M2516 1166.5C2516 1162.36 2519.36 1159 2523.5 1159 2527.64 1159 2531 1162.36 2531 1166.5 2531 1170.64 2527.64 1174 2523.5 1174 2519.36 1174 2516 1170.64 2516 1166.5Z" stroke="#000000" stroke-width="5.72917" stroke-linejoin="round" stroke-miterlimit="10" fill="#A6A6A6" fill-rule="evenodd"/><path d="M2516 1192.5C2516 1188.36 2519.36 1185 2523.5 1185 2527.64 1185 2531 1188.36 2531 1192.5 2531 1196.64 2527.64 1200 2523.5 1200 2519.36 1200 2516 1196.64 2516 1192.5Z" stroke="#000000" stroke-width="5.72917" stroke-linejoin="round" stroke-miterlimit="10" fill="#A6A6A6" fill-rule="evenodd"/><path d="M2542 1192.5C2542 1188.36 2545.13 1185 2549 1185 2552.87 1185 2556 1188.36 2556 1192.5 2556 1196.64 2552.87 1200 2549 1200 2545.13 1200 2542 1196.64 2542 1192.5Z" stroke="#000000" stroke-width="5.72917" stroke-linejoin="round" stroke-miterlimit="10" fill="#A6A6A6" fill-rule="evenodd"/><path d="M2397.5 1070C2401.64 1070 2405 1073.36 2405 1077.5 2405 1081.64 2401.64 1085 2397.5 1085 2393.36 1085 2390 1081.64 2390 1077.5 2390 1073.36 2393.36 1070 2397.5 1070Z" stroke="#000000" stroke-width="5.72917" stroke-linejoin="round" stroke-miterlimit="10" fill="#A6A6A6" fill-rule="evenodd"/><path d="M2371 1070C2374.87 1070 2378 1073.36 2378 1077.5 2378 1081.64 2374.87 1085 2371 1085 2367.13 1085 2364 1081.64 2364 1077.5 2364 1073.36 2367.13 1070 2371 1070Z" stroke="#000000" stroke-width="5.72917" stroke-linejoin="round" stroke-miterlimit="10" fill="#404040" fill-rule="evenodd"/><path d="M2371 1096C2374.87 1096 2378 1099.36 2378 1103.5 2378 1107.64 2374.87 1111 2371 1111 2367.13 1111 2364 1107.64 2364 1103.5 2364 1099.36 2367.13 1096 2371 1096Z" stroke="#000000" stroke-width="5.72917" stroke-linejoin="round" stroke-miterlimit="10" fill="#A6A6A6" fill-rule="evenodd"/><path d="M2574 1090.83C2574 1085.4 2578.4 1081 2583.83 1081L2623.17 1081C2628.6 1081 2633 1085.4 2633 1090.83L2633 1190.17C2633 1195.6 2628.6 1200 2623.17 1200L2583.83 1200C2578.4 1200 2574 1195.6 2574 1190.17Z" stroke="#000000" stroke-width="5.72917" stroke-linejoin="round" stroke-miterlimit="10" fill="#404040" fill-rule="evenodd"/><path d="M2583 1161C2583 1159.9 2583.9 1159 2585 1159L2611 1159C2612.1 1159 2613 1159.9 2613 1161L2613 1169C2613 1170.1 2612.1 1171 2611 1171L2585 1171C2583.9 1171 2583 1170.1 2583 1169Z" stroke="#000000" stroke-width="5.72917" stroke-linejoin="round" stroke-miterlimit="10" fill="#0070DA" fill-rule="evenodd"/><path d="M2593 1180C2593 1178.9 2593.9 1178 2595 1178L2621 1178C2622.1 1178 2623 1178.9 2623 1180L2623 1188C2623 1189.1 2622.1 1190 2621 1190L2595 1190C2593.9 1190 2593 1189.1 2593 1188Z" stroke="#000000" stroke-width="5.72917" stroke-linejoin="round" stroke-miterlimit="10" fill="#0070DA" fill-rule="evenodd"/><path d="M0 0 0.000360892 182.716" stroke="#000000" stroke-width="5.72917" stroke-miterlimit="8" fill="none" fill-rule="evenodd" transform="matrix(1 0 0 -1 2495 1231.72)"/><path d="M2384.5 1176 2384.5 1176C2391.4 1176 2397 1181.6 2397 1188.5L2397 1241.14C2397 1243.27 2395.27 1245 2393.14 1245L2375.86 1245C2373.73 1245 2372 1243.27 2372 1241.14L2372 1188.5C2372 1181.6 2377.6 1176 2384.5 1176Z" stroke="#000000" stroke-width="5.72917" stroke-linejoin="round" stroke-miterlimit="10" fill="#404040" fill-rule="evenodd"/><path d="M2421 1187C2421 1175.4 2430.4 1166 2442 1166 2453.6 1166 2463 1175.4 2463 1187 2463 1198.6 2453.6 1208 2442 1208 2430.4 1208 2421 1198.6 2421 1187Z" stroke="#000000" stroke-width="5.72917" stroke-linejoin="round" stroke-miterlimit="10" fill="#A6A6A6" fill-rule="evenodd"/><path d="M2441.5 1176 2441.5 1176C2448.4 1176 2454 1181.6 2454 1188.5L2454 1241.14C2454 1243.27 2452.27 1245 2450.14 1245L2432.86 1245C2430.73 1245 2429 1243.27 2429 1241.14L2429 1188.5C2429 1181.6 2434.6 1176 2441.5 1176Z" stroke="#000000" stroke-width="5.72917" stroke-linejoin="round" stroke-miterlimit="10" fill="#404040" fill-rule="evenodd"/></g></svg>