<svg width="497" height="378" xmlns="http://www.w3.org/2000/svg" xmlns:xlink="http://www.w3.org/1999/xlink" xml:space="preserve" overflow="hidden"><g transform="translate(-3509 -1595)"><path d="M3771 1730.3C3771 1724.06 3776.06 1719 3782.3 1719L3991.7 1719C3997.94 1719 4003 1724.06 4003 1730.3L4003 1958.7C4003 1964.94 3997.94 1970 3991.7 1970L3782.3 1970C3776.06 1970 3771 1964.94 3771 1958.7Z" stroke="#000000" stroke-width="5.72917" stroke-miterlimit="8" fill="#D9D9D9" fill-rule="evenodd"/><path d="M105.459 0 16.5411 0C7.40565 0 0 7.3193 0 16.3482L0 92.1257C0 101.155 7.40565 108.474 16.5411 108.474L27.902 108.474 27.902 121.977C27.902 125.856 31.0834 129 35.0076 129L86.9924 129C90.9166 129 94.098 125.856 94.098 121.977L94.098 108.474 105.459 108.474C114.594 108.474 122 101.155 122 92.1257L122 16.3482C122 7.3193 114.594 0 105.459 0Z" stroke="#000000" stroke-width="5.72917" stroke-linecap="round" stroke-linejoin="round" stroke-miterlimit="10" fill="#BFBFBF" fill-rule="evenodd" transform="matrix(-1 0 0 1 3948 1739)"/><path d="M0 7.19157C-1.4641e-15 3.21977 3.21977 0 7.19156 0L84.8082 0C88.78-1.4641e-15 91.9998 3.21977 91.9998 7.19157L91.9998 70.8081C91.9998 74.7799 88.78 77.9997 84.8082 77.9997L7.19156 77.9997C3.21977 77.9997 0 74.7799 0 70.8081Z" stroke="#000000" stroke-width="5.72917" stroke-miterlimit="8" fill="#FFFFFF" fill-rule="evenodd" transform="matrix(-1 0 0 1 3933 1754)"/><path d="M3879 1850C3879 1845.58 3882.58 1842 3887 1842 3891.42 1842 3895 1845.58 3895 1850 3895 1854.42 3891.42 1858 3887 1858 3882.58 1858 3879 1854.42 3879 1850Z" stroke="#000000" stroke-width="5.72917" stroke-miterlimit="8" fill="#595959" fill-rule="evenodd"/><path d="M3860 1777 3913.22 1777" stroke="#000000" stroke-width="5.72917" stroke-linecap="round" stroke-miterlimit="8" fill="none" fill-rule="evenodd"/><path d="M3860 1799 3896.56 1799" stroke="#000000" stroke-width="5.72917" stroke-linecap="round" stroke-miterlimit="8" fill="none" fill-rule="evenodd"/><path d="M3826 1885 3884.11 1885" stroke="#000000" stroke-width="5.72917" stroke-linecap="round" stroke-linejoin="round" stroke-miterlimit="10" fill="none" fill-rule="evenodd"/><path d="M3859.67 1914 3914.33 1914C3921.88 1914 3928 1920.1 3928 1927.62L3928 1970 3846 1970 3846 1927.62C3846 1920.1 3852.12 1914 3859.67 1914Z" stroke="#000000" stroke-width="5.72917" stroke-miterlimit="8" fill="#E4E4E4" fill-rule="evenodd"/><path d="M3879 1942C3879 1937.58 3882.58 1934 3887 1934 3891.42 1934 3895 1937.58 3895 1942 3895 1946.42 3891.42 1950 3887 1950 3882.58 1950 3879 1946.42 3879 1942Z" stroke="#000000" stroke-width="5.72917" stroke-miterlimit="8" fill="#BFBFBF" fill-rule="evenodd"/><path d="M3703 1619 3728 1619 3728 1931 3703 1931Z" stroke="#000000" stroke-width="5.72917" stroke-linejoin="round" stroke-miterlimit="10" fill="#D9D9D9" fill-rule="evenodd"/><path d="M3698.83 1931 3732.17 1931C3734.28 1931 3736 1932.72 3736 1934.83L3736 1954 3695 1954 3695 1934.83C3695 1932.72 3696.72 1931 3698.83 1931Z" stroke="#000000" stroke-width="5.72917" stroke-linejoin="round" stroke-miterlimit="10" fill="#D9D9D9" fill-rule="evenodd"/><path d="M3701.77 1928C3695.3 1895.57 3689.32 1857.14 3695.78 1825.34 3702.24 1793.54 3733.7 1767.08 3740.53 1737.2 3747.35 1707.31 3738.03 1660.41 3736.73 1646.05 3735.43 1631.69 3735.58 1623.35 3735.73 1615" stroke="#000000" stroke-width="5.72917" stroke-miterlimit="8" fill="none" fill-rule="evenodd"/><path d="M3694 1602C3694 1599.79 3695.79 1598 3698 1598L3736 1598C3738.21 1598 3740 1599.79 3740 1602L3740 1618C3740 1620.21 3738.21 1622 3736 1622L3698 1622C3695.79 1622 3694 1620.21 3694 1618Z" stroke="#000000" stroke-width="5.72917" stroke-linejoin="round" stroke-miterlimit="10" fill="#D9D9D9" fill-rule="evenodd"/><path d="M3542 1954.03C3542 1953.46 3542.46 1953 3543.03 1953L3740.97 1953C3741.54 1953 3742 1953.46 3742 1954.03L3742 1968.97C3742 1969.54 3741.54 1970 3740.97 1970L3543.03 1970C3542.46 1970 3542 1969.54 3542 1968.97Z" stroke="#000000" stroke-width="5.72917" stroke-miterlimit="8" fill="#D9D9D9" fill-rule="evenodd"/><path d="M3512 1698.43C3512 1693.77 3515.77 1690 3520.43 1690L3676.57 1690C3681.23 1690 3685 1693.77 3685 1698.43L3685 1961.57C3685 1966.23 3681.23 1970 3676.57 1970L3520.43 1970C3515.77 1970 3512 1966.23 3512 1961.57Z" stroke="#000000" stroke-width="5.72917" stroke-miterlimit="8" fill="#D9D9D9" fill-rule="evenodd"/><path d="M96.8148 0 15.1852 0C6.79863 0 0 6.80866 0 15.2076L0 85.6984C0 94.0974 6.79863 100.906 15.1852 100.906L25.615 100.906 25.615 113.467C25.615 117.075 28.5356 120 32.1382 120L79.8619 120C83.4644 120 86.3851 117.075 86.3851 113.467L86.3851 100.906 96.8148 100.906C105.201 100.906 112 94.0974 112 85.6984L112 15.2076C112 6.80866 105.201 0 96.8148 0Z" stroke="#000000" stroke-width="5.72917" stroke-linecap="round" stroke-linejoin="round" stroke-miterlimit="10" fill="#BFBFBF" fill-rule="evenodd" transform="matrix(-1 0 0 1 3653 1710)"/><path d="M0 6.63842C-1.33679e-15 2.97212 2.97212-1.33679e-15 6.63841-2.67358e-15L77.3615 0C81.0277-1.33679e-15 83.9999 2.97212 83.9999 6.63842L83.9999 65.3617C83.9999 69.028 81.0277 72.0001 77.3615 72.0001L6.63841 72.0001C2.97212 72.0001 0 69.028 0 65.3617Z" stroke="#000000" stroke-width="5.72917" stroke-miterlimit="8" fill="#FFFFFF" fill-rule="evenodd" transform="matrix(-1 0 0 1 3639 1725)"/><path d="M3590 1813C3590 1809.13 3593.13 1806 3597 1806 3600.87 1806 3604 1809.13 3604 1813 3604 1816.87 3600.87 1820 3597 1820 3593.13 1820 3590 1816.87 3590 1813Z" stroke="#000000" stroke-width="5.72917" stroke-miterlimit="8" fill="#595959" fill-rule="evenodd"/><path d="M3572 1746 3620.94 1746" stroke="#000000" stroke-width="5.72917" stroke-linecap="round" stroke-miterlimit="8" fill="none" fill-rule="evenodd"/><path d="M3572 1766 3605.62 1766" stroke="#000000" stroke-width="5.72917" stroke-linecap="round" stroke-miterlimit="8" fill="none" fill-rule="evenodd"/><path d="M3512.5 1845.5 3685.81 1845.5" stroke="#000000" stroke-width="3.4375" stroke-miterlimit="8" fill="none" fill-rule="evenodd"/><path d="M3627.5 1880C3627.5 1868.13 3637.13 1858.5 3649 1858.5 3660.87 1858.5 3670.5 1868.13 3670.5 1880 3670.5 1891.87 3660.87 1901.5 3649 1901.5 3637.13 1901.5 3627.5 1891.87 3627.5 1880Z" stroke="#000000" stroke-width="3.4375" stroke-miterlimit="8" fill="#F6B803" fill-rule="evenodd"/><path d="M3644.81 1887.44 3646.19 1887.85C3646.78 1887.96 3647.38 1888.02 3648 1888.02 3648.62 1888.02 3649.23 1887.96 3649.81 1887.85L3651.06 1887.48 3652.91 1892.15 3652.21 1892.39C3650.88 1892.79 3649.47 1893 3648 1893 3646.54 1893 3645.12 1892.79 3643.79 1892.39L3642.96 1892.1ZM3657.1 1869.05 3658.02 1869.84C3659.94 1871.69 3661.31 1874.05 3661.88 1876.7L3662 1877.47 3656.85 1878.27 3656.79 1877.71C3656.43 1876.03 3655.56 1874.53 3654.34 1873.36L3653.8 1872.93ZM3638.96 1869 3642.26 1872.89 3641.66 1873.36C3640.44 1874.53 3639.57 1876.03 3639.22 1877.71L3639.16 1878.29 3634 1877.49 3634.13 1876.7C3634.69 1874.05 3636.06 1871.69 3637.99 1869.84Z" stroke="#000000" stroke-width="5.72917" stroke-linecap="round" stroke-linejoin="round" stroke-miterlimit="10" fill-rule="evenodd"/><path d="M3647 1879.5C3647 1878.67 3647.67 1878 3648.5 1878 3649.33 1878 3650 1878.67 3650 1879.5 3650 1880.33 3649.33 1881 3648.5 1881 3647.67 1881 3647 1880.33 3647 1879.5Z" stroke="#000000" stroke-width="5.72917" stroke-linecap="round" stroke-linejoin="round" stroke-miterlimit="10" fill-rule="evenodd"/></g></svg>