<svg width="240" height="152" xmlns="http://www.w3.org/2000/svg" xmlns:xlink="http://www.w3.org/1999/xlink" xml:space="preserve" overflow="hidden"><defs><clipPath id="clip0"><rect x="1935" y="863" width="240" height="152"/></clipPath></defs><g clip-path="url(#clip0)" transform="translate(-1935 -863)"><path d="M2026.22 992.5C2020.52 980.482 2015.26 966.237 2020.95 954.452 2026.63 942.666 2054.32 932.861 2060.32 921.786 2066.33 910.712 2058.13 893.328 2056.98 888.007 2055.84 882.687 2055.97 879.593 2056.1 876.5" stroke="#000000" stroke-width="3" stroke-miterlimit="8" fill="none" fill-rule="evenodd"/><path d="M0 3.8334C-9.62807e-16 1.71627 1.71627 -9.6281e-16 3.83339 -9.6281e-16L117.167 0C119.284 -9.6281e-16 121 1.71627 121 3.8334L121 19.1666C121 21.2837 119.284 23 117.167 23L3.83339 23C1.71627 23 -4.81404e-16 21.2837 -4.81404e-16 19.1666Z" stroke="#000000" stroke-width="3" stroke-miterlimit="8" fill="#D9D9D9" fill-rule="evenodd" transform="matrix(-6.12323e-17 -1 -1 6.12323e-17 2051.5 994.5)"/><path d="M0 2.50005C0 1.11931 1.11931 -9.07108e-16 2.50005-1.20948e-15L12.5 0C13.8807 -6.04738e-16 15 1.11931 15 2.50005L15 35.5C15 36.8807 13.8807 38 12.5 38L2.50005 38C1.11931 38 -3.0237e-16 36.8807 0 35.5Z" stroke="#000000" stroke-width="3" stroke-miterlimit="8" fill="#D9D9D9" fill-rule="evenodd" transform="matrix(-6.12323e-17 -1 -1 6.12323e-17 2060.5 879.5)"/><path d="M70.6967 129 5.72038 129C2.56099 129 0 126.502 0 123.421L0 21.4268 0 13.5874 0 6.55564 0 3.49932 0 2.29513C0 1.02755 1.05365 0 2.35329 0L139.647 0C140.946 0 142 1.02755 142 2.29513L142 3.49932 142 13.5874 142 21.4268C142 22.6944 140.946 23.7219 139.647 23.7219L76.4171 23.7219 76.4171 123.421C76.4171 126.502 73.8561 129 70.6967 129Z" stroke="#000000" stroke-width="3" stroke-miterlimit="8" fill="#D9D9D9" fill-rule="evenodd" transform="matrix(1 -1.22465e-16 -1.22465e-16 -1 1936.5 1013.5)"/><path d="M45.8141 0 7.18587 0C3.21721 0 0 3.23411 0 7.22363L0 40.7067C0 44.6963 3.21721 47.9304 7.18587 47.9304L12.1214 47.9304 12.1214 53.8969C12.1214 55.6106 13.5035 57 15.2082 57L37.7918 57C39.4965 57 40.8786 55.6106 40.8786 53.8969L40.8786 47.9304 45.8141 47.9304C49.7828 47.9304 53 44.6963 53 40.7067L53 7.22363C53 3.23411 49.7828 0 45.8141 0Z" stroke="#000000" stroke-width="3" stroke-linecap="round" stroke-linejoin="round" stroke-miterlimit="10" fill="#BFBFBF" fill-rule="evenodd" transform="matrix(-1 0 0 1 2001.5 898.5)"/><path d="M0 3.22699C-6.36567e-16 1.44477 1.44477 0 3.22699 0L36.773 0C38.5552 -6.36567e-16 40 1.44477 40 3.22699L40 31.773C40 33.5552 38.5552 35 36.773 35L3.22699 35C1.44477 35 0 33.5552 0 31.773Z" stroke="#000000" stroke-width="3" stroke-miterlimit="8" fill="#FFFFFF" fill-rule="evenodd" transform="matrix(-1 0 0 1 1994.5 904.5)"/><path d="M1971.5 947C1971.5 945.067 1973.07 943.5 1975 943.5 1976.93 943.5 1978.5 945.067 1978.5 947 1978.5 948.933 1976.93 950.5 1975 950.5 1973.07 950.5 1971.5 948.933 1971.5 947Z" stroke="#000000" stroke-width="3" stroke-miterlimit="8" fill="#F2F2F2" fill-rule="evenodd"/><path d="M1963.5 915.5 1986.77 915.5" stroke="#000000" stroke-width="3" stroke-linecap="round" stroke-miterlimit="8" fill="none" fill-rule="evenodd"/><path d="M1963.5 924.5 1979.48 924.5" stroke="#000000" stroke-width="3" stroke-linecap="round" stroke-miterlimit="8" fill="none" fill-rule="evenodd"/><path d="M2090.5 900.532C2090.5 897.753 2092.75 895.5 2095.53 895.5L2168.47 895.5C2171.25 895.5 2173.5 897.753 2173.5 900.532L2173.5 1008.47C2173.5 1011.25 2171.25 1013.5 2168.47 1013.5L2095.53 1013.5C2092.75 1013.5 2090.5 1011.25 2090.5 1008.47Z" stroke="#000000" stroke-width="3" stroke-miterlimit="8" fill="#D9D9D9" fill-rule="evenodd"/><path d="M45.8141 0 7.18587 0C3.21721 0 0 3.23411 0 7.22363L0 40.7067C0 44.6963 3.21721 47.9304 7.18587 47.9304L12.1214 47.9304 12.1214 53.8969C12.1214 55.6106 13.5035 57 15.2082 57L37.7918 57C39.4965 57 40.8786 55.6106 40.8786 53.8969L40.8786 47.9304 45.8141 47.9304C49.7828 47.9304 53 44.6963 53 40.7067L53 7.22363C53 3.23411 49.7828 0 45.8141 0Z" stroke="#000000" stroke-width="3" stroke-linecap="round" stroke-linejoin="round" stroke-miterlimit="10" fill="#BFBFBF" fill-rule="evenodd" transform="matrix(-1 0 0 1 2158.5 912.5)"/><path d="M0 3.13478C-6.36567e-16 1.40349 1.40349 -6.36568e-16 3.13478-1.27314e-15L36.8652 0C38.5965-1.27314e-15 40 1.40349 40 3.13478L40 30.8652C40 32.5965 38.5965 34 36.8652 34L3.13478 34C1.40349 34 0 32.5965 0 30.8652Z" stroke="#000000" stroke-width="3" stroke-miterlimit="8" fill="#FFFFFF" fill-rule="evenodd" transform="matrix(-1 0 0 1 2152.5 919.5)"/><path d="M2128.5 962C2128.5 960.067 2130.07 958.5 2132 958.5 2133.93 958.5 2135.5 960.067 2135.5 962 2135.5 963.933 2133.93 965.5 2132 965.5 2130.07 965.5 2128.5 963.933 2128.5 962Z" stroke="#000000" stroke-width="3" stroke-miterlimit="8" fill="#F2F2F2" fill-rule="evenodd"/><rect x="0" y="0" width="8" height="10" stroke="#000000" stroke-width="3" stroke-linecap="round" stroke-linejoin="round" stroke-miterlimit="10" fill="#FFEB7B" transform="matrix(-1 0 0 1 2147.5 944.5)"/><rect x="0" y="0" width="8" height="19" stroke="#000000" stroke-width="3" stroke-linecap="round" stroke-linejoin="round" stroke-miterlimit="10" fill="#FFEB7B" transform="matrix(-1 0 0 1 2139.5 935.5)"/><rect x="0" y="0" width="7" height="25" stroke="#000000" stroke-width="3" stroke-linecap="round" stroke-linejoin="round" stroke-miterlimit="10" fill="#FFEB7B" transform="matrix(-1 0 0 1 2131.5 929.5)"/><rect x="0" y="0" width="8" height="10" stroke="#000000" stroke-width="3" stroke-linecap="round" stroke-linejoin="round" stroke-miterlimit="10" fill="#FFEB7B" transform="matrix(-1 0 0 1 2124.5 944.5)"/><path d="M2105.5 991.5 2134.8 991.5" stroke="#000000" stroke-width="3" stroke-linecap="round" stroke-miterlimit="8" fill="none" fill-rule="evenodd"/><path d="M2149.5 991.5 2157.95 991.5" stroke="#000000" stroke-width="3" stroke-linecap="round" stroke-miterlimit="8" fill="none" fill-rule="evenodd"/><path d="M1949.5 989.5 1982.71 989.5" stroke="#000000" stroke-width="3" stroke-linecap="round" stroke-miterlimit="8" fill="none" fill-rule="evenodd"/><path d="M1993.5 989.5 1998.75 989.5" stroke="#000000" stroke-width="3" stroke-linecap="round" stroke-miterlimit="8" fill="none" fill-rule="evenodd"/></g></svg>