<svg width="455" height="378" xmlns="http://www.w3.org/2000/svg" xmlns:xlink="http://www.w3.org/1999/xlink" xml:space="preserve" overflow="hidden"><g transform="translate(-3510 -1595)"><path d="M3705 1619 3729 1619 3729 1931 3705 1931Z" stroke="#000000" stroke-width="5.72917" stroke-linejoin="round" stroke-miterlimit="10" fill="#D9D9D9" fill-rule="evenodd"/><path d="M3700.83 1931 3733.17 1931C3735.28 1931 3737 1932.72 3737 1934.83L3737 1954 3697 1954 3697 1934.83C3697 1932.72 3698.72 1931 3700.83 1931Z" stroke="#000000" stroke-width="5.72917" stroke-linejoin="round" stroke-miterlimit="10" fill="#D9D9D9" fill-rule="evenodd"/><path d="M3702.77 1928C3696.3 1895.57 3690.32 1857.14 3696.78 1825.34 3703.24 1793.54 3734.7 1767.08 3741.53 1737.2 3748.35 1707.31 3739.03 1660.41 3737.73 1646.05 3736.43 1631.69 3736.58 1623.35 3736.73 1615" stroke="#000000" stroke-width="5.72917" stroke-miterlimit="8" fill="none" fill-rule="evenodd"/><path d="M3695 1602C3695 1599.79 3696.79 1598 3699 1598L3737 1598C3739.21 1598 3741 1599.79 3741 1602L3741 1618C3741 1620.21 3739.21 1622 3737 1622L3699 1622C3696.79 1622 3695 1620.21 3695 1618Z" stroke="#000000" stroke-width="5.72917" stroke-linejoin="round" stroke-miterlimit="10" fill="#D9D9D9" fill-rule="evenodd"/><path d="M3543 1954.03C3543 1953.46 3543.46 1953 3544.03 1953L3741.97 1953C3742.54 1953 3743 1953.46 3743 1954.03L3743 1968.97C3743 1969.54 3742.54 1970 3741.97 1970L3544.03 1970C3543.46 1970 3543 1969.54 3543 1968.97Z" stroke="#000000" stroke-width="5.72917" stroke-miterlimit="8" fill="#D9D9D9" fill-rule="evenodd"/><path d="M3513 1698.43C3513 1693.77 3516.77 1690 3521.43 1690L3677.57 1690C3682.23 1690 3686 1693.77 3686 1698.43L3686 1961.57C3686 1966.23 3682.23 1970 3677.57 1970L3521.43 1970C3516.77 1970 3513 1966.23 3513 1961.57Z" stroke="#000000" stroke-width="5.72917" stroke-miterlimit="8" fill="#D9D9D9" fill-rule="evenodd"/><path d="M96.8148 0 15.1852 0C6.79863 0 0 6.80866 0 15.2076L0 85.6984C0 94.0974 6.79863 100.906 15.1852 100.906L25.615 100.906 25.615 113.467C25.615 117.075 28.5356 120 32.1382 120L79.8619 120C83.4644 120 86.3851 117.075 86.3851 113.467L86.3851 100.906 96.8148 100.906C105.201 100.906 112 94.0974 112 85.6984L112 15.2076C112 6.80866 105.201 0 96.8148 0Z" stroke="#000000" stroke-width="5.72917" stroke-linecap="round" stroke-linejoin="round" stroke-miterlimit="10" fill="#BFBFBF" fill-rule="evenodd" transform="matrix(-1 0 0 1 3654 1710)"/><path d="M0 6.63842C-1.33679e-15 2.97212 2.97212-1.33679e-15 6.63841-2.67358e-15L77.3615 0C81.0277-1.33679e-15 83.9999 2.97212 83.9999 6.63842L83.9999 65.3613C83.9999 69.0276 81.0277 71.9997 77.3615 71.9997L6.63841 71.9997C2.97212 71.9997 0 69.0276 0 65.3613Z" stroke="#000000" stroke-width="5.72917" stroke-miterlimit="8" fill="#FFFFFF" fill-rule="evenodd" transform="matrix(-1 0 0 1 3640 1725)"/><path d="M3591 1813C3591 1809.13 3594.36 1806 3598.5 1806 3602.64 1806 3606 1809.13 3606 1813 3606 1816.87 3602.64 1820 3598.5 1820 3594.36 1820 3591 1816.87 3591 1813Z" stroke="#000000" stroke-width="5.72917" stroke-miterlimit="8" fill="#595959" fill-rule="evenodd"/><path d="M3574 1746 3622.94 1746" stroke="#000000" stroke-width="5.72917" stroke-linecap="round" stroke-miterlimit="8" fill="none" fill-rule="evenodd"/><path d="M3574 1766 3607.62 1766" stroke="#000000" stroke-width="5.72917" stroke-linecap="round" stroke-miterlimit="8" fill="none" fill-rule="evenodd"/><path d="M3513 1845 3686.31 1845" stroke="#000000" stroke-width="5.72917" stroke-miterlimit="8" fill="none" fill-rule="evenodd"/><path d="M3628.5 1880C3628.5 1868.13 3638.13 1858.5 3650 1858.5 3661.87 1858.5 3671.5 1868.13 3671.5 1880 3671.5 1891.87 3661.87 1901.5 3650 1901.5 3638.13 1901.5 3628.5 1891.87 3628.5 1880Z" stroke="#000000" stroke-width="3.4375" stroke-miterlimit="8" fill="#F6B803" fill-rule="evenodd"/><path d="M3646.42 1887.44 3647.76 1887.85C3648.32 1887.96 3648.9 1888.02 3649.5 1888.02 3650.1 1888.02 3650.68 1887.96 3651.24 1887.85L3652.45 1887.48 3654.24 1892.15 3653.56 1892.39C3652.28 1892.79 3650.92 1893 3649.5 1893 3648.09 1893 3646.72 1892.79 3645.44 1892.39L3644.64 1892.1ZM3658.27 1869.05 3659.16 1869.84C3661.01 1871.69 3662.34 1874.05 3662.88 1876.7L3663 1877.47 3658.03 1878.27 3657.97 1877.71C3657.63 1876.03 3656.79 1874.53 3655.62 1873.36L3655.09 1872.93ZM3640.78 1869 3643.97 1872.89 3643.39 1873.36C3642.21 1874.53 3641.38 1876.03 3641.03 1877.71L3640.97 1878.29 3636 1877.49 3636.12 1876.7C3636.67 1874.05 3637.99 1871.69 3639.84 1869.84Z" stroke="#000000" stroke-width="5.72917" stroke-linecap="round" stroke-linejoin="round" stroke-miterlimit="10" fill-rule="evenodd"/><path d="M3648 1879.5C3648 1878.67 3648.67 1878 3649.5 1878 3650.33 1878 3651 1878.67 3651 1879.5 3651 1880.33 3650.33 1881 3649.5 1881 3648.67 1881 3648 1880.33 3648 1879.5Z" stroke="#000000" stroke-width="5.72917" stroke-linecap="round" stroke-linejoin="round" stroke-miterlimit="10" fill-rule="evenodd"/><path d="M3592 1942C3592 1937.58 3595.58 1934 3600 1934 3604.42 1934 3608 1937.58 3608 1942 3608 1946.42 3604.42 1950 3600 1950 3595.58 1950 3592 1946.42 3592 1942Z" stroke="#000000" stroke-width="5.72917" stroke-miterlimit="8" fill="#595959" fill-rule="evenodd"/><path d="M3773 1728.2C3773 1723.12 3777.12 1719 3782.2 1719L3952.8 1719C3957.88 1719 3962 1723.12 3962 1728.2L3962 1960.8C3962 1965.88 3957.88 1970 3952.8 1970L3782.2 1970C3777.12 1970 3773 1965.88 3773 1960.8Z" stroke="#000000" stroke-width="5.72917" stroke-miterlimit="8" fill="#D9D9D9" fill-rule="evenodd"/><path d="M3839.67 1914 3894.33 1914C3901.88 1914 3908 1920.1 3908 1927.62L3908 1970 3826 1970 3826 1927.62C3826 1920.1 3832.12 1914 3839.67 1914Z" stroke="#000000" stroke-width="5.72917" stroke-miterlimit="8" fill="#D9D9D9" fill-rule="evenodd"/><path d="M3859 1942C3859 1937.58 3862.58 1934 3867 1934 3871.42 1934 3875 1937.58 3875 1942 3875 1946.42 3871.42 1950 3867 1950 3862.58 1950 3859 1946.42 3859 1942Z" stroke="#000000" stroke-width="5.72917" stroke-miterlimit="8" fill="#595959" fill-rule="evenodd"/><path d="M3859 1835.5C3859 1830.81 3862.58 1827 3867 1827 3871.42 1827 3875 1830.81 3875 1835.5 3875 1840.19 3871.42 1844 3867 1844 3862.58 1844 3859 1840.19 3859 1835.5Z" stroke="#000000" stroke-width="5.72917" stroke-miterlimit="8" fill="#595959" fill-rule="evenodd"/><path d="M3819.17 1745 3915.83 1745C3923.66 1745 3930 1751.3 3930 1759.07L3930 1815.34C3930 1823.11 3923.66 1829.41 3915.83 1829.41L3901.6 1829.41 3900.34 1829.59C3898.33 1830.2 3896.69 1831.66 3895.85 1833.55L3895.41 1835.53 3895.41 1841.17C3895.41 1847.7 3890.07 1853 3883.49 1853L3851.51 1853C3844.93 1853 3839.59 1847.7 3839.59 1841.17L3839.59 1835.79 3839.09 1833.55C3838.35 1831.87 3836.97 1830.53 3835.26 1829.83L3833.12 1829.41 3819.17 1829.41C3811.34 1829.41 3805 1823.11 3805 1815.34L3805 1759.07C3805 1751.3 3811.34 1745 3819.17 1745Z" stroke="#000000" stroke-width="5.72917" stroke-linecap="round" stroke-linejoin="round" stroke-miterlimit="10" fill="#BFBFBF" fill-rule="evenodd"/><path d="M0 5.53196C-7.63879e-16 2.47674 2.47674 0 5.53196 0L90.4679 0C93.5232 -7.6388e-16 95.9999 2.47674 95.9999 5.53196L95.9999 54.4681C95.9999 57.5233 93.5232 60.0001 90.4679 60.0001L5.53196 60.0001C2.47674 60.0001 0 57.5233 0 54.4681Z" stroke="#000000" stroke-width="5.72917" stroke-miterlimit="8" fill="#FFFFFF" fill-rule="evenodd" transform="matrix(-1 0 0 1 3915 1757)"/><path d="M3836 1774 3876.69 1774" stroke="#000000" stroke-width="5.72917" stroke-linecap="round" stroke-miterlimit="8" fill="none" fill-rule="evenodd"/><path d="M3836 1790 3863.95 1790" stroke="#000000" stroke-width="5.72917" stroke-linecap="round" stroke-miterlimit="8" fill="none" fill-rule="evenodd"/><path d="M3859 1836.5C3859 1831.81 3862.58 1828 3867 1828 3871.42 1828 3875 1831.81 3875 1836.5 3875 1841.19 3871.42 1845 3867 1845 3862.58 1845 3859 1841.19 3859 1836.5Z" stroke="#000000" stroke-width="5.72917" stroke-miterlimit="8" fill="#595959" fill-rule="evenodd"/><path d="M3772 1867 3959.34 1867" stroke="#000000" stroke-width="5.72917" stroke-miterlimit="8" fill="none" fill-rule="evenodd"/></g></svg>