<svg width="155" height="91" xmlns="http://www.w3.org/2000/svg" xmlns:xlink="http://www.w3.org/1999/xlink" overflow="hidden"><g transform="translate(-261 -417)"><path d="M268.447 419 409.553 419C412.561 419 415 421.415 415 424.393L415 429.704 412.667 429.704C412.033 429.704 411.519 430.213 411.519 430.841L411.519 433.557C411.519 434.185 412.033 434.694 412.667 434.694L415 434.694 415 449.905 412.667 449.905C412.033 449.905 411.519 450.414 411.519 451.042L411.519 453.757C411.519 454.385 412.033 454.894 412.667 454.894L415 454.894 415 470.106 412.667 470.106C412.033 470.106 411.519 470.615 411.519 471.243L411.519 473.958C411.519 474.586 412.033 475.095 412.667 475.095L415 475.095 415 490.306 412.667 490.306C412.033 490.306 411.519 490.815 411.519 491.443L411.519 494.159C411.519 494.787 412.033 495.296 412.667 495.296L415 495.296 415 500.607C415 503.585 412.561 506 409.553 506L268.447 506C265.439 506 263 503.585 263 500.607L263 495.296 265.333 495.296C265.967 495.296 266.481 494.787 266.481 494.159L266.481 491.443C266.481 490.815 265.967 490.306 265.333 490.306L263 490.306 263 475.095 265.333 475.095C265.967 475.095 266.481 474.586 266.481 473.958L266.481 471.243C266.481 470.615 265.967 470.106 265.333 470.106L263 470.106 263 454.894 265.333 454.894C265.967 454.894 266.481 454.385 266.481 453.757L266.481 451.042C266.481 450.414 265.967 449.905 265.333 449.905L263 449.905 263 434.694 265.333 434.694C265.967 434.694 266.481 434.185 266.481 433.557L266.481 430.841C266.481 430.213 265.967 429.704 265.333 429.704L263 429.704 263 424.393C263 421.415 265.439 419 268.447 419Z" stroke="#000000" stroke-width="2" stroke-linecap="round" stroke-linejoin="round" stroke-miterlimit="10" fill="#D9D9D9" fill-rule="evenodd"/><path d="M271 433.014C271 432.454 271.454 432 272.014 432L280.986 432C281.546 432 282 432.454 282 433.014L282 492.986C282 493.546 281.546 494 280.986 494L272.014 494C271.454 494 271 493.546 271 492.986Z" stroke="#000000" stroke-width="2" stroke-miterlimit="8" fill="#7F7F7F" fill-rule="evenodd"/><path d="M396 432.922C396 432.413 396.413 432 396.922 432L405.078 432C405.587 432 406 432.413 406 432.922L406 493.078C406 493.587 405.587 494 405.078 494L396.922 494C396.413 494 396 493.587 396 493.078Z" stroke="#000000" stroke-width="2" stroke-miterlimit="8" fill="#7F7F7F" fill-rule="evenodd"/><path d="M290 437.5C290 434.462 292.462 432 295.5 432 298.538 432 301 434.462 301 437.5 301 440.538 298.538 443 295.5 443 292.462 443 290 440.538 290 437.5Z" stroke="#000000" stroke-width="2" stroke-miterlimit="8" fill="#F2F2F2" fill-rule="evenodd"/><path d="M293 437.5C293 436.119 294.119 435 295.5 435 296.881 435 298 436.119 298 437.5 298 438.881 296.881 440 295.5 440 294.119 440 293 438.881 293 437.5Z" stroke="#66BFE2" stroke-width="2" stroke-miterlimit="8" fill="none" fill-rule="evenodd"/><path d="M0 0 0.000104987 4.81018" stroke="#000000" stroke-width="2" stroke-linecap="round" stroke-miterlimit="8" fill="none" fill-rule="evenodd" transform="matrix(6.12323e-17 1 1 -6.12323e-17 374 487)"/><path d="M0 0 0.000104987 4.81018" stroke="#000000" stroke-width="2" stroke-linecap="round" stroke-miterlimit="8" fill="none" fill-rule="evenodd" transform="matrix(6.12323e-17 1 1 -6.12323e-17 363 487)"/><path d="M370.5 432C372.985 432 375 434.015 375 436.5L375 436.5C375 438.985 372.985 441 370.5 441L370.5 441C368.015 441 366 438.985 366 436.5L366 436.5C366 434.015 368.015 432 370.5 432Z" stroke="#000000" stroke-width="2" stroke-miterlimit="8" fill="#F2F2F2" fill-rule="evenodd"/><path d="M306 434.5C306 433.119 307.119 432 308.5 432 309.881 432 311 433.119 311 434.5 311 435.881 309.881 437 308.5 437 307.119 437 306 435.881 306 434.5Z" stroke="#000000" stroke-width="2" stroke-miterlimit="8" fill="#66BFE2" fill-rule="evenodd"/></g></svg>