<svg width="441" height="257" xmlns="http://www.w3.org/2000/svg" xmlns:xlink="http://www.w3.org/1999/xlink" xml:space="preserve" overflow="hidden"><g transform="translate(-821 -1004)"><path d="M839.588 1007 1243.41 1007C1252.02 1007 1259 1013.97 1259 1022.56L1259 1037.88 1252.32 1037.88C1250.51 1037.88 1249.04 1039.35 1249.04 1041.16L1249.04 1049C1249.04 1050.81 1250.51 1052.28 1252.32 1052.28L1259 1052.28 1259 1096.16 1252.32 1096.16C1250.51 1096.16 1249.04 1097.63 1249.04 1099.44L1249.04 1107.28C1249.04 1109.09 1250.51 1110.56 1252.32 1110.56L1259 1110.56 1259 1154.44 1252.32 1154.44C1250.51 1154.44 1249.04 1155.91 1249.04 1157.72L1249.04 1165.56C1249.04 1167.37 1250.51 1168.84 1252.32 1168.84L1259 1168.84 1259 1212.72 1252.32 1212.72C1250.51 1212.72 1249.04 1214.19 1249.04 1216L1249.04 1223.84C1249.04 1225.65 1250.51 1227.12 1252.32 1227.12L1259 1227.12 1259 1242.44C1259 1251.03 1252.02 1258 1243.41 1258L839.588 1258C830.979 1258 824 1251.03 824 1242.44L824 1227.12 830.676 1227.12C832.491 1227.12 833.963 1225.65 833.963 1223.84L833.963 1216C833.963 1214.19 832.491 1212.72 830.676 1212.72L824 1212.72 824 1168.84 830.676 1168.84C832.491 1168.84 833.963 1167.37 833.963 1165.56L833.963 1157.72C833.963 1155.91 832.491 1154.44 830.676 1154.44L824 1154.44 824 1110.56 830.676 1110.56C832.491 1110.56 833.963 1109.09 833.963 1107.28L833.963 1099.44C833.963 1097.63 832.491 1096.16 830.676 1096.16L824 1096.16 824 1052.28 830.676 1052.28C832.491 1052.28 833.963 1050.81 833.963 1049L833.963 1041.16C833.963 1039.35 832.491 1037.88 830.676 1037.88L824 1037.88 824 1022.56C824 1013.97 830.979 1007 839.588 1007Z" stroke="#000000" stroke-width="5.72917" stroke-linecap="round" stroke-linejoin="round" stroke-miterlimit="10" fill="#D9D9D9" fill-rule="evenodd"/><path d="M848 1046.77C848 1045.24 849.238 1044 850.766 1044L875.234 1044C876.762 1044 878 1045.24 878 1046.77L878 1219.23C878 1220.76 876.762 1222 875.234 1222L850.766 1222C849.238 1222 848 1220.76 848 1219.23Z" stroke="#000000" stroke-width="5.72917" stroke-miterlimit="8" fill="#7F7F7F" fill-rule="evenodd"/><path d="M1206 1046.67C1206 1045.2 1207.2 1044 1208.67 1044L1232.33 1044C1233.8 1044 1235 1045.2 1235 1046.67L1235 1219.33C1235 1220.8 1233.8 1222 1232.33 1222L1208.67 1222C1207.2 1222 1206 1220.8 1206 1219.33Z" stroke="#000000" stroke-width="5.72917" stroke-miterlimit="8" fill="#7F7F7F" fill-rule="evenodd"/><path d="M900 1061.5C900 1052.39 907.387 1045 916.5 1045 925.613 1045 933 1052.39 933 1061.5 933 1070.61 925.613 1078 916.5 1078 907.387 1078 900 1070.61 900 1061.5Z" stroke="#000000" stroke-width="5.72917" stroke-miterlimit="8" fill="#F2F2F2" fill-rule="evenodd"/><path d="M910 1061.5C910 1057.36 913.134 1054 917 1054 920.866 1054 924 1057.36 924 1061.5 924 1065.64 920.866 1069 917 1069 913.134 1069 910 1065.64 910 1061.5Z" stroke="#66BFE2" stroke-width="5.72917" stroke-miterlimit="8" fill="none" fill-rule="evenodd"/><path d="M0 0 0.000360892 13.798" stroke="#000000" stroke-width="5.72917" stroke-linecap="round" stroke-miterlimit="8" fill="none" fill-rule="evenodd" transform="matrix(6.12323e-17 1 1 -6.12323e-17 1142 1203)"/><path d="M0 0 0.000360892 13.798" stroke="#000000" stroke-width="5.72917" stroke-linecap="round" stroke-miterlimit="8" fill="none" fill-rule="evenodd" transform="matrix(6.12323e-17 1 1 -6.12323e-17 1110 1203)"/><path d="M948 1051C948 1047.13 951.134 1044 955 1044 958.866 1044 962 1047.13 962 1051 962 1054.87 958.866 1058 955 1058 951.134 1058 948 1054.87 948 1051Z" stroke="#000000" stroke-width="5.72917" stroke-miterlimit="8" fill="#66BFE2" fill-rule="evenodd"/><path d="M1109.62 1044 1156.26 1044C1157.77 1044 1159 1045.22 1159 1046.72L1159 1057.62C1159 1059.13 1157.77 1060.35 1156.26 1060.35L1140.72 1060.24C1139.15 1060.24 1137.88 1061.5 1137.88 1063.06 1137.82 1065.68 1137.76 1068.31 1137.7 1070.93L1137.7 1077.42C1137.7 1080.5 1135.19 1083 1132.09 1083L1109.62 1083C1106.52 1083 1104 1080.5 1104 1077.42L1104 1049.58C1104 1046.5 1106.52 1044 1109.62 1044Z" stroke="#000000" stroke-width="5.72917" stroke-miterlimit="8" fill="#7F7F7F" fill-rule="evenodd"/><path d="M1145 1075.5C1145 1070.81 1148.58 1067 1153 1067 1157.42 1067 1161 1070.81 1161 1075.5 1161 1080.19 1157.42 1084 1153 1084 1148.58 1084 1145 1080.19 1145 1075.5Z" stroke="#000000" stroke-width="5.72917" stroke-miterlimit="8" fill="#F6B803" fill-rule="evenodd"/></g></svg>