<svg width="231" height="134" xmlns="http://www.w3.org/2000/svg" xmlns:xlink="http://www.w3.org/1999/xlink" xml:space="preserve" overflow="hidden"><defs><clipPath id="clip0"><rect x="3229" y="565" width="231" height="134"/></clipPath></defs><g clip-path="url(#clip0)" transform="translate(-3229 -565)"><path d="M3238.67 566.5 3450.33 566.5C3454.84 566.5 3458.5 570.136 3458.5 574.621L3458.5 582.618 3455 582.618C3454.05 582.618 3453.28 583.385 3453.28 584.33L3453.28 588.419C3453.28 589.364 3454.05 590.131 3455 590.131L3458.5 590.131 3458.5 613.035 3455 613.035C3454.05 613.035 3453.28 613.802 3453.28 614.747L3453.28 618.836C3453.28 619.781 3454.05 620.548 3455 620.548L3458.5 620.548 3458.5 643.452 3455 643.452C3454.05 643.452 3453.28 644.219 3453.28 645.164L3453.28 649.253C3453.28 650.198 3454.05 650.965 3455 650.965L3458.5 650.965 3458.5 673.869 3455 673.869C3454.05 673.869 3453.28 674.636 3453.28 675.581L3453.28 679.67C3453.28 680.615 3454.05 681.382 3455 681.382L3458.5 681.382 3458.5 689.379C3458.5 693.864 3454.84 697.5 3450.33 697.5L3238.67 697.5C3234.16 697.5 3230.5 693.864 3230.5 689.379L3230.5 681.382 3234 681.382C3234.95 681.382 3235.72 680.615 3235.72 679.67L3235.72 675.581C3235.72 674.636 3234.95 673.869 3234 673.869L3230.5 673.869 3230.5 650.965 3234 650.965C3234.95 650.965 3235.72 650.198 3235.72 649.253L3235.72 645.164C3235.72 644.219 3234.95 643.452 3234 643.452L3230.5 643.452 3230.5 620.548 3234 620.548C3234.95 620.548 3235.72 619.781 3235.72 618.836L3235.72 614.747C3235.72 613.802 3234.95 613.035 3234 613.035L3230.5 613.035 3230.5 590.131 3234 590.131C3234.95 590.131 3235.72 589.364 3235.72 588.419L3235.72 584.33C3235.72 583.385 3234.95 582.618 3234 582.618L3230.5 582.618 3230.5 574.621C3230.5 570.136 3234.16 566.5 3238.67 566.5Z" stroke="#000000" stroke-width="3" stroke-linecap="round" stroke-linejoin="round" stroke-miterlimit="10" fill="#D9D9D9" fill-rule="evenodd"/><path d="M3243.5 586.883C3243.5 586.119 3244.12 585.5 3244.88 585.5L3257.12 585.5C3257.88 585.5 3258.5 586.119 3258.5 586.883L3258.5 677.117C3258.5 677.881 3257.88 678.5 3257.12 678.5L3244.88 678.5C3244.12 678.5 3243.5 677.881 3243.5 677.117Z" stroke="#000000" stroke-width="3" stroke-miterlimit="8" fill="#7F7F7F" fill-rule="evenodd"/><path d="M3430.5 586.883C3430.5 586.119 3431.12 585.5 3431.88 585.5L3444.12 585.5C3444.88 585.5 3445.5 586.119 3445.5 586.883L3445.5 677.117C3445.5 677.881 3444.88 678.5 3444.12 678.5L3431.88 678.5C3431.12 678.5 3430.5 677.881 3430.5 677.117Z" stroke="#000000" stroke-width="3" stroke-miterlimit="8" fill="#7F7F7F" fill-rule="evenodd"/><path d="M3270.5 595C3270.5 590.306 3274.31 586.5 3279 586.5 3283.69 586.5 3287.5 590.306 3287.5 595 3287.5 599.694 3283.69 603.5 3279 603.5 3274.31 603.5 3270.5 599.694 3270.5 595Z" stroke="#000000" stroke-width="3" stroke-miterlimit="8" fill="#F2F2F2" fill-rule="evenodd"/><path d="M3275.5 595C3275.5 593.067 3277.29 591.5 3279.5 591.5 3281.71 591.5 3283.5 593.067 3283.5 595 3283.5 596.933 3281.71 598.5 3279.5 598.5 3277.29 598.5 3275.5 596.933 3275.5 595Z" stroke="#66BFE2" stroke-width="3" stroke-miterlimit="8" fill="none" fill-rule="evenodd"/><path d="M0 0 0.00015748 7.21528" stroke="#000000" stroke-width="3" stroke-linecap="round" stroke-miterlimit="8" fill="none" fill-rule="evenodd" transform="matrix(6.12323e-17 1 1 -6.12323e-17 3397.5 668.5)"/><path d="M0 0 0.00015748 7.21528" stroke="#000000" stroke-width="3" stroke-linecap="round" stroke-miterlimit="8" fill="none" fill-rule="evenodd" transform="matrix(6.12323e-17 1 1 -6.12323e-17 3380.5 668.5)"/><path d="M3392 591.5C3393.93 591.5 3395.5 593.067 3395.5 595L3395.5 595C3395.5 596.933 3393.93 598.5 3392 598.5L3392 598.5C3390.07 598.5 3388.5 596.933 3388.5 595L3388.5 595C3388.5 593.067 3390.07 591.5 3392 591.5Z" stroke="#000000" stroke-width="3" stroke-miterlimit="8" fill="#F2F2F2" fill-rule="evenodd"/><path d="M3295.5 589.5C3295.5 587.291 3297.07 585.5 3299 585.5 3300.93 585.5 3302.5 587.291 3302.5 589.5 3302.5 591.709 3300.93 593.5 3299 593.5 3297.07 593.5 3295.5 591.709 3295.5 589.5Z" stroke="#000000" stroke-width="3" stroke-miterlimit="8" fill="#66BFE2" fill-rule="evenodd"/></g></svg>