<svg width="257" height="267" xmlns="http://www.w3.org/2000/svg" xmlns:xlink="http://www.w3.org/1999/xlink" xml:space="preserve" overflow="hidden"><g transform="translate(-481 -996)"><path d="M520.809 1218C522.571 1218 524 1219.43 524 1221.19L524 1256.81C524 1258.57 522.571 1260 520.809 1260L513.191 1260C511.429 1260 510 1258.57 510 1256.81L510 1221.19C510 1219.43 511.429 1218 513.191 1218Z" stroke="#000000" stroke-width="5.72917" stroke-miterlimit="8" fill="#7F7F7F" fill-rule="evenodd"/><path d="M705.81 1218C707.572 1218 709 1219.43 709 1221.19L709 1256.81C709 1258.57 707.572 1260 705.81 1260L698.191 1260C696.429 1260 695 1258.57 695 1256.81L695 1221.19C695 1219.43 696.429 1218 698.191 1218Z" stroke="#000000" stroke-width="5.72917" stroke-miterlimit="8" fill="#7F7F7F" fill-rule="evenodd"/><path d="M484 1016.63C484 1006.89 491.893 999 501.63 999L717.37 999C727.107 999 735 1006.89 735 1016.63L735 1232.37C735 1242.11 727.107 1250 717.37 1250L501.63 1250C491.893 1250 484 1242.11 484 1232.37Z" stroke="#000000" stroke-width="5.72917" stroke-linecap="round" stroke-linejoin="round" stroke-miterlimit="10" fill="#D9D9D9" fill-rule="evenodd"/><path d="M527 1031C527 1027.13 530.134 1024 534 1024 537.866 1024 541 1027.13 541 1031 541 1034.87 537.866 1038 534 1038 530.134 1038 527 1034.87 527 1031Z" stroke="#000000" stroke-width="5.72917" stroke-miterlimit="8" fill="#65CBA4" fill-rule="evenodd"/><path d="M548 1031C548 1027.13 551.134 1024 555 1024 558.866 1024 562 1027.13 562 1031 562 1034.87 558.866 1038 555 1038 551.134 1038 548 1034.87 548 1031Z" stroke="#000000" stroke-width="5.72917" stroke-miterlimit="8" fill="#FFFFFF" fill-rule="evenodd"/><path d="M569 1031C569 1027.13 572.134 1024 576 1024 579.866 1024 583 1027.13 583 1031 583 1034.87 579.866 1038 576 1038 572.134 1038 569 1034.87 569 1031Z" stroke="#000000" stroke-width="5.72917" stroke-miterlimit="8" fill="#FFFFFF" fill-rule="evenodd"/><path d="M503 1026.33C503 1025.04 504.045 1024 505.333 1024L514.667 1024C515.955 1024 517 1025.04 517 1026.33L517 1049.67C517 1050.96 515.955 1052 514.667 1052L505.333 1052C504.045 1052 503 1050.96 503 1049.67Z" stroke="#000000" stroke-width="5.72917" stroke-miterlimit="8" fill="#F2F2F2" fill-rule="evenodd"/><path d="M559.5 1083.5 565.5 1087.08 565.5 1093.92 559.5 1097.5 553.5 1093.92 553.5 1087.08Z" stroke="#000000" stroke-width="3.4375" stroke-linecap="round" stroke-linejoin="round" stroke-miterlimit="10" fill="#FFFFFF" fill-rule="evenodd"/><path d="M577.5 1083.5 583.5 1087.08 583.5 1093.92 577.5 1097.5 571.5 1093.92 571.5 1087.08Z" stroke="#000000" stroke-width="3.4375" stroke-linecap="round" stroke-linejoin="round" stroke-miterlimit="10" fill="#FFFFFF" fill-rule="evenodd"/><path d="M596.5 1083.5 602.5 1087.08 602.5 1093.92 596.5 1097.5 590.5 1093.92 590.5 1087.08Z" stroke="#000000" stroke-width="3.4375" stroke-linecap="round" stroke-linejoin="round" stroke-miterlimit="10" fill="#FFFFFF" fill-rule="evenodd"/><path d="M568.5 1100.5 574.5 1104.08 574.5 1110.92 568.5 1114.5 562.5 1110.92 562.5 1104.08Z" stroke="#000000" stroke-width="3.4375" stroke-linecap="round" stroke-linejoin="round" stroke-miterlimit="10" fill="#FFFFFF" fill-rule="evenodd"/><path d="M587.5 1100.5 593.5 1104.08 593.5 1110.92 587.5 1114.5 581.5 1110.92 581.5 1104.08Z" stroke="#000000" stroke-width="3.4375" stroke-linecap="round" stroke-linejoin="round" stroke-miterlimit="10" fill="#FFFFFF" fill-rule="evenodd"/><path d="M568.5 1067.5 574.5 1071.08 574.5 1077.92 568.5 1081.5 562.5 1077.92 562.5 1071.08Z" stroke="#000000" stroke-width="3.4375" stroke-linecap="round" stroke-linejoin="round" stroke-miterlimit="10" fill="#FFFFFF" fill-rule="evenodd"/><path d="M587.5 1067.5 593.5 1071.08 593.5 1077.92 587.5 1081.5 581.5 1077.92 581.5 1071.08Z" stroke="#000000" stroke-width="3.4375" stroke-linecap="round" stroke-linejoin="round" stroke-miterlimit="10" fill="#FFFFFF" fill-rule="evenodd"/><path d="M625.5 1083.5 631.5 1087.08 631.5 1093.92 625.5 1097.5 619.5 1093.92 619.5 1087.08Z" stroke="#000000" stroke-width="3.4375" stroke-linecap="round" stroke-linejoin="round" stroke-miterlimit="10" fill="#FFFFFF" fill-rule="evenodd"/><path d="M643.5 1083.5 649.5 1087.08 649.5 1093.92 643.5 1097.5 637.5 1093.92 637.5 1087.08Z" stroke="#000000" stroke-width="3.4375" stroke-linecap="round" stroke-linejoin="round" stroke-miterlimit="10" fill="#FFFFFF" fill-rule="evenodd"/><path d="M661.5 1083.5 667.5 1087.08 667.5 1093.92 661.5 1097.5 655.5 1093.92 655.5 1087.08Z" stroke="#000000" stroke-width="3.4375" stroke-linecap="round" stroke-linejoin="round" stroke-miterlimit="10" fill="#FFFFFF" fill-rule="evenodd"/><path d="M634.5 1100.5 640.5 1104.08 640.5 1110.92 634.5 1114.5 628.5 1110.92 628.5 1104.08Z" stroke="#000000" stroke-width="3.4375" stroke-linecap="round" stroke-linejoin="round" stroke-miterlimit="10" fill="#FFFFFF" fill-rule="evenodd"/><path d="M652.5 1100.5 658.5 1104.08 658.5 1110.92 652.5 1114.5 646.5 1110.92 646.5 1104.08Z" stroke="#000000" stroke-width="3.4375" stroke-linecap="round" stroke-linejoin="round" stroke-miterlimit="10" fill="#FFFFFF" fill-rule="evenodd"/><path d="M634.5 1067.5 640.5 1071.08 640.5 1077.92 634.5 1081.5 628.5 1077.92 628.5 1071.08Z" stroke="#000000" stroke-width="3.4375" stroke-linecap="round" stroke-linejoin="round" stroke-miterlimit="10" fill="#FFFFFF" fill-rule="evenodd"/><path d="M652.5 1067.5 658.5 1071.08 658.5 1077.92 652.5 1081.5 646.5 1077.92 646.5 1071.08Z" stroke="#000000" stroke-width="3.4375" stroke-linecap="round" stroke-linejoin="round" stroke-miterlimit="10" fill="#FFFFFF" fill-rule="evenodd"/><path d="M684 1027.32C684 1025.49 685.486 1024 687.319 1024L716.681 1024C718.514 1024 720 1025.49 720 1027.32L720 1217.68C720 1219.51 718.514 1221 716.681 1221L687.319 1221C685.486 1221 684 1219.51 684 1217.68Z" stroke="#000000" stroke-width="5.72917" stroke-miterlimit="8" fill="#F2F2F2" fill-rule="evenodd"/><path d="M0 0 0.000360892 13.798" stroke="#000000" stroke-width="5.72917" stroke-linecap="round" stroke-miterlimit="8" fill="none" fill-rule="evenodd" transform="matrix(1 0 0 -1 696 1206.8)"/><path d="M0 0 0.000360892 13.798" stroke="#000000" stroke-width="5.72917" stroke-linecap="round" stroke-miterlimit="8" fill="none" fill-rule="evenodd" transform="matrix(1 0 0 -1 707 1206.8)"/><path d="M0 0 0.000360892 13.798" stroke="#000000" stroke-width="5.72917" stroke-linecap="round" stroke-miterlimit="8" fill="none" fill-rule="evenodd" transform="matrix(1 0 0 -1 696 1181.8)"/><path d="M0 0 0.000360892 13.798" stroke="#000000" stroke-width="5.72917" stroke-linecap="round" stroke-miterlimit="8" fill="none" fill-rule="evenodd" transform="matrix(1 0 0 -1 707 1181.8)"/><path d="M695 1077.33C695 1076.04 696.045 1075 697.333 1075L706.667 1075C707.955 1075 709 1076.04 709 1077.33L709 1086.67C709 1087.96 707.955 1089 706.667 1089L697.333 1089C696.045 1089 695 1087.96 695 1086.67Z" stroke="#000000" stroke-width="5.72917" stroke-miterlimit="8" fill="#F2F2F2" fill-rule="evenodd"/><path d="M695 1103.33C695 1102.04 696.045 1101 697.333 1101L706.667 1101C707.955 1101 709 1102.04 709 1103.33L709 1112.67C709 1113.96 707.955 1115 706.667 1115L697.333 1115C696.045 1115 695 1113.96 695 1112.67Z" stroke="#000000" stroke-width="5.72917" stroke-miterlimit="8" fill="#F2F2F2" fill-rule="evenodd"/><path d="M695 1056C695 1052.13 698.134 1049 702 1049 705.866 1049 709 1052.13 709 1056 709 1059.87 705.866 1063 702 1063 698.134 1063 695 1059.87 695 1056Z" stroke="#000000" stroke-width="5.72917" stroke-miterlimit="8" fill="#65CBA4" fill-rule="evenodd"/><path d="M695 1127 709 1131.96 709 1150.04 695 1155Z" stroke="#000000" stroke-width="5.72917" stroke-linecap="round" stroke-linejoin="round" stroke-miterlimit="10" fill="#F2F2F2" fill-rule="evenodd"/><path d="M610 1022C617.18 1022 623 1027.82 623 1035L623 1035C623 1042.18 617.18 1048 610 1048L609 1048C601.82 1048 596 1042.18 596 1035L596 1035C596 1027.82 601.82 1022 609 1022Z" stroke="#000000" stroke-width="5.72917" stroke-miterlimit="8" fill="#F2F2F2" fill-rule="evenodd"/><path d="M515 1208C522.18 1208 528 1213.82 528 1221L528 1221C528 1228.18 522.18 1234 515 1234L515 1234C507.82 1234 502 1228.18 502 1221L502 1221C502 1213.82 507.82 1208 515 1208Z" stroke="#000000" stroke-width="5.72917" stroke-miterlimit="8" fill="#F2F2F2" fill-rule="evenodd"/><path d="M611 1173.67C611 1172.19 612.194 1171 613.667 1171L639.333 1171C640.806 1171 642 1172.19 642 1173.67L642 1184.33C642 1185.81 640.806 1187 639.333 1187L613.667 1187C612.194 1187 611 1185.81 611 1184.33Z" stroke="#000000" stroke-width="5.72917" stroke-miterlimit="8" fill="#C21C23" fill-rule="evenodd"/><path d="M0 0 79.3617 0.000360892" stroke="#000000" stroke-width="5.72917" stroke-linecap="round" stroke-miterlimit="8" fill="none" fill-rule="evenodd" transform="matrix(-1 0 0 1 643.362 1200)"/><path d="M570.231 1144 621.956 1144C623.637 1144 625 1145.35 625 1147L625 1159.02C625 1160.68 623.637 1162.02 621.956 1162.02L604.73 1161.9C602.987 1161.9 601.573 1163.3 601.573 1165.02 601.509 1167.91 601.445 1170.8 601.381 1173.69L601.381 1180.85C601.381 1184.25 598.592 1187 595.151 1187L570.231 1187C566.79 1187 564 1184.25 564 1180.85L564 1150.15C564 1146.75 566.79 1144 570.231 1144Z" stroke="#000000" stroke-width="5.72917" stroke-miterlimit="8" fill="#595959" fill-rule="evenodd"/></g></svg>