<svg width="135" height="139" xmlns="http://www.w3.org/2000/svg" xmlns:xlink="http://www.w3.org/1999/xlink" xml:space="preserve" overflow="hidden"><defs><clipPath id="clip0"><rect x="3506" y="564" width="135" height="139"/></clipPath></defs><g clip-path="url(#clip0)" transform="translate(-3506 -564)"><path d="M3526.9 679.5C3527.79 679.5 3528.5 680.214 3528.5 681.095L3528.5 699.905C3528.5 700.786 3527.79 701.5 3526.9 701.5L3523.1 701.5C3522.21 701.5 3521.5 700.786 3521.5 699.905L3521.5 681.095C3521.5 680.214 3522.21 679.5 3523.1 679.5Z" stroke="#000000" stroke-width="3" stroke-miterlimit="8" fill="#7F7F7F" fill-rule="evenodd"/><path d="M3623.9 679.5C3624.79 679.5 3625.5 680.214 3625.5 681.095L3625.5 699.905C3625.5 700.786 3624.79 701.5 3623.9 701.5L3620.1 701.5C3619.21 701.5 3618.5 700.786 3618.5 699.905L3618.5 681.095C3618.5 680.214 3619.21 679.5 3620.1 679.5Z" stroke="#000000" stroke-width="3" stroke-miterlimit="8" fill="#7F7F7F" fill-rule="evenodd"/><path d="M3507.5 574.701C3507.5 569.62 3511.62 565.5 3516.7 565.5L3630.3 565.5C3635.38 565.5 3639.5 569.62 3639.5 574.701L3639.5 687.299C3639.5 692.38 3635.38 696.5 3630.3 696.5L3516.7 696.5C3511.62 696.5 3507.5 692.38 3507.5 687.299Z" stroke="#000000" stroke-width="3" stroke-linecap="round" stroke-linejoin="round" stroke-miterlimit="10" fill="#D9D9D9" fill-rule="evenodd"/><path d="M3530.5 582C3530.5 580.067 3532.07 578.5 3534 578.5 3535.93 578.5 3537.5 580.067 3537.5 582 3537.5 583.933 3535.93 585.5 3534 585.5 3532.07 585.5 3530.5 583.933 3530.5 582Z" stroke="#000000" stroke-width="3" stroke-miterlimit="8" fill="#65CBA4" fill-rule="evenodd"/><path d="M3541.5 582C3541.5 580.067 3543.07 578.5 3545 578.5 3546.93 578.5 3548.5 580.067 3548.5 582 3548.5 583.933 3546.93 585.5 3545 585.5 3543.07 585.5 3541.5 583.933 3541.5 582Z" stroke="#000000" stroke-width="3" stroke-miterlimit="8" fill="#FFFFFF" fill-rule="evenodd"/><path d="M3552.5 582C3552.5 580.067 3554.07 578.5 3556 578.5 3557.93 578.5 3559.5 580.067 3559.5 582 3559.5 583.933 3557.93 585.5 3556 585.5 3554.07 585.5 3552.5 583.933 3552.5 582Z" stroke="#000000" stroke-width="3" stroke-miterlimit="8" fill="#FFFFFF" fill-rule="evenodd"/><path d="M3518.5 579.667C3518.5 579.022 3519.02 578.5 3519.67 578.5L3524.33 578.5C3524.98 578.5 3525.5 579.022 3525.5 579.667L3525.5 592.333C3525.5 592.978 3524.98 593.5 3524.33 593.5L3519.67 593.5C3519.02 593.5 3518.5 592.978 3518.5 592.333Z" stroke="#000000" stroke-width="3" stroke-miterlimit="8" fill="#F2F2F2" fill-rule="evenodd"/><path d="M3547 609 3550 610.79 3550 614.21 3547 616 3544 614.21 3544 610.79Z" stroke="#000000" stroke-width="2" stroke-linecap="round" stroke-linejoin="round" stroke-miterlimit="10" fill="#FFFFFF" fill-rule="evenodd"/><path d="M3556 609 3559 610.79 3559 614.21 3556 616 3553 614.21 3553 610.79Z" stroke="#000000" stroke-width="2" stroke-linecap="round" stroke-linejoin="round" stroke-miterlimit="10" fill="#FFFFFF" fill-rule="evenodd"/><path d="M3566 609 3569 610.79 3569 614.21 3566 616 3563 614.21 3563 610.79Z" stroke="#000000" stroke-width="2" stroke-linecap="round" stroke-linejoin="round" stroke-miterlimit="10" fill="#FFFFFF" fill-rule="evenodd"/><path d="M3551.5 617 3555 619.088 3555 622.912 3551.5 625 3548 622.912 3548 619.088Z" stroke="#000000" stroke-width="2" stroke-linecap="round" stroke-linejoin="round" stroke-miterlimit="10" fill="#FFFFFF" fill-rule="evenodd"/><path d="M3561 617 3564 618.79 3564 623.21 3561 625 3558 623.21 3558 618.79Z" stroke="#000000" stroke-width="2" stroke-linecap="round" stroke-linejoin="round" stroke-miterlimit="10" fill="#FFFFFF" fill-rule="evenodd"/><path d="M3551.5 600 3555 602.088 3555 605.912 3551.5 608 3548 605.912 3548 602.088Z" stroke="#000000" stroke-width="2" stroke-linecap="round" stroke-linejoin="round" stroke-miterlimit="10" fill="#FFFFFF" fill-rule="evenodd"/><path d="M3561 600 3564 601.79 3564 606.21 3561 608 3558 606.21 3558 601.79Z" stroke="#000000" stroke-width="2" stroke-linecap="round" stroke-linejoin="round" stroke-miterlimit="10" fill="#FFFFFF" fill-rule="evenodd"/><path d="M3581 609 3584 610.79 3584 614.21 3581 616 3578 614.21 3578 610.79Z" stroke="#000000" stroke-width="2" stroke-linecap="round" stroke-linejoin="round" stroke-miterlimit="10" fill="#FFFFFF" fill-rule="evenodd"/><path d="M3590.5 609 3594 611.088 3594 613.912 3590.5 616 3587 613.912 3587 611.088Z" stroke="#000000" stroke-width="2" stroke-linecap="round" stroke-linejoin="round" stroke-miterlimit="10" fill="#FFFFFF" fill-rule="evenodd"/><path d="M3600 609 3603 610.79 3603 614.21 3600 616 3597 614.21 3597 610.79Z" stroke="#000000" stroke-width="2" stroke-linecap="round" stroke-linejoin="round" stroke-miterlimit="10" fill="#FFFFFF" fill-rule="evenodd"/><path d="M3586 617 3589 618.79 3589 623.21 3586 625 3583 623.21 3583 618.79Z" stroke="#000000" stroke-width="2" stroke-linecap="round" stroke-linejoin="round" stroke-miterlimit="10" fill="#FFFFFF" fill-rule="evenodd"/><path d="M3595 617 3598 618.79 3598 623.21 3595 625 3592 623.21 3592 618.79Z" stroke="#000000" stroke-width="2" stroke-linecap="round" stroke-linejoin="round" stroke-miterlimit="10" fill="#FFFFFF" fill-rule="evenodd"/><path d="M3586 600 3589 601.79 3589 606.21 3586 608 3583 606.21 3583 601.79Z" stroke="#000000" stroke-width="2" stroke-linecap="round" stroke-linejoin="round" stroke-miterlimit="10" fill="#FFFFFF" fill-rule="evenodd"/><path d="M3595 600 3598 601.79 3598 606.21 3595 608 3592 606.21 3592 601.79Z" stroke="#000000" stroke-width="2" stroke-linecap="round" stroke-linejoin="round" stroke-miterlimit="10" fill="#FFFFFF" fill-rule="evenodd"/><path d="M3612.5 580.252C3612.5 579.284 3613.28 578.5 3614.25 578.5L3629.75 578.5C3630.72 578.5 3631.5 579.284 3631.5 580.252L3631.5 679.748C3631.5 680.716 3630.72 681.5 3629.75 681.5L3614.25 681.5C3613.28 681.5 3612.5 680.716 3612.5 679.748Z" stroke="#000000" stroke-width="3" stroke-miterlimit="8" fill="#F2F2F2" fill-rule="evenodd"/><path d="M0 0 0.00015748 7.21528" stroke="#000000" stroke-width="3" stroke-linecap="round" stroke-miterlimit="8" fill="none" fill-rule="evenodd" transform="matrix(1 0 0 -1 3618.5 674.715)"/><path d="M0 0 0.00015748 7.21528" stroke="#000000" stroke-width="3" stroke-linecap="round" stroke-miterlimit="8" fill="none" fill-rule="evenodd" transform="matrix(1 0 0 -1 3624.5 674.715)"/><path d="M0 0 0.00015748 7.21528" stroke="#000000" stroke-width="3" stroke-linecap="round" stroke-miterlimit="8" fill="none" fill-rule="evenodd" transform="matrix(1 0 0 -1 3618.5 660.715)"/><path d="M0 0 0.00015748 7.21528" stroke="#000000" stroke-width="3" stroke-linecap="round" stroke-miterlimit="8" fill="none" fill-rule="evenodd" transform="matrix(1 0 0 -1 3624.5 660.715)"/><path d="M3618.5 606.667C3618.5 606.022 3619.02 605.5 3619.67 605.5L3624.33 605.5C3624.98 605.5 3625.5 606.022 3625.5 606.667L3625.5 611.333C3625.5 611.978 3624.98 612.5 3624.33 612.5L3619.67 612.5C3619.02 612.5 3618.5 611.978 3618.5 611.333Z" stroke="#000000" stroke-width="3" stroke-miterlimit="8" fill="#F2F2F2" fill-rule="evenodd"/><path d="M3618.5 619.667C3618.5 619.022 3619.02 618.5 3619.67 618.5L3624.33 618.5C3624.98 618.5 3625.5 619.022 3625.5 619.667L3625.5 624.333C3625.5 624.978 3624.98 625.5 3624.33 625.5L3619.67 625.5C3619.02 625.5 3618.5 624.978 3618.5 624.333Z" stroke="#000000" stroke-width="3" stroke-miterlimit="8" fill="#F2F2F2" fill-rule="evenodd"/><path d="M3618.5 595C3618.5 593.067 3620.07 591.5 3622 591.5 3623.93 591.5 3625.5 593.067 3625.5 595 3625.5 596.933 3623.93 598.5 3622 598.5 3620.07 598.5 3618.5 596.933 3618.5 595Z" stroke="#000000" stroke-width="3" stroke-miterlimit="8" fill="#65CBA4" fill-rule="evenodd"/><path d="M3618.5 632.5 3625.5 634.979 3625.5 645.021 3618.5 647.5Z" stroke="#000000" stroke-width="3" stroke-linecap="round" stroke-linejoin="round" stroke-miterlimit="10" fill="#F2F2F2" fill-rule="evenodd"/><path d="M3573.5 577.5C3577.37 577.5 3580.5 580.634 3580.5 584.5L3580.5 584.5C3580.5 588.366 3577.37 591.5 3573.5 591.5L3573.5 591.5C3569.63 591.5 3566.5 588.366 3566.5 584.5L3566.5 584.5C3566.5 580.634 3569.63 577.5 3573.5 577.5Z" stroke="#000000" stroke-width="3" stroke-miterlimit="8" fill="#F2F2F2" fill-rule="evenodd"/><path d="M3524.5 674.5C3528.37 674.5 3531.5 677.634 3531.5 681.5L3531.5 681.5C3531.5 685.366 3528.37 688.5 3524.5 688.5L3524.5 688.5C3520.63 688.5 3517.5 685.366 3517.5 681.5L3517.5 681.5C3517.5 677.634 3520.63 674.5 3524.5 674.5Z" stroke="#000000" stroke-width="3" stroke-miterlimit="8" fill="#F2F2F2" fill-rule="evenodd"/></g></svg>