<svg width="91" height="95" xmlns="http://www.w3.org/2000/svg" xmlns:xlink="http://www.w3.org/1999/xlink" overflow="hidden"><g transform="translate(-120 -414)"><path d="M134.861 492C135.49 492 136 492.51 136 493.139L136 505.861C136 506.49 135.49 507 134.861 507L132.139 507C131.51 507 131 506.49 131 505.861L131 493.139C131 492.51 131.51 492 132.139 492Z" stroke="#000000" stroke-width="2" stroke-miterlimit="8" fill="#7F7F7F" fill-rule="evenodd"/><path d="M198.861 492C199.49 492 200 492.51 200 493.139L200 505.861C200 506.49 199.49 507 198.861 507L196.139 507C195.51 507 195 506.49 195 505.861L195 493.139C195 492.51 195.51 492 196.139 492Z" stroke="#000000" stroke-width="2" stroke-miterlimit="8" fill="#7F7F7F" fill-rule="evenodd"/><path d="M121 422.181C121 418.767 123.767 416 127.181 416L202.819 416C206.233 416 209 418.767 209 422.181L209 497.819C209 501.233 206.233 504 202.819 504L127.181 504C123.767 504 121 501.233 121 497.819Z" stroke="#000000" stroke-width="2" stroke-linecap="round" stroke-linejoin="round" stroke-miterlimit="10" fill="#D9D9D9" fill-rule="evenodd"/><path d="M136 427.5C136 426.119 137.119 425 138.5 425 139.881 425 141 426.119 141 427.5 141 428.881 139.881 430 138.5 430 137.119 430 136 428.881 136 427.5Z" stroke="#000000" stroke-width="2" stroke-miterlimit="8" fill="#65CBA4" fill-rule="evenodd"/><path d="M144 427.5C144 426.119 145.119 425 146.5 425 147.881 425 149 426.119 149 427.5 149 428.881 147.881 430 146.5 430 145.119 430 144 428.881 144 427.5Z" stroke="#000000" stroke-width="2" stroke-miterlimit="8" fill="#FFFFFF" fill-rule="evenodd"/><path d="M151 427.5C151 426.119 152.119 425 153.5 425 154.881 425 156 426.119 156 427.5 156 428.881 154.881 430 153.5 430 152.119 430 151 428.881 151 427.5Z" stroke="#000000" stroke-width="2" stroke-miterlimit="8" fill="#FFFFFF" fill-rule="evenodd"/><path d="M128 425.833C128 425.373 128.373 425 128.833 425L132.167 425C132.627 425 133 425.373 133 425.833L133 434.167C133 434.627 132.627 435 132.167 435L128.833 435C128.373 435 128 434.627 128 434.167Z" stroke="#000000" stroke-width="2" stroke-miterlimit="8" fill="#F2F2F2" fill-rule="evenodd"/><path d="M148.5 445.5 150.5 446.693 150.5 449.307 148.5 450.5 146.5 449.307 146.5 446.693Z" stroke="#000000" stroke-width="1.33333" stroke-linecap="round" stroke-linejoin="round" stroke-miterlimit="10" fill="#FFFFFF" fill-rule="evenodd"/><path d="M154.5 445.5 156.5 446.693 156.5 449.307 154.5 450.5 152.5 449.307 152.5 446.693Z" stroke="#000000" stroke-width="1.33333" stroke-linecap="round" stroke-linejoin="round" stroke-miterlimit="10" fill="#FFFFFF" fill-rule="evenodd"/><path d="M161 445.5 163.5 446.992 163.5 449.008 161 450.5 158.5 449.008 158.5 446.992Z" stroke="#000000" stroke-width="1.33333" stroke-linecap="round" stroke-linejoin="round" stroke-miterlimit="10" fill="#FFFFFF" fill-rule="evenodd"/><path d="M151.5 451.5 153.5 452.693 153.5 455.307 151.5 456.5 149.5 455.307 149.5 452.693Z" stroke="#000000" stroke-width="1.33333" stroke-linecap="round" stroke-linejoin="round" stroke-miterlimit="10" fill="#FFFFFF" fill-rule="evenodd"/><path d="M157.5 451.5 159.5 452.693 159.5 455.307 157.5 456.5 155.5 455.307 155.5 452.693Z" stroke="#000000" stroke-width="1.33333" stroke-linecap="round" stroke-linejoin="round" stroke-miterlimit="10" fill="#FFFFFF" fill-rule="evenodd"/><path d="M151.5 440.5 153.5 441.693 153.5 444.307 151.5 445.5 149.5 444.307 149.5 441.693Z" stroke="#000000" stroke-width="1.33333" stroke-linecap="round" stroke-linejoin="round" stroke-miterlimit="10" fill="#FFFFFF" fill-rule="evenodd"/><path d="M157.5 440.5 159.5 441.693 159.5 444.307 157.5 445.5 155.5 444.307 155.5 441.693Z" stroke="#000000" stroke-width="1.33333" stroke-linecap="round" stroke-linejoin="round" stroke-miterlimit="10" fill="#FFFFFF" fill-rule="evenodd"/><path d="M171 445.5 173.5 446.992 173.5 449.008 171 450.5 168.5 449.008 168.5 446.992Z" stroke="#000000" stroke-width="1.33333" stroke-linecap="round" stroke-linejoin="round" stroke-miterlimit="10" fill="#FFFFFF" fill-rule="evenodd"/><path d="M177.5 445.5 179.5 446.693 179.5 449.307 177.5 450.5 175.5 449.307 175.5 446.693Z" stroke="#000000" stroke-width="1.33333" stroke-linecap="round" stroke-linejoin="round" stroke-miterlimit="10" fill="#FFFFFF" fill-rule="evenodd"/><path d="M183.5 445.5 185.5 446.693 185.5 449.307 183.5 450.5 181.5 449.307 181.5 446.693Z" stroke="#000000" stroke-width="1.33333" stroke-linecap="round" stroke-linejoin="round" stroke-miterlimit="10" fill="#FFFFFF" fill-rule="evenodd"/><path d="M174.5 451.5 176.5 452.693 176.5 455.307 174.5 456.5 172.5 455.307 172.5 452.693Z" stroke="#000000" stroke-width="1.33333" stroke-linecap="round" stroke-linejoin="round" stroke-miterlimit="10" fill="#FFFFFF" fill-rule="evenodd"/><path d="M180.5 451.5 182.5 452.693 182.5 455.307 180.5 456.5 178.5 455.307 178.5 452.693Z" stroke="#000000" stroke-width="1.33333" stroke-linecap="round" stroke-linejoin="round" stroke-miterlimit="10" fill="#FFFFFF" fill-rule="evenodd"/><path d="M174.5 440.5 176.5 441.693 176.5 444.307 174.5 445.5 172.5 444.307 172.5 441.693Z" stroke="#000000" stroke-width="1.33333" stroke-linecap="round" stroke-linejoin="round" stroke-miterlimit="10" fill="#FFFFFF" fill-rule="evenodd"/><path d="M180.5 440.5 182.5 441.693 182.5 444.307 180.5 445.5 178.5 444.307 178.5 441.693Z" stroke="#000000" stroke-width="1.33333" stroke-linecap="round" stroke-linejoin="round" stroke-miterlimit="10" fill="#FFFFFF" fill-rule="evenodd"/><path d="M191 426.199C191 425.537 191.537 425 192.199 425L202.801 425C203.463 425 204 425.537 204 426.199L204 491.801C204 492.463 203.463 493 202.801 493L192.199 493C191.537 493 191 492.463 191 491.801Z" stroke="#000000" stroke-width="2" stroke-miterlimit="8" fill="#F2F2F2" fill-rule="evenodd"/><path d="M0 0 0.000104987 4.81018" stroke="#000000" stroke-width="2" stroke-linecap="round" stroke-miterlimit="8" fill="none" fill-rule="evenodd" transform="matrix(1 0 0 -1 196 488.81)"/><path d="M0 0 0.000104987 4.81018" stroke="#000000" stroke-width="2" stroke-linecap="round" stroke-miterlimit="8" fill="none" fill-rule="evenodd" transform="matrix(1 0 0 -1 199 488.81)"/><path d="M0 0 0.000104987 4.81018" stroke="#000000" stroke-width="2" stroke-linecap="round" stroke-miterlimit="8" fill="none" fill-rule="evenodd" transform="matrix(1 0 0 -1 196 479.81)"/><path d="M0 0 0.000104987 4.81018" stroke="#000000" stroke-width="2" stroke-linecap="round" stroke-miterlimit="8" fill="none" fill-rule="evenodd" transform="matrix(1 0 0 -1 199 479.81)"/><path d="M195 442.833C195 442.373 195.373 442 195.833 442L199.167 442C199.627 442 200 442.373 200 442.833L200 446.167C200 446.627 199.627 447 199.167 447L195.833 447C195.373 447 195 446.627 195 446.167Z" stroke="#000000" stroke-width="2" stroke-miterlimit="8" fill="#F2F2F2" fill-rule="evenodd"/><path d="M195 451.833C195 451.373 195.373 451 195.833 451L199.167 451C199.627 451 200 451.373 200 451.833L200 455.167C200 455.627 199.627 456 199.167 456L195.833 456C195.373 456 195 455.627 195 455.167Z" stroke="#000000" stroke-width="2" stroke-miterlimit="8" fill="#F2F2F2" fill-rule="evenodd"/><path d="M195 435.5C195 434.119 196.119 433 197.5 433 198.881 433 200 434.119 200 435.5 200 436.881 198.881 438 197.5 438 196.119 438 195 436.881 195 435.5Z" stroke="#000000" stroke-width="2" stroke-miterlimit="8" fill="#65CBA4" fill-rule="evenodd"/><path d="M195 460 200 461.771 200 469.229 195 471Z" stroke="#000000" stroke-width="2" stroke-linecap="round" stroke-linejoin="round" stroke-miterlimit="10" fill="#F2F2F2" fill-rule="evenodd"/><path d="M165.5 424C167.985 424 170 426.015 170 428.5L170 428.5C170 430.985 167.985 433 165.5 433L165.5 433C163.015 433 161 430.985 161 428.5L161 428.5C161 426.015 163.015 424 165.5 424Z" stroke="#000000" stroke-width="2" stroke-miterlimit="8" fill="#F2F2F2" fill-rule="evenodd"/><path d="M132.5 489C134.985 489 137 491.015 137 493.5L137 493.5C137 495.985 134.985 498 132.5 498L132.5 498C130.015 498 128 495.985 128 493.5L128 493.5C128 491.015 130.015 489 132.5 489Z" stroke="#000000" stroke-width="2" stroke-miterlimit="8" fill="#F2F2F2" fill-rule="evenodd"/><path d="M166 477C166 476.448 166.448 476 167 476L176 476C176.552 476 177 476.448 177 477L177 481C177 481.552 176.552 482 176 482L167 482C166.448 482 166 481.552 166 481Z" stroke="#000000" stroke-width="2" stroke-miterlimit="8" fill="#C21C23" fill-rule="evenodd"/><path d="M151.247 466 160.235 466 160.548 466.132 160.678 466 169.902 466C170.508 466 171 466.5 171 467.118L171 471.588C171 472.205 170.508 472.706 169.902 472.706L162.482 472.706 162.482 479.713C162.482 480.976 161.476 482 160.235 482L151.247 482C150.006 482 149 480.976 149 479.713L149 468.287C149 467.024 150.006 466 151.247 466Z" stroke="#000000" stroke-width="2" stroke-miterlimit="8" fill="#595959" fill-rule="evenodd"/><path d="M0 0 27.6667 0.000104987" stroke="#000000" stroke-width="2" stroke-linecap="round" stroke-miterlimit="8" fill="none" fill-rule="evenodd" transform="matrix(-1 0 0 1 176.667 486)"/></g></svg>