<svg width="393" height="291" xmlns="http://www.w3.org/2000/svg" xmlns:xlink="http://www.w3.org/1999/xlink" xml:space="preserve" overflow="hidden"><g transform="translate(-2394 -1334)"><path d="M2397 1344.25C2397 1340.25 2400.25 1337 2404.25 1337L2776.75 1337C2780.75 1337 2784 1340.25 2784 1344.25L2784 1614.75C2784 1618.75 2780.75 1622 2776.75 1622L2404.25 1622C2400.25 1622 2397 1618.75 2397 1614.75Z" stroke="#000000" stroke-width="5.72917" stroke-linejoin="round" stroke-miterlimit="10" fill="#D9D9D9" fill-rule="evenodd"/><path d="M2397 1479 2784 1479 2784 1614.73C2784 1618.75 2780.76 1622 2776.76 1622L2404.24 1622C2400.24 1622 2397 1618.75 2397 1614.73Z" stroke="#000000" stroke-width="5.72917" stroke-linecap="round" stroke-linejoin="round" stroke-miterlimit="10" fill="#404040" fill-rule="evenodd"/><path d="M2397 1466 2784 1466 2784 1495 2397 1495Z" stroke="#000000" stroke-width="5.72917" stroke-linejoin="round" stroke-miterlimit="10" fill="#F21703" fill-rule="evenodd"/><path d="M2677 1429 2752.15 1429" stroke="#000000" stroke-width="5.72917" stroke-linecap="round" stroke-linejoin="round" stroke-miterlimit="10" fill="none" fill-rule="evenodd"/><path d="M2453 1378.21C2453 1376.44 2454.44 1375 2456.21 1375L2541.79 1375C2543.56 1375 2545 1376.44 2545 1378.21L2545 1425.79C2545 1427.56 2543.56 1429 2541.79 1429L2456.21 1429C2454.44 1429 2453 1427.56 2453 1425.79Z" stroke="#000000" stroke-width="5.72917" stroke-linejoin="round" stroke-miterlimit="10" fill="#FFFFFF" fill-rule="evenodd"/><path d="M2676 1376.83C2676 1375.82 2676.82 1375 2677.83 1375L2750.17 1375C2751.18 1375 2752 1375.82 2752 1376.83L2752 1384.17C2752 1385.18 2751.18 1386 2750.17 1386L2677.83 1386C2676.82 1386 2676 1385.18 2676 1384.17Z" stroke="#000000" stroke-width="5.72917" stroke-miterlimit="8" fill-rule="evenodd"/><path d="M2677.23 1375 2713 1375 2713 1386 2677.23 1386C2676.55 1386 2676 1385.18 2676 1384.17L2676 1376.83C2676 1375.82 2676.55 1375 2677.23 1375Z" stroke="#000000" stroke-width="5.72917" stroke-miterlimit="8" fill="#F21703" fill-rule="evenodd"/></g></svg>