<svg width="345" height="54" xmlns="http://www.w3.org/2000/svg" xmlns:xlink="http://www.w3.org/1999/xlink" xml:space="preserve" overflow="hidden"><g transform="translate(-2007 -571)"><path d="M2010 586.832C2010 582.506 2013.51 579 2017.83 579L2341.17 579C2345.49 579 2349 582.506 2349 586.832L2349 609.168C2349 613.494 2345.49 617 2341.17 617L2017.83 617C2013.51 617 2010 613.494 2010 609.168Z" stroke="#000000" stroke-width="5.72917" stroke-linecap="round" stroke-linejoin="round" stroke-miterlimit="10" fill="#D9D9D9" fill-rule="evenodd"/><path d="M2046 586.832C2046 582.506 2049.51 579 2053.83 579L2305.17 579C2309.49 579 2313 582.506 2313 586.832L2313 609.168C2313 613.494 2309.49 617 2305.17 617L2053.83 617C2049.51 617 2046 613.494 2046 609.168Z" stroke="#000000" stroke-width="5.72917" stroke-linecap="round" stroke-linejoin="round" stroke-miterlimit="10" fill="#F2F2F2" fill-rule="evenodd"/><path d="M0 0 35.4822 35.4822" stroke="#000000" stroke-width="3.4375" stroke-linecap="round" stroke-linejoin="round" stroke-miterlimit="10" fill="none" fill-rule="evenodd" transform="matrix(1 0 0 -1 2054.5 615.982)"/><path d="M2090.5 580.5 2125.98 615.982" stroke="#000000" stroke-width="3.4375" stroke-linecap="round" stroke-linejoin="round" stroke-miterlimit="10" fill="none" fill-rule="evenodd"/><path d="M0 0 35.4822 35.4822" stroke="#000000" stroke-width="3.4375" stroke-linecap="round" stroke-linejoin="round" stroke-miterlimit="10" fill="none" fill-rule="evenodd" transform="matrix(1 0 0 -1 2126.5 615.982)"/><path d="M2162.5 580.5 2197.98 615.982" stroke="#000000" stroke-width="3.4375" stroke-linecap="round" stroke-linejoin="round" stroke-miterlimit="10" fill="none" fill-rule="evenodd"/><path d="M0 0 35.4822 35.4822" stroke="#000000" stroke-width="3.4375" stroke-linecap="round" stroke-linejoin="round" stroke-miterlimit="10" fill="none" fill-rule="evenodd" transform="matrix(1 0 0 -1 2198.5 615.982)"/><path d="M2234.5 580.5 2269.98 615.982" stroke="#000000" stroke-width="3.4375" stroke-linecap="round" stroke-linejoin="round" stroke-miterlimit="10" fill="none" fill-rule="evenodd"/><path d="M0 0 35.4822 35.4822" stroke="#000000" stroke-width="3.4375" stroke-linecap="round" stroke-linejoin="round" stroke-miterlimit="10" fill="none" fill-rule="evenodd" transform="matrix(1 0 0 -1 2270.5 615.982)"/><path d="M2054.5 580.5 2089.98 615.982" stroke="#000000" stroke-width="3.4375" stroke-linecap="round" stroke-linejoin="round" stroke-miterlimit="10" fill="none" fill-rule="evenodd"/><path d="M0 0 35.4822 35.4822" stroke="#000000" stroke-width="3.4375" stroke-linecap="round" stroke-linejoin="round" stroke-miterlimit="10" fill="none" fill-rule="evenodd" transform="matrix(1 0 0 -1 2090.5 615.982)"/><path d="M2126.5 580.5 2161.98 615.982" stroke="#000000" stroke-width="3.4375" stroke-linecap="round" stroke-linejoin="round" stroke-miterlimit="10" fill="none" fill-rule="evenodd"/><path d="M0 0 35.4822 35.4822" stroke="#000000" stroke-width="3.4375" stroke-linecap="round" stroke-linejoin="round" stroke-miterlimit="10" fill="none" fill-rule="evenodd" transform="matrix(1 0 0 -1 2162.5 615.982)"/><path d="M2198.5 580.5 2233.98 615.982" stroke="#000000" stroke-width="3.4375" stroke-linecap="round" stroke-linejoin="round" stroke-miterlimit="10" fill="none" fill-rule="evenodd"/><path d="M0 0 35.4822 35.4822" stroke="#000000" stroke-width="3.4375" stroke-linecap="round" stroke-linejoin="round" stroke-miterlimit="10" fill="none" fill-rule="evenodd" transform="matrix(1 0 0 -1 2234.5 615.982)"/><path d="M2270.5 580.5 2305.98 615.982" stroke="#000000" stroke-width="3.4375" stroke-linecap="round" stroke-linejoin="round" stroke-miterlimit="10" fill="none" fill-rule="evenodd"/><path d="M2034 581.42C2034 577.322 2037.32 574 2041.42 574L2062.58 574C2066.68 574 2070 577.322 2070 581.42L2070 614.58C2070 618.678 2066.68 622 2062.58 622L2041.42 622C2037.32 622 2034 618.678 2034 614.58Z" stroke="#000000" stroke-width="5.72917" stroke-linecap="round" stroke-linejoin="round" stroke-miterlimit="10" fill="#D9D9D9" fill-rule="evenodd"/><path d="M2289 581.42C2289 577.322 2292.32 574 2296.42 574L2317.58 574C2321.68 574 2325 577.322 2325 581.42L2325 614.58C2325 618.678 2321.68 622 2317.58 622L2296.42 622C2292.32 622 2289 618.678 2289 614.58Z" stroke="#000000" stroke-width="5.72917" stroke-linecap="round" stroke-linejoin="round" stroke-miterlimit="10" fill="#D9D9D9" fill-rule="evenodd"/></g></svg>