<svg width="457" height="208" xmlns="http://www.w3.org/2000/svg" xmlns:xlink="http://www.w3.org/1999/xlink" xml:space="preserve" overflow="hidden"><g transform="translate(-949 -1355)"><path d="M953.66 1367.95C953.66 1362.89 961.9 1358.78 972.084 1358.78L1382.24 1358.78C1392.42 1358.78 1400.66 1362.89 1400.66 1367.95L1400.66 1550.62C1400.66 1555.68 1392.42 1559.78 1382.24 1559.78L972.084 1559.78C961.9 1559.78 953.66 1555.68 953.66 1550.62Z" stroke="#000000" stroke-width="5.72917" stroke-miterlimit="8" fill="#D9D9D9" fill-rule="evenodd"/><path d="M964.734 1359 968 1359 968 1559 964.734 1559C957.695 1559 952 1554.92 952 1549.88L952 1368.12C952 1363.08 957.695 1359 964.734 1359Z" stroke="#000000" stroke-width="5.72917" stroke-miterlimit="8" fill="#7F7F7F" fill-rule="evenodd"/><path d="M1387 1359 1390.3 1359C1397.32 1359 1403 1363.08 1403 1368.12L1403 1549.88C1403 1554.92 1397.32 1559 1390.3 1559L1387 1559 1387 1359Z" stroke="#000000" stroke-width="5.72917" stroke-miterlimit="8" fill="#7F7F7F" fill-rule="evenodd"/><path d="M1282 1464C1282 1454.61 1289.39 1447 1298.5 1447 1307.61 1447 1315 1454.61 1315 1464 1315 1473.39 1307.61 1481 1298.5 1481 1289.39 1481 1282 1473.39 1282 1464Z" stroke="#000000" stroke-width="5.72917" stroke-miterlimit="8" fill="#F2F2F2" fill-rule="evenodd"/><path d="M1011 1429.67C1011 1429.3 1011.3 1429 1011.67 1429L1078.33 1429C1078.7 1429 1079 1429.3 1079 1429.67L1079 1489.33C1079 1489.7 1078.7 1490 1078.33 1490L1011.67 1490C1011.3 1490 1011 1489.7 1011 1489.33Z" stroke="#000000" stroke-width="5.72917" stroke-miterlimit="8" fill-rule="evenodd"/><path d="M1028 1450 1069.82 1450" stroke="#F21703" stroke-width="5.72917" stroke-linecap="round" stroke-linejoin="round" stroke-miterlimit="10" fill="none" fill-rule="evenodd"/><path d="M1045 1465 1069.72 1465" stroke="#69A93D" stroke-width="5.72917" stroke-linecap="round" stroke-linejoin="round" stroke-miterlimit="10" fill="none" fill-rule="evenodd"/><path d="M1286 1436 1297.5 1416 1309 1436Z" stroke="#000000" stroke-width="5.72917" stroke-linecap="round" stroke-linejoin="round" stroke-miterlimit="10" fill="#FFFF00" fill-rule="evenodd"/><path d="M992 1383.83C992 1382.82 992.821 1382 993.833 1382L1066.17 1382C1067.18 1382 1068 1382.82 1068 1383.83L1068 1391.17C1068 1392.18 1067.18 1393 1066.17 1393L993.833 1393C992.821 1393 992 1392.18 992 1391.17Z" stroke="#000000" stroke-width="5.72917" stroke-miterlimit="8" fill-rule="evenodd"/><path d="M993.234 1382 1029 1382 1029 1393 993.234 1393C992.553 1393 992 1392.18 992 1391.17L992 1383.83C992 1382.82 992.553 1382 993.234 1382Z" stroke="#000000" stroke-width="5.72917" stroke-miterlimit="8" fill="#F21703" fill-rule="evenodd"/></g></svg>