<svg width="389" height="302" xmlns="http://www.w3.org/2000/svg" xmlns:xlink="http://www.w3.org/1999/xlink" xml:space="preserve" overflow="hidden"><g transform="translate(-378 -1323)"><path d="M719.833 1390C721.03 1390 722 1390.97 722 1392.17L722 1400.83C722 1402.03 721.03 1403 719.833 1403L412.167 1403C410.97 1403 410 1402.03 410 1400.83L410 1392.17C410 1390.97 410.97 1390 412.167 1390Z" stroke="#000000" stroke-width="5.72917" stroke-linejoin="round" stroke-miterlimit="10" fill="#D9D9D9" fill-rule="evenodd"/><path d="M397 1370.33C397 1367.94 398.94 1366 401.333 1366L418.667 1366C421.06 1366 423 1367.94 423 1370.33L423 1420.67C423 1423.06 421.06 1425 418.667 1425L401.333 1425C398.94 1425 397 1423.06 397 1420.67Z" stroke="#000000" stroke-width="5.72917" stroke-linejoin="round" stroke-miterlimit="10" fill="#404040" fill-rule="evenodd"/><path d="M496 1370.33C496 1367.94 497.94 1366 500.333 1366L517.667 1366C520.06 1366 522 1367.94 522 1370.33L522 1420.67C522 1423.06 520.06 1425 517.667 1425L500.333 1425C497.94 1425 496 1423.06 496 1420.67Z" stroke="#000000" stroke-width="5.72917" stroke-linejoin="round" stroke-miterlimit="10" fill="#404040" fill-rule="evenodd"/><path d="M691 1330.33C691 1327.94 692.94 1326 695.333 1326L712.667 1326C715.06 1326 717 1327.94 717 1330.33L717 1393.67C717 1396.06 715.06 1398 712.667 1398L695.333 1398C692.94 1398 691 1396.06 691 1393.67Z" stroke="#000000" stroke-width="5.72917" stroke-linejoin="round" stroke-miterlimit="10" fill="#404040" fill-rule="evenodd"/><path d="M418.898 1586C421.164 1586 423 1587.84 423 1590.1L423 1617.9C423 1620.16 421.164 1622 418.898 1622L409.102 1622C406.836 1622 405 1620.16 405 1617.9L405 1590.1C405 1587.84 406.836 1586 409.102 1586Z" stroke="#000000" stroke-width="5.72917" stroke-miterlimit="8" fill="#7F7F7F" fill-rule="evenodd"/><path d="M717.898 1586C720.164 1586 722 1587.84 722 1590.1L722 1617.9C722 1620.16 720.164 1622 717.898 1622L708.102 1622C705.837 1622 704 1620.16 704 1617.9L704 1590.1C704 1587.84 705.837 1586 708.102 1586Z" stroke="#000000" stroke-width="5.72917" stroke-miterlimit="8" fill="#7F7F7F" fill-rule="evenodd"/><path d="M742 1357.17C742 1355.97 742.97 1355 744.167 1355L761.833 1355C763.03 1355 764 1355.97 764 1357.17L764 1365.83C764 1367.03 763.03 1368 761.833 1368L744.167 1368C742.97 1368 742 1367.03 742 1365.83Z" stroke="#000000" stroke-width="5.72917" stroke-linejoin="round" stroke-miterlimit="10" fill="#0070DA" fill-rule="evenodd"/><path d="M752 1349.67 752 1372.33C752 1375.46 749.463 1378 746.333 1378L592 1378 592 1344 746.333 1344C749.463 1344 752 1346.54 752 1349.67Z" stroke="#000000" stroke-width="5.72917" stroke-linejoin="round" stroke-miterlimit="10" fill="#0070DA" fill-rule="evenodd"/><path d="M624 1344 624 1360.5" stroke="#000000" stroke-width="5.72917" stroke-linecap="round" stroke-miterlimit="8" fill="#D9D9D9" fill-rule="evenodd"/><path d="M656 1344 656 1360.5" stroke="#000000" stroke-width="5.72917" stroke-linecap="round" stroke-miterlimit="8" fill="#D9D9D9" fill-rule="evenodd"/><path d="M687 1344 687.001 1360.5" stroke="#000000" stroke-width="5.72917" stroke-linecap="round" stroke-miterlimit="8" fill="#D9D9D9" fill-rule="evenodd"/><path d="M719 1344 719 1360.5" stroke="#000000" stroke-width="5.72917" stroke-linecap="round" stroke-miterlimit="8" fill="#D9D9D9" fill-rule="evenodd"/><path d="M592 1336 592 1386.88" stroke="#000000" stroke-width="5.72917" stroke-linecap="round" stroke-miterlimit="8" fill="#D9D9D9" fill-rule="evenodd"/><path d="M592 1344 592 1378 521 1371.2 521 1350.8Z" stroke="#000000" stroke-width="5.72917" stroke-linejoin="round" stroke-miterlimit="10" fill="#D9D9D9" fill-rule="evenodd"/><path d="M521 1336 521 1386.88" stroke="#000000" stroke-width="5.72917" stroke-linecap="round" stroke-miterlimit="8" fill="#D9D9D9" fill-rule="evenodd"/><path d="M675 1376C675 1373.24 677.238 1371 679.999 1371L729.001 1371C731.762 1371 734 1373.24 734 1376L734 1428C734 1430.76 731.762 1433 729.001 1433L679.999 1433C677.238 1433 675 1430.76 675 1428Z" stroke="#000000" stroke-width="5.72917" stroke-linejoin="round" stroke-miterlimit="10" fill="#404040" fill-rule="evenodd"/><path d="M381 1422.07C381 1418.17 384.166 1415 388.072 1415L737.928 1415C741.834 1415 745 1418.17 745 1422.07L745 1603.93C745 1607.83 741.834 1611 737.928 1611L388.072 1611C384.166 1611 381 1607.83 381 1603.93Z" stroke="#000000" stroke-width="5.72917" stroke-linecap="round" stroke-linejoin="round" stroke-miterlimit="10" fill="#CA2337" fill-rule="evenodd"/><path d="M429 1460.05C429 1457.81 430.815 1456 433.053 1456L693.947 1456C696.185 1456 698 1457.81 698 1460.05L698 1558.95C698 1561.19 696.185 1563 693.947 1563L433.053 1563C430.815 1563 429 1561.19 429 1558.95Z" stroke="#000000" stroke-width="5.72917" stroke-linecap="round" stroke-linejoin="round" stroke-miterlimit="10" fill="#ED1C32" fill-rule="evenodd"/><path d="M0 0 16.4996 0.000360892" stroke="#000000" stroke-width="5.72917" stroke-linecap="round" stroke-linejoin="round" stroke-miterlimit="10" fill="none" fill-rule="evenodd" transform="matrix(-1 0 0 1 540.5 1489)"/><path d="M0 0 9.98301 0.000360892" stroke="#000000" stroke-width="5.72917" stroke-linecap="round" stroke-linejoin="round" stroke-miterlimit="10" fill="none" fill-rule="evenodd" transform="matrix(-1 0 0 1 533.983 1476)"/><path d="M0 0 9.45538 0.000360892" stroke="#000000" stroke-width="5.72917" stroke-linecap="round" stroke-linejoin="round" stroke-miterlimit="10" fill="none" fill-rule="evenodd" transform="matrix(-1 0 0 1 533.455 1502)"/><path d="M444 1478.62C444 1477.17 445.171 1476 446.616 1476L499.384 1476C500.829 1476 502 1477.17 502 1478.62L502 1499.38C502 1500.83 500.829 1502 499.384 1502L446.616 1502C445.171 1502 444 1500.83 444 1499.38Z" stroke="#000000" stroke-width="5.72917" stroke-linejoin="round" stroke-miterlimit="10" fill="#D9D9D9" fill-rule="evenodd"/><path d="M0 0 14.3899 0.000360892" stroke="#000000" stroke-width="5.72917" stroke-linecap="round" stroke-linejoin="round" stroke-miterlimit="10" fill="none" fill-rule="evenodd" transform="matrix(-1 0 0 1 580.39 1489)"/><path d="M0 0 20.3655 0.000360892" stroke="#000000" stroke-width="5.72917" stroke-linecap="round" stroke-linejoin="round" stroke-miterlimit="10" fill="none" fill-rule="evenodd" transform="matrix(-1 0 0 1 586.366 1476)"/><path d="M0 0 8.24603 0.000360892" stroke="#000000" stroke-width="5.72917" stroke-linecap="round" stroke-linejoin="round" stroke-miterlimit="10" fill="none" fill-rule="evenodd" transform="matrix(-1 0 0 1 574.246 1502)"/><path d="M445 1522 445.001 1541.77" stroke="#000000" stroke-width="5.72917" stroke-linecap="round" stroke-linejoin="round" stroke-miterlimit="10" fill="none" fill-rule="evenodd"/><path d="M464 1522 464 1541.77" stroke="#000000" stroke-width="5.72917" stroke-linecap="round" stroke-linejoin="round" stroke-miterlimit="10" fill="none" fill-rule="evenodd"/><path d="M483 1522 483 1541.77" stroke="#000000" stroke-width="5.72917" stroke-linecap="round" stroke-linejoin="round" stroke-miterlimit="10" fill="none" fill-rule="evenodd"/><path d="M502 1522 502 1541.77" stroke="#000000" stroke-width="5.72917" stroke-linecap="round" stroke-linejoin="round" stroke-miterlimit="10" fill="none" fill-rule="evenodd"/><path d="M522 1522 541.766 1522" stroke="#000000" stroke-width="5.72917" stroke-linecap="round" stroke-linejoin="round" stroke-miterlimit="10" fill="none" fill-rule="evenodd"/><path d="M556 1522 575.765 1522" stroke="#000000" stroke-width="5.72917" stroke-linecap="round" stroke-linejoin="round" stroke-miterlimit="10" fill="none" fill-rule="evenodd"/><path d="M590 1522 609.765 1522" stroke="#000000" stroke-width="5.72917" stroke-linecap="round" stroke-linejoin="round" stroke-miterlimit="10" fill="none" fill-rule="evenodd"/><path d="M624 1522 643.765 1522" stroke="#000000" stroke-width="5.72917" stroke-linecap="round" stroke-linejoin="round" stroke-miterlimit="10" fill="none" fill-rule="evenodd"/><path d="M658 1518.62C658 1517.17 659.171 1516 660.616 1516L681.384 1516C682.829 1516 684 1517.17 684 1518.62L684 1539.38C684 1540.83 682.829 1542 681.384 1542L660.616 1542C659.171 1542 658 1540.83 658 1539.38Z" stroke="#000000" stroke-width="5.72917" stroke-linejoin="round" stroke-miterlimit="10" fill="#404040" fill-rule="evenodd"/></g></svg>