<svg width="339" height="394" xmlns="http://www.w3.org/2000/svg" xmlns:xlink="http://www.w3.org/1999/xlink" xml:space="preserve" overflow="hidden"><g transform="translate(-413 -1519)"><path d="M628 1526.82C628 1524.16 630.159 1522 632.823 1522L703.177 1522C705.841 1522 708 1524.16 708 1526.82L708 1777.18C708 1779.84 705.841 1782 703.177 1782L632.823 1782C630.159 1782 628 1779.84 628 1777.18Z" stroke="#000000" stroke-width="5.72917" stroke-linejoin="round" stroke-miterlimit="10" fill="#404040" fill-rule="evenodd"/><path d="M442.898 1875C445.164 1875 447 1876.84 447 1879.1L447 1905.9C447 1908.16 445.164 1910 442.898 1910L433.102 1910C430.837 1910 429 1908.16 429 1905.9L429 1879.1C429 1876.84 430.837 1875 433.102 1875Z" stroke="#000000" stroke-width="5.72917" stroke-miterlimit="8" fill="#7F7F7F" fill-rule="evenodd"/><path d="M731.898 1875C734.164 1875 736 1876.84 736 1879.1L736 1905.9C736 1908.16 734.164 1910 731.898 1910L722.102 1910C719.837 1910 718 1908.16 718 1905.9L718 1879.1C718 1876.84 719.837 1875 722.102 1875Z" stroke="#000000" stroke-width="5.72917" stroke-miterlimit="8" fill="#7F7F7F" fill-rule="evenodd"/><path d="M416 1701.4C416 1697.31 419.311 1694 423.396 1694L741.604 1694C745.689 1694 749 1697.31 749 1701.4L749 1891.6C749 1895.69 745.689 1899 741.604 1899L423.396 1899C419.311 1899 416 1895.69 416 1891.6Z" stroke="#000000" stroke-width="5.72917" stroke-linecap="round" stroke-linejoin="round" stroke-miterlimit="10" fill="#D9D9D9" fill-rule="evenodd"/><path d="M622 1725 714.279 1725" stroke="#000000" stroke-width="5.72917" stroke-linecap="round" stroke-linejoin="round" stroke-miterlimit="10" fill="none" fill-rule="evenodd"/><path d="M673 1866 714.25 1866" stroke="#000000" stroke-width="5.72917" stroke-linecap="round" stroke-linejoin="round" stroke-miterlimit="10" fill="none" fill-rule="evenodd"/><path d="M583 1694 583 1898.72" stroke="#000000" stroke-width="5.72917" stroke-linecap="round" stroke-linejoin="round" stroke-miterlimit="10" fill="none" fill-rule="evenodd"/><path d="M460 1730.34C460 1727.39 462.392 1725 465.342 1725L532.658 1725C535.608 1725 538 1727.39 538 1730.34L538 1800.66C538 1803.61 535.608 1806 532.658 1806L465.342 1806C462.392 1806 460 1803.61 460 1800.66Z" stroke="#000000" stroke-width="5.72917" stroke-miterlimit="8" fill="#FFFFFF" fill-rule="evenodd"/><rect x="473" y="1738" width="19.9999" height="21" stroke="#000000" stroke-width="5.72917" stroke-linecap="round" stroke-linejoin="round" stroke-miterlimit="10" fill="#0070DA"/><rect x="505" y="1738" width="19.9999" height="21" stroke="#000000" stroke-width="5.72917" stroke-linecap="round" stroke-linejoin="round" stroke-miterlimit="10" fill="#0070DA"/><rect x="473" y="1772" width="19.9999" height="22" stroke="#000000" stroke-width="5.72917" stroke-linecap="round" stroke-linejoin="round" stroke-miterlimit="10" fill="#0070DA"/><rect x="505" y="1772" width="19.9999" height="22" stroke="#000000" stroke-width="5.72917" stroke-linecap="round" stroke-linejoin="round" stroke-miterlimit="10" fill="#0070DA"/><path d="M615.5 1819C606.387 1819 599 1811.61 599 1802.5 599 1793.39 606.387 1786 615.5 1786 624.614 1786 632 1793.39 632 1802.5 632 1811.61 624.614 1819 615.5 1819Z" stroke="#000000" stroke-width="5.72917" stroke-linejoin="round" stroke-miterlimit="10" fill="#404040" fill-rule="evenodd"/><path d="M614.035 1820C611.254 1820 609 1817.75 609 1814.97L609 1790.03C609 1787.25 611.254 1785 614.035 1785L615.966 1785C618.746 1785 621 1787.25 621 1790.03L621 1814.97C621 1817.75 618.746 1820 615.966 1820Z" stroke="#000000" stroke-width="5.72917" stroke-linejoin="round" stroke-miterlimit="10" fill="#404040" fill-rule="evenodd"/></g></svg>