<svg width="292" height="383" xmlns="http://www.w3.org/2000/svg" xmlns:xlink="http://www.w3.org/1999/xlink" xml:space="preserve" overflow="hidden"><g transform="translate(-460 -1530)"><path d="M638 1537.76C638 1535.13 640.132 1533 642.763 1533L712.237 1533C714.868 1533 717 1535.13 717 1537.76L717 1788.24C717 1790.87 714.868 1793 712.237 1793L642.763 1793C640.132 1793 638 1790.87 638 1788.24Z" stroke="#000000" stroke-width="5.72917" stroke-linejoin="round" stroke-miterlimit="10" fill="#404040" fill-rule="evenodd"/><path d="M486.898 1875C489.164 1875 491 1876.84 491 1879.1L491 1905.9C491 1908.16 489.164 1910 486.898 1910L477.102 1910C474.837 1910 473 1908.16 473 1905.9L473 1879.1C473 1876.84 474.837 1875 477.102 1875Z" stroke="#000000" stroke-width="5.72917" stroke-miterlimit="8" fill="#7F7F7F" fill-rule="evenodd"/><path d="M736.898 1875C739.164 1875 741 1876.84 741 1879.1L741 1905.9C741 1908.16 739.164 1910 736.898 1910L727.102 1910C724.837 1910 723 1908.16 723 1905.9L723 1879.1C723 1876.84 724.837 1875 727.102 1875Z" stroke="#000000" stroke-width="5.72917" stroke-miterlimit="8" fill="#7F7F7F" fill-rule="evenodd"/><path d="M463 1701.4C463 1697.31 466.312 1694 470.396 1694L741.604 1694C745.688 1694 749 1697.31 749 1701.4L749 1891.6C749 1895.69 745.688 1899 741.604 1899L470.396 1899C466.312 1899 463 1895.69 463 1891.6Z" stroke="#000000" stroke-width="5.72917" stroke-linecap="round" stroke-linejoin="round" stroke-miterlimit="10" fill="#D9D9D9" fill-rule="evenodd"/><path d="M631 1725 723.279 1725" stroke="#000000" stroke-width="5.72917" stroke-linecap="round" stroke-linejoin="round" stroke-miterlimit="10" fill="none" fill-rule="evenodd"/><path d="M682 1866 723.25 1866" stroke="#000000" stroke-width="5.72917" stroke-linecap="round" stroke-linejoin="round" stroke-miterlimit="10" fill="none" fill-rule="evenodd"/><path d="M606 1694 606 1898.72" stroke="#000000" stroke-width="5.72917" stroke-linecap="round" stroke-linejoin="round" stroke-miterlimit="10" fill="none" fill-rule="evenodd"/><path d="M495 1729.27C495 1726.36 497.361 1724 500.274 1724L566.726 1724C569.639 1724 572 1726.36 572 1729.27L572 1799.73C572 1802.64 569.639 1805 566.726 1805L500.274 1805C497.361 1805 495 1802.64 495 1799.73Z" stroke="#000000" stroke-width="5.72917" stroke-miterlimit="8" fill="#FFFFFF" fill-rule="evenodd"/><rect x="507" y="1737" width="19.9999" height="21" stroke="#000000" stroke-width="5.72917" stroke-linecap="round" stroke-linejoin="round" stroke-miterlimit="10" fill="#0070DA"/><rect x="539" y="1737" width="19.9999" height="21" stroke="#000000" stroke-width="5.72917" stroke-linecap="round" stroke-linejoin="round" stroke-miterlimit="10" fill="#0070DA"/><rect x="507" y="1771" width="19.9999" height="22" stroke="#000000" stroke-width="5.72917" stroke-linecap="round" stroke-linejoin="round" stroke-miterlimit="10" fill="#0070DA"/><rect x="539" y="1771" width="19.9999" height="22" stroke="#000000" stroke-width="5.72917" stroke-linecap="round" stroke-linejoin="round" stroke-miterlimit="10" fill="#0070DA"/><path d="M639.5 1819C630.387 1819 623 1811.61 623 1802.5 623 1793.39 630.387 1786 639.5 1786 648.614 1786 656 1793.39 656 1802.5 656 1811.61 648.614 1819 639.5 1819Z" stroke="#000000" stroke-width="5.72917" stroke-linejoin="round" stroke-miterlimit="10" fill="#404040" fill-rule="evenodd"/><path d="M638.034 1820C635.254 1820 633 1817.75 633 1814.97L633 1790.03C633 1787.25 635.254 1785 638.034 1785L639.966 1785C642.746 1785 645 1787.25 645 1790.03L645 1814.97C645 1817.75 642.746 1820 639.966 1820Z" stroke="#000000" stroke-width="5.72917" stroke-linejoin="round" stroke-miterlimit="10" fill="#404040" fill-rule="evenodd"/></g></svg>