<svg width="218" height="267" xmlns="http://www.w3.org/2000/svg" xmlns:xlink="http://www.w3.org/1999/xlink" xml:space="preserve" overflow="hidden"><g transform="translate(-1196 -291)"><path d="M1231.9 519C1234.16 519 1236 520.837 1236 523.102L1236 550.898C1236 553.164 1234.16 555 1231.9 555L1222.1 555C1219.84 555 1218 553.164 1218 550.898L1218 523.102C1218 520.837 1219.84 519 1222.1 519Z" stroke="#000000" stroke-width="5.72917" stroke-miterlimit="8" fill="#7F7F7F" fill-rule="evenodd"/><path d="M1387.9 519C1390.16 519 1392 520.836 1392 523.102L1392 550.898C1392 553.163 1390.16 555 1387.9 555L1378.1 555C1375.84 555 1374 553.163 1374 550.898L1374 523.102C1374 520.836 1375.84 519 1378.1 519Z" stroke="#000000" stroke-width="5.72917" stroke-miterlimit="8" fill="#7F7F7F" fill-rule="evenodd"/><path d="M1199 308.891C1199 300.667 1205.67 294 1213.89 294L1396.11 294C1404.33 294 1411 300.667 1411 308.891L1411 530.109C1411 538.333 1404.33 545 1396.11 545L1213.89 545C1205.67 545 1199 538.333 1199 530.109Z" stroke="#000000" stroke-width="5.72917" stroke-linecap="round" stroke-linejoin="round" stroke-miterlimit="10" fill="#D9D9D9" fill-rule="evenodd"/><path d="M1202.5 403.5 1410.31 403.5" stroke="#000000" stroke-width="3.4375" stroke-linecap="round" stroke-miterlimit="8" fill="none" fill-rule="evenodd"/><path d="M1252 319.791C1252 317.697 1253.7 316 1255.79 316L1354.21 316C1356.3 316 1358 317.697 1358 319.791L1358 372.209C1358 374.303 1356.3 376 1354.21 376L1255.79 376C1253.7 376 1252 374.303 1252 372.209Z" stroke="#000000" stroke-width="5.72917" stroke-miterlimit="8" fill="#FFFFFF" fill-rule="evenodd"/><path d="M1274 336 1305.82 336" stroke="#000000" stroke-width="5.72917" stroke-linecap="round" stroke-linejoin="round" stroke-miterlimit="10" fill="none" fill-rule="evenodd"/><path d="M1274 355 1335.46 355" stroke="#000000" stroke-width="5.72917" stroke-linecap="round" stroke-linejoin="round" stroke-miterlimit="10" fill="none" fill-rule="evenodd"/><path d="M0 0 0.000360892 13.798" stroke="#000000" stroke-width="5.72917" stroke-linecap="round" stroke-miterlimit="8" fill="none" fill-rule="evenodd" transform="matrix(-1.83697e-16 -1 -1 1.83697e-16 1234.8 333)"/><path d="M1380.17 335C1378.97 335 1378 334.03 1378 332.833L1378 318.167C1378 316.97 1378.97 316 1380.17 316L1388.83 316C1390.03 316 1391 316.97 1391 318.167L1391 332.833C1391 334.03 1390.03 335 1388.83 335Z" stroke="#000000" stroke-width="5.72917" stroke-miterlimit="8" fill="#F04C4E" fill-rule="evenodd"/><path d="M1376 510C1372.13 510 1369 506.866 1369 503 1369 499.134 1372.13 496 1376 496 1379.87 496 1383 499.134 1383 503 1383 506.866 1379.87 510 1376 510Z" stroke="#000000" stroke-width="5.72917" stroke-miterlimit="8" fill="#FFFFFF" fill-rule="evenodd"/><path d="M1376 443C1372.13 443 1369 439.866 1369 436 1369 432.134 1372.13 429 1376 429 1379.87 429 1383 432.134 1383 436 1383 439.866 1379.87 443 1376 443Z" stroke="#000000" stroke-width="5.72917" stroke-miterlimit="8" fill="#FFFFFF" fill-rule="evenodd"/><path d="M1243 498.5C1243 497.119 1244.12 496 1245.5 496L1289.5 496C1290.88 496 1292 497.119 1292 498.5L1292 508.5C1292 509.881 1290.88 511 1289.5 511L1245.5 511C1244.12 511 1243 509.881 1243 508.5Z" stroke="#000000" stroke-width="5.72917" stroke-miterlimit="8" fill="#CF3131" fill-rule="evenodd"/><path d="M1221 503.5C1221 499.91 1223.91 497 1227.5 497 1231.09 497 1234 499.91 1234 503.5 1234 507.09 1231.09 510 1227.5 510 1223.91 510 1221 507.09 1221 503.5Z" stroke="#000000" stroke-width="5.72917" stroke-miterlimit="8" fill="#CF3131" fill-rule="evenodd"/></g></svg>