<svg width="77" height="94" xmlns="http://www.w3.org/2000/svg" xmlns:xlink="http://www.w3.org/1999/xlink" overflow="hidden"><g transform="translate(-477 -139)"><path d="M490.405 219C491.286 219 492 219.714 492 220.595L492 230.405C492 231.286 491.286 232 490.405 232L486.595 232C485.714 232 485 231.286 485 230.405L485 220.595C485 219.714 485.714 219 486.595 219Z" stroke="#000000" stroke-width="2" stroke-miterlimit="8" fill="#7F7F7F" fill-rule="evenodd"/><path d="M544.633 219C545.388 219 546 219.612 546 220.367L546 230.633C546 231.388 545.388 232 544.633 232L541.367 232C540.612 232 540 231.388 540 230.633L540 220.367C540 219.612 540.612 219 541.367 219Z" stroke="#000000" stroke-width="2" stroke-miterlimit="8" fill="#7F7F7F" fill-rule="evenodd"/><path d="M479 146.128C479 143.296 481.296 141 484.128 141L546.872 141C549.704 141 552 143.296 552 146.128L552 222.872C552 225.704 549.704 228 546.872 228L484.128 228C481.296 228 479 225.704 479 222.872Z" stroke="#000000" stroke-width="2" stroke-linecap="round" stroke-linejoin="round" stroke-miterlimit="10" fill="#D9D9D9" fill-rule="evenodd"/><path d="M480.5 179.5 552.944 179.5" stroke="#000000" stroke-width="0.666667" stroke-linecap="round" stroke-miterlimit="8" fill="none" fill-rule="evenodd"/><path d="M497 150.264C497 149.566 497.566 149 498.264 149L532.736 149C533.434 149 534 149.566 534 150.264L534 167.736C534 168.434 533.434 169 532.736 169L498.264 169C497.566 169 497 168.434 497 167.736Z" stroke="#000000" stroke-width="2" stroke-miterlimit="8" fill="#FFFFFF" fill-rule="evenodd"/><path d="M505 155 516.094 155" stroke="#000000" stroke-width="2" stroke-linecap="round" stroke-linejoin="round" stroke-miterlimit="10" fill="none" fill-rule="evenodd"/><path d="M505 162 526.427 162" stroke="#000000" stroke-width="2" stroke-linecap="round" stroke-linejoin="round" stroke-miterlimit="10" fill="none" fill-rule="evenodd"/><path d="M0 0 0.000104987 4.81018" stroke="#000000" stroke-width="2" stroke-linecap="round" stroke-miterlimit="8" fill="none" fill-rule="evenodd" transform="matrix(-1.83697e-16 -1 -1 1.83697e-16 491.81 154)"/><path d="M541.833 155C541.373 155 541 154.627 541 154.167L541 148.833C541 148.373 541.373 148 541.833 148L545.167 148C545.627 148 546 148.373 546 148.833L546 154.167C546 154.627 545.627 155 545.167 155Z" stroke="#000000" stroke-width="2" stroke-miterlimit="8" fill="#F04C4E" fill-rule="evenodd"/><path d="M540.5 216C539.119 216 538 214.881 538 213.5 538 212.119 539.119 211 540.5 211 541.881 211 543 212.119 543 213.5 543 214.881 541.881 216 540.5 216Z" stroke="#000000" stroke-width="2" stroke-miterlimit="8" fill="#FFFFFF" fill-rule="evenodd"/><path d="M540.5 193C539.119 193 538 191.881 538 190.5 538 189.119 539.119 188 540.5 188 541.881 188 543 189.119 543 190.5 543 191.881 541.881 193 540.5 193Z" stroke="#000000" stroke-width="2" stroke-miterlimit="8" fill="#FFFFFF" fill-rule="evenodd"/><path d="M494 211.833C494 211.373 494.373 211 494.833 211L510.167 211C510.627 211 511 211.373 511 211.833L511 215.167C511 215.627 510.627 216 510.167 216L494.833 216C494.373 216 494 215.627 494 215.167Z" stroke="#000000" stroke-width="2" stroke-miterlimit="8" fill="#CF3131" fill-rule="evenodd"/><path d="M487 213.5C487 212.119 487.895 211 489 211 490.105 211 491 212.119 491 213.5 491 214.881 490.105 216 489 216 487.895 216 487 214.881 487 213.5Z" stroke="#000000" stroke-width="2" stroke-miterlimit="8" fill="#CF3131" fill-rule="evenodd"/></g></svg>