<svg width="233" height="83" xmlns="http://www.w3.org/2000/svg" xmlns:xlink="http://www.w3.org/1999/xlink" xml:space="preserve" overflow="hidden"><defs><clipPath id="clip0"><rect x="3072" y="1586" width="233" height="83"/></clipPath></defs><g clip-path="url(#clip0)" transform="translate(-3072 -1586)"><path d="M3112.5 1642.5C3112.5 1638.63 3115.63 1635.5 3119.5 1635.5 3123.37 1635.5 3126.5 1638.63 3126.5 1642.5 3126.5 1646.37 3123.37 1649.5 3119.5 1649.5 3115.63 1649.5 3112.5 1646.37 3112.5 1642.5Z" stroke="#000000" stroke-width="3" stroke-linecap="round" stroke-linejoin="round" stroke-miterlimit="10" fill="#FFEB7B" fill-rule="evenodd"/><path d="M3126.5 1650.5C3126.5 1646.63 3129.63 1643.5 3133.5 1643.5 3137.37 1643.5 3140.5 1646.63 3140.5 1650.5 3140.5 1654.37 3137.37 1657.5 3133.5 1657.5 3129.63 1657.5 3126.5 1654.37 3126.5 1650.5Z" stroke="#000000" stroke-width="3" stroke-linecap="round" stroke-linejoin="round" stroke-miterlimit="10" fill="#FFEB7B" fill-rule="evenodd"/><path d="M3126.5 1634.5C3126.5 1630.63 3129.63 1627.5 3133.5 1627.5 3137.37 1627.5 3140.5 1630.63 3140.5 1634.5 3140.5 1638.37 3137.37 1641.5 3133.5 1641.5 3129.63 1641.5 3126.5 1638.37 3126.5 1634.5Z" stroke="#000000" stroke-width="3" stroke-linecap="round" stroke-linejoin="round" stroke-miterlimit="10" fill="#FFEB7B" fill-rule="evenodd"/><path d="M3119.5 1619.5C3119.5 1615.63 3122.63 1612.5 3126.5 1612.5 3130.37 1612.5 3133.5 1615.63 3133.5 1619.5 3133.5 1623.37 3130.37 1626.5 3126.5 1626.5 3122.63 1626.5 3119.5 1623.37 3119.5 1619.5Z" stroke="#000000" stroke-width="3" stroke-linecap="round" stroke-linejoin="round" stroke-miterlimit="10" fill="#FFEB7B" fill-rule="evenodd"/><path d="M3147.5 1650.5C3147.5 1646.63 3150.63 1643.5 3154.5 1643.5 3158.37 1643.5 3161.5 1646.63 3161.5 1650.5 3161.5 1654.37 3158.37 1657.5 3154.5 1657.5 3150.63 1657.5 3147.5 1654.37 3147.5 1650.5Z" stroke="#000000" stroke-width="3" stroke-linecap="round" stroke-linejoin="round" stroke-miterlimit="10" fill="#FFEB7B" fill-rule="evenodd"/><path d="M3141.5 1635.5C3141.5 1631.63 3144.63 1628.5 3148.5 1628.5 3152.37 1628.5 3155.5 1631.63 3155.5 1635.5 3155.5 1639.37 3152.37 1642.5 3148.5 1642.5 3144.63 1642.5 3141.5 1639.37 3141.5 1635.5Z" stroke="#000000" stroke-width="3" stroke-linecap="round" stroke-linejoin="round" stroke-miterlimit="10" fill="#FFEB7B" fill-rule="evenodd"/><path d="M3159.5 1639.5C3159.5 1635.63 3162.63 1632.5 3166.5 1632.5 3170.37 1632.5 3173.5 1635.63 3173.5 1639.5 3173.5 1643.37 3170.37 1646.5 3166.5 1646.5 3162.63 1646.5 3159.5 1643.37 3159.5 1639.5Z" stroke="#000000" stroke-width="3" stroke-linecap="round" stroke-linejoin="round" stroke-miterlimit="10" fill="#FFEB7B" fill-rule="evenodd"/><path d="M3172.5 1649.5C3172.5 1645.63 3175.63 1642.5 3179.5 1642.5 3183.37 1642.5 3186.5 1645.63 3186.5 1649.5 3186.5 1653.37 3183.37 1656.5 3179.5 1656.5 3175.63 1656.5 3172.5 1653.37 3172.5 1649.5Z" stroke="#000000" stroke-width="3" stroke-linecap="round" stroke-linejoin="round" stroke-miterlimit="10" fill="#FFEB7B" fill-rule="evenodd"/><path d="M3182.5 1637.5C3182.5 1633.63 3185.63 1630.5 3189.5 1630.5 3193.37 1630.5 3196.5 1633.63 3196.5 1637.5 3196.5 1641.37 3193.37 1644.5 3189.5 1644.5 3185.63 1644.5 3182.5 1641.37 3182.5 1637.5Z" stroke="#000000" stroke-width="3" stroke-linecap="round" stroke-linejoin="round" stroke-miterlimit="10" fill="#FFEB7B" fill-rule="evenodd"/><path d="M3192.5 1649.5C3192.5 1645.63 3195.63 1642.5 3199.5 1642.5 3203.37 1642.5 3206.5 1645.63 3206.5 1649.5 3206.5 1653.37 3203.37 1656.5 3199.5 1656.5 3195.63 1656.5 3192.5 1653.37 3192.5 1649.5Z" stroke="#000000" stroke-width="3" stroke-linecap="round" stroke-linejoin="round" stroke-miterlimit="10" fill="#FFEB7B" fill-rule="evenodd"/><path d="M3208.5 1649.5C3208.5 1645.63 3211.63 1642.5 3215.5 1642.5 3219.37 1642.5 3222.5 1645.63 3222.5 1649.5 3222.5 1653.37 3219.37 1656.5 3215.5 1656.5 3211.63 1656.5 3208.5 1653.37 3208.5 1649.5Z" stroke="#000000" stroke-width="3" stroke-linecap="round" stroke-linejoin="round" stroke-miterlimit="10" fill="#FFEB7B" fill-rule="evenodd"/><path d="M3230.5 1649.5C3230.5 1645.63 3233.63 1642.5 3237.5 1642.5 3241.37 1642.5 3244.5 1645.63 3244.5 1649.5 3244.5 1653.37 3241.37 1656.5 3237.5 1656.5 3233.63 1656.5 3230.5 1653.37 3230.5 1649.5Z" stroke="#000000" stroke-width="3" stroke-linecap="round" stroke-linejoin="round" stroke-miterlimit="10" fill="#FFEB7B" fill-rule="evenodd"/><path d="M3248.5 1649.5C3248.5 1645.63 3251.63 1642.5 3255.5 1642.5 3259.37 1642.5 3262.5 1645.63 3262.5 1649.5 3262.5 1653.37 3259.37 1656.5 3255.5 1656.5 3251.63 1656.5 3248.5 1653.37 3248.5 1649.5Z" stroke="#000000" stroke-width="3" stroke-linecap="round" stroke-linejoin="round" stroke-miterlimit="10" fill="#FFEB7B" fill-rule="evenodd"/><path d="M3265.5 1649.5C3265.5 1645.63 3268.63 1642.5 3272.5 1642.5 3276.37 1642.5 3279.5 1645.63 3279.5 1649.5 3279.5 1653.37 3276.37 1656.5 3272.5 1656.5 3268.63 1656.5 3265.5 1653.37 3265.5 1649.5Z" stroke="#000000" stroke-width="3" stroke-linecap="round" stroke-linejoin="round" stroke-miterlimit="10" fill="#FFEB7B" fill-rule="evenodd"/><path d="M3257.5 1636.5C3257.5 1632.63 3260.63 1629.5 3264.5 1629.5 3268.37 1629.5 3271.5 1632.63 3271.5 1636.5 3271.5 1640.37 3268.37 1643.5 3264.5 1643.5 3260.63 1643.5 3257.5 1640.37 3257.5 1636.5Z" stroke="#000000" stroke-width="3" stroke-linecap="round" stroke-linejoin="round" stroke-miterlimit="10" fill="#FFEB7B" fill-rule="evenodd"/><path d="M3264.5 1621.5C3264.5 1617.63 3267.63 1614.5 3271.5 1614.5 3275.37 1614.5 3278.5 1617.63 3278.5 1621.5 3278.5 1625.37 3275.37 1628.5 3271.5 1628.5 3267.63 1628.5 3264.5 1625.37 3264.5 1621.5Z" stroke="#000000" stroke-width="3" stroke-linecap="round" stroke-linejoin="round" stroke-miterlimit="10" fill="#FFEB7B" fill-rule="evenodd"/><path d="M3241.5 1635.5C3241.5 1631.63 3244.41 1628.5 3248 1628.5 3251.59 1628.5 3254.5 1631.63 3254.5 1635.5 3254.5 1639.37 3251.59 1642.5 3248 1642.5 3244.41 1642.5 3241.5 1639.37 3241.5 1635.5Z" stroke="#000000" stroke-width="3" stroke-linecap="round" stroke-linejoin="round" stroke-miterlimit="10" fill="#FFEB7B" fill-rule="evenodd"/><path d="M3112.5 1605.5C3112.5 1601.63 3115.41 1598.5 3119 1598.5 3122.59 1598.5 3125.5 1601.63 3125.5 1605.5 3125.5 1609.37 3122.59 1612.5 3119 1612.5 3115.41 1612.5 3112.5 1609.37 3112.5 1605.5Z" stroke="#000000" stroke-width="3" stroke-linecap="round" stroke-linejoin="round" stroke-miterlimit="10" fill="#FFEB7B" fill-rule="evenodd"/><path d="M3153.5 1624.5C3153.5 1620.63 3156.63 1617.5 3160.5 1617.5 3164.37 1617.5 3167.5 1620.63 3167.5 1624.5 3167.5 1628.37 3164.37 1631.5 3160.5 1631.5 3156.63 1631.5 3153.5 1628.37 3153.5 1624.5Z" stroke="#000000" stroke-width="3" stroke-linecap="round" stroke-linejoin="round" stroke-miterlimit="10" fill="#FFEB7B" fill-rule="evenodd"/><path d="M3170.5 1627.5C3170.5 1623.63 3173.63 1620.5 3177.5 1620.5 3181.37 1620.5 3184.5 1623.63 3184.5 1627.5 3184.5 1631.37 3181.37 1634.5 3177.5 1634.5 3173.63 1634.5 3170.5 1631.37 3170.5 1627.5Z" stroke="#000000" stroke-width="3" stroke-linecap="round" stroke-linejoin="round" stroke-miterlimit="10" fill="#FFEB7B" fill-rule="evenodd"/><path d="M3219.5 1637.5C3219.5 1633.63 3222.63 1630.5 3226.5 1630.5 3230.37 1630.5 3233.5 1633.63 3233.5 1637.5 3233.5 1641.37 3230.37 1644.5 3226.5 1644.5 3222.63 1644.5 3219.5 1641.37 3219.5 1637.5Z" stroke="#000000" stroke-width="3" stroke-linecap="round" stroke-linejoin="round" stroke-miterlimit="10" fill="#FFEB7B" fill-rule="evenodd"/><path d="M3200.5 1635.5C3200.5 1631.63 3203.63 1628.5 3207.5 1628.5 3211.37 1628.5 3214.5 1631.63 3214.5 1635.5 3214.5 1639.37 3211.37 1642.5 3207.5 1642.5 3203.63 1642.5 3200.5 1639.37 3200.5 1635.5Z" stroke="#000000" stroke-width="3" stroke-linecap="round" stroke-linejoin="round" stroke-miterlimit="10" fill="#FFEB7B" fill-rule="evenodd"/><path d="M3191.5 1623.5C3191.5 1619.63 3194.63 1616.5 3198.5 1616.5 3202.37 1616.5 3205.5 1619.63 3205.5 1623.5 3205.5 1627.37 3202.37 1630.5 3198.5 1630.5 3194.63 1630.5 3191.5 1627.37 3191.5 1623.5Z" stroke="#000000" stroke-width="3" stroke-linecap="round" stroke-linejoin="round" stroke-miterlimit="10" fill="#FFEB7B" fill-rule="evenodd"/><path d="M3210.5 1623.5C3210.5 1619.63 3213.63 1616.5 3217.5 1616.5 3221.37 1616.5 3224.5 1619.63 3224.5 1623.5 3224.5 1627.37 3221.37 1630.5 3217.5 1630.5 3213.63 1630.5 3210.5 1627.37 3210.5 1623.5Z" stroke="#000000" stroke-width="3" stroke-linecap="round" stroke-linejoin="round" stroke-miterlimit="10" fill="#FFEB7B" fill-rule="evenodd"/><path d="M3229.5 1624.5C3229.5 1620.63 3232.63 1617.5 3236.5 1617.5 3240.37 1617.5 3243.5 1620.63 3243.5 1624.5 3243.5 1628.37 3240.37 1631.5 3236.5 1631.5 3232.63 1631.5 3229.5 1628.37 3229.5 1624.5Z" stroke="#000000" stroke-width="3" stroke-linecap="round" stroke-linejoin="round" stroke-miterlimit="10" fill="#FFEB7B" fill-rule="evenodd"/><path d="M3246.5 1620.5C3246.5 1616.63 3249.63 1613.5 3253.5 1613.5 3257.37 1613.5 3260.5 1616.63 3260.5 1620.5 3260.5 1624.37 3257.37 1627.5 3253.5 1627.5 3249.63 1627.5 3246.5 1624.37 3246.5 1620.5Z" stroke="#000000" stroke-width="3" stroke-linecap="round" stroke-linejoin="round" stroke-miterlimit="10" fill="#FFEB7B" fill-rule="evenodd"/><path d="M3220.5 1610.5C3220.5 1606.63 3223.63 1603.5 3227.5 1603.5 3231.37 1603.5 3234.5 1606.63 3234.5 1610.5 3234.5 1614.37 3231.37 1617.5 3227.5 1617.5 3223.63 1617.5 3220.5 1614.37 3220.5 1610.5Z" stroke="#000000" stroke-width="3" stroke-linecap="round" stroke-linejoin="round" stroke-miterlimit="10" fill="#FFEB7B" fill-rule="evenodd"/><path d="M3178.5 1613.5C3178.5 1609.63 3181.63 1606.5 3185.5 1606.5 3189.37 1606.5 3192.5 1609.63 3192.5 1613.5 3192.5 1617.37 3189.37 1620.5 3185.5 1620.5 3181.63 1620.5 3178.5 1617.37 3178.5 1613.5Z" stroke="#000000" stroke-width="3" stroke-linecap="round" stroke-linejoin="round" stroke-miterlimit="10" fill="#FFEB7B" fill-rule="evenodd"/><path d="M3256.5 1607.5C3256.5 1603.63 3259.63 1600.5 3263.5 1600.5 3267.37 1600.5 3270.5 1603.63 3270.5 1607.5 3270.5 1611.37 3267.37 1614.5 3263.5 1614.5 3259.63 1614.5 3256.5 1611.37 3256.5 1607.5Z" stroke="#000000" stroke-width="3" stroke-linecap="round" stroke-linejoin="round" stroke-miterlimit="10" fill="#FFEB7B" fill-rule="evenodd"/><path d="M3236.5 1607.5C3236.5 1603.63 3239.63 1600.5 3243.5 1600.5 3247.37 1600.5 3250.5 1603.63 3250.5 1607.5 3250.5 1611.37 3247.37 1614.5 3243.5 1614.5 3239.63 1614.5 3236.5 1611.37 3236.5 1607.5Z" stroke="#000000" stroke-width="3" stroke-linecap="round" stroke-linejoin="round" stroke-miterlimit="10" fill="#FFEB7B" fill-rule="evenodd"/><path d="M3201.5 1610.5C3201.5 1606.63 3204.63 1603.5 3208.5 1603.5 3212.37 1603.5 3215.5 1606.63 3215.5 1610.5 3215.5 1614.37 3212.37 1617.5 3208.5 1617.5 3204.63 1617.5 3201.5 1614.37 3201.5 1610.5Z" stroke="#000000" stroke-width="3" stroke-linecap="round" stroke-linejoin="round" stroke-miterlimit="10" fill="#FFEB7B" fill-rule="evenodd"/><path d="M3135.5 1620.5C3135.5 1616.63 3138.63 1613.5 3142.5 1613.5 3146.37 1613.5 3149.5 1616.63 3149.5 1620.5 3149.5 1624.37 3146.37 1627.5 3142.5 1627.5 3138.63 1627.5 3135.5 1624.37 3135.5 1620.5Z" stroke="#000000" stroke-width="3" stroke-linecap="round" stroke-linejoin="round" stroke-miterlimit="10" fill="#FFEB7B" fill-rule="evenodd"/><path d="M3147.5 1610.5C3147.5 1606.63 3150.63 1603.5 3154.5 1603.5 3158.37 1603.5 3161.5 1606.63 3161.5 1610.5 3161.5 1614.37 3158.37 1617.5 3154.5 1617.5 3150.63 1617.5 3147.5 1614.37 3147.5 1610.5Z" stroke="#000000" stroke-width="3" stroke-linecap="round" stroke-linejoin="round" stroke-miterlimit="10" fill="#FFEB7B" fill-rule="evenodd"/><path d="M3163.5 1607C3163.5 1603.41 3166.63 1600.5 3170.5 1600.5 3174.37 1600.5 3177.5 1603.41 3177.5 1607 3177.5 1610.59 3174.37 1613.5 3170.5 1613.5 3166.63 1613.5 3163.5 1610.59 3163.5 1607Z" stroke="#000000" stroke-width="3" stroke-linecap="round" stroke-linejoin="round" stroke-miterlimit="10" fill="#FFEB7B" fill-rule="evenodd"/><path d="M3128.5 1605.5C3128.5 1601.63 3131.63 1598.5 3135.5 1598.5 3139.37 1598.5 3142.5 1601.63 3142.5 1605.5 3142.5 1609.37 3139.37 1612.5 3135.5 1612.5 3131.63 1612.5 3128.5 1609.37 3128.5 1605.5Z" stroke="#000000" stroke-width="3" stroke-linecap="round" stroke-linejoin="round" stroke-miterlimit="10" fill="#FFEB7B" fill-rule="evenodd"/><path d="M3272.5 1607.5C3272.5 1603.63 3275.63 1600.5 3279.5 1600.5 3283.37 1600.5 3286.5 1603.63 3286.5 1607.5 3286.5 1611.37 3283.37 1614.5 3279.5 1614.5 3275.63 1614.5 3272.5 1611.37 3272.5 1607.5Z" stroke="#000000" stroke-width="3" stroke-linecap="round" stroke-linejoin="round" stroke-miterlimit="10" fill="#FFEB7B" fill-rule="evenodd"/><path d="M3273.5 1635.5C3273.5 1631.63 3276.63 1628.5 3280.5 1628.5 3284.37 1628.5 3287.5 1631.63 3287.5 1635.5 3287.5 1639.37 3284.37 1642.5 3280.5 1642.5 3276.63 1642.5 3273.5 1639.37 3273.5 1635.5Z" stroke="#000000" stroke-width="3" stroke-linecap="round" stroke-linejoin="round" stroke-miterlimit="10" fill="#FFEB7B" fill-rule="evenodd"/><path d="M3189.5 1605.5C3189.5 1601.63 3192.63 1598.5 3196.5 1598.5 3200.37 1598.5 3203.5 1601.63 3203.5 1605.5 3203.5 1609.37 3200.37 1612.5 3196.5 1612.5 3192.63 1612.5 3189.5 1609.37 3189.5 1605.5Z" stroke="#000000" stroke-width="3" stroke-linecap="round" stroke-linejoin="round" stroke-miterlimit="10" fill="#FFEB7B" fill-rule="evenodd"/><path d="M3161.5 1617.5C3161.5 1613.63 3164.63 1610.5 3168.5 1610.5 3172.37 1610.5 3175.5 1613.63 3175.5 1617.5 3175.5 1621.37 3172.37 1624.5 3168.5 1624.5 3164.63 1624.5 3161.5 1621.37 3161.5 1617.5Z" stroke="#000000" stroke-width="3" stroke-linecap="round" stroke-linejoin="round" stroke-miterlimit="10" fill="#FFEB7B" fill-rule="evenodd"/><path d="M3141.5 1605.5C3141.5 1601.63 3144.41 1598.5 3148 1598.5 3151.59 1598.5 3154.5 1601.63 3154.5 1605.5 3154.5 1609.37 3151.59 1612.5 3148 1612.5 3144.41 1612.5 3141.5 1609.37 3141.5 1605.5Z" stroke="#000000" stroke-width="3" stroke-linecap="round" stroke-linejoin="round" stroke-miterlimit="10" fill="#FFEB7B" fill-rule="evenodd"/><path d="M3209.5 1604.5C3209.5 1600.63 3212.41 1597.5 3216 1597.5 3219.59 1597.5 3222.5 1600.63 3222.5 1604.5 3222.5 1608.37 3219.59 1611.5 3216 1611.5 3212.41 1611.5 3209.5 1608.37 3209.5 1604.5Z" stroke="#000000" stroke-width="3" stroke-linecap="round" stroke-linejoin="round" stroke-miterlimit="10" fill="#FFEB7B" fill-rule="evenodd"/><path d="M3228.5 1602.5C3228.5 1598.63 3231.63 1595.5 3235.5 1595.5 3239.37 1595.5 3242.5 1598.63 3242.5 1602.5 3242.5 1606.37 3239.37 1609.5 3235.5 1609.5 3231.63 1609.5 3228.5 1606.37 3228.5 1602.5Z" stroke="#000000" stroke-width="3" stroke-linecap="round" stroke-linejoin="round" stroke-miterlimit="10" fill="#FFEB7B" fill-rule="evenodd"/><path d="M3248.5 1604.5C3248.5 1600.63 3251.63 1597.5 3255.5 1597.5 3259.37 1597.5 3262.5 1600.63 3262.5 1604.5 3262.5 1608.37 3259.37 1611.5 3255.5 1611.5 3251.63 1611.5 3248.5 1608.37 3248.5 1604.5Z" stroke="#000000" stroke-width="3" stroke-linecap="round" stroke-linejoin="round" stroke-miterlimit="10" fill="#FFEB7B" fill-rule="evenodd"/><path d="M3223.5 1620.5C3223.5 1616.63 3226.63 1613.5 3230.5 1613.5 3234.37 1613.5 3237.5 1616.63 3237.5 1620.5 3237.5 1624.37 3234.37 1627.5 3230.5 1627.5 3226.63 1627.5 3223.5 1624.37 3223.5 1620.5Z" stroke="#000000" stroke-width="3" stroke-linecap="round" stroke-linejoin="round" stroke-miterlimit="10" fill="#FFEB7B" fill-rule="evenodd"/><path d="M3212.5 1638.5C3212.5 1634.63 3215.63 1631.5 3219.5 1631.5 3223.37 1631.5 3226.5 1634.63 3226.5 1638.5 3226.5 1642.37 3223.37 1645.5 3219.5 1645.5 3215.63 1645.5 3212.5 1642.37 3212.5 1638.5Z" stroke="#000000" stroke-width="3" stroke-linecap="round" stroke-linejoin="round" stroke-miterlimit="10" fill="#FFEB7B" fill-rule="evenodd"/><path d="M3179.5 1648.5C3179.5 1644.63 3182.63 1641.5 3186.5 1641.5 3190.37 1641.5 3193.5 1644.63 3193.5 1648.5 3193.5 1652.37 3190.37 1655.5 3186.5 1655.5 3182.63 1655.5 3179.5 1652.37 3179.5 1648.5Z" stroke="#000000" stroke-width="3" stroke-linecap="round" stroke-linejoin="round" stroke-miterlimit="10" fill="#FFEB7B" fill-rule="evenodd"/><path d="M3180.5 1626.5C3180.5 1622.63 3183.63 1619.5 3187.5 1619.5 3191.37 1619.5 3194.5 1622.63 3194.5 1626.5 3194.5 1630.37 3191.37 1633.5 3187.5 1633.5 3183.63 1633.5 3180.5 1630.37 3180.5 1626.5Z" stroke="#000000" stroke-width="3" stroke-linecap="round" stroke-linejoin="round" stroke-miterlimit="10" fill="#FFEB7B" fill-rule="evenodd"/><path d="M3115.5 1626.5C3115.5 1622.63 3118.63 1619.5 3122.5 1619.5 3126.37 1619.5 3129.5 1622.63 3129.5 1626.5 3129.5 1630.37 3126.37 1633.5 3122.5 1633.5 3118.63 1633.5 3115.5 1630.37 3115.5 1626.5Z" stroke="#000000" stroke-width="3" stroke-linecap="round" stroke-linejoin="round" stroke-miterlimit="10" fill="#FFEB7B" fill-rule="evenodd"/><path d="M3136.5 1645.5C3136.5 1641.63 3139.41 1638.5 3143 1638.5 3146.59 1638.5 3149.5 1641.63 3149.5 1645.5 3149.5 1649.37 3146.59 1652.5 3143 1652.5 3139.41 1652.5 3136.5 1649.37 3136.5 1645.5Z" stroke="#000000" stroke-width="3" stroke-linecap="round" stroke-linejoin="round" stroke-miterlimit="10" fill="#FFEB7B" fill-rule="evenodd"/><path d="M3114.5 1652.5C3114.5 1648.63 3117.63 1645.5 3121.5 1645.5 3125.37 1645.5 3128.5 1648.63 3128.5 1652.5 3128.5 1656.37 3125.37 1659.5 3121.5 1659.5 3117.63 1659.5 3114.5 1656.37 3114.5 1652.5Z" stroke="#000000" stroke-width="3" stroke-linecap="round" stroke-linejoin="round" stroke-miterlimit="10" fill="#FFEB7B" fill-rule="evenodd"/><path d="M3158.5 1651.5C3158.5 1647.63 3161.63 1644.5 3165.5 1644.5 3169.37 1644.5 3172.5 1647.63 3172.5 1651.5 3172.5 1655.37 3169.37 1658.5 3165.5 1658.5 3161.63 1658.5 3158.5 1655.37 3158.5 1651.5Z" stroke="#000000" stroke-width="3" stroke-linecap="round" stroke-linejoin="round" stroke-miterlimit="10" fill="#FFEB7B" fill-rule="evenodd"/><path d="M3219.5 1651.5C3219.5 1647.63 3222.63 1644.5 3226.5 1644.5 3230.37 1644.5 3233.5 1647.63 3233.5 1651.5 3233.5 1655.37 3230.37 1658.5 3226.5 1658.5 3222.63 1658.5 3219.5 1655.37 3219.5 1651.5Z" stroke="#000000" stroke-width="3" stroke-linecap="round" stroke-linejoin="round" stroke-miterlimit="10" fill="#FFEB7B" fill-rule="evenodd"/><path d="M3240.5 1651.5C3240.5 1647.63 3243.63 1644.5 3247.5 1644.5 3251.37 1644.5 3254.5 1647.63 3254.5 1651.5 3254.5 1655.37 3251.37 1658.5 3247.5 1658.5 3243.63 1658.5 3240.5 1655.37 3240.5 1651.5Z" stroke="#000000" stroke-width="3" stroke-linecap="round" stroke-linejoin="round" stroke-miterlimit="10" fill="#FFEB7B" fill-rule="evenodd"/><path d="M3228.5 1637.5C3228.5 1633.63 3231.63 1630.5 3235.5 1630.5 3239.37 1630.5 3242.5 1633.63 3242.5 1637.5 3242.5 1641.37 3239.37 1644.5 3235.5 1644.5 3231.63 1644.5 3228.5 1641.37 3228.5 1637.5Z" stroke="#000000" stroke-width="3" stroke-linecap="round" stroke-linejoin="round" stroke-miterlimit="10" fill="#FFEB7B" fill-rule="evenodd"/><path d="M3246.5 1639.5C3246.5 1635.63 3249.63 1632.5 3253.5 1632.5 3257.37 1632.5 3260.5 1635.63 3260.5 1639.5 3260.5 1643.37 3257.37 1646.5 3253.5 1646.5 3249.63 1646.5 3246.5 1643.37 3246.5 1639.5Z" stroke="#000000" stroke-width="3" stroke-linecap="round" stroke-linejoin="round" stroke-miterlimit="10" fill="#FFEB7B" fill-rule="evenodd"/><path d="M3255.5 1615.5C3255.5 1611.63 3258.63 1608.5 3262.5 1608.5 3266.37 1608.5 3269.5 1611.63 3269.5 1615.5 3269.5 1619.37 3266.37 1622.5 3262.5 1622.5 3258.63 1622.5 3255.5 1619.37 3255.5 1615.5Z" stroke="#000000" stroke-width="3" stroke-linecap="round" stroke-linejoin="round" stroke-miterlimit="10" fill="#FFEB7B" fill-rule="evenodd"/><path d="M3250.5 1628.5C3250.5 1624.63 3253.63 1621.5 3257.5 1621.5 3261.37 1621.5 3264.5 1624.63 3264.5 1628.5 3264.5 1632.37 3261.37 1635.5 3257.5 1635.5 3253.63 1635.5 3250.5 1632.37 3250.5 1628.5Z" stroke="#000000" stroke-width="3" stroke-linecap="round" stroke-linejoin="round" stroke-miterlimit="10" fill="#FFEB7B" fill-rule="evenodd"/><path d="M3259.5 1647.5C3259.5 1643.63 3262.63 1640.5 3266.5 1640.5 3270.37 1640.5 3273.5 1643.63 3273.5 1647.5 3273.5 1651.37 3270.37 1654.5 3266.5 1654.5 3262.63 1654.5 3259.5 1651.37 3259.5 1647.5Z" stroke="#000000" stroke-width="3" stroke-linecap="round" stroke-linejoin="round" stroke-miterlimit="10" fill="#FFEB7B" fill-rule="evenodd"/><path d="M3175.5 1604.5C3175.5 1600.63 3178.63 1597.5 3182.5 1597.5 3186.37 1597.5 3189.5 1600.63 3189.5 1604.5 3189.5 1608.37 3186.37 1611.5 3182.5 1611.5 3178.63 1611.5 3175.5 1608.37 3175.5 1604.5Z" stroke="#000000" stroke-width="3" stroke-linecap="round" stroke-linejoin="round" stroke-miterlimit="10" fill="#FFEB7B" fill-rule="evenodd"/><path d="M3118.5 1610.5C3118.5 1606.63 3121.63 1603.5 3125.5 1603.5 3129.37 1603.5 3132.5 1606.63 3132.5 1610.5 3132.5 1614.37 3129.37 1617.5 3125.5 1617.5 3121.63 1617.5 3118.5 1614.37 3118.5 1610.5Z" stroke="#000000" stroke-width="3" stroke-linecap="round" stroke-linejoin="round" stroke-miterlimit="10" fill="#FFEB7B" fill-rule="evenodd"/><path d="M3136.5 1651.5C3136.5 1647.63 3139.63 1644.5 3143.5 1644.5 3147.37 1644.5 3150.5 1647.63 3150.5 1651.5 3150.5 1655.37 3147.37 1658.5 3143.5 1658.5 3139.63 1658.5 3136.5 1655.37 3136.5 1651.5Z" stroke="#000000" stroke-width="3" stroke-linecap="round" stroke-linejoin="round" stroke-miterlimit="10" fill="#FFEB7B" fill-rule="evenodd"/><path d="M3153.5 1603.5C3153.5 1599.63 3156.63 1596.5 3160.5 1596.5 3164.37 1596.5 3167.5 1599.63 3167.5 1603.5 3167.5 1607.37 3164.37 1610.5 3160.5 1610.5 3156.63 1610.5 3153.5 1607.37 3153.5 1603.5Z" stroke="#000000" stroke-width="3" stroke-linecap="round" stroke-linejoin="round" stroke-miterlimit="10" fill="#FFEB7B" fill-rule="evenodd"/><path d="M3258.5 1604.5C3258.5 1600.63 3261.63 1597.5 3265.5 1597.5 3269.37 1597.5 3272.5 1600.63 3272.5 1604.5 3272.5 1608.37 3269.37 1611.5 3265.5 1611.5 3261.63 1611.5 3258.5 1608.37 3258.5 1604.5Z" stroke="#000000" stroke-width="3" stroke-linecap="round" stroke-linejoin="round" stroke-miterlimit="10" fill="#FFEB7B" fill-rule="evenodd"/><path d="M3198.5 1623.5C3198.5 1619.63 3201.63 1616.5 3205.5 1616.5 3209.37 1616.5 3212.5 1619.63 3212.5 1623.5 3212.5 1627.37 3209.37 1630.5 3205.5 1630.5 3201.63 1630.5 3198.5 1627.37 3198.5 1623.5Z" stroke="#000000" stroke-width="3" stroke-linecap="round" stroke-linejoin="round" stroke-miterlimit="10" fill="#FFEB7B" fill-rule="evenodd"/><path d="M3190.5 1634.5C3190.5 1630.63 3193.63 1627.5 3197.5 1627.5 3201.37 1627.5 3204.5 1630.63 3204.5 1634.5 3204.5 1638.37 3201.37 1641.5 3197.5 1641.5 3193.63 1641.5 3190.5 1638.37 3190.5 1634.5Z" stroke="#000000" stroke-width="3" stroke-linecap="round" stroke-linejoin="round" stroke-miterlimit="10" fill="#FFEB7B" fill-rule="evenodd"/><path d="M3237.5 1627.5C3237.5 1623.63 3240.63 1620.5 3244.5 1620.5 3248.37 1620.5 3251.5 1623.63 3251.5 1627.5 3251.5 1631.37 3248.37 1634.5 3244.5 1634.5 3240.63 1634.5 3237.5 1631.37 3237.5 1627.5Z" stroke="#000000" stroke-width="3" stroke-linecap="round" stroke-linejoin="round" stroke-miterlimit="10" fill="#FFEB7B" fill-rule="evenodd"/><path d="M3144.5 1620.5C3144.5 1616.63 3147.63 1613.5 3151.5 1613.5 3155.37 1613.5 3158.5 1616.63 3158.5 1620.5 3158.5 1624.37 3155.37 1627.5 3151.5 1627.5 3147.63 1627.5 3144.5 1624.37 3144.5 1620.5Z" stroke="#000000" stroke-width="3" stroke-linecap="round" stroke-linejoin="round" stroke-miterlimit="10" fill="#FFEB7B" fill-rule="evenodd"/><path d="M3125.5 1613.5C3125.5 1609.63 3128.63 1606.5 3132.5 1606.5 3136.37 1606.5 3139.5 1609.63 3139.5 1613.5 3139.5 1617.37 3136.37 1620.5 3132.5 1620.5 3128.63 1620.5 3125.5 1617.37 3125.5 1613.5Z" stroke="#000000" stroke-width="3" stroke-linecap="round" stroke-linejoin="round" stroke-miterlimit="10" fill="#FFEB7B" fill-rule="evenodd"/><path d="M3127.5 1627.5C3127.5 1623.63 3130.63 1620.5 3134.5 1620.5 3138.37 1620.5 3141.5 1623.63 3141.5 1627.5 3141.5 1631.37 3138.37 1634.5 3134.5 1634.5 3130.63 1634.5 3127.5 1631.37 3127.5 1627.5Z" stroke="#000000" stroke-width="3" stroke-linecap="round" stroke-linejoin="round" stroke-miterlimit="10" fill="#FFEB7B" fill-rule="evenodd"/><path d="M3198.5 1652.5C3198.5 1648.63 3201.63 1645.5 3205.5 1645.5 3209.37 1645.5 3212.5 1648.63 3212.5 1652.5 3212.5 1656.37 3209.37 1659.5 3205.5 1659.5 3201.63 1659.5 3198.5 1656.37 3198.5 1652.5Z" stroke="#000000" stroke-width="3" stroke-linecap="round" stroke-linejoin="round" stroke-miterlimit="10" fill="#FFEB7B" fill-rule="evenodd"/><path d="M3182.5 1651.5C3182.5 1647.63 3185.63 1644.5 3189.5 1644.5 3193.37 1644.5 3196.5 1647.63 3196.5 1651.5 3196.5 1655.37 3193.37 1658.5 3189.5 1658.5 3185.63 1658.5 3182.5 1655.37 3182.5 1651.5Z" stroke="#000000" stroke-width="3" stroke-linecap="round" stroke-linejoin="round" stroke-miterlimit="10" fill="#FFEB7B" fill-rule="evenodd"/><path d="M3169.5 1639C3169.5 1635.41 3172.63 1632.5 3176.5 1632.5 3180.37 1632.5 3183.5 1635.41 3183.5 1639 3183.5 1642.59 3180.37 1645.5 3176.5 1645.5 3172.63 1645.5 3169.5 1642.59 3169.5 1639Z" stroke="#000000" stroke-width="3" stroke-linecap="round" stroke-linejoin="round" stroke-miterlimit="10" fill="#FFEB7B" fill-rule="evenodd"/><path d="M3217.5 1603.5C3217.5 1599.63 3220.63 1596.5 3224.5 1596.5 3228.37 1596.5 3231.5 1599.63 3231.5 1603.5 3231.5 1607.37 3228.37 1610.5 3224.5 1610.5 3220.63 1610.5 3217.5 1607.37 3217.5 1603.5Z" stroke="#000000" stroke-width="3" stroke-linecap="round" stroke-linejoin="round" stroke-miterlimit="10" fill="#FFEB7B" fill-rule="evenodd"/><path d="M3201.5 1603.5C3201.5 1599.63 3204.63 1596.5 3208.5 1596.5 3212.37 1596.5 3215.5 1599.63 3215.5 1603.5 3215.5 1607.37 3212.37 1610.5 3208.5 1610.5 3204.63 1610.5 3201.5 1607.37 3201.5 1603.5Z" stroke="#000000" stroke-width="3" stroke-linecap="round" stroke-linejoin="round" stroke-miterlimit="10" fill="#FFEB7B" fill-rule="evenodd"/><path d="M3165.5 1604.5C3165.5 1600.63 3168.63 1597.5 3172.5 1597.5 3176.37 1597.5 3179.5 1600.63 3179.5 1604.5 3179.5 1608.37 3176.37 1611.5 3172.5 1611.5 3168.63 1611.5 3165.5 1608.37 3165.5 1604.5Z" stroke="#000000" stroke-width="3" stroke-linecap="round" stroke-linejoin="round" stroke-miterlimit="10" fill="#FFEB7B" fill-rule="evenodd"/><path d="M3138.5 1616.5C3138.5 1612.63 3141.41 1609.5 3145 1609.5 3148.59 1609.5 3151.5 1612.63 3151.5 1616.5 3151.5 1620.37 3148.59 1623.5 3145 1623.5 3141.41 1623.5 3138.5 1620.37 3138.5 1616.5Z" stroke="#000000" stroke-width="3" stroke-linecap="round" stroke-linejoin="round" stroke-miterlimit="10" fill="#FFEB7B" fill-rule="evenodd"/><path d="M3134.5 1627.5C3134.5 1623.63 3137.63 1620.5 3141.5 1620.5 3145.37 1620.5 3148.5 1623.63 3148.5 1627.5 3148.5 1631.37 3145.37 1634.5 3141.5 1634.5 3137.63 1634.5 3134.5 1631.37 3134.5 1627.5Z" stroke="#000000" stroke-width="3" stroke-linecap="round" stroke-linejoin="round" stroke-miterlimit="10" fill="#FFEB7B" fill-rule="evenodd"/><path d="M3169.5 1627.5C3169.5 1623.63 3172.63 1620.5 3176.5 1620.5 3180.37 1620.5 3183.5 1623.63 3183.5 1627.5 3183.5 1631.37 3180.37 1634.5 3176.5 1634.5 3172.63 1634.5 3169.5 1631.37 3169.5 1627.5Z" stroke="#000000" stroke-width="3" stroke-linecap="round" stroke-linejoin="round" stroke-miterlimit="10" fill="#FFEB7B" fill-rule="evenodd"/><path d="M3231.5 1617.5C3231.5 1613.63 3234.63 1610.5 3238.5 1610.5 3242.37 1610.5 3245.5 1613.63 3245.5 1617.5 3245.5 1621.37 3242.37 1624.5 3238.5 1624.5 3234.63 1624.5 3231.5 1621.37 3231.5 1617.5Z" stroke="#000000" stroke-width="3" stroke-linecap="round" stroke-linejoin="round" stroke-miterlimit="10" fill="#FFEB7B" fill-rule="evenodd"/><path d="M3119.5 1636.5C3119.5 1632.63 3122.41 1629.5 3126 1629.5 3129.59 1629.5 3132.5 1632.63 3132.5 1636.5 3132.5 1640.37 3129.59 1643.5 3126 1643.5 3122.41 1643.5 3119.5 1640.37 3119.5 1636.5Z" stroke="#000000" stroke-width="3" stroke-linecap="round" stroke-linejoin="round" stroke-miterlimit="10" fill="#FFEB7B" fill-rule="evenodd"/><path d="M3150.5 1637.5C3150.5 1633.63 3153.63 1630.5 3157.5 1630.5 3161.37 1630.5 3164.5 1633.63 3164.5 1637.5 3164.5 1641.37 3161.37 1644.5 3157.5 1644.5 3153.63 1644.5 3150.5 1641.37 3150.5 1637.5Z" stroke="#000000" stroke-width="3" stroke-linecap="round" stroke-linejoin="round" stroke-miterlimit="10" fill="#FFEB7B" fill-rule="evenodd"/><path d="M3188.5 1615C3188.5 1611.41 3191.63 1608.5 3195.5 1608.5 3199.37 1608.5 3202.5 1611.41 3202.5 1615 3202.5 1618.59 3199.37 1621.5 3195.5 1621.5 3191.63 1621.5 3188.5 1618.59 3188.5 1615Z" stroke="#000000" stroke-width="3" stroke-linecap="round" stroke-linejoin="round" stroke-miterlimit="10" fill="#FFEB7B" fill-rule="evenodd"/><path d="M3209.5 1615.5C3209.5 1611.63 3212.63 1608.5 3216.5 1608.5 3220.37 1608.5 3223.5 1611.63 3223.5 1615.5 3223.5 1619.37 3220.37 1622.5 3216.5 1622.5 3212.63 1622.5 3209.5 1619.37 3209.5 1615.5Z" stroke="#000000" stroke-width="3" stroke-linecap="round" stroke-linejoin="round" stroke-miterlimit="10" fill="#FFEB7B" fill-rule="evenodd"/><path d="M3255.5 1651.5C3255.5 1647.63 3258.63 1644.5 3262.5 1644.5 3266.37 1644.5 3269.5 1647.63 3269.5 1651.5 3269.5 1655.37 3266.37 1658.5 3262.5 1658.5 3258.63 1658.5 3255.5 1655.37 3255.5 1651.5Z" stroke="#000000" stroke-width="3" stroke-linecap="round" stroke-linejoin="round" stroke-miterlimit="10" fill="#FFEB7B" fill-rule="evenodd"/><path d="M3160.5 1631C3160.5 1627.41 3163.63 1624.5 3167.5 1624.5 3171.37 1624.5 3174.5 1627.41 3174.5 1631 3174.5 1634.59 3171.37 1637.5 3167.5 1637.5 3163.63 1637.5 3160.5 1634.59 3160.5 1631Z" stroke="#000000" stroke-width="3" stroke-linecap="round" stroke-linejoin="round" stroke-miterlimit="10" fill="#FFEB7B" fill-rule="evenodd"/><path d="M3171.5 1616.5C3171.5 1612.63 3174.63 1609.5 3178.5 1609.5 3182.37 1609.5 3185.5 1612.63 3185.5 1616.5 3185.5 1620.37 3182.37 1623.5 3178.5 1623.5 3174.63 1623.5 3171.5 1620.37 3171.5 1616.5Z" stroke="#000000" stroke-width="3" stroke-linecap="round" stroke-linejoin="round" stroke-miterlimit="10" fill="#FFEB7B" fill-rule="evenodd"/><path d="M3217.5 1628.5C3217.5 1624.63 3220.63 1621.5 3224.5 1621.5 3228.37 1621.5 3231.5 1624.63 3231.5 1628.5 3231.5 1632.37 3228.37 1635.5 3224.5 1635.5 3220.63 1635.5 3217.5 1632.37 3217.5 1628.5Z" stroke="#000000" stroke-width="3" stroke-linecap="round" stroke-linejoin="round" stroke-miterlimit="10" fill="#FFEB7B" fill-rule="evenodd"/><path d="M3264.5 1635.5C3264.5 1631.63 3267.63 1628.5 3271.5 1628.5 3275.37 1628.5 3278.5 1631.63 3278.5 1635.5 3278.5 1639.37 3275.37 1642.5 3271.5 1642.5 3267.63 1642.5 3264.5 1639.37 3264.5 1635.5Z" stroke="#000000" stroke-width="3" stroke-linecap="round" stroke-linejoin="round" stroke-miterlimit="10" fill="#FFEB7B" fill-rule="evenodd"/><path d="M3264.5 1610.5C3264.5 1606.63 3267.63 1603.5 3271.5 1603.5 3275.37 1603.5 3278.5 1606.63 3278.5 1610.5 3278.5 1614.37 3275.37 1617.5 3271.5 1617.5 3267.63 1617.5 3264.5 1614.37 3264.5 1610.5Z" stroke="#000000" stroke-width="3" stroke-linecap="round" stroke-linejoin="round" stroke-miterlimit="10" fill="#FFEB7B" fill-rule="evenodd"/><path d="M3244.5 1610.5C3244.5 1606.63 3247.63 1603.5 3251.5 1603.5 3255.37 1603.5 3258.5 1606.63 3258.5 1610.5 3258.5 1614.37 3255.37 1617.5 3251.5 1617.5 3247.63 1617.5 3244.5 1614.37 3244.5 1610.5Z" stroke="#000000" stroke-width="3" stroke-linecap="round" stroke-linejoin="round" stroke-miterlimit="10" fill="#FFEB7B" fill-rule="evenodd"/><path d="M3108.5 1642.5C3108.5 1638.63 3111.63 1635.5 3115.5 1635.5 3119.37 1635.5 3122.5 1638.63 3122.5 1642.5 3122.5 1646.37 3119.37 1649.5 3115.5 1649.5 3111.63 1649.5 3108.5 1646.37 3108.5 1642.5Z" stroke="#000000" stroke-width="3" stroke-linecap="round" stroke-linejoin="round" stroke-miterlimit="10" fill="#FFEB7B" fill-rule="evenodd"/><path d="M3122.5 1603.5C3122.5 1599.63 3125.63 1596.5 3129.5 1596.5 3133.37 1596.5 3136.5 1599.63 3136.5 1603.5 3136.5 1607.37 3133.37 1610.5 3129.5 1610.5 3125.63 1610.5 3122.5 1607.37 3122.5 1603.5Z" stroke="#000000" stroke-width="3" stroke-linecap="round" stroke-linejoin="round" stroke-miterlimit="10" fill="#FFEB7B" fill-rule="evenodd"/><path d="M3081.5 1606.17C3081.5 1600.28 3086.28 1595.5 3092.17 1595.5L3285.83 1595.5C3291.72 1595.5 3296.5 1600.28 3296.5 1606.17L3296.5 1648.83C3296.5 1654.72 3291.72 1659.5 3285.83 1659.5L3092.17 1659.5C3086.28 1659.5 3081.5 1654.72 3081.5 1648.83Z" stroke="#000000" stroke-width="3" stroke-linecap="round" stroke-linejoin="round" stroke-miterlimit="10" fill="none" fill-rule="evenodd"/><path d="M3073.5 1591.66C3073.5 1589.36 3075.36 1587.5 3077.66 1587.5L3115.34 1587.5C3117.64 1587.5 3119.5 1589.36 3119.5 1591.66L3119.5 1663.34C3119.5 1665.64 3117.64 1667.5 3115.34 1667.5L3077.66 1667.5C3075.36 1667.5 3073.5 1665.64 3073.5 1663.34Z" stroke="#000000" stroke-width="3" stroke-linecap="round" stroke-linejoin="round" stroke-miterlimit="10" fill="#D9D9D9" fill-rule="evenodd"/><path d="M3256.5 1591.75C3256.5 1589.4 3258.4 1587.5 3260.75 1587.5L3299.25 1587.5C3301.6 1587.5 3303.5 1589.4 3303.5 1591.75L3303.5 1663.25C3303.5 1665.6 3301.6 1667.5 3299.25 1667.5L3260.75 1667.5C3258.4 1667.5 3256.5 1665.6 3256.5 1663.25Z" stroke="#000000" stroke-width="3" stroke-linecap="round" stroke-linejoin="round" stroke-miterlimit="10" fill="#D9D9D9" fill-rule="evenodd"/></g></svg>