<svg width="205" height="149" xmlns="http://www.w3.org/2000/svg" xmlns:xlink="http://www.w3.org/1999/xlink" xml:space="preserve" overflow="hidden"><defs><clipPath id="clip0"><rect x="2984" y="908" width="205" height="149"/></clipPath></defs><g clip-path="url(#clip0)" transform="translate(-2984 -908)"><path d="M3007.56 936.5C3008.08 936.5 3008.5 936.921 3008.5 937.441L3008.5 948.559C3008.5 949.079 3008.08 949.5 3007.56 949.5L2997.44 949.5C2996.92 949.5 2996.5 949.079 2996.5 948.559L2996.5 937.441C2996.5 936.921 2996.92 936.5 2997.44 936.5Z" stroke="#000000" stroke-width="3" stroke-linecap="round" stroke-linejoin="round" stroke-miterlimit="10" fill="#D9D9D9" fill-rule="evenodd"/><path d="M3023.87 915.5C3024.22 915.5 3024.5 915.781 3024.5 916.127L3024.5 922.873C3024.5 923.219 3024.22 923.5 3023.87 923.5L3013.13 923.5C3012.78 923.5 3012.5 923.219 3012.5 922.873L3012.5 916.127C3012.5 915.781 3012.78 915.5 3013.13 915.5Z" stroke="#000000" stroke-width="3" stroke-linecap="round" stroke-linejoin="round" stroke-miterlimit="10" fill="#D9D9D9" fill-rule="evenodd"/><path d="M3022.5 910.441C3022.5 909.921 3022.92 909.5 3023.44 909.5L3033.56 909.5C3034.08 909.5 3034.5 909.921 3034.5 910.441L3034.5 933.559C3034.5 934.079 3034.08 934.5 3033.56 934.5L3023.44 934.5C3022.92 934.5 3022.5 934.079 3022.5 933.559Z" stroke="#000000" stroke-width="3" stroke-linecap="round" stroke-linejoin="round" stroke-miterlimit="10" fill="#D9D9D9" fill-rule="evenodd"/><path d="M3004.5 933.023C3004.5 931.629 3005.63 930.5 3007.02 930.5L3047.98 930.5C3049.37 930.5 3050.5 931.629 3050.5 933.023L3050.5 960.977C3050.5 962.371 3049.37 963.5 3047.98 963.5L3007.02 963.5C3005.63 963.5 3004.5 962.371 3004.5 960.977Z" stroke="#000000" stroke-width="3" stroke-linecap="round" stroke-linejoin="round" stroke-miterlimit="10" fill="#D9D9D9" fill-rule="evenodd"/><path d="M3009.5 913.971C3009.5 913.711 3009.71 913.5 3009.97 913.5L3015.03 913.5C3015.29 913.5 3015.5 913.711 3015.5 913.971L3015.5 925.029C3015.5 925.289 3015.29 925.5 3015.03 925.5L3009.97 925.5C3009.71 925.5 3009.5 925.289 3009.5 925.029Z" stroke="#000000" stroke-width="3" stroke-linecap="round" stroke-linejoin="round" stroke-miterlimit="10" fill="#7F7F7F" fill-rule="evenodd"/><path d="M3081.45 921.5 3156.4 921.5C3156.87 921.5 3157.32 921.64 3157.73 921.894L3157.74 921.894 3159.43 922.302C3166.02 925.523 3171.18 938.113 3172.37 953.99L3172.5 957.5 3157.33 957.5 3157.33 931.127C3157.33 928.589 3155.31 926.532 3152.81 926.532L3085.19 926.532C3082.69 926.532 3080.67 928.589 3080.67 931.127L3080.67 957.5 3065.5 957.5 3065.63 953.99C3066.82 938.113 3071.98 925.523 3078.57 922.302L3080.06 921.943 3080.11 921.894C3080.52 921.64 3080.97 921.5 3081.45 921.5Z" stroke="#000000" stroke-width="3" stroke-miterlimit="8" fill="#7F7F7F" fill-rule="evenodd"/><path d="M2993.97 955.5 3179.03 955.5C3183.71 955.5 3187.5 957.75 3187.5 960.526L3187.5 1050.47C3187.5 1053.25 3183.71 1055.5 3179.03 1055.5L2993.97 1055.5C2989.29 1055.5 2985.5 1053.25 2985.5 1050.47L2985.5 960.526C2985.5 957.75 2989.29 955.5 2993.97 955.5Z" stroke="#000000" stroke-width="3" stroke-linecap="round" stroke-linejoin="round" stroke-miterlimit="10" fill="#D9D9D9" fill-rule="evenodd"/><path d="M3156.5 976C3156.5 972.962 3158.74 970.5 3161.5 970.5 3164.26 970.5 3166.5 972.962 3166.5 976 3166.5 979.038 3164.26 981.5 3161.5 981.5 3158.74 981.5 3156.5 979.038 3156.5 976Z" stroke="#000000" stroke-width="3" stroke-miterlimit="8" fill="#F2F2F2" fill-rule="evenodd"/><path d="M3009.5 970.192C3009.5 967.601 3011.6 965.5 3014.19 965.5L3033.81 965.5C3036.4 965.5 3038.5 967.601 3038.5 970.192L3038.5 1012.81C3038.5 1015.4 3036.4 1017.5 3033.81 1017.5L3014.19 1017.5C3011.6 1017.5 3009.5 1015.4 3009.5 1012.81Z" stroke="#000000" stroke-width="3" stroke-miterlimit="8" fill="#F2F2F2" fill-rule="evenodd"/><path d="M3019.35 965 3028.11 965 3028.7 970.654C3028.87 972.861 3028.98 974.959 3029 976.718 3029.06 983.751 3027.1 990.319 3026.43 996.248 3025.76 1002.18 3024.91 1007.12 3024.97 1012.29L3025.34 1017 3019.77 1017 3019.83 1016.31C3020.35 1009.99 3020.73 1002.79 3020.57 997.12 3020.35 989.564 3017.91 983.46 3018 976.892 3018.05 973.608 3018.49 969.764 3019.09 966.266Z" stroke="#000000" stroke-width="2" stroke-miterlimit="8" fill="#F04C4E" fill-rule="evenodd"/><path d="M3009.5 970.192C3009.5 967.601 3011.6 965.5 3014.19 965.5L3033.81 965.5C3036.4 965.5 3038.5 967.601 3038.5 970.192L3038.5 1012.81C3038.5 1015.4 3036.4 1017.5 3033.81 1017.5L3014.19 1017.5C3011.6 1017.5 3009.5 1015.4 3009.5 1012.81Z" stroke="#000000" stroke-width="3" stroke-miterlimit="8" fill="none" fill-rule="evenodd"/><path d="M3128.5 985.5 3135.5 970.5 3142.5 985.5Z" stroke="#000000" stroke-width="3" stroke-linecap="round" stroke-linejoin="round" stroke-miterlimit="10" fill="#F04C4E" fill-rule="evenodd"/></g></svg>