<svg width="85" height="141" xmlns="http://www.w3.org/2000/svg" xmlns:xlink="http://www.w3.org/1999/xlink" xml:space="preserve" overflow="hidden"><defs><clipPath id="clip0"><rect x="549" y="234" width="85" height="141"/></clipPath></defs><g clip-path="url(#clip0)" transform="translate(-549 -234)"><path d="M566.5 252.167C566.5 251.246 567.246 250.5 568.167 250.5L577.833 250.5C578.754 250.5 579.5 251.246 579.5 252.167L579.5 258.833C579.5 259.754 578.754 260.5 577.833 260.5L568.167 260.5C567.246 260.5 566.5 259.754 566.5 258.833Z" stroke="#000000" stroke-width="3" stroke-miterlimit="8" fill="#D9D9D9" fill-rule="evenodd"/><path d="M595.833 235.5C596.754 235.5 597.5 236.246 597.5 237.167L597.5 246.833C597.5 247.754 596.754 248.5 595.833 248.5L589.167 248.5C588.246 248.5 587.5 247.754 587.5 246.833L587.5 237.167C587.5 236.246 588.246 235.5 589.167 235.5Z" stroke="#000000" stroke-width="3" stroke-miterlimit="8" fill="#D9D9D9" fill-rule="evenodd"/><path d="M0.0685356 0 81.9315 0 82 0.829731 82 64.4032C82 68.0465 78.7763 71 74.7996 71L7.20042 71C3.22372 71 0 68.0465 0 64.4032L0 0.829731Z" stroke="#000000" stroke-width="3" stroke-linecap="round" stroke-linejoin="round" stroke-miterlimit="10" fill="#66BFE2" fill-rule="evenodd" transform="matrix(-1 0 0 1 632.5 302.5)"/><path d="M26.27 0 55.73 0 56.3181 4.7385 61.9262 6.34542C73.7227 10.9512 82 21.7336 82 34.3004L82 98.3534C82 102.024 78.7763 105 74.7996 105L7.20042 105C3.22372 105 0 102.024 0 98.3534L0 34.3004C0 21.7336 8.27731 10.9512 20.0738 6.34542L25.6819 4.7385Z" stroke="#000000" stroke-width="3" stroke-linecap="round" stroke-linejoin="round" stroke-miterlimit="10" fill="none" fill-rule="evenodd" transform="matrix(-1 0 0 1 632.5 268.5)"/><path d="M0 2.50002C0 1.1193 1.11931 -7.32052e-16 2.50005-1.4641e-15L2.50005 0C3.88079 -7.32052e-16 5.0001 1.1193 5.0001 2.50002L5 89.5001C5 90.8808 3.88069 92.0001 2.49995 92.0001L2.50005 92C1.11931 92 0 90.8807 0 89.5Z" stroke="#000000" stroke-width="3" stroke-miterlimit="8" fill="#D9D9D9" fill-rule="evenodd" transform="matrix(-1 0 0 1 586.5 266.5)"/><path d="M0 2.5C-3.18283e-16 1.11929 1.11929 -3.18283e-16 2.5 -6.36567e-16L2.5 0C3.88071 -6.36567e-16 5 1.11929 5 2.5L5 17.5C5 18.8807 3.88071 20 2.5 20L2.5 20C1.11929 20 0 18.8807 0 17.5Z" stroke="#000000" stroke-width="3" stroke-miterlimit="8" fill="#D9D9D9" fill-rule="evenodd" transform="matrix(-1 0 0 1 602.5 266.5)"/><path d="M30.3662 0 23.7854 0 23.7854 0.028986 14.7111 0.028986 14.7111 0 8.13031 0 8.13031 0.028986 5.30994 0.028986C2.37732 0.028986 0 2.1908 0 4.85751L0 24.1715C0 26.8382 2.37732 29 5.30994 29L33.6901 29C36.6227 29 39 26.8382 39 24.1715L39 4.85751C39 2.1908 36.6227 0.028986 33.6901 0.028986L30.3662 0.028986Z" stroke="#000000" stroke-width="3" stroke-miterlimit="8" fill="#D9D9D9" fill-rule="evenodd" transform="matrix(-1 0 0 1 611.5 241.5)"/><path d="M612.488 281.901C617.118 283.578 621.074 286.669 623.77 290.716" stroke="#000000" stroke-width="3" stroke-linecap="round" stroke-miterlimit="8" fill="none" fill-rule="evenodd"/></g></svg>