<svg width="230" height="135" xmlns="http://www.w3.org/2000/svg" xmlns:xlink="http://www.w3.org/1999/xlink" xml:space="preserve" overflow="hidden"><defs><clipPath id="clip0"><rect x="2605" y="922" width="230" height="135"/></clipPath></defs><g clip-path="url(#clip0)" transform="translate(-2605 -922)"><path d="M2614.78 923.5 2825.22 923.5C2829.79 923.5 2833.5 927.229 2833.5 931.828L2833.5 953.288 2829.28 953.288C2828.55 953.288 2827.96 953.881 2827.96 954.612L2827.96 959.908C2827.96 960.639 2828.55 961.232 2829.28 961.232L2833.5 961.232 2833.5 1017.77 2829.28 1017.77C2828.55 1017.77 2827.96 1018.36 2827.96 1019.09L2827.96 1024.39C2827.96 1025.12 2828.55 1025.71 2829.28 1025.71L2833.5 1025.71 2833.5 1047.17C2833.5 1051.77 2829.79 1055.5 2825.22 1055.5L2614.78 1055.5C2610.21 1055.5 2606.5 1051.77 2606.5 1047.17L2606.5 1025.71 2611.18 1025.71C2611.91 1025.71 2612.5 1025.12 2612.5 1024.39L2612.5 1019.09C2612.5 1018.36 2611.91 1017.77 2611.18 1017.77L2606.5 1017.77 2606.5 961.232 2611.18 961.232C2611.91 961.232 2612.5 960.639 2612.5 959.908L2612.5 954.612C2612.5 953.881 2611.91 953.288 2611.18 953.288L2606.5 953.288 2606.5 931.828C2606.5 927.229 2610.21 923.5 2614.78 923.5Z" stroke="#000000" stroke-width="3" stroke-linecap="round" stroke-linejoin="round" stroke-miterlimit="10" fill="#D9D9D9" fill-rule="evenodd"/><path d="M2620.5 944.883C2620.5 944.119 2621.12 943.5 2621.88 943.5L2634.12 943.5C2634.88 943.5 2635.5 944.119 2635.5 944.883L2635.5 1034.12C2635.5 1034.88 2634.88 1035.5 2634.12 1035.5L2621.88 1035.5C2621.12 1035.5 2620.5 1034.88 2620.5 1034.12Z" stroke="#000000" stroke-width="3" stroke-miterlimit="8" fill="#7F7F7F" fill-rule="evenodd"/><path d="M2806.5 944.975C2806.5 944.16 2807.16 943.5 2807.98 943.5L2821.02 943.5C2821.84 943.5 2822.5 944.16 2822.5 944.975L2822.5 1034.02C2822.5 1034.84 2821.84 1035.5 2821.02 1035.5L2807.98 1035.5C2807.16 1035.5 2806.5 1034.84 2806.5 1034.02Z" stroke="#000000" stroke-width="3" stroke-miterlimit="8" fill="#7F7F7F" fill-rule="evenodd"/><path d="M2690.5 958.649C2690.5 956.358 2692.36 954.5 2694.65 954.5L2762.35 954.5C2764.64 954.5 2766.5 956.358 2766.5 958.649L2766.5 995.351C2766.5 997.642 2764.64 999.5 2762.35 999.5L2694.65 999.5C2692.36 999.5 2690.5 997.642 2690.5 995.351Z" stroke="#000000" stroke-width="3" stroke-miterlimit="8" fill="#FFFFFF" fill-rule="evenodd"/><path d="M2778.5 964C2778.5 959.306 2782.31 955.5 2787 955.5 2791.69 955.5 2795.5 959.306 2795.5 964 2795.5 968.694 2791.69 972.5 2787 972.5 2782.31 972.5 2778.5 968.694 2778.5 964Z" stroke="#000000" stroke-width="3" stroke-miterlimit="8" fill="#F2F2F2" fill-rule="evenodd"/><path d="M0 0 0.00015748 7.21528" stroke="#000000" stroke-width="3" stroke-linecap="round" stroke-miterlimit="8" fill="none" fill-rule="evenodd" transform="matrix(1 0 0 -1 2786.5 989.715)"/><path d="M0 0 0.00015748 7.21528" stroke="#000000" stroke-width="3" stroke-linecap="round" stroke-miterlimit="8" fill="none" fill-rule="evenodd" transform="matrix(1 0 0 -1 2786.5 1006.72)"/><path d="M2783.5 1016.67C2783.5 1016.02 2784.02 1015.5 2784.67 1015.5L2789.33 1015.5C2789.98 1015.5 2790.5 1016.02 2790.5 1016.67L2790.5 1022.33C2790.5 1022.98 2789.98 1023.5 2789.33 1023.5L2784.67 1023.5C2784.02 1023.5 2783.5 1022.98 2783.5 1022.33Z" stroke="#000000" stroke-width="3" stroke-miterlimit="8" fill="#F2F2F2" fill-rule="evenodd"/><rect x="2696.5" y="961.5" width="12" height="12" stroke="#000000" stroke-width="3" stroke-linecap="round" stroke-linejoin="round" stroke-miterlimit="10" fill="#66BFE2"/><rect x="2713.5" y="961.5" width="13" height="12" stroke="#000000" stroke-width="3" stroke-linecap="round" stroke-linejoin="round" stroke-miterlimit="10" fill="#66BFE2"/><rect x="2731.5" y="961.5" width="12" height="12" stroke="#000000" stroke-width="3" stroke-linecap="round" stroke-linejoin="round" stroke-miterlimit="10" fill="#66BFE2"/><rect x="2748.5" y="961.5" width="12" height="12" stroke="#000000" stroke-width="3" stroke-linecap="round" stroke-linejoin="round" stroke-miterlimit="10" fill="#66BFE2"/><rect x="2696.5" y="979.5" width="12" height="12" stroke="#000000" stroke-width="3" stroke-linecap="round" stroke-linejoin="round" stroke-miterlimit="10" fill="#66BFE2"/><rect x="2713.5" y="979.5" width="13" height="12" stroke="#000000" stroke-width="3" stroke-linecap="round" stroke-linejoin="round" stroke-miterlimit="10" fill="#66BFE2"/><rect x="2731.5" y="979.5" width="12" height="12" stroke="#000000" stroke-width="3" stroke-linecap="round" stroke-linejoin="round" stroke-miterlimit="10" fill="#66BFE2"/><rect x="2748.5" y="979.5" width="12" height="12" stroke="#000000" stroke-width="3" stroke-linecap="round" stroke-linejoin="round" stroke-miterlimit="10" fill="#66BFE2"/></g></svg>