<svg width="313" height="135" xmlns="http://www.w3.org/2000/svg" xmlns:xlink="http://www.w3.org/1999/xlink" xml:space="preserve" overflow="hidden"><defs><clipPath id="clip0"><rect x="2556" y="1670" width="313" height="135"/></clipPath></defs><g clip-path="url(#clip0)" transform="translate(-2556 -1670)"><path d="M2806.1 1769.88 2806.1 1787.6 2823.81 1787.6 2823.81 1769.88ZM2779.38 1769.88 2779.38 1787.6 2797.17 1787.6 2797.17 1769.88ZM2832.74 1743.17 2832.74 1760.95 2850.61 1760.95 2850.61 1743.17ZM2806.1 1743.17 2806.1 1760.95 2823.81 1760.95 2823.81 1743.17ZM2779.38 1743.17 2779.38 1760.95 2797.17 1760.95 2797.17 1743.17ZM2752.74 1743.17 2752.74 1760.95 2770.45 1760.95 2770.45 1743.17ZM2832.74 1716.52 2832.74 1734.24 2850.61 1734.24 2850.61 1716.52ZM2806.1 1716.52 2806.1 1734.24 2823.81 1734.24 2823.81 1716.52ZM2779.38 1716.52 2779.38 1734.24 2797.17 1734.24 2797.17 1716.52ZM2752.74 1716.52 2752.74 1734.24 2770.45 1734.24 2770.45 1716.52ZM2806.1 1689.73 2806.1 1707.59 2823.81 1707.59 2823.81 1689.73ZM2779.38 1689.73 2779.38 1707.59 2797.17 1707.59 2797.17 1689.73ZM2801.5 1672.5 2806.1 1672.73 2806.1 1680.8 2823.81 1680.8 2823.81 1676.51 2826.8 1677.61C2828.75 1678.43 2830.64 1679.34 2832.48 1680.35L2832.74 1680.5 2832.74 1680.8 2833.23 1680.8 2837.84 1683.6 2845.27 1689.73 2832.74 1689.73 2832.74 1707.59 2850.61 1707.59 2850.61 1695.35 2855.4 1701.16C2857.74 1704.62 2859.75 1708.31 2861.39 1712.2L2862.97 1716.52 2859.54 1716.52 2859.54 1734.24 2866.34 1734.24 2866.5 1737.5 2866.21 1743.17 2859.54 1743.17 2859.54 1760.95 2862.07 1760.95 2861.39 1762.8C2859.75 1766.69 2857.74 1770.38 2855.4 1773.84L2850.61 1779.65 2850.61 1769.88 2832.74 1769.88 2832.74 1787.6 2842.45 1787.6 2837.84 1791.4C2834.38 1793.74 2830.69 1795.75 2826.8 1797.39L2823.81 1798.49 2823.81 1796.53 2806.1 1796.53 2806.1 1802.27 2801.5 1802.5 2797.17 1802.28 2797.17 1796.53 2779.38 1796.53 2779.38 1798.56 2776.2 1797.39C2772.31 1795.75 2768.62 1793.74 2765.16 1791.4L2760.55 1787.6 2770.45 1787.6 2770.45 1769.88 2752.74 1769.88 2752.74 1780.07 2747.6 1773.84C2745.26 1770.38 2743.25 1766.69 2741.61 1762.8L2740.93 1760.95 2743.81 1760.95 2743.81 1743.17 2736.79 1743.17 2736.5 1737.5 2736.66 1734.24 2743.81 1734.24 2743.81 1716.52 2740.03 1716.52 2741.61 1712.2C2743.25 1708.31 2745.26 1704.62 2747.6 1701.16L2752.74 1694.93 2752.74 1707.59 2770.45 1707.59 2770.45 1689.73 2757.73 1689.73 2765.16 1683.6 2769.77 1680.8 2770.45 1680.8 2770.45 1680.38 2770.52 1680.35C2772.36 1679.34 2774.25 1678.43 2776.2 1677.61L2779.38 1676.44 2779.38 1680.8 2797.17 1680.8 2797.17 1672.72Z" stroke="#000000" stroke-width="3" stroke-miterlimit="8" fill="#BFBFBF" fill-rule="evenodd"/><path d="M2736.5 1737.5C2736.5 1701.6 2765.6 1672.5 2801.5 1672.5 2837.4 1672.5 2866.5 1701.6 2866.5 1737.5 2866.5 1773.4 2837.4 1802.5 2801.5 1802.5 2765.6 1802.5 2736.5 1773.4 2736.5 1737.5Z" stroke="#000000" stroke-width="3" stroke-miterlimit="8" fill="none" fill-rule="evenodd"/><path d="M4.72139 0.0617489C5.7282 0.240387 6.66458 0.803529 7.29189 1.70883 8.54651 3.51942 8.08975 6.013 6.27169 7.27838 4.45364 8.54376 1.96275 8.10178 0.708133 6.29119-0.546487 4.48058-0.0897256 1.98702 1.72833 0.721645 2.63737 0.0889555 3.7146-0.116889 4.72139 0.0617489Z" stroke="#000000" stroke-width="3" stroke-miterlimit="8" fill="#FFEB7B" fill-rule="evenodd" transform="matrix(-1 1.22465e-16 1.22465e-16 1 2793.5 1702.5)"/><path d="M4.72139 0.0617489C5.7282 0.240387 6.66458 0.803529 7.29189 1.70883 8.54651 3.51942 8.08975 6.013 6.27169 7.27838 4.45364 8.54376 1.96275 8.10178 0.708133 6.29119-0.546487 4.48058-0.0897256 1.98702 1.72833 0.721645 2.63737 0.0889555 3.7146-0.116889 4.72139 0.0617489Z" stroke="#000000" stroke-width="3" stroke-miterlimit="8" fill="#FFEB7B" fill-rule="evenodd" transform="matrix(-1 1.22465e-16 1.22465e-16 1 2811.5 1701.5)"/><path d="M4.78199 0.0624005C5.80172 0.242923 6.75012 0.812007 7.38548 1.72687 8.6562 3.55656 8.19358 6.07644 6.35219 7.35517 4.5108 8.6339 1.98794 8.18726 0.717222 6.35757-0.553501 4.52785-0.0908772 2.00799 1.75051 0.729259 2.67122 0.089894 3.76228-0.118122 4.78199 0.0624005Z" stroke="#000000" stroke-width="3" stroke-miterlimit="8" fill="#FFEB7B" fill-rule="evenodd" transform="matrix(-0.911235 -0.411887 -0.411887 0.911235 2763.47 1711.17)"/><path d="M4.78199 0.0624005C5.80172 0.242923 6.75012 0.812007 7.38548 1.72687 8.6562 3.55656 8.19358 6.07644 6.35219 7.35517 4.5108 8.6339 1.98794 8.18726 0.717222 6.35757-0.553501 4.52785-0.0908772 2.00799 1.75051 0.729259 2.67122 0.089894 3.76228-0.118122 4.78199 0.0624005Z" stroke="#000000" stroke-width="3" stroke-miterlimit="8" fill="#FFEB7B" fill-rule="evenodd" transform="matrix(-0.591762 -0.806113 -0.806113 0.591762 2778.1 1757.11)"/><path d="M9.75757 0.127328C11.8383 0.495684 13.7735 1.6569 15.07 3.52366 17.6628 7.25715 16.7189 12.399 12.9615 15.0082 9.20422 17.6175 4.05637 16.7061 1.46348 12.9726-1.12941 9.23907-0.185434 4.0973 3.57189 1.48805 5.45057 0.183429 7.67687-0.241028 9.75757 0.127328Z" stroke="#000000" stroke-width="3" stroke-miterlimit="8" fill="#FFEB7B" fill-rule="evenodd" transform="matrix(-0.911235 -0.411887 -0.411887 0.911235 2834.11 1766.64)"/><path d="M7.06926 0.0922442C8.57673 0.359104 9.97876 1.20036 10.918 2.55276 12.7965 5.25752 12.1126 8.98257 9.3905 10.8729 6.66836 12.7632 2.9388 12.1029 1.06028 9.39814-0.818245 6.69334-0.134345 2.96833 2.5878 1.07804 3.94889 0.132887 5.56181-0.174616 7.06926 0.0922442Z" stroke="#000000" stroke-width="3" stroke-miterlimit="8" fill="#FFEB7B" fill-rule="evenodd" transform="matrix(-0.911235 -0.411887 -0.411887 0.911235 2857.17 1729.19)"/><path d="M11.6301 0.15177C14.1102 0.590836 16.4168 1.97496 17.962 4.20007 21.0525 8.65023 19.9274 14.7791 15.449 17.8892 10.9706 20.9993 4.83483 19.913 1.74434 15.4628-1.34615 11.0126-0.22102 4.88382 4.25737 1.7737 6.49659 0.21864 9.15013-0.287296 11.6301 0.15177Z" stroke="#000000" stroke-width="3" stroke-miterlimit="8" fill="#FFEB7B" fill-rule="evenodd" transform="matrix(-0.911235 -0.411887 -0.411887 0.911235 2845.2 1705.63)"/><path d="M4.17425 0.0544728C5.06438 0.212061 5.89225 0.708846 6.44686 1.50747 7.55609 3.10471 7.15226 5.30446 5.54489 6.42073 3.93753 7.53701 1.7353 7.14711 0.626071 5.54987-0.483157 3.95261-0.0793277 1.75288 1.52804 0.63661 2.33173 0.0784734 3.28413-0.103115 4.17425 0.0544728Z" stroke="#000000" stroke-width="3" stroke-miterlimit="8" fill="#FFEB7B" fill-rule="evenodd" transform="matrix(-0.911235 -0.411887 -0.411887 0.911235 2826.97 1686.49)"/><path d="M7.06926 0.0922442C8.57673 0.359104 9.97876 1.20036 10.918 2.55276 12.7965 5.25752 12.1126 8.98257 9.3905 10.8729 6.66836 12.7632 2.9388 12.1029 1.06028 9.39814-0.818245 6.69334-0.134345 2.96833 2.5878 1.07804 3.94889 0.132887 5.56181-0.174616 7.06926 0.0922442Z" stroke="#000000" stroke-width="3" stroke-miterlimit="8" fill="#FFEB7B" fill-rule="evenodd" transform="matrix(-0.911235 -0.411887 -0.411887 0.911235 2812.23 1738.42)"/><path d="M8.26243 0.108061C10.0243 0.420677 11.663 1.40618 12.7608 2.99046 14.9564 6.15899 14.1571 10.5227 10.9755 12.7372 7.79387 14.9516 3.43482 14.1781 1.23923 11.0096-0.956352 7.84101-0.15702 3.47729 3.02457 1.26288 4.61539 0.155672 6.50055-0.204556 8.26243 0.108061Z" stroke="#000000" stroke-width="3" stroke-miterlimit="8" fill="#FFEB7B" fill-rule="evenodd" transform="matrix(-1 1.22465e-16 1.22465e-16 1 2805.5 1701.5)"/><path d="M9.75757 0.127328C11.8383 0.495684 13.7735 1.6569 15.07 3.52366 17.6628 7.25715 16.7189 12.399 12.9615 15.0082 9.20422 17.6175 4.05637 16.7061 1.46348 12.9726-1.12941 9.23907-0.185434 4.0973 3.57189 1.48805 5.45057 0.183429 7.67687-0.241028 9.75757 0.127328Z" stroke="#000000" stroke-width="3" stroke-miterlimit="8" fill="#FFEB7B" fill-rule="evenodd" transform="matrix(-0.911235 -0.411887 -0.411887 0.911235 2778.42 1713.98)"/><path d="M9.75757 0.127328C11.8383 0.495684 13.7735 1.6569 15.07 3.52366 17.6628 7.25715 16.7189 12.399 12.9615 15.0082 9.20422 17.6175 4.05637 16.7061 1.46348 12.9726-1.12941 9.23907-0.185434 4.0973 3.57189 1.48805 5.45057 0.183429 7.67687-0.241028 9.75757 0.127328Z" stroke="#000000" stroke-width="3" stroke-miterlimit="8" fill="#FFEB7B" fill-rule="evenodd" transform="matrix(-0.591762 -0.806113 -0.806113 0.591762 2789.75 1766.9)"/><path d="M2597.2 1715.57C2597.36 1715.35 2597.68 1715.3 2597.91 1715.47L2610.13 1724.62C2610.36 1724.79 2610.41 1725.11 2610.24 1725.34L2605.99 1731C2605.82 1731.23 2605.5 1731.27 2605.28 1731.1L2593.06 1721.95C2592.83 1721.78 2592.78 1721.46 2592.95 1721.23Z" stroke="#000000" stroke-width="3" stroke-miterlimit="8" fill="#D9D9D9" fill-rule="evenodd"/><path d="M2557.5 1733C2557.5 1732.73 2557.73 1732.5 2558 1732.5L2573 1732.5C2573.27 1732.5 2573.5 1732.73 2573.5 1733L2573.5 1740C2573.5 1740.27 2573.27 1740.5 2573 1740.5L2558 1740.5C2557.73 1740.5 2557.5 1740.27 2557.5 1740Z" stroke="#000000" stroke-width="3" stroke-miterlimit="8" fill="#D9D9D9" fill-rule="evenodd"/><path d="M2567.5 1730.38C2567.5 1729.9 2567.9 1729.5 2568.38 1729.5L2600.62 1729.5C2601.1 1729.5 2601.5 1729.9 2601.5 1730.38L2601.5 1742.62C2601.5 1743.1 2601.1 1743.5 2600.62 1743.5L2568.38 1743.5C2567.9 1743.5 2567.5 1743.1 2567.5 1742.62Z" stroke="#000000" stroke-width="3" stroke-miterlimit="8" fill="#D9D9D9" fill-rule="evenodd"/><path d="M2614.44 1717.5 2614.88 1717.56 2653.5 1717.56 2653.5 1755.5 2614.2 1755.5 2614.14 1755.42 2611.51 1755.05 2610.36 1754.49 2610.13 1754.55 2609.59 1754.13 2609.3 1753.99 2608.97 1753.64 2596.5 1743.86 2596.5 1729.21 2609.31 1719.16 2609.51 1718.95 2609.68 1718.87 2610.37 1718.32 2610.8 1718.33 2611.72 1717.89 2613.05 1717.7 2613.17 1717.56 2614 1717.56Z" stroke="#000000" stroke-width="3" stroke-miterlimit="8" fill="#D9D9D9" fill-rule="evenodd"/><path d="M2648.5 1719.65C2648.5 1718.46 2649.46 1717.5 2650.65 1717.5L2680.35 1717.5C2681.54 1717.5 2682.5 1718.46 2682.5 1719.65L2682.5 1753.35C2682.5 1754.54 2681.54 1755.5 2680.35 1755.5L2650.65 1755.5C2649.46 1755.5 2648.5 1754.54 2648.5 1753.35Z" stroke="#000000" stroke-width="3" stroke-miterlimit="8" fill="#D9D9D9" fill-rule="evenodd"/><path d="M2648.5 1714.13C2648.5 1713.78 2648.78 1713.5 2649.13 1713.5L2657.87 1713.5C2658.22 1713.5 2658.5 1713.78 2658.5 1714.13L2658.5 1759.87C2658.5 1760.22 2658.22 1760.5 2657.87 1760.5L2649.13 1760.5C2648.78 1760.5 2648.5 1760.22 2648.5 1759.87Z" stroke="#000000" stroke-width="3" stroke-miterlimit="8" fill="#D9D9D9" fill-rule="evenodd"/><path d="M4.50865e-06-1.25 40.2106-1.24986 40.2106 1.25015-4.50865e-06 1.25ZM22.6637-8.16492 43.6594 0.000157498 22.6637 8.16509C22.0202 8.4153 21.2958 8.09655 21.0456 7.45313 20.7954 6.80972 21.1141 6.08529 21.7576 5.83507L39.7576-1.16486 39.7576 1.16515 21.7576-5.83492C21.1142-6.08514 20.7954-6.80957 21.0457-7.45298 21.2959-8.0964 22.0203-8.41514 22.6637-8.16492Z" transform="matrix(-1 0 0 1 2736.16 1737.5)"/><path d="M2833.5 1705.5C2836.26 1705.5 2838.5 1707.74 2838.5 1710.5" stroke="#000000" stroke-width="3" stroke-linecap="round" stroke-miterlimit="8" fill="none" fill-rule="evenodd"/><path d="M2768 1714.5C2769.93 1714.5 2771.5 1716.07 2771.5 1718" stroke="#000000" stroke-width="3" stroke-linecap="round" stroke-miterlimit="8" fill="none" fill-rule="evenodd"/><path d="M2824 1767.5C2825.93 1767.5 2827.5 1769.07 2827.5 1771" stroke="#000000" stroke-width="3" stroke-linecap="round" stroke-miterlimit="8" fill="none" fill-rule="evenodd"/></g></svg>